%TF.GenerationSoftware,KiCad,Pcbnew,(5.1.7)-1*%
%TF.CreationDate,2021-06-20T13:46:43+02:00*%
%TF.ProjectId,Split65Right,53706c69-7436-4355-9269-6768742e6b69,rev?*%
%TF.SameCoordinates,Original*%
%TF.FileFunction,Legend,Bot*%
%TF.FilePolarity,Positive*%
%FSLAX46Y46*%
G04 Gerber Fmt 4.6, Leading zero omitted, Abs format (unit mm)*
G04 Created by KiCad (PCBNEW (5.1.7)-1) date 2021-06-20 13:46:43*
%MOMM*%
%LPD*%
G01*
G04 APERTURE LIST*
%ADD10C,0.150000*%
%ADD11C,0.200000*%
G04 APERTURE END LIST*
D10*
%TO.C,SW39*%
X57440000Y-109159000D02*
X57440000Y-109540000D01*
X48550000Y-109159000D02*
X57440000Y-109159000D01*
X46010000Y-111699000D02*
X46010000Y-112080000D01*
X46391000Y-115509000D02*
X46010000Y-115509000D01*
X49895838Y-115509000D02*
X48169000Y-115509000D01*
X57440000Y-113604000D02*
X52360000Y-113604000D01*
X57440000Y-112588000D02*
X57440000Y-113604000D01*
X46010000Y-115128000D02*
X46010000Y-115509000D01*
X49895838Y-115527960D02*
G75*
G02*
X52360000Y-113604000I2464162J-616040D01*
G01*
X46010000Y-111699000D02*
G75*
G02*
X48550000Y-109159000I2540000J0D01*
G01*
%TO.C,J2*%
X216496000Y-123204000D02*
X226656000Y-123204000D01*
X226656000Y-123204000D02*
X226656000Y-125744000D01*
X226656000Y-125744000D02*
X216496000Y-125744000D01*
X216496000Y-125744000D02*
X216496000Y-123204000D01*
D11*
%TO.C,D1*%
X184460000Y-46543000D02*
X182060000Y-46543000D01*
X184460000Y-46718000D02*
X182060000Y-46718000D01*
X184460000Y-46893000D02*
X182060000Y-46893000D01*
X182060000Y-47293000D02*
X184460000Y-47293000D01*
X184460000Y-47068000D02*
X182060000Y-47068000D01*
X184460000Y-47193000D02*
X182060000Y-47193000D01*
X184460000Y-47268000D02*
X184460000Y-41468000D01*
X184460000Y-41468000D02*
X182060000Y-41468000D01*
X182060000Y-41468000D02*
X182060000Y-47268000D01*
%TO.C,D2*%
X146380000Y-46543000D02*
X143980000Y-46543000D01*
X146380000Y-46718000D02*
X143980000Y-46718000D01*
X146380000Y-46893000D02*
X143980000Y-46893000D01*
X143980000Y-47293000D02*
X146380000Y-47293000D01*
X146380000Y-47068000D02*
X143980000Y-47068000D01*
X146380000Y-47193000D02*
X143980000Y-47193000D01*
X146380000Y-47268000D02*
X146380000Y-41468000D01*
X146380000Y-41468000D02*
X143980000Y-41468000D01*
X143980000Y-41468000D02*
X143980000Y-47268000D01*
%TO.C,D3*%
X127340000Y-46543000D02*
X124940000Y-46543000D01*
X127340000Y-46718000D02*
X124940000Y-46718000D01*
X127340000Y-46893000D02*
X124940000Y-46893000D01*
X124940000Y-47293000D02*
X127340000Y-47293000D01*
X127340000Y-47068000D02*
X124940000Y-47068000D01*
X127340000Y-47193000D02*
X124940000Y-47193000D01*
X127340000Y-47268000D02*
X127340000Y-41468000D01*
X127340000Y-41468000D02*
X124940000Y-41468000D01*
X124940000Y-41468000D02*
X124940000Y-47268000D01*
%TO.C,D4*%
X108300000Y-46543000D02*
X105900000Y-46543000D01*
X108300000Y-46718000D02*
X105900000Y-46718000D01*
X108300000Y-46893000D02*
X105900000Y-46893000D01*
X105900000Y-47293000D02*
X108300000Y-47293000D01*
X108300000Y-47068000D02*
X105900000Y-47068000D01*
X108300000Y-47193000D02*
X105900000Y-47193000D01*
X108300000Y-47268000D02*
X108300000Y-41468000D01*
X108300000Y-41468000D02*
X105900000Y-41468000D01*
X105900000Y-41468000D02*
X105900000Y-47268000D01*
%TO.C,D5*%
X89260000Y-46543000D02*
X86860000Y-46543000D01*
X89260000Y-46718000D02*
X86860000Y-46718000D01*
X89260000Y-46893000D02*
X86860000Y-46893000D01*
X86860000Y-47293000D02*
X89260000Y-47293000D01*
X89260000Y-47068000D02*
X86860000Y-47068000D01*
X89260000Y-47193000D02*
X86860000Y-47193000D01*
X89260000Y-47268000D02*
X89260000Y-41468000D01*
X89260000Y-41468000D02*
X86860000Y-41468000D01*
X86860000Y-41468000D02*
X86860000Y-47268000D01*
%TO.C,D6*%
X70220000Y-46543000D02*
X67820000Y-46543000D01*
X70220000Y-46718000D02*
X67820000Y-46718000D01*
X70220000Y-46893000D02*
X67820000Y-46893000D01*
X67820000Y-47293000D02*
X70220000Y-47293000D01*
X70220000Y-47068000D02*
X67820000Y-47068000D01*
X70220000Y-47193000D02*
X67820000Y-47193000D01*
X70220000Y-47268000D02*
X70220000Y-41468000D01*
X70220000Y-41468000D02*
X67820000Y-41468000D01*
X67820000Y-41468000D02*
X67820000Y-47268000D01*
%TO.C,D7*%
X51180000Y-46543000D02*
X48780000Y-46543000D01*
X51180000Y-46718000D02*
X48780000Y-46718000D01*
X51180000Y-46893000D02*
X48780000Y-46893000D01*
X48780000Y-47293000D02*
X51180000Y-47293000D01*
X51180000Y-47068000D02*
X48780000Y-47068000D01*
X51180000Y-47193000D02*
X48780000Y-47193000D01*
X51180000Y-47268000D02*
X51180000Y-41468000D01*
X51180000Y-41468000D02*
X48780000Y-41468000D01*
X48780000Y-41468000D02*
X48780000Y-47268000D01*
%TO.C,D8*%
X33806000Y-46543000D02*
X31406000Y-46543000D01*
X33806000Y-46718000D02*
X31406000Y-46718000D01*
X33806000Y-46893000D02*
X31406000Y-46893000D01*
X31406000Y-47293000D02*
X33806000Y-47293000D01*
X33806000Y-47068000D02*
X31406000Y-47068000D01*
X33806000Y-47193000D02*
X31406000Y-47193000D01*
X33806000Y-47268000D02*
X33806000Y-41468000D01*
X33806000Y-41468000D02*
X31406000Y-41468000D01*
X31406000Y-41468000D02*
X31406000Y-47268000D01*
%TO.C,D9*%
X185412000Y-65583000D02*
X183012000Y-65583000D01*
X185412000Y-65758000D02*
X183012000Y-65758000D01*
X185412000Y-65933000D02*
X183012000Y-65933000D01*
X183012000Y-66333000D02*
X185412000Y-66333000D01*
X185412000Y-66108000D02*
X183012000Y-66108000D01*
X185412000Y-66233000D02*
X183012000Y-66233000D01*
X185412000Y-66308000D02*
X185412000Y-60508000D01*
X185412000Y-60508000D02*
X183012000Y-60508000D01*
X183012000Y-60508000D02*
X183012000Y-66308000D01*
%TO.C,D10*%
X136860000Y-65583000D02*
X134460000Y-65583000D01*
X136860000Y-65758000D02*
X134460000Y-65758000D01*
X136860000Y-65933000D02*
X134460000Y-65933000D01*
X134460000Y-66333000D02*
X136860000Y-66333000D01*
X136860000Y-66108000D02*
X134460000Y-66108000D01*
X136860000Y-66233000D02*
X134460000Y-66233000D01*
X136860000Y-66308000D02*
X136860000Y-60508000D01*
X136860000Y-60508000D02*
X134460000Y-60508000D01*
X134460000Y-60508000D02*
X134460000Y-66308000D01*
%TO.C,D11*%
X117820000Y-65583000D02*
X115420000Y-65583000D01*
X117820000Y-65758000D02*
X115420000Y-65758000D01*
X117820000Y-65933000D02*
X115420000Y-65933000D01*
X115420000Y-66333000D02*
X117820000Y-66333000D01*
X117820000Y-66108000D02*
X115420000Y-66108000D01*
X117820000Y-66233000D02*
X115420000Y-66233000D01*
X117820000Y-66308000D02*
X117820000Y-60508000D01*
X117820000Y-60508000D02*
X115420000Y-60508000D01*
X115420000Y-60508000D02*
X115420000Y-66308000D01*
%TO.C,D12*%
X98780000Y-65583000D02*
X96380000Y-65583000D01*
X98780000Y-65758000D02*
X96380000Y-65758000D01*
X98780000Y-65933000D02*
X96380000Y-65933000D01*
X96380000Y-66333000D02*
X98780000Y-66333000D01*
X98780000Y-66108000D02*
X96380000Y-66108000D01*
X98780000Y-66233000D02*
X96380000Y-66233000D01*
X98780000Y-66308000D02*
X98780000Y-60508000D01*
X98780000Y-60508000D02*
X96380000Y-60508000D01*
X96380000Y-60508000D02*
X96380000Y-66308000D01*
%TO.C,D13*%
X79740000Y-65583000D02*
X77340000Y-65583000D01*
X79740000Y-65758000D02*
X77340000Y-65758000D01*
X79740000Y-65933000D02*
X77340000Y-65933000D01*
X77340000Y-66333000D02*
X79740000Y-66333000D01*
X79740000Y-66108000D02*
X77340000Y-66108000D01*
X79740000Y-66233000D02*
X77340000Y-66233000D01*
X79740000Y-66308000D02*
X79740000Y-60508000D01*
X79740000Y-60508000D02*
X77340000Y-60508000D01*
X77340000Y-60508000D02*
X77340000Y-66308000D01*
%TO.C,D14*%
X60700000Y-65583000D02*
X58300000Y-65583000D01*
X60700000Y-65758000D02*
X58300000Y-65758000D01*
X60700000Y-65933000D02*
X58300000Y-65933000D01*
X58300000Y-66333000D02*
X60700000Y-66333000D01*
X60700000Y-66108000D02*
X58300000Y-66108000D01*
X60700000Y-66233000D02*
X58300000Y-66233000D01*
X60700000Y-66308000D02*
X60700000Y-60508000D01*
X60700000Y-60508000D02*
X58300000Y-60508000D01*
X58300000Y-60508000D02*
X58300000Y-66308000D01*
%TO.C,D15*%
X41660000Y-65583000D02*
X39260000Y-65583000D01*
X41660000Y-65758000D02*
X39260000Y-65758000D01*
X41660000Y-65933000D02*
X39260000Y-65933000D01*
X39260000Y-66333000D02*
X41660000Y-66333000D01*
X41660000Y-66108000D02*
X39260000Y-66108000D01*
X41660000Y-66233000D02*
X39260000Y-66233000D01*
X41660000Y-66308000D02*
X41660000Y-60508000D01*
X41660000Y-60508000D02*
X39260000Y-60508000D01*
X39260000Y-60508000D02*
X39260000Y-66308000D01*
%TO.C,D16*%
X24286000Y-65583000D02*
X21886000Y-65583000D01*
X24286000Y-65758000D02*
X21886000Y-65758000D01*
X24286000Y-65933000D02*
X21886000Y-65933000D01*
X21886000Y-66333000D02*
X24286000Y-66333000D01*
X24286000Y-66108000D02*
X21886000Y-66108000D01*
X24286000Y-66233000D02*
X21886000Y-66233000D01*
X24286000Y-66308000D02*
X24286000Y-60508000D01*
X24286000Y-60508000D02*
X21886000Y-60508000D01*
X21886000Y-60508000D02*
X21886000Y-66308000D01*
%TO.C,D17*%
X185412000Y-84623000D02*
X183012000Y-84623000D01*
X185412000Y-84798000D02*
X183012000Y-84798000D01*
X185412000Y-84973000D02*
X183012000Y-84973000D01*
X183012000Y-85373000D02*
X185412000Y-85373000D01*
X185412000Y-85148000D02*
X183012000Y-85148000D01*
X185412000Y-85273000D02*
X183012000Y-85273000D01*
X185412000Y-85348000D02*
X185412000Y-79548000D01*
X185412000Y-79548000D02*
X183012000Y-79548000D01*
X183012000Y-79548000D02*
X183012000Y-85348000D01*
%TO.C,D18*%
X160660000Y-84623000D02*
X158260000Y-84623000D01*
X160660000Y-84798000D02*
X158260000Y-84798000D01*
X160660000Y-84973000D02*
X158260000Y-84973000D01*
X158260000Y-85373000D02*
X160660000Y-85373000D01*
X160660000Y-85148000D02*
X158260000Y-85148000D01*
X160660000Y-85273000D02*
X158260000Y-85273000D01*
X160660000Y-85348000D02*
X160660000Y-79548000D01*
X160660000Y-79548000D02*
X158260000Y-79548000D01*
X158260000Y-79548000D02*
X158260000Y-85348000D01*
%TO.C,D19*%
X141620000Y-84623000D02*
X139220000Y-84623000D01*
X141620000Y-84798000D02*
X139220000Y-84798000D01*
X141620000Y-84973000D02*
X139220000Y-84973000D01*
X139220000Y-85373000D02*
X141620000Y-85373000D01*
X141620000Y-85148000D02*
X139220000Y-85148000D01*
X141620000Y-85273000D02*
X139220000Y-85273000D01*
X141620000Y-85348000D02*
X141620000Y-79548000D01*
X141620000Y-79548000D02*
X139220000Y-79548000D01*
X139220000Y-79548000D02*
X139220000Y-85348000D01*
%TO.C,D20*%
X122580000Y-84623000D02*
X120180000Y-84623000D01*
X122580000Y-84798000D02*
X120180000Y-84798000D01*
X122580000Y-84973000D02*
X120180000Y-84973000D01*
X120180000Y-85373000D02*
X122580000Y-85373000D01*
X122580000Y-85148000D02*
X120180000Y-85148000D01*
X122580000Y-85273000D02*
X120180000Y-85273000D01*
X122580000Y-85348000D02*
X122580000Y-79548000D01*
X122580000Y-79548000D02*
X120180000Y-79548000D01*
X120180000Y-79548000D02*
X120180000Y-85348000D01*
%TO.C,D21*%
X103540000Y-84623000D02*
X101140000Y-84623000D01*
X103540000Y-84798000D02*
X101140000Y-84798000D01*
X103540000Y-84973000D02*
X101140000Y-84973000D01*
X101140000Y-85373000D02*
X103540000Y-85373000D01*
X103540000Y-85148000D02*
X101140000Y-85148000D01*
X103540000Y-85273000D02*
X101140000Y-85273000D01*
X103540000Y-85348000D02*
X103540000Y-79548000D01*
X103540000Y-79548000D02*
X101140000Y-79548000D01*
X101140000Y-79548000D02*
X101140000Y-85348000D01*
%TO.C,D22*%
X84500000Y-84623000D02*
X82100000Y-84623000D01*
X84500000Y-84798000D02*
X82100000Y-84798000D01*
X84500000Y-84973000D02*
X82100000Y-84973000D01*
X82100000Y-85373000D02*
X84500000Y-85373000D01*
X84500000Y-85148000D02*
X82100000Y-85148000D01*
X84500000Y-85273000D02*
X82100000Y-85273000D01*
X84500000Y-85348000D02*
X84500000Y-79548000D01*
X84500000Y-79548000D02*
X82100000Y-79548000D01*
X82100000Y-79548000D02*
X82100000Y-85348000D01*
%TO.C,D23*%
X65460000Y-84623000D02*
X63060000Y-84623000D01*
X65460000Y-84798000D02*
X63060000Y-84798000D01*
X65460000Y-84973000D02*
X63060000Y-84973000D01*
X63060000Y-85373000D02*
X65460000Y-85373000D01*
X65460000Y-85148000D02*
X63060000Y-85148000D01*
X65460000Y-85273000D02*
X63060000Y-85273000D01*
X65460000Y-85348000D02*
X65460000Y-79548000D01*
X65460000Y-79548000D02*
X63060000Y-79548000D01*
X63060000Y-79548000D02*
X63060000Y-85348000D01*
%TO.C,D24*%
X46420000Y-84623000D02*
X44020000Y-84623000D01*
X46420000Y-84798000D02*
X44020000Y-84798000D01*
X46420000Y-84973000D02*
X44020000Y-84973000D01*
X44020000Y-85373000D02*
X46420000Y-85373000D01*
X46420000Y-85148000D02*
X44020000Y-85148000D01*
X46420000Y-85273000D02*
X44020000Y-85273000D01*
X46420000Y-85348000D02*
X46420000Y-79548000D01*
X46420000Y-79548000D02*
X44020000Y-79548000D01*
X44020000Y-79548000D02*
X44020000Y-85348000D01*
%TO.C,D25*%
X184460000Y-103663000D02*
X182060000Y-103663000D01*
X184460000Y-103838000D02*
X182060000Y-103838000D01*
X184460000Y-104013000D02*
X182060000Y-104013000D01*
X182060000Y-104413000D02*
X184460000Y-104413000D01*
X184460000Y-104188000D02*
X182060000Y-104188000D01*
X184460000Y-104313000D02*
X182060000Y-104313000D01*
X184460000Y-104388000D02*
X184460000Y-98588000D01*
X184460000Y-98588000D02*
X182060000Y-98588000D01*
X182060000Y-98588000D02*
X182060000Y-104388000D01*
%TO.C,D26*%
X165420000Y-103663000D02*
X163020000Y-103663000D01*
X165420000Y-103838000D02*
X163020000Y-103838000D01*
X165420000Y-104013000D02*
X163020000Y-104013000D01*
X163020000Y-104413000D02*
X165420000Y-104413000D01*
X165420000Y-104188000D02*
X163020000Y-104188000D01*
X165420000Y-104313000D02*
X163020000Y-104313000D01*
X165420000Y-104388000D02*
X165420000Y-98588000D01*
X165420000Y-98588000D02*
X163020000Y-98588000D01*
X163020000Y-98588000D02*
X163020000Y-104388000D01*
%TO.C,D27*%
X132100000Y-103663000D02*
X129700000Y-103663000D01*
X132100000Y-103838000D02*
X129700000Y-103838000D01*
X132100000Y-104013000D02*
X129700000Y-104013000D01*
X129700000Y-104413000D02*
X132100000Y-104413000D01*
X132100000Y-104188000D02*
X129700000Y-104188000D01*
X132100000Y-104313000D02*
X129700000Y-104313000D01*
X132100000Y-104388000D02*
X132100000Y-98588000D01*
X132100000Y-98588000D02*
X129700000Y-98588000D01*
X129700000Y-98588000D02*
X129700000Y-104388000D01*
%TO.C,D28*%
X113060000Y-103663000D02*
X110660000Y-103663000D01*
X113060000Y-103838000D02*
X110660000Y-103838000D01*
X113060000Y-104013000D02*
X110660000Y-104013000D01*
X110660000Y-104413000D02*
X113060000Y-104413000D01*
X113060000Y-104188000D02*
X110660000Y-104188000D01*
X113060000Y-104313000D02*
X110660000Y-104313000D01*
X113060000Y-104388000D02*
X113060000Y-98588000D01*
X113060000Y-98588000D02*
X110660000Y-98588000D01*
X110660000Y-98588000D02*
X110660000Y-104388000D01*
%TO.C,D29*%
X94020000Y-103663000D02*
X91620000Y-103663000D01*
X94020000Y-103838000D02*
X91620000Y-103838000D01*
X94020000Y-104013000D02*
X91620000Y-104013000D01*
X91620000Y-104413000D02*
X94020000Y-104413000D01*
X94020000Y-104188000D02*
X91620000Y-104188000D01*
X94020000Y-104313000D02*
X91620000Y-104313000D01*
X94020000Y-104388000D02*
X94020000Y-98588000D01*
X94020000Y-98588000D02*
X91620000Y-98588000D01*
X91620000Y-98588000D02*
X91620000Y-104388000D01*
%TO.C,D30*%
X74980000Y-103663000D02*
X72580000Y-103663000D01*
X74980000Y-103838000D02*
X72580000Y-103838000D01*
X74980000Y-104013000D02*
X72580000Y-104013000D01*
X72580000Y-104413000D02*
X74980000Y-104413000D01*
X74980000Y-104188000D02*
X72580000Y-104188000D01*
X74980000Y-104313000D02*
X72580000Y-104313000D01*
X74980000Y-104388000D02*
X74980000Y-98588000D01*
X74980000Y-98588000D02*
X72580000Y-98588000D01*
X72580000Y-98588000D02*
X72580000Y-104388000D01*
%TO.C,D31*%
X55940000Y-103663000D02*
X53540000Y-103663000D01*
X55940000Y-103838000D02*
X53540000Y-103838000D01*
X55940000Y-104013000D02*
X53540000Y-104013000D01*
X53540000Y-104413000D02*
X55940000Y-104413000D01*
X55940000Y-104188000D02*
X53540000Y-104188000D01*
X55940000Y-104313000D02*
X53540000Y-104313000D01*
X55940000Y-104388000D02*
X55940000Y-98588000D01*
X55940000Y-98588000D02*
X53540000Y-98588000D01*
X53540000Y-98588000D02*
X53540000Y-104388000D01*
%TO.C,D32*%
X38566000Y-103663000D02*
X36166000Y-103663000D01*
X38566000Y-103838000D02*
X36166000Y-103838000D01*
X38566000Y-104013000D02*
X36166000Y-104013000D01*
X36166000Y-104413000D02*
X38566000Y-104413000D01*
X38566000Y-104188000D02*
X36166000Y-104188000D01*
X38566000Y-104313000D02*
X36166000Y-104313000D01*
X38566000Y-104388000D02*
X38566000Y-98588000D01*
X38566000Y-98588000D02*
X36166000Y-98588000D01*
X36166000Y-98588000D02*
X36166000Y-104388000D01*
%TO.C,D33*%
X184460000Y-122703000D02*
X182060000Y-122703000D01*
X184460000Y-122878000D02*
X182060000Y-122878000D01*
X184460000Y-123053000D02*
X182060000Y-123053000D01*
X182060000Y-123453000D02*
X184460000Y-123453000D01*
X184460000Y-123228000D02*
X182060000Y-123228000D01*
X184460000Y-123353000D02*
X182060000Y-123353000D01*
X184460000Y-123428000D02*
X184460000Y-117628000D01*
X184460000Y-117628000D02*
X182060000Y-117628000D01*
X182060000Y-117628000D02*
X182060000Y-123428000D01*
%TO.C,D34*%
X165420000Y-122703000D02*
X163020000Y-122703000D01*
X165420000Y-122878000D02*
X163020000Y-122878000D01*
X165420000Y-123053000D02*
X163020000Y-123053000D01*
X163020000Y-123453000D02*
X165420000Y-123453000D01*
X165420000Y-123228000D02*
X163020000Y-123228000D01*
X165420000Y-123353000D02*
X163020000Y-123353000D01*
X165420000Y-123428000D02*
X165420000Y-117628000D01*
X165420000Y-117628000D02*
X163020000Y-117628000D01*
X163020000Y-117628000D02*
X163020000Y-123428000D01*
%TO.C,D35*%
X146380000Y-122703000D02*
X143980000Y-122703000D01*
X146380000Y-122878000D02*
X143980000Y-122878000D01*
X146380000Y-123053000D02*
X143980000Y-123053000D01*
X143980000Y-123453000D02*
X146380000Y-123453000D01*
X146380000Y-123228000D02*
X143980000Y-123228000D01*
X146380000Y-123353000D02*
X143980000Y-123353000D01*
X146380000Y-123428000D02*
X146380000Y-117628000D01*
X146380000Y-117628000D02*
X143980000Y-117628000D01*
X143980000Y-117628000D02*
X143980000Y-123428000D01*
%TO.C,D36*%
X113060000Y-122703000D02*
X110660000Y-122703000D01*
X113060000Y-122878000D02*
X110660000Y-122878000D01*
X113060000Y-123053000D02*
X110660000Y-123053000D01*
X110660000Y-123453000D02*
X113060000Y-123453000D01*
X113060000Y-123228000D02*
X110660000Y-123228000D01*
X113060000Y-123353000D02*
X110660000Y-123353000D01*
X113060000Y-123428000D02*
X113060000Y-117628000D01*
X113060000Y-117628000D02*
X110660000Y-117628000D01*
X110660000Y-117628000D02*
X110660000Y-123428000D01*
%TO.C,D37*%
X94020000Y-122703000D02*
X91620000Y-122703000D01*
X94020000Y-122878000D02*
X91620000Y-122878000D01*
X94020000Y-123053000D02*
X91620000Y-123053000D01*
X91620000Y-123453000D02*
X94020000Y-123453000D01*
X94020000Y-123228000D02*
X91620000Y-123228000D01*
X94020000Y-123353000D02*
X91620000Y-123353000D01*
X94020000Y-123428000D02*
X94020000Y-117628000D01*
X94020000Y-117628000D02*
X91620000Y-117628000D01*
X91620000Y-117628000D02*
X91620000Y-123428000D01*
%TO.C,D38*%
X74980000Y-122703000D02*
X72580000Y-122703000D01*
X74980000Y-122878000D02*
X72580000Y-122878000D01*
X74980000Y-123053000D02*
X72580000Y-123053000D01*
X72580000Y-123453000D02*
X74980000Y-123453000D01*
X74980000Y-123228000D02*
X72580000Y-123228000D01*
X74980000Y-123353000D02*
X72580000Y-123353000D01*
X74980000Y-123428000D02*
X74980000Y-117628000D01*
X74980000Y-117628000D02*
X72580000Y-117628000D01*
X72580000Y-117628000D02*
X72580000Y-123428000D01*
%TO.C,D39*%
X35234000Y-122465000D02*
X32834000Y-122465000D01*
X35234000Y-122640000D02*
X32834000Y-122640000D01*
X35234000Y-122815000D02*
X32834000Y-122815000D01*
X32834000Y-123215000D02*
X35234000Y-123215000D01*
X35234000Y-122990000D02*
X32834000Y-122990000D01*
X35234000Y-123115000D02*
X32834000Y-123115000D01*
X35234000Y-123190000D02*
X35234000Y-117390000D01*
X35234000Y-117390000D02*
X32834000Y-117390000D01*
X32834000Y-117390000D02*
X32834000Y-123190000D01*
%TO.C,D40*%
X29046000Y-84623000D02*
X26646000Y-84623000D01*
X29046000Y-84798000D02*
X26646000Y-84798000D01*
X29046000Y-84973000D02*
X26646000Y-84973000D01*
X26646000Y-85373000D02*
X29046000Y-85373000D01*
X29046000Y-85148000D02*
X26646000Y-85148000D01*
X29046000Y-85273000D02*
X26646000Y-85273000D01*
X29046000Y-85348000D02*
X29046000Y-79548000D01*
X29046000Y-79548000D02*
X26646000Y-79548000D01*
X26646000Y-79548000D02*
X26646000Y-85348000D01*
D10*
%TO.C,SW1*%
X197860000Y-32999000D02*
X197860000Y-33380000D01*
X188970000Y-32999000D02*
X197860000Y-32999000D01*
X186430000Y-35539000D02*
X186430000Y-35920000D01*
X186811000Y-39349000D02*
X186430000Y-39349000D01*
X190315838Y-39349000D02*
X188589000Y-39349000D01*
X197860000Y-37444000D02*
X192780000Y-37444000D01*
X197860000Y-36428000D02*
X197860000Y-37444000D01*
X186430000Y-38968000D02*
X186430000Y-39349000D01*
X190315838Y-39367960D02*
G75*
G02*
X192780000Y-37444000I2464162J-616040D01*
G01*
X186430000Y-35539000D02*
G75*
G02*
X188970000Y-32999000I2540000J0D01*
G01*
%TO.C,SW2*%
X169300000Y-32999000D02*
X169300000Y-33380000D01*
X160410000Y-32999000D02*
X169300000Y-32999000D01*
X157870000Y-35539000D02*
X157870000Y-35920000D01*
X158251000Y-39349000D02*
X157870000Y-39349000D01*
X161755838Y-39349000D02*
X160029000Y-39349000D01*
X169300000Y-37444000D02*
X164220000Y-37444000D01*
X169300000Y-36428000D02*
X169300000Y-37444000D01*
X157870000Y-38968000D02*
X157870000Y-39349000D01*
X161755838Y-39367960D02*
G75*
G02*
X164220000Y-37444000I2464162J-616040D01*
G01*
X157870000Y-35539000D02*
G75*
G02*
X160410000Y-32999000I2540000J0D01*
G01*
%TO.C,SW3*%
X140740000Y-32999000D02*
X140740000Y-33380000D01*
X131850000Y-32999000D02*
X140740000Y-32999000D01*
X129310000Y-35539000D02*
X129310000Y-35920000D01*
X129691000Y-39349000D02*
X129310000Y-39349000D01*
X133195838Y-39349000D02*
X131469000Y-39349000D01*
X140740000Y-37444000D02*
X135660000Y-37444000D01*
X140740000Y-36428000D02*
X140740000Y-37444000D01*
X129310000Y-38968000D02*
X129310000Y-39349000D01*
X133195838Y-39367960D02*
G75*
G02*
X135660000Y-37444000I2464162J-616040D01*
G01*
X129310000Y-35539000D02*
G75*
G02*
X131850000Y-32999000I2540000J0D01*
G01*
%TO.C,SW4*%
X121700000Y-32999000D02*
X121700000Y-33380000D01*
X112810000Y-32999000D02*
X121700000Y-32999000D01*
X110270000Y-35539000D02*
X110270000Y-35920000D01*
X110651000Y-39349000D02*
X110270000Y-39349000D01*
X114155838Y-39349000D02*
X112429000Y-39349000D01*
X121700000Y-37444000D02*
X116620000Y-37444000D01*
X121700000Y-36428000D02*
X121700000Y-37444000D01*
X110270000Y-38968000D02*
X110270000Y-39349000D01*
X114155838Y-39367960D02*
G75*
G02*
X116620000Y-37444000I2464162J-616040D01*
G01*
X110270000Y-35539000D02*
G75*
G02*
X112810000Y-32999000I2540000J0D01*
G01*
%TO.C,SW5*%
X102660000Y-32999000D02*
X102660000Y-33380000D01*
X93770000Y-32999000D02*
X102660000Y-32999000D01*
X91230000Y-35539000D02*
X91230000Y-35920000D01*
X91611000Y-39349000D02*
X91230000Y-39349000D01*
X95115838Y-39349000D02*
X93389000Y-39349000D01*
X102660000Y-37444000D02*
X97580000Y-37444000D01*
X102660000Y-36428000D02*
X102660000Y-37444000D01*
X91230000Y-38968000D02*
X91230000Y-39349000D01*
X95115838Y-39367960D02*
G75*
G02*
X97580000Y-37444000I2464162J-616040D01*
G01*
X91230000Y-35539000D02*
G75*
G02*
X93770000Y-32999000I2540000J0D01*
G01*
%TO.C,SW6*%
X83620000Y-32999000D02*
X83620000Y-33380000D01*
X74730000Y-32999000D02*
X83620000Y-32999000D01*
X72190000Y-35539000D02*
X72190000Y-35920000D01*
X72571000Y-39349000D02*
X72190000Y-39349000D01*
X76075838Y-39349000D02*
X74349000Y-39349000D01*
X83620000Y-37444000D02*
X78540000Y-37444000D01*
X83620000Y-36428000D02*
X83620000Y-37444000D01*
X72190000Y-38968000D02*
X72190000Y-39349000D01*
X76075838Y-39367960D02*
G75*
G02*
X78540000Y-37444000I2464162J-616040D01*
G01*
X72190000Y-35539000D02*
G75*
G02*
X74730000Y-32999000I2540000J0D01*
G01*
%TO.C,SW7*%
X64580000Y-32999000D02*
X64580000Y-33380000D01*
X55690000Y-32999000D02*
X64580000Y-32999000D01*
X53150000Y-35539000D02*
X53150000Y-35920000D01*
X53531000Y-39349000D02*
X53150000Y-39349000D01*
X57035838Y-39349000D02*
X55309000Y-39349000D01*
X64580000Y-37444000D02*
X59500000Y-37444000D01*
X64580000Y-36428000D02*
X64580000Y-37444000D01*
X53150000Y-38968000D02*
X53150000Y-39349000D01*
X57035838Y-39367960D02*
G75*
G02*
X59500000Y-37444000I2464162J-616040D01*
G01*
X53150000Y-35539000D02*
G75*
G02*
X55690000Y-32999000I2540000J0D01*
G01*
%TO.C,SW8*%
X45540000Y-32999000D02*
X45540000Y-33380000D01*
X36650000Y-32999000D02*
X45540000Y-32999000D01*
X34110000Y-35539000D02*
X34110000Y-35920000D01*
X34491000Y-39349000D02*
X34110000Y-39349000D01*
X37995838Y-39349000D02*
X36269000Y-39349000D01*
X45540000Y-37444000D02*
X40460000Y-37444000D01*
X45540000Y-36428000D02*
X45540000Y-37444000D01*
X34110000Y-38968000D02*
X34110000Y-39349000D01*
X37995838Y-39367960D02*
G75*
G02*
X40460000Y-37444000I2464162J-616040D01*
G01*
X34110000Y-35539000D02*
G75*
G02*
X36650000Y-32999000I2540000J0D01*
G01*
%TO.C,SW9*%
X197860000Y-52039000D02*
X197860000Y-52420000D01*
X188970000Y-52039000D02*
X197860000Y-52039000D01*
X186430000Y-54579000D02*
X186430000Y-54960000D01*
X186811000Y-58389000D02*
X186430000Y-58389000D01*
X190315838Y-58389000D02*
X188589000Y-58389000D01*
X197860000Y-56484000D02*
X192780000Y-56484000D01*
X197860000Y-55468000D02*
X197860000Y-56484000D01*
X186430000Y-58008000D02*
X186430000Y-58389000D01*
X190315838Y-58407960D02*
G75*
G02*
X192780000Y-56484000I2464162J-616040D01*
G01*
X186430000Y-54579000D02*
G75*
G02*
X188970000Y-52039000I2540000J0D01*
G01*
%TO.C,SW10*%
X150260000Y-52039000D02*
X150260000Y-52420000D01*
X141370000Y-52039000D02*
X150260000Y-52039000D01*
X138830000Y-54579000D02*
X138830000Y-54960000D01*
X139211000Y-58389000D02*
X138830000Y-58389000D01*
X142715838Y-58389000D02*
X140989000Y-58389000D01*
X150260000Y-56484000D02*
X145180000Y-56484000D01*
X150260000Y-55468000D02*
X150260000Y-56484000D01*
X138830000Y-58008000D02*
X138830000Y-58389000D01*
X142715838Y-58407960D02*
G75*
G02*
X145180000Y-56484000I2464162J-616040D01*
G01*
X138830000Y-54579000D02*
G75*
G02*
X141370000Y-52039000I2540000J0D01*
G01*
%TO.C,SW11*%
X131220000Y-52039000D02*
X131220000Y-52420000D01*
X122330000Y-52039000D02*
X131220000Y-52039000D01*
X119790000Y-54579000D02*
X119790000Y-54960000D01*
X120171000Y-58389000D02*
X119790000Y-58389000D01*
X123675838Y-58389000D02*
X121949000Y-58389000D01*
X131220000Y-56484000D02*
X126140000Y-56484000D01*
X131220000Y-55468000D02*
X131220000Y-56484000D01*
X119790000Y-58008000D02*
X119790000Y-58389000D01*
X123675838Y-58407960D02*
G75*
G02*
X126140000Y-56484000I2464162J-616040D01*
G01*
X119790000Y-54579000D02*
G75*
G02*
X122330000Y-52039000I2540000J0D01*
G01*
%TO.C,SW12*%
X112180000Y-52039000D02*
X112180000Y-52420000D01*
X103290000Y-52039000D02*
X112180000Y-52039000D01*
X100750000Y-54579000D02*
X100750000Y-54960000D01*
X101131000Y-58389000D02*
X100750000Y-58389000D01*
X104635838Y-58389000D02*
X102909000Y-58389000D01*
X112180000Y-56484000D02*
X107100000Y-56484000D01*
X112180000Y-55468000D02*
X112180000Y-56484000D01*
X100750000Y-58008000D02*
X100750000Y-58389000D01*
X104635838Y-58407960D02*
G75*
G02*
X107100000Y-56484000I2464162J-616040D01*
G01*
X100750000Y-54579000D02*
G75*
G02*
X103290000Y-52039000I2540000J0D01*
G01*
%TO.C,SW13*%
X93140000Y-52039000D02*
X93140000Y-52420000D01*
X84250000Y-52039000D02*
X93140000Y-52039000D01*
X81710000Y-54579000D02*
X81710000Y-54960000D01*
X82091000Y-58389000D02*
X81710000Y-58389000D01*
X85595838Y-58389000D02*
X83869000Y-58389000D01*
X93140000Y-56484000D02*
X88060000Y-56484000D01*
X93140000Y-55468000D02*
X93140000Y-56484000D01*
X81710000Y-58008000D02*
X81710000Y-58389000D01*
X85595838Y-58407960D02*
G75*
G02*
X88060000Y-56484000I2464162J-616040D01*
G01*
X81710000Y-54579000D02*
G75*
G02*
X84250000Y-52039000I2540000J0D01*
G01*
%TO.C,SW14*%
X74100000Y-52039000D02*
X74100000Y-52420000D01*
X65210000Y-52039000D02*
X74100000Y-52039000D01*
X62670000Y-54579000D02*
X62670000Y-54960000D01*
X63051000Y-58389000D02*
X62670000Y-58389000D01*
X66555838Y-58389000D02*
X64829000Y-58389000D01*
X74100000Y-56484000D02*
X69020000Y-56484000D01*
X74100000Y-55468000D02*
X74100000Y-56484000D01*
X62670000Y-58008000D02*
X62670000Y-58389000D01*
X66555838Y-58407960D02*
G75*
G02*
X69020000Y-56484000I2464162J-616040D01*
G01*
X62670000Y-54579000D02*
G75*
G02*
X65210000Y-52039000I2540000J0D01*
G01*
%TO.C,SW15*%
X55060000Y-52039000D02*
X55060000Y-52420000D01*
X46170000Y-52039000D02*
X55060000Y-52039000D01*
X43630000Y-54579000D02*
X43630000Y-54960000D01*
X44011000Y-58389000D02*
X43630000Y-58389000D01*
X47515838Y-58389000D02*
X45789000Y-58389000D01*
X55060000Y-56484000D02*
X49980000Y-56484000D01*
X55060000Y-55468000D02*
X55060000Y-56484000D01*
X43630000Y-58008000D02*
X43630000Y-58389000D01*
X47515838Y-58407960D02*
G75*
G02*
X49980000Y-56484000I2464162J-616040D01*
G01*
X43630000Y-54579000D02*
G75*
G02*
X46170000Y-52039000I2540000J0D01*
G01*
%TO.C,SW16*%
X36020000Y-52039000D02*
X36020000Y-52420000D01*
X27130000Y-52039000D02*
X36020000Y-52039000D01*
X24590000Y-54579000D02*
X24590000Y-54960000D01*
X24971000Y-58389000D02*
X24590000Y-58389000D01*
X28475838Y-58389000D02*
X26749000Y-58389000D01*
X36020000Y-56484000D02*
X30940000Y-56484000D01*
X36020000Y-55468000D02*
X36020000Y-56484000D01*
X24590000Y-58008000D02*
X24590000Y-58389000D01*
X28475838Y-58407960D02*
G75*
G02*
X30940000Y-56484000I2464162J-616040D01*
G01*
X24590000Y-54579000D02*
G75*
G02*
X27130000Y-52039000I2540000J0D01*
G01*
%TO.C,SW17*%
X197860000Y-71079000D02*
X197860000Y-71460000D01*
X188970000Y-71079000D02*
X197860000Y-71079000D01*
X186430000Y-73619000D02*
X186430000Y-74000000D01*
X186811000Y-77429000D02*
X186430000Y-77429000D01*
X190315838Y-77429000D02*
X188589000Y-77429000D01*
X197860000Y-75524000D02*
X192780000Y-75524000D01*
X197860000Y-74508000D02*
X197860000Y-75524000D01*
X186430000Y-77048000D02*
X186430000Y-77429000D01*
X190315838Y-77447960D02*
G75*
G02*
X192780000Y-75524000I2464162J-616040D01*
G01*
X186430000Y-73619000D02*
G75*
G02*
X188970000Y-71079000I2540000J0D01*
G01*
%TO.C,SW18*%
X165010000Y-67528000D02*
X165010000Y-67909000D01*
X176440000Y-64988000D02*
X176440000Y-66004000D01*
X176440000Y-66004000D02*
X171360000Y-66004000D01*
X168895838Y-67909000D02*
X167169000Y-67909000D01*
X165391000Y-67909000D02*
X165010000Y-67909000D01*
X165010000Y-64099000D02*
X165010000Y-64480000D01*
X167550000Y-61559000D02*
X176440000Y-61559000D01*
X176440000Y-61559000D02*
X176440000Y-61940000D01*
X168895838Y-67927960D02*
G75*
G02*
X171360000Y-66004000I2464162J-616040D01*
G01*
X165010000Y-64099000D02*
G75*
G02*
X167550000Y-61559000I2540000J0D01*
G01*
%TO.C,SW19*%
X155020000Y-71079000D02*
X155020000Y-71460000D01*
X146130000Y-71079000D02*
X155020000Y-71079000D01*
X143590000Y-73619000D02*
X143590000Y-74000000D01*
X143971000Y-77429000D02*
X143590000Y-77429000D01*
X147475838Y-77429000D02*
X145749000Y-77429000D01*
X155020000Y-75524000D02*
X149940000Y-75524000D01*
X155020000Y-74508000D02*
X155020000Y-75524000D01*
X143590000Y-77048000D02*
X143590000Y-77429000D01*
X147475838Y-77447960D02*
G75*
G02*
X149940000Y-75524000I2464162J-616040D01*
G01*
X143590000Y-73619000D02*
G75*
G02*
X146130000Y-71079000I2540000J0D01*
G01*
%TO.C,SW20*%
X135980000Y-71079000D02*
X135980000Y-71460000D01*
X127090000Y-71079000D02*
X135980000Y-71079000D01*
X124550000Y-73619000D02*
X124550000Y-74000000D01*
X124931000Y-77429000D02*
X124550000Y-77429000D01*
X128435838Y-77429000D02*
X126709000Y-77429000D01*
X135980000Y-75524000D02*
X130900000Y-75524000D01*
X135980000Y-74508000D02*
X135980000Y-75524000D01*
X124550000Y-77048000D02*
X124550000Y-77429000D01*
X128435838Y-77447960D02*
G75*
G02*
X130900000Y-75524000I2464162J-616040D01*
G01*
X124550000Y-73619000D02*
G75*
G02*
X127090000Y-71079000I2540000J0D01*
G01*
%TO.C,SW21*%
X116940000Y-71079000D02*
X116940000Y-71460000D01*
X108050000Y-71079000D02*
X116940000Y-71079000D01*
X105510000Y-73619000D02*
X105510000Y-74000000D01*
X105891000Y-77429000D02*
X105510000Y-77429000D01*
X109395838Y-77429000D02*
X107669000Y-77429000D01*
X116940000Y-75524000D02*
X111860000Y-75524000D01*
X116940000Y-74508000D02*
X116940000Y-75524000D01*
X105510000Y-77048000D02*
X105510000Y-77429000D01*
X109395838Y-77447960D02*
G75*
G02*
X111860000Y-75524000I2464162J-616040D01*
G01*
X105510000Y-73619000D02*
G75*
G02*
X108050000Y-71079000I2540000J0D01*
G01*
%TO.C,SW22*%
X97900000Y-71079000D02*
X97900000Y-71460000D01*
X89010000Y-71079000D02*
X97900000Y-71079000D01*
X86470000Y-73619000D02*
X86470000Y-74000000D01*
X86851000Y-77429000D02*
X86470000Y-77429000D01*
X90355838Y-77429000D02*
X88629000Y-77429000D01*
X97900000Y-75524000D02*
X92820000Y-75524000D01*
X97900000Y-74508000D02*
X97900000Y-75524000D01*
X86470000Y-77048000D02*
X86470000Y-77429000D01*
X90355838Y-77447960D02*
G75*
G02*
X92820000Y-75524000I2464162J-616040D01*
G01*
X86470000Y-73619000D02*
G75*
G02*
X89010000Y-71079000I2540000J0D01*
G01*
%TO.C,SW23*%
X78860000Y-71079000D02*
X78860000Y-71460000D01*
X69970000Y-71079000D02*
X78860000Y-71079000D01*
X67430000Y-73619000D02*
X67430000Y-74000000D01*
X67811000Y-77429000D02*
X67430000Y-77429000D01*
X71315838Y-77429000D02*
X69589000Y-77429000D01*
X78860000Y-75524000D02*
X73780000Y-75524000D01*
X78860000Y-74508000D02*
X78860000Y-75524000D01*
X67430000Y-77048000D02*
X67430000Y-77429000D01*
X71315838Y-77447960D02*
G75*
G02*
X73780000Y-75524000I2464162J-616040D01*
G01*
X67430000Y-73619000D02*
G75*
G02*
X69970000Y-71079000I2540000J0D01*
G01*
%TO.C,SW24*%
X59820000Y-71079000D02*
X59820000Y-71460000D01*
X50930000Y-71079000D02*
X59820000Y-71079000D01*
X48390000Y-73619000D02*
X48390000Y-74000000D01*
X48771000Y-77429000D02*
X48390000Y-77429000D01*
X52275838Y-77429000D02*
X50549000Y-77429000D01*
X59820000Y-75524000D02*
X54740000Y-75524000D01*
X59820000Y-74508000D02*
X59820000Y-75524000D01*
X48390000Y-77048000D02*
X48390000Y-77429000D01*
X52275838Y-77447960D02*
G75*
G02*
X54740000Y-75524000I2464162J-616040D01*
G01*
X48390000Y-73619000D02*
G75*
G02*
X50930000Y-71079000I2540000J0D01*
G01*
%TO.C,SW25*%
X197860000Y-90119000D02*
X197860000Y-90500000D01*
X188970000Y-90119000D02*
X197860000Y-90119000D01*
X186430000Y-92659000D02*
X186430000Y-93040000D01*
X186811000Y-96469000D02*
X186430000Y-96469000D01*
X190315838Y-96469000D02*
X188589000Y-96469000D01*
X197860000Y-94564000D02*
X192780000Y-94564000D01*
X197860000Y-93548000D02*
X197860000Y-94564000D01*
X186430000Y-96088000D02*
X186430000Y-96469000D01*
X190315838Y-96487960D02*
G75*
G02*
X192780000Y-94564000I2464162J-616040D01*
G01*
X186430000Y-92659000D02*
G75*
G02*
X188970000Y-90119000I2540000J0D01*
G01*
%TO.C,SW26*%
X178820000Y-90119000D02*
X178820000Y-90500000D01*
X169930000Y-90119000D02*
X178820000Y-90119000D01*
X167390000Y-92659000D02*
X167390000Y-93040000D01*
X167771000Y-96469000D02*
X167390000Y-96469000D01*
X171275838Y-96469000D02*
X169549000Y-96469000D01*
X178820000Y-94564000D02*
X173740000Y-94564000D01*
X178820000Y-93548000D02*
X178820000Y-94564000D01*
X167390000Y-96088000D02*
X167390000Y-96469000D01*
X171275838Y-96487960D02*
G75*
G02*
X173740000Y-94564000I2464162J-616040D01*
G01*
X167390000Y-92659000D02*
G75*
G02*
X169930000Y-90119000I2540000J0D01*
G01*
%TO.C,SW27*%
X152640000Y-90119000D02*
X152640000Y-90500000D01*
X143750000Y-90119000D02*
X152640000Y-90119000D01*
X141210000Y-92659000D02*
X141210000Y-93040000D01*
X141591000Y-96469000D02*
X141210000Y-96469000D01*
X145095838Y-96469000D02*
X143369000Y-96469000D01*
X152640000Y-94564000D02*
X147560000Y-94564000D01*
X152640000Y-93548000D02*
X152640000Y-94564000D01*
X141210000Y-96088000D02*
X141210000Y-96469000D01*
X145095838Y-96487960D02*
G75*
G02*
X147560000Y-94564000I2464162J-616040D01*
G01*
X141210000Y-92659000D02*
G75*
G02*
X143750000Y-90119000I2540000J0D01*
G01*
%TO.C,SW28*%
X126460000Y-90119000D02*
X126460000Y-90500000D01*
X117570000Y-90119000D02*
X126460000Y-90119000D01*
X115030000Y-92659000D02*
X115030000Y-93040000D01*
X115411000Y-96469000D02*
X115030000Y-96469000D01*
X118915838Y-96469000D02*
X117189000Y-96469000D01*
X126460000Y-94564000D02*
X121380000Y-94564000D01*
X126460000Y-93548000D02*
X126460000Y-94564000D01*
X115030000Y-96088000D02*
X115030000Y-96469000D01*
X118915838Y-96487960D02*
G75*
G02*
X121380000Y-94564000I2464162J-616040D01*
G01*
X115030000Y-92659000D02*
G75*
G02*
X117570000Y-90119000I2540000J0D01*
G01*
%TO.C,SW29*%
X107420000Y-90119000D02*
X107420000Y-90500000D01*
X98530000Y-90119000D02*
X107420000Y-90119000D01*
X95990000Y-92659000D02*
X95990000Y-93040000D01*
X96371000Y-96469000D02*
X95990000Y-96469000D01*
X99875838Y-96469000D02*
X98149000Y-96469000D01*
X107420000Y-94564000D02*
X102340000Y-94564000D01*
X107420000Y-93548000D02*
X107420000Y-94564000D01*
X95990000Y-96088000D02*
X95990000Y-96469000D01*
X99875838Y-96487960D02*
G75*
G02*
X102340000Y-94564000I2464162J-616040D01*
G01*
X95990000Y-92659000D02*
G75*
G02*
X98530000Y-90119000I2540000J0D01*
G01*
%TO.C,SW30*%
X88380000Y-90119000D02*
X88380000Y-90500000D01*
X79490000Y-90119000D02*
X88380000Y-90119000D01*
X76950000Y-92659000D02*
X76950000Y-93040000D01*
X77331000Y-96469000D02*
X76950000Y-96469000D01*
X80835838Y-96469000D02*
X79109000Y-96469000D01*
X88380000Y-94564000D02*
X83300000Y-94564000D01*
X88380000Y-93548000D02*
X88380000Y-94564000D01*
X76950000Y-96088000D02*
X76950000Y-96469000D01*
X80835838Y-96487960D02*
G75*
G02*
X83300000Y-94564000I2464162J-616040D01*
G01*
X76950000Y-92659000D02*
G75*
G02*
X79490000Y-90119000I2540000J0D01*
G01*
%TO.C,SW31*%
X69340000Y-90119000D02*
X69340000Y-90500000D01*
X60450000Y-90119000D02*
X69340000Y-90119000D01*
X57910000Y-92659000D02*
X57910000Y-93040000D01*
X58291000Y-96469000D02*
X57910000Y-96469000D01*
X61795838Y-96469000D02*
X60069000Y-96469000D01*
X69340000Y-94564000D02*
X64260000Y-94564000D01*
X69340000Y-93548000D02*
X69340000Y-94564000D01*
X57910000Y-96088000D02*
X57910000Y-96469000D01*
X61795838Y-96487960D02*
G75*
G02*
X64260000Y-94564000I2464162J-616040D01*
G01*
X57910000Y-92659000D02*
G75*
G02*
X60450000Y-90119000I2540000J0D01*
G01*
%TO.C,SW32*%
X50300000Y-90119000D02*
X50300000Y-90500000D01*
X41410000Y-90119000D02*
X50300000Y-90119000D01*
X38870000Y-92659000D02*
X38870000Y-93040000D01*
X39251000Y-96469000D02*
X38870000Y-96469000D01*
X42755838Y-96469000D02*
X41029000Y-96469000D01*
X50300000Y-94564000D02*
X45220000Y-94564000D01*
X50300000Y-93548000D02*
X50300000Y-94564000D01*
X38870000Y-96088000D02*
X38870000Y-96469000D01*
X42755838Y-96487960D02*
G75*
G02*
X45220000Y-94564000I2464162J-616040D01*
G01*
X38870000Y-92659000D02*
G75*
G02*
X41410000Y-90119000I2540000J0D01*
G01*
%TO.C,SW33*%
X197860000Y-109159000D02*
X197860000Y-109540000D01*
X188970000Y-109159000D02*
X197860000Y-109159000D01*
X186430000Y-111699000D02*
X186430000Y-112080000D01*
X186811000Y-115509000D02*
X186430000Y-115509000D01*
X190315838Y-115509000D02*
X188589000Y-115509000D01*
X197860000Y-113604000D02*
X192780000Y-113604000D01*
X197860000Y-112588000D02*
X197860000Y-113604000D01*
X186430000Y-115128000D02*
X186430000Y-115509000D01*
X190315838Y-115527960D02*
G75*
G02*
X192780000Y-113604000I2464162J-616040D01*
G01*
X186430000Y-111699000D02*
G75*
G02*
X188970000Y-109159000I2540000J0D01*
G01*
%TO.C,SW34*%
X178820000Y-109159000D02*
X178820000Y-109540000D01*
X169930000Y-109159000D02*
X178820000Y-109159000D01*
X167390000Y-111699000D02*
X167390000Y-112080000D01*
X167771000Y-115509000D02*
X167390000Y-115509000D01*
X171275838Y-115509000D02*
X169549000Y-115509000D01*
X178820000Y-113604000D02*
X173740000Y-113604000D01*
X178820000Y-112588000D02*
X178820000Y-113604000D01*
X167390000Y-115128000D02*
X167390000Y-115509000D01*
X171275838Y-115527960D02*
G75*
G02*
X173740000Y-113604000I2464162J-616040D01*
G01*
X167390000Y-111699000D02*
G75*
G02*
X169930000Y-109159000I2540000J0D01*
G01*
%TO.C,SW35*%
X159780000Y-109159000D02*
X159780000Y-109540000D01*
X150890000Y-109159000D02*
X159780000Y-109159000D01*
X148350000Y-111699000D02*
X148350000Y-112080000D01*
X148731000Y-115509000D02*
X148350000Y-115509000D01*
X152235838Y-115509000D02*
X150509000Y-115509000D01*
X159780000Y-113604000D02*
X154700000Y-113604000D01*
X159780000Y-112588000D02*
X159780000Y-113604000D01*
X148350000Y-115128000D02*
X148350000Y-115509000D01*
X152235838Y-115527960D02*
G75*
G02*
X154700000Y-113604000I2464162J-616040D01*
G01*
X148350000Y-111699000D02*
G75*
G02*
X150890000Y-109159000I2540000J0D01*
G01*
%TO.C,SW36*%
X126460000Y-109159000D02*
X126460000Y-109540000D01*
X117570000Y-109159000D02*
X126460000Y-109159000D01*
X115030000Y-111699000D02*
X115030000Y-112080000D01*
X115411000Y-115509000D02*
X115030000Y-115509000D01*
X118915838Y-115509000D02*
X117189000Y-115509000D01*
X126460000Y-113604000D02*
X121380000Y-113604000D01*
X126460000Y-112588000D02*
X126460000Y-113604000D01*
X115030000Y-115128000D02*
X115030000Y-115509000D01*
X118915838Y-115527960D02*
G75*
G02*
X121380000Y-113604000I2464162J-616040D01*
G01*
X115030000Y-111699000D02*
G75*
G02*
X117570000Y-109159000I2540000J0D01*
G01*
%TO.C,SW37*%
X107420000Y-109159000D02*
X107420000Y-109540000D01*
X98530000Y-109159000D02*
X107420000Y-109159000D01*
X95990000Y-111699000D02*
X95990000Y-112080000D01*
X96371000Y-115509000D02*
X95990000Y-115509000D01*
X99875838Y-115509000D02*
X98149000Y-115509000D01*
X107420000Y-113604000D02*
X102340000Y-113604000D01*
X107420000Y-112588000D02*
X107420000Y-113604000D01*
X95990000Y-115128000D02*
X95990000Y-115509000D01*
X99875838Y-115527960D02*
G75*
G02*
X102340000Y-113604000I2464162J-616040D01*
G01*
X95990000Y-111699000D02*
G75*
G02*
X98530000Y-109159000I2540000J0D01*
G01*
%TO.C,SW38*%
X88380000Y-109159000D02*
X88380000Y-109540000D01*
X79490000Y-109159000D02*
X88380000Y-109159000D01*
X76950000Y-111699000D02*
X76950000Y-112080000D01*
X77331000Y-115509000D02*
X76950000Y-115509000D01*
X80835838Y-115509000D02*
X79109000Y-115509000D01*
X88380000Y-113604000D02*
X83300000Y-113604000D01*
X88380000Y-112588000D02*
X88380000Y-113604000D01*
X76950000Y-115128000D02*
X76950000Y-115509000D01*
X80835838Y-115527960D02*
G75*
G02*
X83300000Y-113604000I2464162J-616040D01*
G01*
X76950000Y-111699000D02*
G75*
G02*
X79490000Y-109159000I2540000J0D01*
G01*
%TO.C,SW40*%
X40780000Y-71079000D02*
X40780000Y-71460000D01*
X31890000Y-71079000D02*
X40780000Y-71079000D01*
X29350000Y-73619000D02*
X29350000Y-74000000D01*
X29731000Y-77429000D02*
X29350000Y-77429000D01*
X33235838Y-77429000D02*
X31509000Y-77429000D01*
X40780000Y-75524000D02*
X35700000Y-75524000D01*
X40780000Y-74508000D02*
X40780000Y-75524000D01*
X29350000Y-77048000D02*
X29350000Y-77429000D01*
X33235838Y-77447960D02*
G75*
G02*
X35700000Y-75524000I2464162J-616040D01*
G01*
X29350000Y-73619000D02*
G75*
G02*
X31890000Y-71079000I2540000J0D01*
G01*
%TO.C,SW_41*%
X230964000Y-75828000D02*
X230964000Y-69928000D01*
X230964000Y-75828000D02*
X230964000Y-69828000D01*
X234464000Y-69828000D02*
X234464000Y-75828000D01*
X230964000Y-69828000D02*
X231664000Y-69828000D01*
X234464000Y-69828000D02*
X233864000Y-69828000D01*
X234464000Y-75828000D02*
X233864000Y-75828000D01*
X230964000Y-75828000D02*
X231664000Y-75828000D01*
%TO.C,SW39*%
X54169523Y-108293761D02*
X54026666Y-108341380D01*
X53788571Y-108341380D01*
X53693333Y-108293761D01*
X53645714Y-108246142D01*
X53598095Y-108150904D01*
X53598095Y-108055666D01*
X53645714Y-107960428D01*
X53693333Y-107912809D01*
X53788571Y-107865190D01*
X53979047Y-107817571D01*
X54074285Y-107769952D01*
X54121904Y-107722333D01*
X54169523Y-107627095D01*
X54169523Y-107531857D01*
X54121904Y-107436619D01*
X54074285Y-107389000D01*
X53979047Y-107341380D01*
X53740952Y-107341380D01*
X53598095Y-107389000D01*
X53264761Y-107341380D02*
X53026666Y-108341380D01*
X52836190Y-107627095D01*
X52645714Y-108341380D01*
X52407619Y-107341380D01*
X52121904Y-107341380D02*
X51502857Y-107341380D01*
X51836190Y-107722333D01*
X51693333Y-107722333D01*
X51598095Y-107769952D01*
X51550476Y-107817571D01*
X51502857Y-107912809D01*
X51502857Y-108150904D01*
X51550476Y-108246142D01*
X51598095Y-108293761D01*
X51693333Y-108341380D01*
X51979047Y-108341380D01*
X52074285Y-108293761D01*
X52121904Y-108246142D01*
X51026666Y-108341380D02*
X50836190Y-108341380D01*
X50740952Y-108293761D01*
X50693333Y-108246142D01*
X50598095Y-108103285D01*
X50550476Y-107912809D01*
X50550476Y-107531857D01*
X50598095Y-107436619D01*
X50645714Y-107389000D01*
X50740952Y-107341380D01*
X50931428Y-107341380D01*
X51026666Y-107389000D01*
X51074285Y-107436619D01*
X51121904Y-107531857D01*
X51121904Y-107769952D01*
X51074285Y-107865190D01*
X51026666Y-107912809D01*
X50931428Y-107960428D01*
X50740952Y-107960428D01*
X50645714Y-107912809D01*
X50598095Y-107865190D01*
X50550476Y-107769952D01*
%TO.C,D1*%
X181696904Y-43677523D02*
X180896904Y-43677523D01*
X180896904Y-43868000D01*
X180935000Y-43982285D01*
X181011190Y-44058476D01*
X181087380Y-44096571D01*
X181239761Y-44134666D01*
X181354047Y-44134666D01*
X181506428Y-44096571D01*
X181582619Y-44058476D01*
X181658809Y-43982285D01*
X181696904Y-43868000D01*
X181696904Y-43677523D01*
X181696904Y-44896571D02*
X181696904Y-44439428D01*
X181696904Y-44668000D02*
X180896904Y-44668000D01*
X181011190Y-44591809D01*
X181087380Y-44515619D01*
X181125476Y-44439428D01*
%TO.C,D2*%
X143616904Y-43677523D02*
X142816904Y-43677523D01*
X142816904Y-43868000D01*
X142855000Y-43982285D01*
X142931190Y-44058476D01*
X143007380Y-44096571D01*
X143159761Y-44134666D01*
X143274047Y-44134666D01*
X143426428Y-44096571D01*
X143502619Y-44058476D01*
X143578809Y-43982285D01*
X143616904Y-43868000D01*
X143616904Y-43677523D01*
X142893095Y-44439428D02*
X142855000Y-44477523D01*
X142816904Y-44553714D01*
X142816904Y-44744190D01*
X142855000Y-44820380D01*
X142893095Y-44858476D01*
X142969285Y-44896571D01*
X143045476Y-44896571D01*
X143159761Y-44858476D01*
X143616904Y-44401333D01*
X143616904Y-44896571D01*
%TO.C,D3*%
X124576904Y-43677523D02*
X123776904Y-43677523D01*
X123776904Y-43868000D01*
X123815000Y-43982285D01*
X123891190Y-44058476D01*
X123967380Y-44096571D01*
X124119761Y-44134666D01*
X124234047Y-44134666D01*
X124386428Y-44096571D01*
X124462619Y-44058476D01*
X124538809Y-43982285D01*
X124576904Y-43868000D01*
X124576904Y-43677523D01*
X123776904Y-44401333D02*
X123776904Y-44896571D01*
X124081666Y-44629904D01*
X124081666Y-44744190D01*
X124119761Y-44820380D01*
X124157857Y-44858476D01*
X124234047Y-44896571D01*
X124424523Y-44896571D01*
X124500714Y-44858476D01*
X124538809Y-44820380D01*
X124576904Y-44744190D01*
X124576904Y-44515619D01*
X124538809Y-44439428D01*
X124500714Y-44401333D01*
%TO.C,D4*%
X105536904Y-43677523D02*
X104736904Y-43677523D01*
X104736904Y-43868000D01*
X104775000Y-43982285D01*
X104851190Y-44058476D01*
X104927380Y-44096571D01*
X105079761Y-44134666D01*
X105194047Y-44134666D01*
X105346428Y-44096571D01*
X105422619Y-44058476D01*
X105498809Y-43982285D01*
X105536904Y-43868000D01*
X105536904Y-43677523D01*
X105003571Y-44820380D02*
X105536904Y-44820380D01*
X104698809Y-44629904D02*
X105270238Y-44439428D01*
X105270238Y-44934666D01*
%TO.C,D5*%
X86496904Y-43677523D02*
X85696904Y-43677523D01*
X85696904Y-43868000D01*
X85735000Y-43982285D01*
X85811190Y-44058476D01*
X85887380Y-44096571D01*
X86039761Y-44134666D01*
X86154047Y-44134666D01*
X86306428Y-44096571D01*
X86382619Y-44058476D01*
X86458809Y-43982285D01*
X86496904Y-43868000D01*
X86496904Y-43677523D01*
X85696904Y-44858476D02*
X85696904Y-44477523D01*
X86077857Y-44439428D01*
X86039761Y-44477523D01*
X86001666Y-44553714D01*
X86001666Y-44744190D01*
X86039761Y-44820380D01*
X86077857Y-44858476D01*
X86154047Y-44896571D01*
X86344523Y-44896571D01*
X86420714Y-44858476D01*
X86458809Y-44820380D01*
X86496904Y-44744190D01*
X86496904Y-44553714D01*
X86458809Y-44477523D01*
X86420714Y-44439428D01*
%TO.C,D6*%
X67456904Y-43677523D02*
X66656904Y-43677523D01*
X66656904Y-43868000D01*
X66695000Y-43982285D01*
X66771190Y-44058476D01*
X66847380Y-44096571D01*
X66999761Y-44134666D01*
X67114047Y-44134666D01*
X67266428Y-44096571D01*
X67342619Y-44058476D01*
X67418809Y-43982285D01*
X67456904Y-43868000D01*
X67456904Y-43677523D01*
X66656904Y-44820380D02*
X66656904Y-44668000D01*
X66695000Y-44591809D01*
X66733095Y-44553714D01*
X66847380Y-44477523D01*
X66999761Y-44439428D01*
X67304523Y-44439428D01*
X67380714Y-44477523D01*
X67418809Y-44515619D01*
X67456904Y-44591809D01*
X67456904Y-44744190D01*
X67418809Y-44820380D01*
X67380714Y-44858476D01*
X67304523Y-44896571D01*
X67114047Y-44896571D01*
X67037857Y-44858476D01*
X66999761Y-44820380D01*
X66961666Y-44744190D01*
X66961666Y-44591809D01*
X66999761Y-44515619D01*
X67037857Y-44477523D01*
X67114047Y-44439428D01*
%TO.C,D7*%
X48416904Y-43677523D02*
X47616904Y-43677523D01*
X47616904Y-43868000D01*
X47655000Y-43982285D01*
X47731190Y-44058476D01*
X47807380Y-44096571D01*
X47959761Y-44134666D01*
X48074047Y-44134666D01*
X48226428Y-44096571D01*
X48302619Y-44058476D01*
X48378809Y-43982285D01*
X48416904Y-43868000D01*
X48416904Y-43677523D01*
X47616904Y-44401333D02*
X47616904Y-44934666D01*
X48416904Y-44591809D01*
%TO.C,D8*%
X31042904Y-43677523D02*
X30242904Y-43677523D01*
X30242904Y-43868000D01*
X30281000Y-43982285D01*
X30357190Y-44058476D01*
X30433380Y-44096571D01*
X30585761Y-44134666D01*
X30700047Y-44134666D01*
X30852428Y-44096571D01*
X30928619Y-44058476D01*
X31004809Y-43982285D01*
X31042904Y-43868000D01*
X31042904Y-43677523D01*
X30585761Y-44591809D02*
X30547666Y-44515619D01*
X30509571Y-44477523D01*
X30433380Y-44439428D01*
X30395285Y-44439428D01*
X30319095Y-44477523D01*
X30281000Y-44515619D01*
X30242904Y-44591809D01*
X30242904Y-44744190D01*
X30281000Y-44820380D01*
X30319095Y-44858476D01*
X30395285Y-44896571D01*
X30433380Y-44896571D01*
X30509571Y-44858476D01*
X30547666Y-44820380D01*
X30585761Y-44744190D01*
X30585761Y-44591809D01*
X30623857Y-44515619D01*
X30661952Y-44477523D01*
X30738142Y-44439428D01*
X30890523Y-44439428D01*
X30966714Y-44477523D01*
X31004809Y-44515619D01*
X31042904Y-44591809D01*
X31042904Y-44744190D01*
X31004809Y-44820380D01*
X30966714Y-44858476D01*
X30890523Y-44896571D01*
X30738142Y-44896571D01*
X30661952Y-44858476D01*
X30623857Y-44820380D01*
X30585761Y-44744190D01*
%TO.C,D9*%
X182648904Y-62717523D02*
X181848904Y-62717523D01*
X181848904Y-62908000D01*
X181887000Y-63022285D01*
X181963190Y-63098476D01*
X182039380Y-63136571D01*
X182191761Y-63174666D01*
X182306047Y-63174666D01*
X182458428Y-63136571D01*
X182534619Y-63098476D01*
X182610809Y-63022285D01*
X182648904Y-62908000D01*
X182648904Y-62717523D01*
X182648904Y-63555619D02*
X182648904Y-63708000D01*
X182610809Y-63784190D01*
X182572714Y-63822285D01*
X182458428Y-63898476D01*
X182306047Y-63936571D01*
X182001285Y-63936571D01*
X181925095Y-63898476D01*
X181887000Y-63860380D01*
X181848904Y-63784190D01*
X181848904Y-63631809D01*
X181887000Y-63555619D01*
X181925095Y-63517523D01*
X182001285Y-63479428D01*
X182191761Y-63479428D01*
X182267952Y-63517523D01*
X182306047Y-63555619D01*
X182344142Y-63631809D01*
X182344142Y-63784190D01*
X182306047Y-63860380D01*
X182267952Y-63898476D01*
X182191761Y-63936571D01*
%TO.C,D10*%
X134096904Y-62336571D02*
X133296904Y-62336571D01*
X133296904Y-62527047D01*
X133335000Y-62641333D01*
X133411190Y-62717523D01*
X133487380Y-62755619D01*
X133639761Y-62793714D01*
X133754047Y-62793714D01*
X133906428Y-62755619D01*
X133982619Y-62717523D01*
X134058809Y-62641333D01*
X134096904Y-62527047D01*
X134096904Y-62336571D01*
X134096904Y-63555619D02*
X134096904Y-63098476D01*
X134096904Y-63327047D02*
X133296904Y-63327047D01*
X133411190Y-63250857D01*
X133487380Y-63174666D01*
X133525476Y-63098476D01*
X133296904Y-64050857D02*
X133296904Y-64127047D01*
X133335000Y-64203238D01*
X133373095Y-64241333D01*
X133449285Y-64279428D01*
X133601666Y-64317523D01*
X133792142Y-64317523D01*
X133944523Y-64279428D01*
X134020714Y-64241333D01*
X134058809Y-64203238D01*
X134096904Y-64127047D01*
X134096904Y-64050857D01*
X134058809Y-63974666D01*
X134020714Y-63936571D01*
X133944523Y-63898476D01*
X133792142Y-63860380D01*
X133601666Y-63860380D01*
X133449285Y-63898476D01*
X133373095Y-63936571D01*
X133335000Y-63974666D01*
X133296904Y-64050857D01*
%TO.C,D11*%
X115056904Y-62336571D02*
X114256904Y-62336571D01*
X114256904Y-62527047D01*
X114295000Y-62641333D01*
X114371190Y-62717523D01*
X114447380Y-62755619D01*
X114599761Y-62793714D01*
X114714047Y-62793714D01*
X114866428Y-62755619D01*
X114942619Y-62717523D01*
X115018809Y-62641333D01*
X115056904Y-62527047D01*
X115056904Y-62336571D01*
X115056904Y-63555619D02*
X115056904Y-63098476D01*
X115056904Y-63327047D02*
X114256904Y-63327047D01*
X114371190Y-63250857D01*
X114447380Y-63174666D01*
X114485476Y-63098476D01*
X115056904Y-64317523D02*
X115056904Y-63860380D01*
X115056904Y-64088952D02*
X114256904Y-64088952D01*
X114371190Y-64012761D01*
X114447380Y-63936571D01*
X114485476Y-63860380D01*
%TO.C,D12*%
X96016904Y-62336571D02*
X95216904Y-62336571D01*
X95216904Y-62527047D01*
X95255000Y-62641333D01*
X95331190Y-62717523D01*
X95407380Y-62755619D01*
X95559761Y-62793714D01*
X95674047Y-62793714D01*
X95826428Y-62755619D01*
X95902619Y-62717523D01*
X95978809Y-62641333D01*
X96016904Y-62527047D01*
X96016904Y-62336571D01*
X96016904Y-63555619D02*
X96016904Y-63098476D01*
X96016904Y-63327047D02*
X95216904Y-63327047D01*
X95331190Y-63250857D01*
X95407380Y-63174666D01*
X95445476Y-63098476D01*
X95293095Y-63860380D02*
X95255000Y-63898476D01*
X95216904Y-63974666D01*
X95216904Y-64165142D01*
X95255000Y-64241333D01*
X95293095Y-64279428D01*
X95369285Y-64317523D01*
X95445476Y-64317523D01*
X95559761Y-64279428D01*
X96016904Y-63822285D01*
X96016904Y-64317523D01*
%TO.C,D13*%
X76976904Y-62336571D02*
X76176904Y-62336571D01*
X76176904Y-62527047D01*
X76215000Y-62641333D01*
X76291190Y-62717523D01*
X76367380Y-62755619D01*
X76519761Y-62793714D01*
X76634047Y-62793714D01*
X76786428Y-62755619D01*
X76862619Y-62717523D01*
X76938809Y-62641333D01*
X76976904Y-62527047D01*
X76976904Y-62336571D01*
X76976904Y-63555619D02*
X76976904Y-63098476D01*
X76976904Y-63327047D02*
X76176904Y-63327047D01*
X76291190Y-63250857D01*
X76367380Y-63174666D01*
X76405476Y-63098476D01*
X76176904Y-63822285D02*
X76176904Y-64317523D01*
X76481666Y-64050857D01*
X76481666Y-64165142D01*
X76519761Y-64241333D01*
X76557857Y-64279428D01*
X76634047Y-64317523D01*
X76824523Y-64317523D01*
X76900714Y-64279428D01*
X76938809Y-64241333D01*
X76976904Y-64165142D01*
X76976904Y-63936571D01*
X76938809Y-63860380D01*
X76900714Y-63822285D01*
%TO.C,D14*%
X57936904Y-62336571D02*
X57136904Y-62336571D01*
X57136904Y-62527047D01*
X57175000Y-62641333D01*
X57251190Y-62717523D01*
X57327380Y-62755619D01*
X57479761Y-62793714D01*
X57594047Y-62793714D01*
X57746428Y-62755619D01*
X57822619Y-62717523D01*
X57898809Y-62641333D01*
X57936904Y-62527047D01*
X57936904Y-62336571D01*
X57936904Y-63555619D02*
X57936904Y-63098476D01*
X57936904Y-63327047D02*
X57136904Y-63327047D01*
X57251190Y-63250857D01*
X57327380Y-63174666D01*
X57365476Y-63098476D01*
X57403571Y-64241333D02*
X57936904Y-64241333D01*
X57098809Y-64050857D02*
X57670238Y-63860380D01*
X57670238Y-64355619D01*
%TO.C,D15*%
X38896904Y-62336571D02*
X38096904Y-62336571D01*
X38096904Y-62527047D01*
X38135000Y-62641333D01*
X38211190Y-62717523D01*
X38287380Y-62755619D01*
X38439761Y-62793714D01*
X38554047Y-62793714D01*
X38706428Y-62755619D01*
X38782619Y-62717523D01*
X38858809Y-62641333D01*
X38896904Y-62527047D01*
X38896904Y-62336571D01*
X38896904Y-63555619D02*
X38896904Y-63098476D01*
X38896904Y-63327047D02*
X38096904Y-63327047D01*
X38211190Y-63250857D01*
X38287380Y-63174666D01*
X38325476Y-63098476D01*
X38096904Y-64279428D02*
X38096904Y-63898476D01*
X38477857Y-63860380D01*
X38439761Y-63898476D01*
X38401666Y-63974666D01*
X38401666Y-64165142D01*
X38439761Y-64241333D01*
X38477857Y-64279428D01*
X38554047Y-64317523D01*
X38744523Y-64317523D01*
X38820714Y-64279428D01*
X38858809Y-64241333D01*
X38896904Y-64165142D01*
X38896904Y-63974666D01*
X38858809Y-63898476D01*
X38820714Y-63860380D01*
%TO.C,D16*%
X21522904Y-62336571D02*
X20722904Y-62336571D01*
X20722904Y-62527047D01*
X20761000Y-62641333D01*
X20837190Y-62717523D01*
X20913380Y-62755619D01*
X21065761Y-62793714D01*
X21180047Y-62793714D01*
X21332428Y-62755619D01*
X21408619Y-62717523D01*
X21484809Y-62641333D01*
X21522904Y-62527047D01*
X21522904Y-62336571D01*
X21522904Y-63555619D02*
X21522904Y-63098476D01*
X21522904Y-63327047D02*
X20722904Y-63327047D01*
X20837190Y-63250857D01*
X20913380Y-63174666D01*
X20951476Y-63098476D01*
X20722904Y-64241333D02*
X20722904Y-64088952D01*
X20761000Y-64012761D01*
X20799095Y-63974666D01*
X20913380Y-63898476D01*
X21065761Y-63860380D01*
X21370523Y-63860380D01*
X21446714Y-63898476D01*
X21484809Y-63936571D01*
X21522904Y-64012761D01*
X21522904Y-64165142D01*
X21484809Y-64241333D01*
X21446714Y-64279428D01*
X21370523Y-64317523D01*
X21180047Y-64317523D01*
X21103857Y-64279428D01*
X21065761Y-64241333D01*
X21027666Y-64165142D01*
X21027666Y-64012761D01*
X21065761Y-63936571D01*
X21103857Y-63898476D01*
X21180047Y-63860380D01*
%TO.C,D17*%
X182648904Y-81376571D02*
X181848904Y-81376571D01*
X181848904Y-81567047D01*
X181887000Y-81681333D01*
X181963190Y-81757523D01*
X182039380Y-81795619D01*
X182191761Y-81833714D01*
X182306047Y-81833714D01*
X182458428Y-81795619D01*
X182534619Y-81757523D01*
X182610809Y-81681333D01*
X182648904Y-81567047D01*
X182648904Y-81376571D01*
X182648904Y-82595619D02*
X182648904Y-82138476D01*
X182648904Y-82367047D02*
X181848904Y-82367047D01*
X181963190Y-82290857D01*
X182039380Y-82214666D01*
X182077476Y-82138476D01*
X181848904Y-82862285D02*
X181848904Y-83395619D01*
X182648904Y-83052761D01*
%TO.C,D18*%
X157896904Y-81376571D02*
X157096904Y-81376571D01*
X157096904Y-81567047D01*
X157135000Y-81681333D01*
X157211190Y-81757523D01*
X157287380Y-81795619D01*
X157439761Y-81833714D01*
X157554047Y-81833714D01*
X157706428Y-81795619D01*
X157782619Y-81757523D01*
X157858809Y-81681333D01*
X157896904Y-81567047D01*
X157896904Y-81376571D01*
X157896904Y-82595619D02*
X157896904Y-82138476D01*
X157896904Y-82367047D02*
X157096904Y-82367047D01*
X157211190Y-82290857D01*
X157287380Y-82214666D01*
X157325476Y-82138476D01*
X157439761Y-83052761D02*
X157401666Y-82976571D01*
X157363571Y-82938476D01*
X157287380Y-82900380D01*
X157249285Y-82900380D01*
X157173095Y-82938476D01*
X157135000Y-82976571D01*
X157096904Y-83052761D01*
X157096904Y-83205142D01*
X157135000Y-83281333D01*
X157173095Y-83319428D01*
X157249285Y-83357523D01*
X157287380Y-83357523D01*
X157363571Y-83319428D01*
X157401666Y-83281333D01*
X157439761Y-83205142D01*
X157439761Y-83052761D01*
X157477857Y-82976571D01*
X157515952Y-82938476D01*
X157592142Y-82900380D01*
X157744523Y-82900380D01*
X157820714Y-82938476D01*
X157858809Y-82976571D01*
X157896904Y-83052761D01*
X157896904Y-83205142D01*
X157858809Y-83281333D01*
X157820714Y-83319428D01*
X157744523Y-83357523D01*
X157592142Y-83357523D01*
X157515952Y-83319428D01*
X157477857Y-83281333D01*
X157439761Y-83205142D01*
%TO.C,D19*%
X138856904Y-81376571D02*
X138056904Y-81376571D01*
X138056904Y-81567047D01*
X138095000Y-81681333D01*
X138171190Y-81757523D01*
X138247380Y-81795619D01*
X138399761Y-81833714D01*
X138514047Y-81833714D01*
X138666428Y-81795619D01*
X138742619Y-81757523D01*
X138818809Y-81681333D01*
X138856904Y-81567047D01*
X138856904Y-81376571D01*
X138856904Y-82595619D02*
X138856904Y-82138476D01*
X138856904Y-82367047D02*
X138056904Y-82367047D01*
X138171190Y-82290857D01*
X138247380Y-82214666D01*
X138285476Y-82138476D01*
X138856904Y-82976571D02*
X138856904Y-83128952D01*
X138818809Y-83205142D01*
X138780714Y-83243238D01*
X138666428Y-83319428D01*
X138514047Y-83357523D01*
X138209285Y-83357523D01*
X138133095Y-83319428D01*
X138095000Y-83281333D01*
X138056904Y-83205142D01*
X138056904Y-83052761D01*
X138095000Y-82976571D01*
X138133095Y-82938476D01*
X138209285Y-82900380D01*
X138399761Y-82900380D01*
X138475952Y-82938476D01*
X138514047Y-82976571D01*
X138552142Y-83052761D01*
X138552142Y-83205142D01*
X138514047Y-83281333D01*
X138475952Y-83319428D01*
X138399761Y-83357523D01*
%TO.C,D20*%
X119816904Y-81376571D02*
X119016904Y-81376571D01*
X119016904Y-81567047D01*
X119055000Y-81681333D01*
X119131190Y-81757523D01*
X119207380Y-81795619D01*
X119359761Y-81833714D01*
X119474047Y-81833714D01*
X119626428Y-81795619D01*
X119702619Y-81757523D01*
X119778809Y-81681333D01*
X119816904Y-81567047D01*
X119816904Y-81376571D01*
X119093095Y-82138476D02*
X119055000Y-82176571D01*
X119016904Y-82252761D01*
X119016904Y-82443238D01*
X119055000Y-82519428D01*
X119093095Y-82557523D01*
X119169285Y-82595619D01*
X119245476Y-82595619D01*
X119359761Y-82557523D01*
X119816904Y-82100380D01*
X119816904Y-82595619D01*
X119016904Y-83090857D02*
X119016904Y-83167047D01*
X119055000Y-83243238D01*
X119093095Y-83281333D01*
X119169285Y-83319428D01*
X119321666Y-83357523D01*
X119512142Y-83357523D01*
X119664523Y-83319428D01*
X119740714Y-83281333D01*
X119778809Y-83243238D01*
X119816904Y-83167047D01*
X119816904Y-83090857D01*
X119778809Y-83014666D01*
X119740714Y-82976571D01*
X119664523Y-82938476D01*
X119512142Y-82900380D01*
X119321666Y-82900380D01*
X119169285Y-82938476D01*
X119093095Y-82976571D01*
X119055000Y-83014666D01*
X119016904Y-83090857D01*
%TO.C,D21*%
X100776904Y-81376571D02*
X99976904Y-81376571D01*
X99976904Y-81567047D01*
X100015000Y-81681333D01*
X100091190Y-81757523D01*
X100167380Y-81795619D01*
X100319761Y-81833714D01*
X100434047Y-81833714D01*
X100586428Y-81795619D01*
X100662619Y-81757523D01*
X100738809Y-81681333D01*
X100776904Y-81567047D01*
X100776904Y-81376571D01*
X100053095Y-82138476D02*
X100015000Y-82176571D01*
X99976904Y-82252761D01*
X99976904Y-82443238D01*
X100015000Y-82519428D01*
X100053095Y-82557523D01*
X100129285Y-82595619D01*
X100205476Y-82595619D01*
X100319761Y-82557523D01*
X100776904Y-82100380D01*
X100776904Y-82595619D01*
X100776904Y-83357523D02*
X100776904Y-82900380D01*
X100776904Y-83128952D02*
X99976904Y-83128952D01*
X100091190Y-83052761D01*
X100167380Y-82976571D01*
X100205476Y-82900380D01*
%TO.C,D22*%
X81736904Y-81376571D02*
X80936904Y-81376571D01*
X80936904Y-81567047D01*
X80975000Y-81681333D01*
X81051190Y-81757523D01*
X81127380Y-81795619D01*
X81279761Y-81833714D01*
X81394047Y-81833714D01*
X81546428Y-81795619D01*
X81622619Y-81757523D01*
X81698809Y-81681333D01*
X81736904Y-81567047D01*
X81736904Y-81376571D01*
X81013095Y-82138476D02*
X80975000Y-82176571D01*
X80936904Y-82252761D01*
X80936904Y-82443238D01*
X80975000Y-82519428D01*
X81013095Y-82557523D01*
X81089285Y-82595619D01*
X81165476Y-82595619D01*
X81279761Y-82557523D01*
X81736904Y-82100380D01*
X81736904Y-82595619D01*
X81013095Y-82900380D02*
X80975000Y-82938476D01*
X80936904Y-83014666D01*
X80936904Y-83205142D01*
X80975000Y-83281333D01*
X81013095Y-83319428D01*
X81089285Y-83357523D01*
X81165476Y-83357523D01*
X81279761Y-83319428D01*
X81736904Y-82862285D01*
X81736904Y-83357523D01*
%TO.C,D23*%
X62696904Y-81376571D02*
X61896904Y-81376571D01*
X61896904Y-81567047D01*
X61935000Y-81681333D01*
X62011190Y-81757523D01*
X62087380Y-81795619D01*
X62239761Y-81833714D01*
X62354047Y-81833714D01*
X62506428Y-81795619D01*
X62582619Y-81757523D01*
X62658809Y-81681333D01*
X62696904Y-81567047D01*
X62696904Y-81376571D01*
X61973095Y-82138476D02*
X61935000Y-82176571D01*
X61896904Y-82252761D01*
X61896904Y-82443238D01*
X61935000Y-82519428D01*
X61973095Y-82557523D01*
X62049285Y-82595619D01*
X62125476Y-82595619D01*
X62239761Y-82557523D01*
X62696904Y-82100380D01*
X62696904Y-82595619D01*
X61896904Y-82862285D02*
X61896904Y-83357523D01*
X62201666Y-83090857D01*
X62201666Y-83205142D01*
X62239761Y-83281333D01*
X62277857Y-83319428D01*
X62354047Y-83357523D01*
X62544523Y-83357523D01*
X62620714Y-83319428D01*
X62658809Y-83281333D01*
X62696904Y-83205142D01*
X62696904Y-82976571D01*
X62658809Y-82900380D01*
X62620714Y-82862285D01*
%TO.C,D24*%
X43656904Y-81376571D02*
X42856904Y-81376571D01*
X42856904Y-81567047D01*
X42895000Y-81681333D01*
X42971190Y-81757523D01*
X43047380Y-81795619D01*
X43199761Y-81833714D01*
X43314047Y-81833714D01*
X43466428Y-81795619D01*
X43542619Y-81757523D01*
X43618809Y-81681333D01*
X43656904Y-81567047D01*
X43656904Y-81376571D01*
X42933095Y-82138476D02*
X42895000Y-82176571D01*
X42856904Y-82252761D01*
X42856904Y-82443238D01*
X42895000Y-82519428D01*
X42933095Y-82557523D01*
X43009285Y-82595619D01*
X43085476Y-82595619D01*
X43199761Y-82557523D01*
X43656904Y-82100380D01*
X43656904Y-82595619D01*
X43123571Y-83281333D02*
X43656904Y-83281333D01*
X42818809Y-83090857D02*
X43390238Y-82900380D01*
X43390238Y-83395619D01*
%TO.C,D25*%
X181696904Y-100416571D02*
X180896904Y-100416571D01*
X180896904Y-100607047D01*
X180935000Y-100721333D01*
X181011190Y-100797523D01*
X181087380Y-100835619D01*
X181239761Y-100873714D01*
X181354047Y-100873714D01*
X181506428Y-100835619D01*
X181582619Y-100797523D01*
X181658809Y-100721333D01*
X181696904Y-100607047D01*
X181696904Y-100416571D01*
X180973095Y-101178476D02*
X180935000Y-101216571D01*
X180896904Y-101292761D01*
X180896904Y-101483238D01*
X180935000Y-101559428D01*
X180973095Y-101597523D01*
X181049285Y-101635619D01*
X181125476Y-101635619D01*
X181239761Y-101597523D01*
X181696904Y-101140380D01*
X181696904Y-101635619D01*
X180896904Y-102359428D02*
X180896904Y-101978476D01*
X181277857Y-101940380D01*
X181239761Y-101978476D01*
X181201666Y-102054666D01*
X181201666Y-102245142D01*
X181239761Y-102321333D01*
X181277857Y-102359428D01*
X181354047Y-102397523D01*
X181544523Y-102397523D01*
X181620714Y-102359428D01*
X181658809Y-102321333D01*
X181696904Y-102245142D01*
X181696904Y-102054666D01*
X181658809Y-101978476D01*
X181620714Y-101940380D01*
%TO.C,D26*%
X162656904Y-100416571D02*
X161856904Y-100416571D01*
X161856904Y-100607047D01*
X161895000Y-100721333D01*
X161971190Y-100797523D01*
X162047380Y-100835619D01*
X162199761Y-100873714D01*
X162314047Y-100873714D01*
X162466428Y-100835619D01*
X162542619Y-100797523D01*
X162618809Y-100721333D01*
X162656904Y-100607047D01*
X162656904Y-100416571D01*
X161933095Y-101178476D02*
X161895000Y-101216571D01*
X161856904Y-101292761D01*
X161856904Y-101483238D01*
X161895000Y-101559428D01*
X161933095Y-101597523D01*
X162009285Y-101635619D01*
X162085476Y-101635619D01*
X162199761Y-101597523D01*
X162656904Y-101140380D01*
X162656904Y-101635619D01*
X161856904Y-102321333D02*
X161856904Y-102168952D01*
X161895000Y-102092761D01*
X161933095Y-102054666D01*
X162047380Y-101978476D01*
X162199761Y-101940380D01*
X162504523Y-101940380D01*
X162580714Y-101978476D01*
X162618809Y-102016571D01*
X162656904Y-102092761D01*
X162656904Y-102245142D01*
X162618809Y-102321333D01*
X162580714Y-102359428D01*
X162504523Y-102397523D01*
X162314047Y-102397523D01*
X162237857Y-102359428D01*
X162199761Y-102321333D01*
X162161666Y-102245142D01*
X162161666Y-102092761D01*
X162199761Y-102016571D01*
X162237857Y-101978476D01*
X162314047Y-101940380D01*
%TO.C,D27*%
X129336904Y-100416571D02*
X128536904Y-100416571D01*
X128536904Y-100607047D01*
X128575000Y-100721333D01*
X128651190Y-100797523D01*
X128727380Y-100835619D01*
X128879761Y-100873714D01*
X128994047Y-100873714D01*
X129146428Y-100835619D01*
X129222619Y-100797523D01*
X129298809Y-100721333D01*
X129336904Y-100607047D01*
X129336904Y-100416571D01*
X128613095Y-101178476D02*
X128575000Y-101216571D01*
X128536904Y-101292761D01*
X128536904Y-101483238D01*
X128575000Y-101559428D01*
X128613095Y-101597523D01*
X128689285Y-101635619D01*
X128765476Y-101635619D01*
X128879761Y-101597523D01*
X129336904Y-101140380D01*
X129336904Y-101635619D01*
X128536904Y-101902285D02*
X128536904Y-102435619D01*
X129336904Y-102092761D01*
%TO.C,D28*%
X110296904Y-100416571D02*
X109496904Y-100416571D01*
X109496904Y-100607047D01*
X109535000Y-100721333D01*
X109611190Y-100797523D01*
X109687380Y-100835619D01*
X109839761Y-100873714D01*
X109954047Y-100873714D01*
X110106428Y-100835619D01*
X110182619Y-100797523D01*
X110258809Y-100721333D01*
X110296904Y-100607047D01*
X110296904Y-100416571D01*
X109573095Y-101178476D02*
X109535000Y-101216571D01*
X109496904Y-101292761D01*
X109496904Y-101483238D01*
X109535000Y-101559428D01*
X109573095Y-101597523D01*
X109649285Y-101635619D01*
X109725476Y-101635619D01*
X109839761Y-101597523D01*
X110296904Y-101140380D01*
X110296904Y-101635619D01*
X109839761Y-102092761D02*
X109801666Y-102016571D01*
X109763571Y-101978476D01*
X109687380Y-101940380D01*
X109649285Y-101940380D01*
X109573095Y-101978476D01*
X109535000Y-102016571D01*
X109496904Y-102092761D01*
X109496904Y-102245142D01*
X109535000Y-102321333D01*
X109573095Y-102359428D01*
X109649285Y-102397523D01*
X109687380Y-102397523D01*
X109763571Y-102359428D01*
X109801666Y-102321333D01*
X109839761Y-102245142D01*
X109839761Y-102092761D01*
X109877857Y-102016571D01*
X109915952Y-101978476D01*
X109992142Y-101940380D01*
X110144523Y-101940380D01*
X110220714Y-101978476D01*
X110258809Y-102016571D01*
X110296904Y-102092761D01*
X110296904Y-102245142D01*
X110258809Y-102321333D01*
X110220714Y-102359428D01*
X110144523Y-102397523D01*
X109992142Y-102397523D01*
X109915952Y-102359428D01*
X109877857Y-102321333D01*
X109839761Y-102245142D01*
%TO.C,D29*%
X91256904Y-100416571D02*
X90456904Y-100416571D01*
X90456904Y-100607047D01*
X90495000Y-100721333D01*
X90571190Y-100797523D01*
X90647380Y-100835619D01*
X90799761Y-100873714D01*
X90914047Y-100873714D01*
X91066428Y-100835619D01*
X91142619Y-100797523D01*
X91218809Y-100721333D01*
X91256904Y-100607047D01*
X91256904Y-100416571D01*
X90533095Y-101178476D02*
X90495000Y-101216571D01*
X90456904Y-101292761D01*
X90456904Y-101483238D01*
X90495000Y-101559428D01*
X90533095Y-101597523D01*
X90609285Y-101635619D01*
X90685476Y-101635619D01*
X90799761Y-101597523D01*
X91256904Y-101140380D01*
X91256904Y-101635619D01*
X91256904Y-102016571D02*
X91256904Y-102168952D01*
X91218809Y-102245142D01*
X91180714Y-102283238D01*
X91066428Y-102359428D01*
X90914047Y-102397523D01*
X90609285Y-102397523D01*
X90533095Y-102359428D01*
X90495000Y-102321333D01*
X90456904Y-102245142D01*
X90456904Y-102092761D01*
X90495000Y-102016571D01*
X90533095Y-101978476D01*
X90609285Y-101940380D01*
X90799761Y-101940380D01*
X90875952Y-101978476D01*
X90914047Y-102016571D01*
X90952142Y-102092761D01*
X90952142Y-102245142D01*
X90914047Y-102321333D01*
X90875952Y-102359428D01*
X90799761Y-102397523D01*
%TO.C,D30*%
X72216904Y-100416571D02*
X71416904Y-100416571D01*
X71416904Y-100607047D01*
X71455000Y-100721333D01*
X71531190Y-100797523D01*
X71607380Y-100835619D01*
X71759761Y-100873714D01*
X71874047Y-100873714D01*
X72026428Y-100835619D01*
X72102619Y-100797523D01*
X72178809Y-100721333D01*
X72216904Y-100607047D01*
X72216904Y-100416571D01*
X71416904Y-101140380D02*
X71416904Y-101635619D01*
X71721666Y-101368952D01*
X71721666Y-101483238D01*
X71759761Y-101559428D01*
X71797857Y-101597523D01*
X71874047Y-101635619D01*
X72064523Y-101635619D01*
X72140714Y-101597523D01*
X72178809Y-101559428D01*
X72216904Y-101483238D01*
X72216904Y-101254666D01*
X72178809Y-101178476D01*
X72140714Y-101140380D01*
X71416904Y-102130857D02*
X71416904Y-102207047D01*
X71455000Y-102283238D01*
X71493095Y-102321333D01*
X71569285Y-102359428D01*
X71721666Y-102397523D01*
X71912142Y-102397523D01*
X72064523Y-102359428D01*
X72140714Y-102321333D01*
X72178809Y-102283238D01*
X72216904Y-102207047D01*
X72216904Y-102130857D01*
X72178809Y-102054666D01*
X72140714Y-102016571D01*
X72064523Y-101978476D01*
X71912142Y-101940380D01*
X71721666Y-101940380D01*
X71569285Y-101978476D01*
X71493095Y-102016571D01*
X71455000Y-102054666D01*
X71416904Y-102130857D01*
%TO.C,D31*%
X53176904Y-100416571D02*
X52376904Y-100416571D01*
X52376904Y-100607047D01*
X52415000Y-100721333D01*
X52491190Y-100797523D01*
X52567380Y-100835619D01*
X52719761Y-100873714D01*
X52834047Y-100873714D01*
X52986428Y-100835619D01*
X53062619Y-100797523D01*
X53138809Y-100721333D01*
X53176904Y-100607047D01*
X53176904Y-100416571D01*
X52376904Y-101140380D02*
X52376904Y-101635619D01*
X52681666Y-101368952D01*
X52681666Y-101483238D01*
X52719761Y-101559428D01*
X52757857Y-101597523D01*
X52834047Y-101635619D01*
X53024523Y-101635619D01*
X53100714Y-101597523D01*
X53138809Y-101559428D01*
X53176904Y-101483238D01*
X53176904Y-101254666D01*
X53138809Y-101178476D01*
X53100714Y-101140380D01*
X53176904Y-102397523D02*
X53176904Y-101940380D01*
X53176904Y-102168952D02*
X52376904Y-102168952D01*
X52491190Y-102092761D01*
X52567380Y-102016571D01*
X52605476Y-101940380D01*
%TO.C,D32*%
X35802904Y-100416571D02*
X35002904Y-100416571D01*
X35002904Y-100607047D01*
X35041000Y-100721333D01*
X35117190Y-100797523D01*
X35193380Y-100835619D01*
X35345761Y-100873714D01*
X35460047Y-100873714D01*
X35612428Y-100835619D01*
X35688619Y-100797523D01*
X35764809Y-100721333D01*
X35802904Y-100607047D01*
X35802904Y-100416571D01*
X35002904Y-101140380D02*
X35002904Y-101635619D01*
X35307666Y-101368952D01*
X35307666Y-101483238D01*
X35345761Y-101559428D01*
X35383857Y-101597523D01*
X35460047Y-101635619D01*
X35650523Y-101635619D01*
X35726714Y-101597523D01*
X35764809Y-101559428D01*
X35802904Y-101483238D01*
X35802904Y-101254666D01*
X35764809Y-101178476D01*
X35726714Y-101140380D01*
X35079095Y-101940380D02*
X35041000Y-101978476D01*
X35002904Y-102054666D01*
X35002904Y-102245142D01*
X35041000Y-102321333D01*
X35079095Y-102359428D01*
X35155285Y-102397523D01*
X35231476Y-102397523D01*
X35345761Y-102359428D01*
X35802904Y-101902285D01*
X35802904Y-102397523D01*
%TO.C,D33*%
X181696904Y-119456571D02*
X180896904Y-119456571D01*
X180896904Y-119647047D01*
X180935000Y-119761333D01*
X181011190Y-119837523D01*
X181087380Y-119875619D01*
X181239761Y-119913714D01*
X181354047Y-119913714D01*
X181506428Y-119875619D01*
X181582619Y-119837523D01*
X181658809Y-119761333D01*
X181696904Y-119647047D01*
X181696904Y-119456571D01*
X180896904Y-120180380D02*
X180896904Y-120675619D01*
X181201666Y-120408952D01*
X181201666Y-120523238D01*
X181239761Y-120599428D01*
X181277857Y-120637523D01*
X181354047Y-120675619D01*
X181544523Y-120675619D01*
X181620714Y-120637523D01*
X181658809Y-120599428D01*
X181696904Y-120523238D01*
X181696904Y-120294666D01*
X181658809Y-120218476D01*
X181620714Y-120180380D01*
X180896904Y-120942285D02*
X180896904Y-121437523D01*
X181201666Y-121170857D01*
X181201666Y-121285142D01*
X181239761Y-121361333D01*
X181277857Y-121399428D01*
X181354047Y-121437523D01*
X181544523Y-121437523D01*
X181620714Y-121399428D01*
X181658809Y-121361333D01*
X181696904Y-121285142D01*
X181696904Y-121056571D01*
X181658809Y-120980380D01*
X181620714Y-120942285D01*
%TO.C,D34*%
X162656904Y-119456571D02*
X161856904Y-119456571D01*
X161856904Y-119647047D01*
X161895000Y-119761333D01*
X161971190Y-119837523D01*
X162047380Y-119875619D01*
X162199761Y-119913714D01*
X162314047Y-119913714D01*
X162466428Y-119875619D01*
X162542619Y-119837523D01*
X162618809Y-119761333D01*
X162656904Y-119647047D01*
X162656904Y-119456571D01*
X161856904Y-120180380D02*
X161856904Y-120675619D01*
X162161666Y-120408952D01*
X162161666Y-120523238D01*
X162199761Y-120599428D01*
X162237857Y-120637523D01*
X162314047Y-120675619D01*
X162504523Y-120675619D01*
X162580714Y-120637523D01*
X162618809Y-120599428D01*
X162656904Y-120523238D01*
X162656904Y-120294666D01*
X162618809Y-120218476D01*
X162580714Y-120180380D01*
X162123571Y-121361333D02*
X162656904Y-121361333D01*
X161818809Y-121170857D02*
X162390238Y-120980380D01*
X162390238Y-121475619D01*
%TO.C,D35*%
X143616904Y-119456571D02*
X142816904Y-119456571D01*
X142816904Y-119647047D01*
X142855000Y-119761333D01*
X142931190Y-119837523D01*
X143007380Y-119875619D01*
X143159761Y-119913714D01*
X143274047Y-119913714D01*
X143426428Y-119875619D01*
X143502619Y-119837523D01*
X143578809Y-119761333D01*
X143616904Y-119647047D01*
X143616904Y-119456571D01*
X142816904Y-120180380D02*
X142816904Y-120675619D01*
X143121666Y-120408952D01*
X143121666Y-120523238D01*
X143159761Y-120599428D01*
X143197857Y-120637523D01*
X143274047Y-120675619D01*
X143464523Y-120675619D01*
X143540714Y-120637523D01*
X143578809Y-120599428D01*
X143616904Y-120523238D01*
X143616904Y-120294666D01*
X143578809Y-120218476D01*
X143540714Y-120180380D01*
X142816904Y-121399428D02*
X142816904Y-121018476D01*
X143197857Y-120980380D01*
X143159761Y-121018476D01*
X143121666Y-121094666D01*
X143121666Y-121285142D01*
X143159761Y-121361333D01*
X143197857Y-121399428D01*
X143274047Y-121437523D01*
X143464523Y-121437523D01*
X143540714Y-121399428D01*
X143578809Y-121361333D01*
X143616904Y-121285142D01*
X143616904Y-121094666D01*
X143578809Y-121018476D01*
X143540714Y-120980380D01*
%TO.C,D36*%
X110296904Y-119456571D02*
X109496904Y-119456571D01*
X109496904Y-119647047D01*
X109535000Y-119761333D01*
X109611190Y-119837523D01*
X109687380Y-119875619D01*
X109839761Y-119913714D01*
X109954047Y-119913714D01*
X110106428Y-119875619D01*
X110182619Y-119837523D01*
X110258809Y-119761333D01*
X110296904Y-119647047D01*
X110296904Y-119456571D01*
X109496904Y-120180380D02*
X109496904Y-120675619D01*
X109801666Y-120408952D01*
X109801666Y-120523238D01*
X109839761Y-120599428D01*
X109877857Y-120637523D01*
X109954047Y-120675619D01*
X110144523Y-120675619D01*
X110220714Y-120637523D01*
X110258809Y-120599428D01*
X110296904Y-120523238D01*
X110296904Y-120294666D01*
X110258809Y-120218476D01*
X110220714Y-120180380D01*
X109496904Y-121361333D02*
X109496904Y-121208952D01*
X109535000Y-121132761D01*
X109573095Y-121094666D01*
X109687380Y-121018476D01*
X109839761Y-120980380D01*
X110144523Y-120980380D01*
X110220714Y-121018476D01*
X110258809Y-121056571D01*
X110296904Y-121132761D01*
X110296904Y-121285142D01*
X110258809Y-121361333D01*
X110220714Y-121399428D01*
X110144523Y-121437523D01*
X109954047Y-121437523D01*
X109877857Y-121399428D01*
X109839761Y-121361333D01*
X109801666Y-121285142D01*
X109801666Y-121132761D01*
X109839761Y-121056571D01*
X109877857Y-121018476D01*
X109954047Y-120980380D01*
%TO.C,D37*%
X91256904Y-119456571D02*
X90456904Y-119456571D01*
X90456904Y-119647047D01*
X90495000Y-119761333D01*
X90571190Y-119837523D01*
X90647380Y-119875619D01*
X90799761Y-119913714D01*
X90914047Y-119913714D01*
X91066428Y-119875619D01*
X91142619Y-119837523D01*
X91218809Y-119761333D01*
X91256904Y-119647047D01*
X91256904Y-119456571D01*
X90456904Y-120180380D02*
X90456904Y-120675619D01*
X90761666Y-120408952D01*
X90761666Y-120523238D01*
X90799761Y-120599428D01*
X90837857Y-120637523D01*
X90914047Y-120675619D01*
X91104523Y-120675619D01*
X91180714Y-120637523D01*
X91218809Y-120599428D01*
X91256904Y-120523238D01*
X91256904Y-120294666D01*
X91218809Y-120218476D01*
X91180714Y-120180380D01*
X90456904Y-120942285D02*
X90456904Y-121475619D01*
X91256904Y-121132761D01*
%TO.C,D38*%
X71493095Y-121399428D02*
X72293095Y-121399428D01*
X72293095Y-121208952D01*
X72255000Y-121094666D01*
X72178809Y-121018476D01*
X72102619Y-120980380D01*
X71950238Y-120942285D01*
X71835952Y-120942285D01*
X71683571Y-120980380D01*
X71607380Y-121018476D01*
X71531190Y-121094666D01*
X71493095Y-121208952D01*
X71493095Y-121399428D01*
X72293095Y-120675619D02*
X72293095Y-120180380D01*
X71988333Y-120447047D01*
X71988333Y-120332761D01*
X71950238Y-120256571D01*
X71912142Y-120218476D01*
X71835952Y-120180380D01*
X71645476Y-120180380D01*
X71569285Y-120218476D01*
X71531190Y-120256571D01*
X71493095Y-120332761D01*
X71493095Y-120561333D01*
X71531190Y-120637523D01*
X71569285Y-120675619D01*
X71950238Y-119723238D02*
X71988333Y-119799428D01*
X72026428Y-119837523D01*
X72102619Y-119875619D01*
X72140714Y-119875619D01*
X72216904Y-119837523D01*
X72255000Y-119799428D01*
X72293095Y-119723238D01*
X72293095Y-119570857D01*
X72255000Y-119494666D01*
X72216904Y-119456571D01*
X72140714Y-119418476D01*
X72102619Y-119418476D01*
X72026428Y-119456571D01*
X71988333Y-119494666D01*
X71950238Y-119570857D01*
X71950238Y-119723238D01*
X71912142Y-119799428D01*
X71874047Y-119837523D01*
X71797857Y-119875619D01*
X71645476Y-119875619D01*
X71569285Y-119837523D01*
X71531190Y-119799428D01*
X71493095Y-119723238D01*
X71493095Y-119570857D01*
X71531190Y-119494666D01*
X71569285Y-119456571D01*
X71645476Y-119418476D01*
X71797857Y-119418476D01*
X71874047Y-119456571D01*
X71912142Y-119494666D01*
X71950238Y-119570857D01*
%TO.C,D39*%
X32470904Y-119218571D02*
X31670904Y-119218571D01*
X31670904Y-119409047D01*
X31709000Y-119523333D01*
X31785190Y-119599523D01*
X31861380Y-119637619D01*
X32013761Y-119675714D01*
X32128047Y-119675714D01*
X32280428Y-119637619D01*
X32356619Y-119599523D01*
X32432809Y-119523333D01*
X32470904Y-119409047D01*
X32470904Y-119218571D01*
X31670904Y-119942380D02*
X31670904Y-120437619D01*
X31975666Y-120170952D01*
X31975666Y-120285238D01*
X32013761Y-120361428D01*
X32051857Y-120399523D01*
X32128047Y-120437619D01*
X32318523Y-120437619D01*
X32394714Y-120399523D01*
X32432809Y-120361428D01*
X32470904Y-120285238D01*
X32470904Y-120056666D01*
X32432809Y-119980476D01*
X32394714Y-119942380D01*
X32470904Y-120818571D02*
X32470904Y-120970952D01*
X32432809Y-121047142D01*
X32394714Y-121085238D01*
X32280428Y-121161428D01*
X32128047Y-121199523D01*
X31823285Y-121199523D01*
X31747095Y-121161428D01*
X31709000Y-121123333D01*
X31670904Y-121047142D01*
X31670904Y-120894761D01*
X31709000Y-120818571D01*
X31747095Y-120780476D01*
X31823285Y-120742380D01*
X32013761Y-120742380D01*
X32089952Y-120780476D01*
X32128047Y-120818571D01*
X32166142Y-120894761D01*
X32166142Y-121047142D01*
X32128047Y-121123333D01*
X32089952Y-121161428D01*
X32013761Y-121199523D01*
%TO.C,D40*%
X26282904Y-81376571D02*
X25482904Y-81376571D01*
X25482904Y-81567047D01*
X25521000Y-81681333D01*
X25597190Y-81757523D01*
X25673380Y-81795619D01*
X25825761Y-81833714D01*
X25940047Y-81833714D01*
X26092428Y-81795619D01*
X26168619Y-81757523D01*
X26244809Y-81681333D01*
X26282904Y-81567047D01*
X26282904Y-81376571D01*
X25749571Y-82519428D02*
X26282904Y-82519428D01*
X25444809Y-82328952D02*
X26016238Y-82138476D01*
X26016238Y-82633714D01*
X25482904Y-83090857D02*
X25482904Y-83167047D01*
X25521000Y-83243238D01*
X25559095Y-83281333D01*
X25635285Y-83319428D01*
X25787666Y-83357523D01*
X25978142Y-83357523D01*
X26130523Y-83319428D01*
X26206714Y-83281333D01*
X26244809Y-83243238D01*
X26282904Y-83167047D01*
X26282904Y-83090857D01*
X26244809Y-83014666D01*
X26206714Y-82976571D01*
X26130523Y-82938476D01*
X25978142Y-82900380D01*
X25787666Y-82900380D01*
X25635285Y-82938476D01*
X25559095Y-82976571D01*
X25521000Y-83014666D01*
X25482904Y-83090857D01*
%TO.C,SW1*%
X194113333Y-32133761D02*
X193970476Y-32181380D01*
X193732380Y-32181380D01*
X193637142Y-32133761D01*
X193589523Y-32086142D01*
X193541904Y-31990904D01*
X193541904Y-31895666D01*
X193589523Y-31800428D01*
X193637142Y-31752809D01*
X193732380Y-31705190D01*
X193922857Y-31657571D01*
X194018095Y-31609952D01*
X194065714Y-31562333D01*
X194113333Y-31467095D01*
X194113333Y-31371857D01*
X194065714Y-31276619D01*
X194018095Y-31229000D01*
X193922857Y-31181380D01*
X193684761Y-31181380D01*
X193541904Y-31229000D01*
X193208571Y-31181380D02*
X192970476Y-32181380D01*
X192780000Y-31467095D01*
X192589523Y-32181380D01*
X192351428Y-31181380D01*
X191446666Y-32181380D02*
X192018095Y-32181380D01*
X191732380Y-32181380D02*
X191732380Y-31181380D01*
X191827619Y-31324238D01*
X191922857Y-31419476D01*
X192018095Y-31467095D01*
%TO.C,SW2*%
X165553333Y-32133761D02*
X165410476Y-32181380D01*
X165172380Y-32181380D01*
X165077142Y-32133761D01*
X165029523Y-32086142D01*
X164981904Y-31990904D01*
X164981904Y-31895666D01*
X165029523Y-31800428D01*
X165077142Y-31752809D01*
X165172380Y-31705190D01*
X165362857Y-31657571D01*
X165458095Y-31609952D01*
X165505714Y-31562333D01*
X165553333Y-31467095D01*
X165553333Y-31371857D01*
X165505714Y-31276619D01*
X165458095Y-31229000D01*
X165362857Y-31181380D01*
X165124761Y-31181380D01*
X164981904Y-31229000D01*
X164648571Y-31181380D02*
X164410476Y-32181380D01*
X164220000Y-31467095D01*
X164029523Y-32181380D01*
X163791428Y-31181380D01*
X163458095Y-31276619D02*
X163410476Y-31229000D01*
X163315238Y-31181380D01*
X163077142Y-31181380D01*
X162981904Y-31229000D01*
X162934285Y-31276619D01*
X162886666Y-31371857D01*
X162886666Y-31467095D01*
X162934285Y-31609952D01*
X163505714Y-32181380D01*
X162886666Y-32181380D01*
%TO.C,SW3*%
X136993333Y-32133761D02*
X136850476Y-32181380D01*
X136612380Y-32181380D01*
X136517142Y-32133761D01*
X136469523Y-32086142D01*
X136421904Y-31990904D01*
X136421904Y-31895666D01*
X136469523Y-31800428D01*
X136517142Y-31752809D01*
X136612380Y-31705190D01*
X136802857Y-31657571D01*
X136898095Y-31609952D01*
X136945714Y-31562333D01*
X136993333Y-31467095D01*
X136993333Y-31371857D01*
X136945714Y-31276619D01*
X136898095Y-31229000D01*
X136802857Y-31181380D01*
X136564761Y-31181380D01*
X136421904Y-31229000D01*
X136088571Y-31181380D02*
X135850476Y-32181380D01*
X135660000Y-31467095D01*
X135469523Y-32181380D01*
X135231428Y-31181380D01*
X134945714Y-31181380D02*
X134326666Y-31181380D01*
X134660000Y-31562333D01*
X134517142Y-31562333D01*
X134421904Y-31609952D01*
X134374285Y-31657571D01*
X134326666Y-31752809D01*
X134326666Y-31990904D01*
X134374285Y-32086142D01*
X134421904Y-32133761D01*
X134517142Y-32181380D01*
X134802857Y-32181380D01*
X134898095Y-32133761D01*
X134945714Y-32086142D01*
%TO.C,SW4*%
X117953333Y-32133761D02*
X117810476Y-32181380D01*
X117572380Y-32181380D01*
X117477142Y-32133761D01*
X117429523Y-32086142D01*
X117381904Y-31990904D01*
X117381904Y-31895666D01*
X117429523Y-31800428D01*
X117477142Y-31752809D01*
X117572380Y-31705190D01*
X117762857Y-31657571D01*
X117858095Y-31609952D01*
X117905714Y-31562333D01*
X117953333Y-31467095D01*
X117953333Y-31371857D01*
X117905714Y-31276619D01*
X117858095Y-31229000D01*
X117762857Y-31181380D01*
X117524761Y-31181380D01*
X117381904Y-31229000D01*
X117048571Y-31181380D02*
X116810476Y-32181380D01*
X116620000Y-31467095D01*
X116429523Y-32181380D01*
X116191428Y-31181380D01*
X115381904Y-31514714D02*
X115381904Y-32181380D01*
X115620000Y-31133761D02*
X115858095Y-31848047D01*
X115239047Y-31848047D01*
%TO.C,SW5*%
X98913333Y-32133761D02*
X98770476Y-32181380D01*
X98532380Y-32181380D01*
X98437142Y-32133761D01*
X98389523Y-32086142D01*
X98341904Y-31990904D01*
X98341904Y-31895666D01*
X98389523Y-31800428D01*
X98437142Y-31752809D01*
X98532380Y-31705190D01*
X98722857Y-31657571D01*
X98818095Y-31609952D01*
X98865714Y-31562333D01*
X98913333Y-31467095D01*
X98913333Y-31371857D01*
X98865714Y-31276619D01*
X98818095Y-31229000D01*
X98722857Y-31181380D01*
X98484761Y-31181380D01*
X98341904Y-31229000D01*
X98008571Y-31181380D02*
X97770476Y-32181380D01*
X97580000Y-31467095D01*
X97389523Y-32181380D01*
X97151428Y-31181380D01*
X96294285Y-31181380D02*
X96770476Y-31181380D01*
X96818095Y-31657571D01*
X96770476Y-31609952D01*
X96675238Y-31562333D01*
X96437142Y-31562333D01*
X96341904Y-31609952D01*
X96294285Y-31657571D01*
X96246666Y-31752809D01*
X96246666Y-31990904D01*
X96294285Y-32086142D01*
X96341904Y-32133761D01*
X96437142Y-32181380D01*
X96675238Y-32181380D01*
X96770476Y-32133761D01*
X96818095Y-32086142D01*
%TO.C,SW6*%
X79873333Y-32133761D02*
X79730476Y-32181380D01*
X79492380Y-32181380D01*
X79397142Y-32133761D01*
X79349523Y-32086142D01*
X79301904Y-31990904D01*
X79301904Y-31895666D01*
X79349523Y-31800428D01*
X79397142Y-31752809D01*
X79492380Y-31705190D01*
X79682857Y-31657571D01*
X79778095Y-31609952D01*
X79825714Y-31562333D01*
X79873333Y-31467095D01*
X79873333Y-31371857D01*
X79825714Y-31276619D01*
X79778095Y-31229000D01*
X79682857Y-31181380D01*
X79444761Y-31181380D01*
X79301904Y-31229000D01*
X78968571Y-31181380D02*
X78730476Y-32181380D01*
X78540000Y-31467095D01*
X78349523Y-32181380D01*
X78111428Y-31181380D01*
X77301904Y-31181380D02*
X77492380Y-31181380D01*
X77587619Y-31229000D01*
X77635238Y-31276619D01*
X77730476Y-31419476D01*
X77778095Y-31609952D01*
X77778095Y-31990904D01*
X77730476Y-32086142D01*
X77682857Y-32133761D01*
X77587619Y-32181380D01*
X77397142Y-32181380D01*
X77301904Y-32133761D01*
X77254285Y-32086142D01*
X77206666Y-31990904D01*
X77206666Y-31752809D01*
X77254285Y-31657571D01*
X77301904Y-31609952D01*
X77397142Y-31562333D01*
X77587619Y-31562333D01*
X77682857Y-31609952D01*
X77730476Y-31657571D01*
X77778095Y-31752809D01*
%TO.C,SW7*%
X60833333Y-32133761D02*
X60690476Y-32181380D01*
X60452380Y-32181380D01*
X60357142Y-32133761D01*
X60309523Y-32086142D01*
X60261904Y-31990904D01*
X60261904Y-31895666D01*
X60309523Y-31800428D01*
X60357142Y-31752809D01*
X60452380Y-31705190D01*
X60642857Y-31657571D01*
X60738095Y-31609952D01*
X60785714Y-31562333D01*
X60833333Y-31467095D01*
X60833333Y-31371857D01*
X60785714Y-31276619D01*
X60738095Y-31229000D01*
X60642857Y-31181380D01*
X60404761Y-31181380D01*
X60261904Y-31229000D01*
X59928571Y-31181380D02*
X59690476Y-32181380D01*
X59500000Y-31467095D01*
X59309523Y-32181380D01*
X59071428Y-31181380D01*
X58785714Y-31181380D02*
X58119047Y-31181380D01*
X58547619Y-32181380D01*
%TO.C,SW8*%
X41793333Y-32133761D02*
X41650476Y-32181380D01*
X41412380Y-32181380D01*
X41317142Y-32133761D01*
X41269523Y-32086142D01*
X41221904Y-31990904D01*
X41221904Y-31895666D01*
X41269523Y-31800428D01*
X41317142Y-31752809D01*
X41412380Y-31705190D01*
X41602857Y-31657571D01*
X41698095Y-31609952D01*
X41745714Y-31562333D01*
X41793333Y-31467095D01*
X41793333Y-31371857D01*
X41745714Y-31276619D01*
X41698095Y-31229000D01*
X41602857Y-31181380D01*
X41364761Y-31181380D01*
X41221904Y-31229000D01*
X40888571Y-31181380D02*
X40650476Y-32181380D01*
X40460000Y-31467095D01*
X40269523Y-32181380D01*
X40031428Y-31181380D01*
X39507619Y-31609952D02*
X39602857Y-31562333D01*
X39650476Y-31514714D01*
X39698095Y-31419476D01*
X39698095Y-31371857D01*
X39650476Y-31276619D01*
X39602857Y-31229000D01*
X39507619Y-31181380D01*
X39317142Y-31181380D01*
X39221904Y-31229000D01*
X39174285Y-31276619D01*
X39126666Y-31371857D01*
X39126666Y-31419476D01*
X39174285Y-31514714D01*
X39221904Y-31562333D01*
X39317142Y-31609952D01*
X39507619Y-31609952D01*
X39602857Y-31657571D01*
X39650476Y-31705190D01*
X39698095Y-31800428D01*
X39698095Y-31990904D01*
X39650476Y-32086142D01*
X39602857Y-32133761D01*
X39507619Y-32181380D01*
X39317142Y-32181380D01*
X39221904Y-32133761D01*
X39174285Y-32086142D01*
X39126666Y-31990904D01*
X39126666Y-31800428D01*
X39174285Y-31705190D01*
X39221904Y-31657571D01*
X39317142Y-31609952D01*
%TO.C,SW9*%
X194113333Y-51173761D02*
X193970476Y-51221380D01*
X193732380Y-51221380D01*
X193637142Y-51173761D01*
X193589523Y-51126142D01*
X193541904Y-51030904D01*
X193541904Y-50935666D01*
X193589523Y-50840428D01*
X193637142Y-50792809D01*
X193732380Y-50745190D01*
X193922857Y-50697571D01*
X194018095Y-50649952D01*
X194065714Y-50602333D01*
X194113333Y-50507095D01*
X194113333Y-50411857D01*
X194065714Y-50316619D01*
X194018095Y-50269000D01*
X193922857Y-50221380D01*
X193684761Y-50221380D01*
X193541904Y-50269000D01*
X193208571Y-50221380D02*
X192970476Y-51221380D01*
X192780000Y-50507095D01*
X192589523Y-51221380D01*
X192351428Y-50221380D01*
X191922857Y-51221380D02*
X191732380Y-51221380D01*
X191637142Y-51173761D01*
X191589523Y-51126142D01*
X191494285Y-50983285D01*
X191446666Y-50792809D01*
X191446666Y-50411857D01*
X191494285Y-50316619D01*
X191541904Y-50269000D01*
X191637142Y-50221380D01*
X191827619Y-50221380D01*
X191922857Y-50269000D01*
X191970476Y-50316619D01*
X192018095Y-50411857D01*
X192018095Y-50649952D01*
X191970476Y-50745190D01*
X191922857Y-50792809D01*
X191827619Y-50840428D01*
X191637142Y-50840428D01*
X191541904Y-50792809D01*
X191494285Y-50745190D01*
X191446666Y-50649952D01*
%TO.C,SW10*%
X146989523Y-51173761D02*
X146846666Y-51221380D01*
X146608571Y-51221380D01*
X146513333Y-51173761D01*
X146465714Y-51126142D01*
X146418095Y-51030904D01*
X146418095Y-50935666D01*
X146465714Y-50840428D01*
X146513333Y-50792809D01*
X146608571Y-50745190D01*
X146799047Y-50697571D01*
X146894285Y-50649952D01*
X146941904Y-50602333D01*
X146989523Y-50507095D01*
X146989523Y-50411857D01*
X146941904Y-50316619D01*
X146894285Y-50269000D01*
X146799047Y-50221380D01*
X146560952Y-50221380D01*
X146418095Y-50269000D01*
X146084761Y-50221380D02*
X145846666Y-51221380D01*
X145656190Y-50507095D01*
X145465714Y-51221380D01*
X145227619Y-50221380D01*
X144322857Y-51221380D02*
X144894285Y-51221380D01*
X144608571Y-51221380D02*
X144608571Y-50221380D01*
X144703809Y-50364238D01*
X144799047Y-50459476D01*
X144894285Y-50507095D01*
X143703809Y-50221380D02*
X143608571Y-50221380D01*
X143513333Y-50269000D01*
X143465714Y-50316619D01*
X143418095Y-50411857D01*
X143370476Y-50602333D01*
X143370476Y-50840428D01*
X143418095Y-51030904D01*
X143465714Y-51126142D01*
X143513333Y-51173761D01*
X143608571Y-51221380D01*
X143703809Y-51221380D01*
X143799047Y-51173761D01*
X143846666Y-51126142D01*
X143894285Y-51030904D01*
X143941904Y-50840428D01*
X143941904Y-50602333D01*
X143894285Y-50411857D01*
X143846666Y-50316619D01*
X143799047Y-50269000D01*
X143703809Y-50221380D01*
%TO.C,SW11*%
X127949523Y-51173761D02*
X127806666Y-51221380D01*
X127568571Y-51221380D01*
X127473333Y-51173761D01*
X127425714Y-51126142D01*
X127378095Y-51030904D01*
X127378095Y-50935666D01*
X127425714Y-50840428D01*
X127473333Y-50792809D01*
X127568571Y-50745190D01*
X127759047Y-50697571D01*
X127854285Y-50649952D01*
X127901904Y-50602333D01*
X127949523Y-50507095D01*
X127949523Y-50411857D01*
X127901904Y-50316619D01*
X127854285Y-50269000D01*
X127759047Y-50221380D01*
X127520952Y-50221380D01*
X127378095Y-50269000D01*
X127044761Y-50221380D02*
X126806666Y-51221380D01*
X126616190Y-50507095D01*
X126425714Y-51221380D01*
X126187619Y-50221380D01*
X125282857Y-51221380D02*
X125854285Y-51221380D01*
X125568571Y-51221380D02*
X125568571Y-50221380D01*
X125663809Y-50364238D01*
X125759047Y-50459476D01*
X125854285Y-50507095D01*
X124330476Y-51221380D02*
X124901904Y-51221380D01*
X124616190Y-51221380D02*
X124616190Y-50221380D01*
X124711428Y-50364238D01*
X124806666Y-50459476D01*
X124901904Y-50507095D01*
%TO.C,SW12*%
X108909523Y-51173761D02*
X108766666Y-51221380D01*
X108528571Y-51221380D01*
X108433333Y-51173761D01*
X108385714Y-51126142D01*
X108338095Y-51030904D01*
X108338095Y-50935666D01*
X108385714Y-50840428D01*
X108433333Y-50792809D01*
X108528571Y-50745190D01*
X108719047Y-50697571D01*
X108814285Y-50649952D01*
X108861904Y-50602333D01*
X108909523Y-50507095D01*
X108909523Y-50411857D01*
X108861904Y-50316619D01*
X108814285Y-50269000D01*
X108719047Y-50221380D01*
X108480952Y-50221380D01*
X108338095Y-50269000D01*
X108004761Y-50221380D02*
X107766666Y-51221380D01*
X107576190Y-50507095D01*
X107385714Y-51221380D01*
X107147619Y-50221380D01*
X106242857Y-51221380D02*
X106814285Y-51221380D01*
X106528571Y-51221380D02*
X106528571Y-50221380D01*
X106623809Y-50364238D01*
X106719047Y-50459476D01*
X106814285Y-50507095D01*
X105861904Y-50316619D02*
X105814285Y-50269000D01*
X105719047Y-50221380D01*
X105480952Y-50221380D01*
X105385714Y-50269000D01*
X105338095Y-50316619D01*
X105290476Y-50411857D01*
X105290476Y-50507095D01*
X105338095Y-50649952D01*
X105909523Y-51221380D01*
X105290476Y-51221380D01*
%TO.C,SW13*%
X89869523Y-51173761D02*
X89726666Y-51221380D01*
X89488571Y-51221380D01*
X89393333Y-51173761D01*
X89345714Y-51126142D01*
X89298095Y-51030904D01*
X89298095Y-50935666D01*
X89345714Y-50840428D01*
X89393333Y-50792809D01*
X89488571Y-50745190D01*
X89679047Y-50697571D01*
X89774285Y-50649952D01*
X89821904Y-50602333D01*
X89869523Y-50507095D01*
X89869523Y-50411857D01*
X89821904Y-50316619D01*
X89774285Y-50269000D01*
X89679047Y-50221380D01*
X89440952Y-50221380D01*
X89298095Y-50269000D01*
X88964761Y-50221380D02*
X88726666Y-51221380D01*
X88536190Y-50507095D01*
X88345714Y-51221380D01*
X88107619Y-50221380D01*
X87202857Y-51221380D02*
X87774285Y-51221380D01*
X87488571Y-51221380D02*
X87488571Y-50221380D01*
X87583809Y-50364238D01*
X87679047Y-50459476D01*
X87774285Y-50507095D01*
X86869523Y-50221380D02*
X86250476Y-50221380D01*
X86583809Y-50602333D01*
X86440952Y-50602333D01*
X86345714Y-50649952D01*
X86298095Y-50697571D01*
X86250476Y-50792809D01*
X86250476Y-51030904D01*
X86298095Y-51126142D01*
X86345714Y-51173761D01*
X86440952Y-51221380D01*
X86726666Y-51221380D01*
X86821904Y-51173761D01*
X86869523Y-51126142D01*
%TO.C,SW14*%
X70829523Y-51173761D02*
X70686666Y-51221380D01*
X70448571Y-51221380D01*
X70353333Y-51173761D01*
X70305714Y-51126142D01*
X70258095Y-51030904D01*
X70258095Y-50935666D01*
X70305714Y-50840428D01*
X70353333Y-50792809D01*
X70448571Y-50745190D01*
X70639047Y-50697571D01*
X70734285Y-50649952D01*
X70781904Y-50602333D01*
X70829523Y-50507095D01*
X70829523Y-50411857D01*
X70781904Y-50316619D01*
X70734285Y-50269000D01*
X70639047Y-50221380D01*
X70400952Y-50221380D01*
X70258095Y-50269000D01*
X69924761Y-50221380D02*
X69686666Y-51221380D01*
X69496190Y-50507095D01*
X69305714Y-51221380D01*
X69067619Y-50221380D01*
X68162857Y-51221380D02*
X68734285Y-51221380D01*
X68448571Y-51221380D02*
X68448571Y-50221380D01*
X68543809Y-50364238D01*
X68639047Y-50459476D01*
X68734285Y-50507095D01*
X67305714Y-50554714D02*
X67305714Y-51221380D01*
X67543809Y-50173761D02*
X67781904Y-50888047D01*
X67162857Y-50888047D01*
%TO.C,SW15*%
X51789523Y-51173761D02*
X51646666Y-51221380D01*
X51408571Y-51221380D01*
X51313333Y-51173761D01*
X51265714Y-51126142D01*
X51218095Y-51030904D01*
X51218095Y-50935666D01*
X51265714Y-50840428D01*
X51313333Y-50792809D01*
X51408571Y-50745190D01*
X51599047Y-50697571D01*
X51694285Y-50649952D01*
X51741904Y-50602333D01*
X51789523Y-50507095D01*
X51789523Y-50411857D01*
X51741904Y-50316619D01*
X51694285Y-50269000D01*
X51599047Y-50221380D01*
X51360952Y-50221380D01*
X51218095Y-50269000D01*
X50884761Y-50221380D02*
X50646666Y-51221380D01*
X50456190Y-50507095D01*
X50265714Y-51221380D01*
X50027619Y-50221380D01*
X49122857Y-51221380D02*
X49694285Y-51221380D01*
X49408571Y-51221380D02*
X49408571Y-50221380D01*
X49503809Y-50364238D01*
X49599047Y-50459476D01*
X49694285Y-50507095D01*
X48218095Y-50221380D02*
X48694285Y-50221380D01*
X48741904Y-50697571D01*
X48694285Y-50649952D01*
X48599047Y-50602333D01*
X48360952Y-50602333D01*
X48265714Y-50649952D01*
X48218095Y-50697571D01*
X48170476Y-50792809D01*
X48170476Y-51030904D01*
X48218095Y-51126142D01*
X48265714Y-51173761D01*
X48360952Y-51221380D01*
X48599047Y-51221380D01*
X48694285Y-51173761D01*
X48741904Y-51126142D01*
%TO.C,SW16*%
X32749523Y-51173761D02*
X32606666Y-51221380D01*
X32368571Y-51221380D01*
X32273333Y-51173761D01*
X32225714Y-51126142D01*
X32178095Y-51030904D01*
X32178095Y-50935666D01*
X32225714Y-50840428D01*
X32273333Y-50792809D01*
X32368571Y-50745190D01*
X32559047Y-50697571D01*
X32654285Y-50649952D01*
X32701904Y-50602333D01*
X32749523Y-50507095D01*
X32749523Y-50411857D01*
X32701904Y-50316619D01*
X32654285Y-50269000D01*
X32559047Y-50221380D01*
X32320952Y-50221380D01*
X32178095Y-50269000D01*
X31844761Y-50221380D02*
X31606666Y-51221380D01*
X31416190Y-50507095D01*
X31225714Y-51221380D01*
X30987619Y-50221380D01*
X30082857Y-51221380D02*
X30654285Y-51221380D01*
X30368571Y-51221380D02*
X30368571Y-50221380D01*
X30463809Y-50364238D01*
X30559047Y-50459476D01*
X30654285Y-50507095D01*
X29225714Y-50221380D02*
X29416190Y-50221380D01*
X29511428Y-50269000D01*
X29559047Y-50316619D01*
X29654285Y-50459476D01*
X29701904Y-50649952D01*
X29701904Y-51030904D01*
X29654285Y-51126142D01*
X29606666Y-51173761D01*
X29511428Y-51221380D01*
X29320952Y-51221380D01*
X29225714Y-51173761D01*
X29178095Y-51126142D01*
X29130476Y-51030904D01*
X29130476Y-50792809D01*
X29178095Y-50697571D01*
X29225714Y-50649952D01*
X29320952Y-50602333D01*
X29511428Y-50602333D01*
X29606666Y-50649952D01*
X29654285Y-50697571D01*
X29701904Y-50792809D01*
%TO.C,SW17*%
X194589523Y-70213761D02*
X194446666Y-70261380D01*
X194208571Y-70261380D01*
X194113333Y-70213761D01*
X194065714Y-70166142D01*
X194018095Y-70070904D01*
X194018095Y-69975666D01*
X194065714Y-69880428D01*
X194113333Y-69832809D01*
X194208571Y-69785190D01*
X194399047Y-69737571D01*
X194494285Y-69689952D01*
X194541904Y-69642333D01*
X194589523Y-69547095D01*
X194589523Y-69451857D01*
X194541904Y-69356619D01*
X194494285Y-69309000D01*
X194399047Y-69261380D01*
X194160952Y-69261380D01*
X194018095Y-69309000D01*
X193684761Y-69261380D02*
X193446666Y-70261380D01*
X193256190Y-69547095D01*
X193065714Y-70261380D01*
X192827619Y-69261380D01*
X191922857Y-70261380D02*
X192494285Y-70261380D01*
X192208571Y-70261380D02*
X192208571Y-69261380D01*
X192303809Y-69404238D01*
X192399047Y-69499476D01*
X192494285Y-69547095D01*
X191589523Y-69261380D02*
X190922857Y-69261380D01*
X191351428Y-70261380D01*
%TO.C,SW19*%
X151749523Y-70213761D02*
X151606666Y-70261380D01*
X151368571Y-70261380D01*
X151273333Y-70213761D01*
X151225714Y-70166142D01*
X151178095Y-70070904D01*
X151178095Y-69975666D01*
X151225714Y-69880428D01*
X151273333Y-69832809D01*
X151368571Y-69785190D01*
X151559047Y-69737571D01*
X151654285Y-69689952D01*
X151701904Y-69642333D01*
X151749523Y-69547095D01*
X151749523Y-69451857D01*
X151701904Y-69356619D01*
X151654285Y-69309000D01*
X151559047Y-69261380D01*
X151320952Y-69261380D01*
X151178095Y-69309000D01*
X150844761Y-69261380D02*
X150606666Y-70261380D01*
X150416190Y-69547095D01*
X150225714Y-70261380D01*
X149987619Y-69261380D01*
X149082857Y-70261380D02*
X149654285Y-70261380D01*
X149368571Y-70261380D02*
X149368571Y-69261380D01*
X149463809Y-69404238D01*
X149559047Y-69499476D01*
X149654285Y-69547095D01*
X148606666Y-70261380D02*
X148416190Y-70261380D01*
X148320952Y-70213761D01*
X148273333Y-70166142D01*
X148178095Y-70023285D01*
X148130476Y-69832809D01*
X148130476Y-69451857D01*
X148178095Y-69356619D01*
X148225714Y-69309000D01*
X148320952Y-69261380D01*
X148511428Y-69261380D01*
X148606666Y-69309000D01*
X148654285Y-69356619D01*
X148701904Y-69451857D01*
X148701904Y-69689952D01*
X148654285Y-69785190D01*
X148606666Y-69832809D01*
X148511428Y-69880428D01*
X148320952Y-69880428D01*
X148225714Y-69832809D01*
X148178095Y-69785190D01*
X148130476Y-69689952D01*
%TO.C,SW20*%
X132709523Y-70213761D02*
X132566666Y-70261380D01*
X132328571Y-70261380D01*
X132233333Y-70213761D01*
X132185714Y-70166142D01*
X132138095Y-70070904D01*
X132138095Y-69975666D01*
X132185714Y-69880428D01*
X132233333Y-69832809D01*
X132328571Y-69785190D01*
X132519047Y-69737571D01*
X132614285Y-69689952D01*
X132661904Y-69642333D01*
X132709523Y-69547095D01*
X132709523Y-69451857D01*
X132661904Y-69356619D01*
X132614285Y-69309000D01*
X132519047Y-69261380D01*
X132280952Y-69261380D01*
X132138095Y-69309000D01*
X131804761Y-69261380D02*
X131566666Y-70261380D01*
X131376190Y-69547095D01*
X131185714Y-70261380D01*
X130947619Y-69261380D01*
X130614285Y-69356619D02*
X130566666Y-69309000D01*
X130471428Y-69261380D01*
X130233333Y-69261380D01*
X130138095Y-69309000D01*
X130090476Y-69356619D01*
X130042857Y-69451857D01*
X130042857Y-69547095D01*
X130090476Y-69689952D01*
X130661904Y-70261380D01*
X130042857Y-70261380D01*
X129423809Y-69261380D02*
X129328571Y-69261380D01*
X129233333Y-69309000D01*
X129185714Y-69356619D01*
X129138095Y-69451857D01*
X129090476Y-69642333D01*
X129090476Y-69880428D01*
X129138095Y-70070904D01*
X129185714Y-70166142D01*
X129233333Y-70213761D01*
X129328571Y-70261380D01*
X129423809Y-70261380D01*
X129519047Y-70213761D01*
X129566666Y-70166142D01*
X129614285Y-70070904D01*
X129661904Y-69880428D01*
X129661904Y-69642333D01*
X129614285Y-69451857D01*
X129566666Y-69356619D01*
X129519047Y-69309000D01*
X129423809Y-69261380D01*
%TO.C,SW21*%
X113669523Y-70213761D02*
X113526666Y-70261380D01*
X113288571Y-70261380D01*
X113193333Y-70213761D01*
X113145714Y-70166142D01*
X113098095Y-70070904D01*
X113098095Y-69975666D01*
X113145714Y-69880428D01*
X113193333Y-69832809D01*
X113288571Y-69785190D01*
X113479047Y-69737571D01*
X113574285Y-69689952D01*
X113621904Y-69642333D01*
X113669523Y-69547095D01*
X113669523Y-69451857D01*
X113621904Y-69356619D01*
X113574285Y-69309000D01*
X113479047Y-69261380D01*
X113240952Y-69261380D01*
X113098095Y-69309000D01*
X112764761Y-69261380D02*
X112526666Y-70261380D01*
X112336190Y-69547095D01*
X112145714Y-70261380D01*
X111907619Y-69261380D01*
X111574285Y-69356619D02*
X111526666Y-69309000D01*
X111431428Y-69261380D01*
X111193333Y-69261380D01*
X111098095Y-69309000D01*
X111050476Y-69356619D01*
X111002857Y-69451857D01*
X111002857Y-69547095D01*
X111050476Y-69689952D01*
X111621904Y-70261380D01*
X111002857Y-70261380D01*
X110050476Y-70261380D02*
X110621904Y-70261380D01*
X110336190Y-70261380D02*
X110336190Y-69261380D01*
X110431428Y-69404238D01*
X110526666Y-69499476D01*
X110621904Y-69547095D01*
%TO.C,SW22*%
X94629523Y-70213761D02*
X94486666Y-70261380D01*
X94248571Y-70261380D01*
X94153333Y-70213761D01*
X94105714Y-70166142D01*
X94058095Y-70070904D01*
X94058095Y-69975666D01*
X94105714Y-69880428D01*
X94153333Y-69832809D01*
X94248571Y-69785190D01*
X94439047Y-69737571D01*
X94534285Y-69689952D01*
X94581904Y-69642333D01*
X94629523Y-69547095D01*
X94629523Y-69451857D01*
X94581904Y-69356619D01*
X94534285Y-69309000D01*
X94439047Y-69261380D01*
X94200952Y-69261380D01*
X94058095Y-69309000D01*
X93724761Y-69261380D02*
X93486666Y-70261380D01*
X93296190Y-69547095D01*
X93105714Y-70261380D01*
X92867619Y-69261380D01*
X92534285Y-69356619D02*
X92486666Y-69309000D01*
X92391428Y-69261380D01*
X92153333Y-69261380D01*
X92058095Y-69309000D01*
X92010476Y-69356619D01*
X91962857Y-69451857D01*
X91962857Y-69547095D01*
X92010476Y-69689952D01*
X92581904Y-70261380D01*
X91962857Y-70261380D01*
X91581904Y-69356619D02*
X91534285Y-69309000D01*
X91439047Y-69261380D01*
X91200952Y-69261380D01*
X91105714Y-69309000D01*
X91058095Y-69356619D01*
X91010476Y-69451857D01*
X91010476Y-69547095D01*
X91058095Y-69689952D01*
X91629523Y-70261380D01*
X91010476Y-70261380D01*
%TO.C,SW23*%
X75589523Y-70213761D02*
X75446666Y-70261380D01*
X75208571Y-70261380D01*
X75113333Y-70213761D01*
X75065714Y-70166142D01*
X75018095Y-70070904D01*
X75018095Y-69975666D01*
X75065714Y-69880428D01*
X75113333Y-69832809D01*
X75208571Y-69785190D01*
X75399047Y-69737571D01*
X75494285Y-69689952D01*
X75541904Y-69642333D01*
X75589523Y-69547095D01*
X75589523Y-69451857D01*
X75541904Y-69356619D01*
X75494285Y-69309000D01*
X75399047Y-69261380D01*
X75160952Y-69261380D01*
X75018095Y-69309000D01*
X74684761Y-69261380D02*
X74446666Y-70261380D01*
X74256190Y-69547095D01*
X74065714Y-70261380D01*
X73827619Y-69261380D01*
X73494285Y-69356619D02*
X73446666Y-69309000D01*
X73351428Y-69261380D01*
X73113333Y-69261380D01*
X73018095Y-69309000D01*
X72970476Y-69356619D01*
X72922857Y-69451857D01*
X72922857Y-69547095D01*
X72970476Y-69689952D01*
X73541904Y-70261380D01*
X72922857Y-70261380D01*
X72589523Y-69261380D02*
X71970476Y-69261380D01*
X72303809Y-69642333D01*
X72160952Y-69642333D01*
X72065714Y-69689952D01*
X72018095Y-69737571D01*
X71970476Y-69832809D01*
X71970476Y-70070904D01*
X72018095Y-70166142D01*
X72065714Y-70213761D01*
X72160952Y-70261380D01*
X72446666Y-70261380D01*
X72541904Y-70213761D01*
X72589523Y-70166142D01*
%TO.C,SW24*%
X56549523Y-70213761D02*
X56406666Y-70261380D01*
X56168571Y-70261380D01*
X56073333Y-70213761D01*
X56025714Y-70166142D01*
X55978095Y-70070904D01*
X55978095Y-69975666D01*
X56025714Y-69880428D01*
X56073333Y-69832809D01*
X56168571Y-69785190D01*
X56359047Y-69737571D01*
X56454285Y-69689952D01*
X56501904Y-69642333D01*
X56549523Y-69547095D01*
X56549523Y-69451857D01*
X56501904Y-69356619D01*
X56454285Y-69309000D01*
X56359047Y-69261380D01*
X56120952Y-69261380D01*
X55978095Y-69309000D01*
X55644761Y-69261380D02*
X55406666Y-70261380D01*
X55216190Y-69547095D01*
X55025714Y-70261380D01*
X54787619Y-69261380D01*
X54454285Y-69356619D02*
X54406666Y-69309000D01*
X54311428Y-69261380D01*
X54073333Y-69261380D01*
X53978095Y-69309000D01*
X53930476Y-69356619D01*
X53882857Y-69451857D01*
X53882857Y-69547095D01*
X53930476Y-69689952D01*
X54501904Y-70261380D01*
X53882857Y-70261380D01*
X53025714Y-69594714D02*
X53025714Y-70261380D01*
X53263809Y-69213761D02*
X53501904Y-69928047D01*
X52882857Y-69928047D01*
%TO.C,SW25*%
X194589523Y-89253761D02*
X194446666Y-89301380D01*
X194208571Y-89301380D01*
X194113333Y-89253761D01*
X194065714Y-89206142D01*
X194018095Y-89110904D01*
X194018095Y-89015666D01*
X194065714Y-88920428D01*
X194113333Y-88872809D01*
X194208571Y-88825190D01*
X194399047Y-88777571D01*
X194494285Y-88729952D01*
X194541904Y-88682333D01*
X194589523Y-88587095D01*
X194589523Y-88491857D01*
X194541904Y-88396619D01*
X194494285Y-88349000D01*
X194399047Y-88301380D01*
X194160952Y-88301380D01*
X194018095Y-88349000D01*
X193684761Y-88301380D02*
X193446666Y-89301380D01*
X193256190Y-88587095D01*
X193065714Y-89301380D01*
X192827619Y-88301380D01*
X192494285Y-88396619D02*
X192446666Y-88349000D01*
X192351428Y-88301380D01*
X192113333Y-88301380D01*
X192018095Y-88349000D01*
X191970476Y-88396619D01*
X191922857Y-88491857D01*
X191922857Y-88587095D01*
X191970476Y-88729952D01*
X192541904Y-89301380D01*
X191922857Y-89301380D01*
X191018095Y-88301380D02*
X191494285Y-88301380D01*
X191541904Y-88777571D01*
X191494285Y-88729952D01*
X191399047Y-88682333D01*
X191160952Y-88682333D01*
X191065714Y-88729952D01*
X191018095Y-88777571D01*
X190970476Y-88872809D01*
X190970476Y-89110904D01*
X191018095Y-89206142D01*
X191065714Y-89253761D01*
X191160952Y-89301380D01*
X191399047Y-89301380D01*
X191494285Y-89253761D01*
X191541904Y-89206142D01*
%TO.C,SW26*%
X175549523Y-89253761D02*
X175406666Y-89301380D01*
X175168571Y-89301380D01*
X175073333Y-89253761D01*
X175025714Y-89206142D01*
X174978095Y-89110904D01*
X174978095Y-89015666D01*
X175025714Y-88920428D01*
X175073333Y-88872809D01*
X175168571Y-88825190D01*
X175359047Y-88777571D01*
X175454285Y-88729952D01*
X175501904Y-88682333D01*
X175549523Y-88587095D01*
X175549523Y-88491857D01*
X175501904Y-88396619D01*
X175454285Y-88349000D01*
X175359047Y-88301380D01*
X175120952Y-88301380D01*
X174978095Y-88349000D01*
X174644761Y-88301380D02*
X174406666Y-89301380D01*
X174216190Y-88587095D01*
X174025714Y-89301380D01*
X173787619Y-88301380D01*
X173454285Y-88396619D02*
X173406666Y-88349000D01*
X173311428Y-88301380D01*
X173073333Y-88301380D01*
X172978095Y-88349000D01*
X172930476Y-88396619D01*
X172882857Y-88491857D01*
X172882857Y-88587095D01*
X172930476Y-88729952D01*
X173501904Y-89301380D01*
X172882857Y-89301380D01*
X172025714Y-88301380D02*
X172216190Y-88301380D01*
X172311428Y-88349000D01*
X172359047Y-88396619D01*
X172454285Y-88539476D01*
X172501904Y-88729952D01*
X172501904Y-89110904D01*
X172454285Y-89206142D01*
X172406666Y-89253761D01*
X172311428Y-89301380D01*
X172120952Y-89301380D01*
X172025714Y-89253761D01*
X171978095Y-89206142D01*
X171930476Y-89110904D01*
X171930476Y-88872809D01*
X171978095Y-88777571D01*
X172025714Y-88729952D01*
X172120952Y-88682333D01*
X172311428Y-88682333D01*
X172406666Y-88729952D01*
X172454285Y-88777571D01*
X172501904Y-88872809D01*
%TO.C,SW27*%
X149369523Y-89253761D02*
X149226666Y-89301380D01*
X148988571Y-89301380D01*
X148893333Y-89253761D01*
X148845714Y-89206142D01*
X148798095Y-89110904D01*
X148798095Y-89015666D01*
X148845714Y-88920428D01*
X148893333Y-88872809D01*
X148988571Y-88825190D01*
X149179047Y-88777571D01*
X149274285Y-88729952D01*
X149321904Y-88682333D01*
X149369523Y-88587095D01*
X149369523Y-88491857D01*
X149321904Y-88396619D01*
X149274285Y-88349000D01*
X149179047Y-88301380D01*
X148940952Y-88301380D01*
X148798095Y-88349000D01*
X148464761Y-88301380D02*
X148226666Y-89301380D01*
X148036190Y-88587095D01*
X147845714Y-89301380D01*
X147607619Y-88301380D01*
X147274285Y-88396619D02*
X147226666Y-88349000D01*
X147131428Y-88301380D01*
X146893333Y-88301380D01*
X146798095Y-88349000D01*
X146750476Y-88396619D01*
X146702857Y-88491857D01*
X146702857Y-88587095D01*
X146750476Y-88729952D01*
X147321904Y-89301380D01*
X146702857Y-89301380D01*
X146369523Y-88301380D02*
X145702857Y-88301380D01*
X146131428Y-89301380D01*
%TO.C,SW28*%
X123189523Y-89253761D02*
X123046666Y-89301380D01*
X122808571Y-89301380D01*
X122713333Y-89253761D01*
X122665714Y-89206142D01*
X122618095Y-89110904D01*
X122618095Y-89015666D01*
X122665714Y-88920428D01*
X122713333Y-88872809D01*
X122808571Y-88825190D01*
X122999047Y-88777571D01*
X123094285Y-88729952D01*
X123141904Y-88682333D01*
X123189523Y-88587095D01*
X123189523Y-88491857D01*
X123141904Y-88396619D01*
X123094285Y-88349000D01*
X122999047Y-88301380D01*
X122760952Y-88301380D01*
X122618095Y-88349000D01*
X122284761Y-88301380D02*
X122046666Y-89301380D01*
X121856190Y-88587095D01*
X121665714Y-89301380D01*
X121427619Y-88301380D01*
X121094285Y-88396619D02*
X121046666Y-88349000D01*
X120951428Y-88301380D01*
X120713333Y-88301380D01*
X120618095Y-88349000D01*
X120570476Y-88396619D01*
X120522857Y-88491857D01*
X120522857Y-88587095D01*
X120570476Y-88729952D01*
X121141904Y-89301380D01*
X120522857Y-89301380D01*
X119951428Y-88729952D02*
X120046666Y-88682333D01*
X120094285Y-88634714D01*
X120141904Y-88539476D01*
X120141904Y-88491857D01*
X120094285Y-88396619D01*
X120046666Y-88349000D01*
X119951428Y-88301380D01*
X119760952Y-88301380D01*
X119665714Y-88349000D01*
X119618095Y-88396619D01*
X119570476Y-88491857D01*
X119570476Y-88539476D01*
X119618095Y-88634714D01*
X119665714Y-88682333D01*
X119760952Y-88729952D01*
X119951428Y-88729952D01*
X120046666Y-88777571D01*
X120094285Y-88825190D01*
X120141904Y-88920428D01*
X120141904Y-89110904D01*
X120094285Y-89206142D01*
X120046666Y-89253761D01*
X119951428Y-89301380D01*
X119760952Y-89301380D01*
X119665714Y-89253761D01*
X119618095Y-89206142D01*
X119570476Y-89110904D01*
X119570476Y-88920428D01*
X119618095Y-88825190D01*
X119665714Y-88777571D01*
X119760952Y-88729952D01*
%TO.C,SW29*%
X104149523Y-89253761D02*
X104006666Y-89301380D01*
X103768571Y-89301380D01*
X103673333Y-89253761D01*
X103625714Y-89206142D01*
X103578095Y-89110904D01*
X103578095Y-89015666D01*
X103625714Y-88920428D01*
X103673333Y-88872809D01*
X103768571Y-88825190D01*
X103959047Y-88777571D01*
X104054285Y-88729952D01*
X104101904Y-88682333D01*
X104149523Y-88587095D01*
X104149523Y-88491857D01*
X104101904Y-88396619D01*
X104054285Y-88349000D01*
X103959047Y-88301380D01*
X103720952Y-88301380D01*
X103578095Y-88349000D01*
X103244761Y-88301380D02*
X103006666Y-89301380D01*
X102816190Y-88587095D01*
X102625714Y-89301380D01*
X102387619Y-88301380D01*
X102054285Y-88396619D02*
X102006666Y-88349000D01*
X101911428Y-88301380D01*
X101673333Y-88301380D01*
X101578095Y-88349000D01*
X101530476Y-88396619D01*
X101482857Y-88491857D01*
X101482857Y-88587095D01*
X101530476Y-88729952D01*
X102101904Y-89301380D01*
X101482857Y-89301380D01*
X101006666Y-89301380D02*
X100816190Y-89301380D01*
X100720952Y-89253761D01*
X100673333Y-89206142D01*
X100578095Y-89063285D01*
X100530476Y-88872809D01*
X100530476Y-88491857D01*
X100578095Y-88396619D01*
X100625714Y-88349000D01*
X100720952Y-88301380D01*
X100911428Y-88301380D01*
X101006666Y-88349000D01*
X101054285Y-88396619D01*
X101101904Y-88491857D01*
X101101904Y-88729952D01*
X101054285Y-88825190D01*
X101006666Y-88872809D01*
X100911428Y-88920428D01*
X100720952Y-88920428D01*
X100625714Y-88872809D01*
X100578095Y-88825190D01*
X100530476Y-88729952D01*
%TO.C,SW30*%
X85109523Y-89253761D02*
X84966666Y-89301380D01*
X84728571Y-89301380D01*
X84633333Y-89253761D01*
X84585714Y-89206142D01*
X84538095Y-89110904D01*
X84538095Y-89015666D01*
X84585714Y-88920428D01*
X84633333Y-88872809D01*
X84728571Y-88825190D01*
X84919047Y-88777571D01*
X85014285Y-88729952D01*
X85061904Y-88682333D01*
X85109523Y-88587095D01*
X85109523Y-88491857D01*
X85061904Y-88396619D01*
X85014285Y-88349000D01*
X84919047Y-88301380D01*
X84680952Y-88301380D01*
X84538095Y-88349000D01*
X84204761Y-88301380D02*
X83966666Y-89301380D01*
X83776190Y-88587095D01*
X83585714Y-89301380D01*
X83347619Y-88301380D01*
X83061904Y-88301380D02*
X82442857Y-88301380D01*
X82776190Y-88682333D01*
X82633333Y-88682333D01*
X82538095Y-88729952D01*
X82490476Y-88777571D01*
X82442857Y-88872809D01*
X82442857Y-89110904D01*
X82490476Y-89206142D01*
X82538095Y-89253761D01*
X82633333Y-89301380D01*
X82919047Y-89301380D01*
X83014285Y-89253761D01*
X83061904Y-89206142D01*
X81823809Y-88301380D02*
X81728571Y-88301380D01*
X81633333Y-88349000D01*
X81585714Y-88396619D01*
X81538095Y-88491857D01*
X81490476Y-88682333D01*
X81490476Y-88920428D01*
X81538095Y-89110904D01*
X81585714Y-89206142D01*
X81633333Y-89253761D01*
X81728571Y-89301380D01*
X81823809Y-89301380D01*
X81919047Y-89253761D01*
X81966666Y-89206142D01*
X82014285Y-89110904D01*
X82061904Y-88920428D01*
X82061904Y-88682333D01*
X82014285Y-88491857D01*
X81966666Y-88396619D01*
X81919047Y-88349000D01*
X81823809Y-88301380D01*
%TO.C,SW31*%
X66069523Y-89253761D02*
X65926666Y-89301380D01*
X65688571Y-89301380D01*
X65593333Y-89253761D01*
X65545714Y-89206142D01*
X65498095Y-89110904D01*
X65498095Y-89015666D01*
X65545714Y-88920428D01*
X65593333Y-88872809D01*
X65688571Y-88825190D01*
X65879047Y-88777571D01*
X65974285Y-88729952D01*
X66021904Y-88682333D01*
X66069523Y-88587095D01*
X66069523Y-88491857D01*
X66021904Y-88396619D01*
X65974285Y-88349000D01*
X65879047Y-88301380D01*
X65640952Y-88301380D01*
X65498095Y-88349000D01*
X65164761Y-88301380D02*
X64926666Y-89301380D01*
X64736190Y-88587095D01*
X64545714Y-89301380D01*
X64307619Y-88301380D01*
X64021904Y-88301380D02*
X63402857Y-88301380D01*
X63736190Y-88682333D01*
X63593333Y-88682333D01*
X63498095Y-88729952D01*
X63450476Y-88777571D01*
X63402857Y-88872809D01*
X63402857Y-89110904D01*
X63450476Y-89206142D01*
X63498095Y-89253761D01*
X63593333Y-89301380D01*
X63879047Y-89301380D01*
X63974285Y-89253761D01*
X64021904Y-89206142D01*
X62450476Y-89301380D02*
X63021904Y-89301380D01*
X62736190Y-89301380D02*
X62736190Y-88301380D01*
X62831428Y-88444238D01*
X62926666Y-88539476D01*
X63021904Y-88587095D01*
%TO.C,SW32*%
X47029523Y-89253761D02*
X46886666Y-89301380D01*
X46648571Y-89301380D01*
X46553333Y-89253761D01*
X46505714Y-89206142D01*
X46458095Y-89110904D01*
X46458095Y-89015666D01*
X46505714Y-88920428D01*
X46553333Y-88872809D01*
X46648571Y-88825190D01*
X46839047Y-88777571D01*
X46934285Y-88729952D01*
X46981904Y-88682333D01*
X47029523Y-88587095D01*
X47029523Y-88491857D01*
X46981904Y-88396619D01*
X46934285Y-88349000D01*
X46839047Y-88301380D01*
X46600952Y-88301380D01*
X46458095Y-88349000D01*
X46124761Y-88301380D02*
X45886666Y-89301380D01*
X45696190Y-88587095D01*
X45505714Y-89301380D01*
X45267619Y-88301380D01*
X44981904Y-88301380D02*
X44362857Y-88301380D01*
X44696190Y-88682333D01*
X44553333Y-88682333D01*
X44458095Y-88729952D01*
X44410476Y-88777571D01*
X44362857Y-88872809D01*
X44362857Y-89110904D01*
X44410476Y-89206142D01*
X44458095Y-89253761D01*
X44553333Y-89301380D01*
X44839047Y-89301380D01*
X44934285Y-89253761D01*
X44981904Y-89206142D01*
X43981904Y-88396619D02*
X43934285Y-88349000D01*
X43839047Y-88301380D01*
X43600952Y-88301380D01*
X43505714Y-88349000D01*
X43458095Y-88396619D01*
X43410476Y-88491857D01*
X43410476Y-88587095D01*
X43458095Y-88729952D01*
X44029523Y-89301380D01*
X43410476Y-89301380D01*
%TO.C,SW33*%
X194589523Y-108293761D02*
X194446666Y-108341380D01*
X194208571Y-108341380D01*
X194113333Y-108293761D01*
X194065714Y-108246142D01*
X194018095Y-108150904D01*
X194018095Y-108055666D01*
X194065714Y-107960428D01*
X194113333Y-107912809D01*
X194208571Y-107865190D01*
X194399047Y-107817571D01*
X194494285Y-107769952D01*
X194541904Y-107722333D01*
X194589523Y-107627095D01*
X194589523Y-107531857D01*
X194541904Y-107436619D01*
X194494285Y-107389000D01*
X194399047Y-107341380D01*
X194160952Y-107341380D01*
X194018095Y-107389000D01*
X193684761Y-107341380D02*
X193446666Y-108341380D01*
X193256190Y-107627095D01*
X193065714Y-108341380D01*
X192827619Y-107341380D01*
X192541904Y-107341380D02*
X191922857Y-107341380D01*
X192256190Y-107722333D01*
X192113333Y-107722333D01*
X192018095Y-107769952D01*
X191970476Y-107817571D01*
X191922857Y-107912809D01*
X191922857Y-108150904D01*
X191970476Y-108246142D01*
X192018095Y-108293761D01*
X192113333Y-108341380D01*
X192399047Y-108341380D01*
X192494285Y-108293761D01*
X192541904Y-108246142D01*
X191589523Y-107341380D02*
X190970476Y-107341380D01*
X191303809Y-107722333D01*
X191160952Y-107722333D01*
X191065714Y-107769952D01*
X191018095Y-107817571D01*
X190970476Y-107912809D01*
X190970476Y-108150904D01*
X191018095Y-108246142D01*
X191065714Y-108293761D01*
X191160952Y-108341380D01*
X191446666Y-108341380D01*
X191541904Y-108293761D01*
X191589523Y-108246142D01*
%TO.C,SW34*%
X175549523Y-108293761D02*
X175406666Y-108341380D01*
X175168571Y-108341380D01*
X175073333Y-108293761D01*
X175025714Y-108246142D01*
X174978095Y-108150904D01*
X174978095Y-108055666D01*
X175025714Y-107960428D01*
X175073333Y-107912809D01*
X175168571Y-107865190D01*
X175359047Y-107817571D01*
X175454285Y-107769952D01*
X175501904Y-107722333D01*
X175549523Y-107627095D01*
X175549523Y-107531857D01*
X175501904Y-107436619D01*
X175454285Y-107389000D01*
X175359047Y-107341380D01*
X175120952Y-107341380D01*
X174978095Y-107389000D01*
X174644761Y-107341380D02*
X174406666Y-108341380D01*
X174216190Y-107627095D01*
X174025714Y-108341380D01*
X173787619Y-107341380D01*
X173501904Y-107341380D02*
X172882857Y-107341380D01*
X173216190Y-107722333D01*
X173073333Y-107722333D01*
X172978095Y-107769952D01*
X172930476Y-107817571D01*
X172882857Y-107912809D01*
X172882857Y-108150904D01*
X172930476Y-108246142D01*
X172978095Y-108293761D01*
X173073333Y-108341380D01*
X173359047Y-108341380D01*
X173454285Y-108293761D01*
X173501904Y-108246142D01*
X172025714Y-107674714D02*
X172025714Y-108341380D01*
X172263809Y-107293761D02*
X172501904Y-108008047D01*
X171882857Y-108008047D01*
%TO.C,SW35*%
X156509523Y-108293761D02*
X156366666Y-108341380D01*
X156128571Y-108341380D01*
X156033333Y-108293761D01*
X155985714Y-108246142D01*
X155938095Y-108150904D01*
X155938095Y-108055666D01*
X155985714Y-107960428D01*
X156033333Y-107912809D01*
X156128571Y-107865190D01*
X156319047Y-107817571D01*
X156414285Y-107769952D01*
X156461904Y-107722333D01*
X156509523Y-107627095D01*
X156509523Y-107531857D01*
X156461904Y-107436619D01*
X156414285Y-107389000D01*
X156319047Y-107341380D01*
X156080952Y-107341380D01*
X155938095Y-107389000D01*
X155604761Y-107341380D02*
X155366666Y-108341380D01*
X155176190Y-107627095D01*
X154985714Y-108341380D01*
X154747619Y-107341380D01*
X154461904Y-107341380D02*
X153842857Y-107341380D01*
X154176190Y-107722333D01*
X154033333Y-107722333D01*
X153938095Y-107769952D01*
X153890476Y-107817571D01*
X153842857Y-107912809D01*
X153842857Y-108150904D01*
X153890476Y-108246142D01*
X153938095Y-108293761D01*
X154033333Y-108341380D01*
X154319047Y-108341380D01*
X154414285Y-108293761D01*
X154461904Y-108246142D01*
X152938095Y-107341380D02*
X153414285Y-107341380D01*
X153461904Y-107817571D01*
X153414285Y-107769952D01*
X153319047Y-107722333D01*
X153080952Y-107722333D01*
X152985714Y-107769952D01*
X152938095Y-107817571D01*
X152890476Y-107912809D01*
X152890476Y-108150904D01*
X152938095Y-108246142D01*
X152985714Y-108293761D01*
X153080952Y-108341380D01*
X153319047Y-108341380D01*
X153414285Y-108293761D01*
X153461904Y-108246142D01*
%TO.C,SW36*%
X123189523Y-108293761D02*
X123046666Y-108341380D01*
X122808571Y-108341380D01*
X122713333Y-108293761D01*
X122665714Y-108246142D01*
X122618095Y-108150904D01*
X122618095Y-108055666D01*
X122665714Y-107960428D01*
X122713333Y-107912809D01*
X122808571Y-107865190D01*
X122999047Y-107817571D01*
X123094285Y-107769952D01*
X123141904Y-107722333D01*
X123189523Y-107627095D01*
X123189523Y-107531857D01*
X123141904Y-107436619D01*
X123094285Y-107389000D01*
X122999047Y-107341380D01*
X122760952Y-107341380D01*
X122618095Y-107389000D01*
X122284761Y-107341380D02*
X122046666Y-108341380D01*
X121856190Y-107627095D01*
X121665714Y-108341380D01*
X121427619Y-107341380D01*
X121141904Y-107341380D02*
X120522857Y-107341380D01*
X120856190Y-107722333D01*
X120713333Y-107722333D01*
X120618095Y-107769952D01*
X120570476Y-107817571D01*
X120522857Y-107912809D01*
X120522857Y-108150904D01*
X120570476Y-108246142D01*
X120618095Y-108293761D01*
X120713333Y-108341380D01*
X120999047Y-108341380D01*
X121094285Y-108293761D01*
X121141904Y-108246142D01*
X119665714Y-107341380D02*
X119856190Y-107341380D01*
X119951428Y-107389000D01*
X119999047Y-107436619D01*
X120094285Y-107579476D01*
X120141904Y-107769952D01*
X120141904Y-108150904D01*
X120094285Y-108246142D01*
X120046666Y-108293761D01*
X119951428Y-108341380D01*
X119760952Y-108341380D01*
X119665714Y-108293761D01*
X119618095Y-108246142D01*
X119570476Y-108150904D01*
X119570476Y-107912809D01*
X119618095Y-107817571D01*
X119665714Y-107769952D01*
X119760952Y-107722333D01*
X119951428Y-107722333D01*
X120046666Y-107769952D01*
X120094285Y-107817571D01*
X120141904Y-107912809D01*
%TO.C,SW37*%
X104149523Y-108293761D02*
X104006666Y-108341380D01*
X103768571Y-108341380D01*
X103673333Y-108293761D01*
X103625714Y-108246142D01*
X103578095Y-108150904D01*
X103578095Y-108055666D01*
X103625714Y-107960428D01*
X103673333Y-107912809D01*
X103768571Y-107865190D01*
X103959047Y-107817571D01*
X104054285Y-107769952D01*
X104101904Y-107722333D01*
X104149523Y-107627095D01*
X104149523Y-107531857D01*
X104101904Y-107436619D01*
X104054285Y-107389000D01*
X103959047Y-107341380D01*
X103720952Y-107341380D01*
X103578095Y-107389000D01*
X103244761Y-107341380D02*
X103006666Y-108341380D01*
X102816190Y-107627095D01*
X102625714Y-108341380D01*
X102387619Y-107341380D01*
X102101904Y-107341380D02*
X101482857Y-107341380D01*
X101816190Y-107722333D01*
X101673333Y-107722333D01*
X101578095Y-107769952D01*
X101530476Y-107817571D01*
X101482857Y-107912809D01*
X101482857Y-108150904D01*
X101530476Y-108246142D01*
X101578095Y-108293761D01*
X101673333Y-108341380D01*
X101959047Y-108341380D01*
X102054285Y-108293761D01*
X102101904Y-108246142D01*
X101149523Y-107341380D02*
X100482857Y-107341380D01*
X100911428Y-108341380D01*
%TO.C,SW38*%
X85109523Y-108293761D02*
X84966666Y-108341380D01*
X84728571Y-108341380D01*
X84633333Y-108293761D01*
X84585714Y-108246142D01*
X84538095Y-108150904D01*
X84538095Y-108055666D01*
X84585714Y-107960428D01*
X84633333Y-107912809D01*
X84728571Y-107865190D01*
X84919047Y-107817571D01*
X85014285Y-107769952D01*
X85061904Y-107722333D01*
X85109523Y-107627095D01*
X85109523Y-107531857D01*
X85061904Y-107436619D01*
X85014285Y-107389000D01*
X84919047Y-107341380D01*
X84680952Y-107341380D01*
X84538095Y-107389000D01*
X84204761Y-107341380D02*
X83966666Y-108341380D01*
X83776190Y-107627095D01*
X83585714Y-108341380D01*
X83347619Y-107341380D01*
X83061904Y-107341380D02*
X82442857Y-107341380D01*
X82776190Y-107722333D01*
X82633333Y-107722333D01*
X82538095Y-107769952D01*
X82490476Y-107817571D01*
X82442857Y-107912809D01*
X82442857Y-108150904D01*
X82490476Y-108246142D01*
X82538095Y-108293761D01*
X82633333Y-108341380D01*
X82919047Y-108341380D01*
X83014285Y-108293761D01*
X83061904Y-108246142D01*
X81871428Y-107769952D02*
X81966666Y-107722333D01*
X82014285Y-107674714D01*
X82061904Y-107579476D01*
X82061904Y-107531857D01*
X82014285Y-107436619D01*
X81966666Y-107389000D01*
X81871428Y-107341380D01*
X81680952Y-107341380D01*
X81585714Y-107389000D01*
X81538095Y-107436619D01*
X81490476Y-107531857D01*
X81490476Y-107579476D01*
X81538095Y-107674714D01*
X81585714Y-107722333D01*
X81680952Y-107769952D01*
X81871428Y-107769952D01*
X81966666Y-107817571D01*
X82014285Y-107865190D01*
X82061904Y-107960428D01*
X82061904Y-108150904D01*
X82014285Y-108246142D01*
X81966666Y-108293761D01*
X81871428Y-108341380D01*
X81680952Y-108341380D01*
X81585714Y-108293761D01*
X81538095Y-108246142D01*
X81490476Y-108150904D01*
X81490476Y-107960428D01*
X81538095Y-107865190D01*
X81585714Y-107817571D01*
X81680952Y-107769952D01*
%TO.C,SW40*%
X37509523Y-70213761D02*
X37366666Y-70261380D01*
X37128571Y-70261380D01*
X37033333Y-70213761D01*
X36985714Y-70166142D01*
X36938095Y-70070904D01*
X36938095Y-69975666D01*
X36985714Y-69880428D01*
X37033333Y-69832809D01*
X37128571Y-69785190D01*
X37319047Y-69737571D01*
X37414285Y-69689952D01*
X37461904Y-69642333D01*
X37509523Y-69547095D01*
X37509523Y-69451857D01*
X37461904Y-69356619D01*
X37414285Y-69309000D01*
X37319047Y-69261380D01*
X37080952Y-69261380D01*
X36938095Y-69309000D01*
X36604761Y-69261380D02*
X36366666Y-70261380D01*
X36176190Y-69547095D01*
X35985714Y-70261380D01*
X35747619Y-69261380D01*
X34938095Y-69594714D02*
X34938095Y-70261380D01*
X35176190Y-69213761D02*
X35414285Y-69928047D01*
X34795238Y-69928047D01*
X34223809Y-69261380D02*
X34128571Y-69261380D01*
X34033333Y-69309000D01*
X33985714Y-69356619D01*
X33938095Y-69451857D01*
X33890476Y-69642333D01*
X33890476Y-69880428D01*
X33938095Y-70070904D01*
X33985714Y-70166142D01*
X34033333Y-70213761D01*
X34128571Y-70261380D01*
X34223809Y-70261380D01*
X34319047Y-70213761D01*
X34366666Y-70166142D01*
X34414285Y-70070904D01*
X34461904Y-69880428D01*
X34461904Y-69642333D01*
X34414285Y-69451857D01*
X34366666Y-69356619D01*
X34319047Y-69309000D01*
X34223809Y-69261380D01*
%TO.C,SW_41*%
X233125904Y-71666095D02*
X232744952Y-71399428D01*
X233125904Y-71208952D02*
X232325904Y-71208952D01*
X232325904Y-71513714D01*
X232364000Y-71589904D01*
X232402095Y-71628000D01*
X232478285Y-71666095D01*
X232592571Y-71666095D01*
X232668761Y-71628000D01*
X232706857Y-71589904D01*
X232744952Y-71513714D01*
X232744952Y-71208952D01*
X232706857Y-72008952D02*
X232706857Y-72275619D01*
X233125904Y-72389904D02*
X233125904Y-72008952D01*
X232325904Y-72008952D01*
X232325904Y-72389904D01*
X233087809Y-72694666D02*
X233125904Y-72808952D01*
X233125904Y-72999428D01*
X233087809Y-73075619D01*
X233049714Y-73113714D01*
X232973523Y-73151809D01*
X232897333Y-73151809D01*
X232821142Y-73113714D01*
X232783047Y-73075619D01*
X232744952Y-72999428D01*
X232706857Y-72847047D01*
X232668761Y-72770857D01*
X232630666Y-72732761D01*
X232554476Y-72694666D01*
X232478285Y-72694666D01*
X232402095Y-72732761D01*
X232364000Y-72770857D01*
X232325904Y-72847047D01*
X232325904Y-73037523D01*
X232364000Y-73151809D01*
X232706857Y-73494666D02*
X232706857Y-73761333D01*
X233125904Y-73875619D02*
X233125904Y-73494666D01*
X232325904Y-73494666D01*
X232325904Y-73875619D01*
X232325904Y-74104190D02*
X232325904Y-74561333D01*
X233125904Y-74332761D02*
X232325904Y-74332761D01*
%TO.C,U1*%
X220958380Y-31690380D02*
X220958380Y-32499904D01*
X220910761Y-32595142D01*
X220863142Y-32642761D01*
X220767904Y-32690380D01*
X220577428Y-32690380D01*
X220482190Y-32642761D01*
X220434571Y-32595142D01*
X220386952Y-32499904D01*
X220386952Y-31690380D01*
X219958380Y-32642761D02*
X219815523Y-32690380D01*
X219577428Y-32690380D01*
X219482190Y-32642761D01*
X219434571Y-32595142D01*
X219386952Y-32499904D01*
X219386952Y-32404666D01*
X219434571Y-32309428D01*
X219482190Y-32261809D01*
X219577428Y-32214190D01*
X219767904Y-32166571D01*
X219863142Y-32118952D01*
X219910761Y-32071333D01*
X219958380Y-31976095D01*
X219958380Y-31880857D01*
X219910761Y-31785619D01*
X219863142Y-31738000D01*
X219767904Y-31690380D01*
X219529809Y-31690380D01*
X219386952Y-31738000D01*
X218625047Y-32166571D02*
X218482190Y-32214190D01*
X218434571Y-32261809D01*
X218386952Y-32357047D01*
X218386952Y-32499904D01*
X218434571Y-32595142D01*
X218482190Y-32642761D01*
X218577428Y-32690380D01*
X218958380Y-32690380D01*
X218958380Y-31690380D01*
X218625047Y-31690380D01*
X218529809Y-31738000D01*
X218482190Y-31785619D01*
X218434571Y-31880857D01*
X218434571Y-31976095D01*
X218482190Y-32071333D01*
X218529809Y-32118952D01*
X218625047Y-32166571D01*
X218958380Y-32166571D01*
X217339333Y-32023714D02*
X216958380Y-32023714D01*
X217196476Y-32690380D02*
X217196476Y-31833238D01*
X217148857Y-31738000D01*
X217053619Y-31690380D01*
X216958380Y-31690380D01*
X216196476Y-32690380D02*
X216196476Y-32166571D01*
X216244095Y-32071333D01*
X216339333Y-32023714D01*
X216529809Y-32023714D01*
X216625047Y-32071333D01*
X216196476Y-32642761D02*
X216291714Y-32690380D01*
X216529809Y-32690380D01*
X216625047Y-32642761D01*
X216672666Y-32547523D01*
X216672666Y-32452285D01*
X216625047Y-32357047D01*
X216529809Y-32309428D01*
X216291714Y-32309428D01*
X216196476Y-32261809D01*
X215291714Y-32642761D02*
X215386952Y-32690380D01*
X215577428Y-32690380D01*
X215672666Y-32642761D01*
X215720285Y-32595142D01*
X215767904Y-32499904D01*
X215767904Y-32214190D01*
X215720285Y-32118952D01*
X215672666Y-32071333D01*
X215577428Y-32023714D01*
X215386952Y-32023714D01*
X215291714Y-32071333D01*
X214863142Y-32690380D02*
X214863142Y-32023714D01*
X214863142Y-31690380D02*
X214910761Y-31738000D01*
X214863142Y-31785619D01*
X214815523Y-31738000D01*
X214863142Y-31690380D01*
X214863142Y-31785619D01*
X214386952Y-32023714D02*
X214386952Y-32690380D01*
X214386952Y-32118952D02*
X214339333Y-32071333D01*
X214244095Y-32023714D01*
X214101238Y-32023714D01*
X214006000Y-32071333D01*
X213958380Y-32166571D01*
X213958380Y-32690380D01*
X213053619Y-32023714D02*
X213053619Y-32833238D01*
X213101238Y-32928476D01*
X213148857Y-32976095D01*
X213244095Y-33023714D01*
X213386952Y-33023714D01*
X213482190Y-32976095D01*
X213053619Y-32642761D02*
X213148857Y-32690380D01*
X213339333Y-32690380D01*
X213434571Y-32642761D01*
X213482190Y-32595142D01*
X213529809Y-32499904D01*
X213529809Y-32214190D01*
X213482190Y-32118952D01*
X213434571Y-32071333D01*
X213339333Y-32023714D01*
X213148857Y-32023714D01*
X213053619Y-32071333D01*
X219791714Y-33523714D02*
X219410761Y-33523714D01*
X219648857Y-33190380D02*
X219648857Y-34047523D01*
X219601238Y-34142761D01*
X219506000Y-34190380D01*
X219410761Y-34190380D01*
X218934571Y-34190380D02*
X219029809Y-34142761D01*
X219077428Y-34095142D01*
X219125047Y-33999904D01*
X219125047Y-33714190D01*
X219077428Y-33618952D01*
X219029809Y-33571333D01*
X218934571Y-33523714D01*
X218791714Y-33523714D01*
X218696476Y-33571333D01*
X218648857Y-33618952D01*
X218601238Y-33714190D01*
X218601238Y-33999904D01*
X218648857Y-34095142D01*
X218696476Y-34142761D01*
X218791714Y-34190380D01*
X218934571Y-34190380D01*
X218267904Y-33523714D02*
X218077428Y-34190380D01*
X217886952Y-33714190D01*
X217696476Y-34190380D01*
X217506000Y-33523714D01*
X216696476Y-34190380D02*
X216696476Y-33666571D01*
X216744095Y-33571333D01*
X216839333Y-33523714D01*
X217029809Y-33523714D01*
X217125047Y-33571333D01*
X216696476Y-34142761D02*
X216791714Y-34190380D01*
X217029809Y-34190380D01*
X217125047Y-34142761D01*
X217172666Y-34047523D01*
X217172666Y-33952285D01*
X217125047Y-33857047D01*
X217029809Y-33809428D01*
X216791714Y-33809428D01*
X216696476Y-33761809D01*
X216220285Y-34190380D02*
X216220285Y-33523714D01*
X216220285Y-33714190D02*
X216172666Y-33618952D01*
X216125047Y-33571333D01*
X216029809Y-33523714D01*
X215934571Y-33523714D01*
X215172666Y-34190380D02*
X215172666Y-33190380D01*
X215172666Y-34142761D02*
X215267904Y-34190380D01*
X215458380Y-34190380D01*
X215553619Y-34142761D01*
X215601238Y-34095142D01*
X215648857Y-33999904D01*
X215648857Y-33714190D01*
X215601238Y-33618952D01*
X215553619Y-33571333D01*
X215458380Y-33523714D01*
X215267904Y-33523714D01*
X215172666Y-33571333D01*
X214744095Y-34142761D02*
X214648857Y-34190380D01*
X214458380Y-34190380D01*
X214363142Y-34142761D01*
X214315523Y-34047523D01*
X214315523Y-33999904D01*
X214363142Y-33904666D01*
X214458380Y-33857047D01*
X214601238Y-33857047D01*
X214696476Y-33809428D01*
X214744095Y-33714190D01*
X214744095Y-33666571D01*
X214696476Y-33571333D01*
X214601238Y-33523714D01*
X214458380Y-33523714D01*
X214363142Y-33571333D01*
X219958380Y-35023714D02*
X219577428Y-35023714D01*
X219815523Y-34690380D02*
X219815523Y-35547523D01*
X219767904Y-35642761D01*
X219672666Y-35690380D01*
X219577428Y-35690380D01*
X219244095Y-35690380D02*
X219244095Y-34690380D01*
X218815523Y-35690380D02*
X218815523Y-35166571D01*
X218863142Y-35071333D01*
X218958380Y-35023714D01*
X219101238Y-35023714D01*
X219196476Y-35071333D01*
X219244095Y-35118952D01*
X217958380Y-35642761D02*
X218053619Y-35690380D01*
X218244095Y-35690380D01*
X218339333Y-35642761D01*
X218386952Y-35547523D01*
X218386952Y-35166571D01*
X218339333Y-35071333D01*
X218244095Y-35023714D01*
X218053619Y-35023714D01*
X217958380Y-35071333D01*
X217910761Y-35166571D01*
X217910761Y-35261809D01*
X218386952Y-35357047D01*
X216720285Y-35690380D02*
X216720285Y-34690380D01*
X216339333Y-34690380D01*
X216244095Y-34738000D01*
X216196476Y-34785619D01*
X216148857Y-34880857D01*
X216148857Y-35023714D01*
X216196476Y-35118952D01*
X216244095Y-35166571D01*
X216339333Y-35214190D01*
X216720285Y-35214190D01*
X215148857Y-35595142D02*
X215196476Y-35642761D01*
X215339333Y-35690380D01*
X215434571Y-35690380D01*
X215577428Y-35642761D01*
X215672666Y-35547523D01*
X215720285Y-35452285D01*
X215767904Y-35261809D01*
X215767904Y-35118952D01*
X215720285Y-34928476D01*
X215672666Y-34833238D01*
X215577428Y-34738000D01*
X215434571Y-34690380D01*
X215339333Y-34690380D01*
X215196476Y-34738000D01*
X215148857Y-34785619D01*
X214386952Y-35166571D02*
X214244095Y-35214190D01*
X214196476Y-35261809D01*
X214148857Y-35357047D01*
X214148857Y-35499904D01*
X214196476Y-35595142D01*
X214244095Y-35642761D01*
X214339333Y-35690380D01*
X214720285Y-35690380D01*
X214720285Y-34690380D01*
X214386952Y-34690380D01*
X214291714Y-34738000D01*
X214244095Y-34785619D01*
X214196476Y-34880857D01*
X214196476Y-34976095D01*
X214244095Y-35071333D01*
X214291714Y-35118952D01*
X214386952Y-35166571D01*
X214720285Y-35166571D01*
%TD*%
M02*
