%TF.GenerationSoftware,KiCad,Pcbnew,(5.1.7)-1*%
%TF.CreationDate,2021-06-20T13:46:43+02:00*%
%TF.ProjectId,Split65Right,53706c69-7436-4355-9269-6768742e6b69,rev?*%
%TF.SameCoordinates,Original*%
%TF.FileFunction,Legend,Top*%
%TF.FilePolarity,Positive*%
%FSLAX46Y46*%
G04 Gerber Fmt 4.6, Leading zero omitted, Abs format (unit mm)*
G04 Created by KiCad (PCBNEW (5.1.7)-1) date 2021-06-20 13:46:43*
%MOMM*%
%LPD*%
G01*
G04 APERTURE LIST*
%ADD10C,0.150000*%
%ADD11C,0.200000*%
G04 APERTURE END LIST*
D10*
%TO.C,SW39*%
X59360000Y-109144000D02*
X59360000Y-110144000D01*
X58360000Y-123144000D02*
X59360000Y-123144000D01*
X59360000Y-109144000D02*
X58360000Y-109144000D01*
X59360000Y-122144000D02*
X59360000Y-123144000D01*
X45360000Y-123144000D02*
X45360000Y-122144000D01*
X46360000Y-109144000D02*
X45360000Y-109144000D01*
X45360000Y-123144000D02*
X46360000Y-123144000D01*
X45360000Y-110144000D02*
X45360000Y-109144000D01*
%TO.C,J2*%
X216496000Y-125744000D02*
X226656000Y-125744000D01*
X216496000Y-123204000D02*
X226656000Y-123204000D01*
X226656000Y-123204000D02*
X226656000Y-125744000D01*
X216496000Y-125744000D02*
X216496000Y-123204000D01*
%TO.C,J1*%
X228336000Y-44130000D02*
X228336000Y-32130000D01*
X234336000Y-44130000D02*
X228336000Y-44130000D01*
X234336000Y-32130000D02*
X234336000Y-44130000D01*
X228336000Y-32130000D02*
X228836000Y-32130000D01*
X233836000Y-32130000D02*
X233836000Y-30230000D01*
X228836000Y-32130000D02*
X228836000Y-30230000D01*
X234336000Y-32130000D02*
X233836000Y-32130000D01*
X228836000Y-30230000D02*
X233836000Y-30230000D01*
%TO.C,JP2*%
X232241000Y-55391000D02*
X229955000Y-55391000D01*
X229955000Y-55391000D02*
X229955000Y-53613000D01*
X229955000Y-53613000D02*
X232241000Y-53613000D01*
X232241000Y-53613000D02*
X232241000Y-55391000D01*
%TO.C,JP3*%
X232241000Y-53249000D02*
X229955000Y-53249000D01*
X229955000Y-53249000D02*
X229955000Y-51471000D01*
X229955000Y-51471000D02*
X232241000Y-51471000D01*
X232241000Y-51471000D02*
X232241000Y-53249000D01*
D11*
%TO.C,R1*%
X230156000Y-58604000D02*
X230156000Y-64404000D01*
X227756000Y-58604000D02*
X230156000Y-58604000D01*
X227756000Y-64404000D02*
X227756000Y-58604000D01*
X230156000Y-64429000D02*
X227756000Y-64429000D01*
%TO.C,R2*%
X233964000Y-58604000D02*
X233964000Y-64404000D01*
X231564000Y-58604000D02*
X233964000Y-58604000D01*
X231564000Y-64404000D02*
X231564000Y-58604000D01*
X233964000Y-64429000D02*
X231564000Y-64429000D01*
D10*
%TO.C,SW1*%
X199780000Y-32984000D02*
X199780000Y-33984000D01*
X198780000Y-46984000D02*
X199780000Y-46984000D01*
X199780000Y-32984000D02*
X198780000Y-32984000D01*
X199780000Y-45984000D02*
X199780000Y-46984000D01*
X185780000Y-46984000D02*
X185780000Y-45984000D01*
X186780000Y-32984000D02*
X185780000Y-32984000D01*
X185780000Y-46984000D02*
X186780000Y-46984000D01*
X185780000Y-33984000D02*
X185780000Y-32984000D01*
%TO.C,SW2*%
X171220000Y-32984000D02*
X171220000Y-33984000D01*
X170220000Y-46984000D02*
X171220000Y-46984000D01*
X171220000Y-32984000D02*
X170220000Y-32984000D01*
X171220000Y-45984000D02*
X171220000Y-46984000D01*
X157220000Y-46984000D02*
X157220000Y-45984000D01*
X158220000Y-32984000D02*
X157220000Y-32984000D01*
X157220000Y-46984000D02*
X158220000Y-46984000D01*
X157220000Y-33984000D02*
X157220000Y-32984000D01*
%TO.C,SW3*%
X142660000Y-32984000D02*
X142660000Y-33984000D01*
X141660000Y-46984000D02*
X142660000Y-46984000D01*
X142660000Y-32984000D02*
X141660000Y-32984000D01*
X142660000Y-45984000D02*
X142660000Y-46984000D01*
X128660000Y-46984000D02*
X128660000Y-45984000D01*
X129660000Y-32984000D02*
X128660000Y-32984000D01*
X128660000Y-46984000D02*
X129660000Y-46984000D01*
X128660000Y-33984000D02*
X128660000Y-32984000D01*
%TO.C,SW4*%
X123620000Y-32984000D02*
X123620000Y-33984000D01*
X122620000Y-46984000D02*
X123620000Y-46984000D01*
X123620000Y-32984000D02*
X122620000Y-32984000D01*
X123620000Y-45984000D02*
X123620000Y-46984000D01*
X109620000Y-46984000D02*
X109620000Y-45984000D01*
X110620000Y-32984000D02*
X109620000Y-32984000D01*
X109620000Y-46984000D02*
X110620000Y-46984000D01*
X109620000Y-33984000D02*
X109620000Y-32984000D01*
%TO.C,SW5*%
X104580000Y-32984000D02*
X104580000Y-33984000D01*
X103580000Y-46984000D02*
X104580000Y-46984000D01*
X104580000Y-32984000D02*
X103580000Y-32984000D01*
X104580000Y-45984000D02*
X104580000Y-46984000D01*
X90580000Y-46984000D02*
X90580000Y-45984000D01*
X91580000Y-32984000D02*
X90580000Y-32984000D01*
X90580000Y-46984000D02*
X91580000Y-46984000D01*
X90580000Y-33984000D02*
X90580000Y-32984000D01*
%TO.C,SW6*%
X85540000Y-32984000D02*
X85540000Y-33984000D01*
X84540000Y-46984000D02*
X85540000Y-46984000D01*
X85540000Y-32984000D02*
X84540000Y-32984000D01*
X85540000Y-45984000D02*
X85540000Y-46984000D01*
X71540000Y-46984000D02*
X71540000Y-45984000D01*
X72540000Y-32984000D02*
X71540000Y-32984000D01*
X71540000Y-46984000D02*
X72540000Y-46984000D01*
X71540000Y-33984000D02*
X71540000Y-32984000D01*
%TO.C,SW7*%
X66500000Y-32984000D02*
X66500000Y-33984000D01*
X65500000Y-46984000D02*
X66500000Y-46984000D01*
X66500000Y-32984000D02*
X65500000Y-32984000D01*
X66500000Y-45984000D02*
X66500000Y-46984000D01*
X52500000Y-46984000D02*
X52500000Y-45984000D01*
X53500000Y-32984000D02*
X52500000Y-32984000D01*
X52500000Y-46984000D02*
X53500000Y-46984000D01*
X52500000Y-33984000D02*
X52500000Y-32984000D01*
%TO.C,SW8*%
X47460000Y-32984000D02*
X47460000Y-33984000D01*
X46460000Y-46984000D02*
X47460000Y-46984000D01*
X47460000Y-32984000D02*
X46460000Y-32984000D01*
X47460000Y-45984000D02*
X47460000Y-46984000D01*
X33460000Y-46984000D02*
X33460000Y-45984000D01*
X34460000Y-32984000D02*
X33460000Y-32984000D01*
X33460000Y-46984000D02*
X34460000Y-46984000D01*
X33460000Y-33984000D02*
X33460000Y-32984000D01*
%TO.C,SW9*%
X199780000Y-52024000D02*
X199780000Y-53024000D01*
X198780000Y-66024000D02*
X199780000Y-66024000D01*
X199780000Y-52024000D02*
X198780000Y-52024000D01*
X199780000Y-65024000D02*
X199780000Y-66024000D01*
X185780000Y-66024000D02*
X185780000Y-65024000D01*
X186780000Y-52024000D02*
X185780000Y-52024000D01*
X185780000Y-66024000D02*
X186780000Y-66024000D01*
X185780000Y-53024000D02*
X185780000Y-52024000D01*
%TO.C,SW10*%
X152180000Y-52024000D02*
X152180000Y-53024000D01*
X151180000Y-66024000D02*
X152180000Y-66024000D01*
X152180000Y-52024000D02*
X151180000Y-52024000D01*
X152180000Y-65024000D02*
X152180000Y-66024000D01*
X138180000Y-66024000D02*
X138180000Y-65024000D01*
X139180000Y-52024000D02*
X138180000Y-52024000D01*
X138180000Y-66024000D02*
X139180000Y-66024000D01*
X138180000Y-53024000D02*
X138180000Y-52024000D01*
%TO.C,SW11*%
X133140000Y-52024000D02*
X133140000Y-53024000D01*
X132140000Y-66024000D02*
X133140000Y-66024000D01*
X133140000Y-52024000D02*
X132140000Y-52024000D01*
X133140000Y-65024000D02*
X133140000Y-66024000D01*
X119140000Y-66024000D02*
X119140000Y-65024000D01*
X120140000Y-52024000D02*
X119140000Y-52024000D01*
X119140000Y-66024000D02*
X120140000Y-66024000D01*
X119140000Y-53024000D02*
X119140000Y-52024000D01*
%TO.C,SW12*%
X114100000Y-52024000D02*
X114100000Y-53024000D01*
X113100000Y-66024000D02*
X114100000Y-66024000D01*
X114100000Y-52024000D02*
X113100000Y-52024000D01*
X114100000Y-65024000D02*
X114100000Y-66024000D01*
X100100000Y-66024000D02*
X100100000Y-65024000D01*
X101100000Y-52024000D02*
X100100000Y-52024000D01*
X100100000Y-66024000D02*
X101100000Y-66024000D01*
X100100000Y-53024000D02*
X100100000Y-52024000D01*
%TO.C,SW13*%
X95060000Y-52024000D02*
X95060000Y-53024000D01*
X94060000Y-66024000D02*
X95060000Y-66024000D01*
X95060000Y-52024000D02*
X94060000Y-52024000D01*
X95060000Y-65024000D02*
X95060000Y-66024000D01*
X81060000Y-66024000D02*
X81060000Y-65024000D01*
X82060000Y-52024000D02*
X81060000Y-52024000D01*
X81060000Y-66024000D02*
X82060000Y-66024000D01*
X81060000Y-53024000D02*
X81060000Y-52024000D01*
%TO.C,SW14*%
X76020000Y-52024000D02*
X76020000Y-53024000D01*
X75020000Y-66024000D02*
X76020000Y-66024000D01*
X76020000Y-52024000D02*
X75020000Y-52024000D01*
X76020000Y-65024000D02*
X76020000Y-66024000D01*
X62020000Y-66024000D02*
X62020000Y-65024000D01*
X63020000Y-52024000D02*
X62020000Y-52024000D01*
X62020000Y-66024000D02*
X63020000Y-66024000D01*
X62020000Y-53024000D02*
X62020000Y-52024000D01*
%TO.C,SW15*%
X56980000Y-52024000D02*
X56980000Y-53024000D01*
X55980000Y-66024000D02*
X56980000Y-66024000D01*
X56980000Y-52024000D02*
X55980000Y-52024000D01*
X56980000Y-65024000D02*
X56980000Y-66024000D01*
X42980000Y-66024000D02*
X42980000Y-65024000D01*
X43980000Y-52024000D02*
X42980000Y-52024000D01*
X42980000Y-66024000D02*
X43980000Y-66024000D01*
X42980000Y-53024000D02*
X42980000Y-52024000D01*
%TO.C,SW16*%
X37940000Y-52024000D02*
X37940000Y-53024000D01*
X36940000Y-66024000D02*
X37940000Y-66024000D01*
X37940000Y-52024000D02*
X36940000Y-52024000D01*
X37940000Y-65024000D02*
X37940000Y-66024000D01*
X23940000Y-66024000D02*
X23940000Y-65024000D01*
X24940000Y-52024000D02*
X23940000Y-52024000D01*
X23940000Y-66024000D02*
X24940000Y-66024000D01*
X23940000Y-53024000D02*
X23940000Y-52024000D01*
%TO.C,SW17*%
X199780000Y-71064000D02*
X199780000Y-72064000D01*
X198780000Y-85064000D02*
X199780000Y-85064000D01*
X199780000Y-71064000D02*
X198780000Y-71064000D01*
X199780000Y-84064000D02*
X199780000Y-85064000D01*
X185780000Y-85064000D02*
X185780000Y-84064000D01*
X186780000Y-71064000D02*
X185780000Y-71064000D01*
X185780000Y-85064000D02*
X186780000Y-85064000D01*
X185780000Y-72064000D02*
X185780000Y-71064000D01*
%TO.C,SW18*%
X164360000Y-62544000D02*
X164360000Y-61544000D01*
X164360000Y-75544000D02*
X165360000Y-75544000D01*
X165360000Y-61544000D02*
X164360000Y-61544000D01*
X164360000Y-75544000D02*
X164360000Y-74544000D01*
X178360000Y-74544000D02*
X178360000Y-75544000D01*
X178360000Y-61544000D02*
X177360000Y-61544000D01*
X177360000Y-75544000D02*
X178360000Y-75544000D01*
X178360000Y-61544000D02*
X178360000Y-62544000D01*
%TO.C,SW19*%
X156940000Y-71064000D02*
X156940000Y-72064000D01*
X155940000Y-85064000D02*
X156940000Y-85064000D01*
X156940000Y-71064000D02*
X155940000Y-71064000D01*
X156940000Y-84064000D02*
X156940000Y-85064000D01*
X142940000Y-85064000D02*
X142940000Y-84064000D01*
X143940000Y-71064000D02*
X142940000Y-71064000D01*
X142940000Y-85064000D02*
X143940000Y-85064000D01*
X142940000Y-72064000D02*
X142940000Y-71064000D01*
%TO.C,SW20*%
X137900000Y-71064000D02*
X137900000Y-72064000D01*
X136900000Y-85064000D02*
X137900000Y-85064000D01*
X137900000Y-71064000D02*
X136900000Y-71064000D01*
X137900000Y-84064000D02*
X137900000Y-85064000D01*
X123900000Y-85064000D02*
X123900000Y-84064000D01*
X124900000Y-71064000D02*
X123900000Y-71064000D01*
X123900000Y-85064000D02*
X124900000Y-85064000D01*
X123900000Y-72064000D02*
X123900000Y-71064000D01*
%TO.C,SW21*%
X118860000Y-71064000D02*
X118860000Y-72064000D01*
X117860000Y-85064000D02*
X118860000Y-85064000D01*
X118860000Y-71064000D02*
X117860000Y-71064000D01*
X118860000Y-84064000D02*
X118860000Y-85064000D01*
X104860000Y-85064000D02*
X104860000Y-84064000D01*
X105860000Y-71064000D02*
X104860000Y-71064000D01*
X104860000Y-85064000D02*
X105860000Y-85064000D01*
X104860000Y-72064000D02*
X104860000Y-71064000D01*
%TO.C,SW22*%
X99820000Y-71064000D02*
X99820000Y-72064000D01*
X98820000Y-85064000D02*
X99820000Y-85064000D01*
X99820000Y-71064000D02*
X98820000Y-71064000D01*
X99820000Y-84064000D02*
X99820000Y-85064000D01*
X85820000Y-85064000D02*
X85820000Y-84064000D01*
X86820000Y-71064000D02*
X85820000Y-71064000D01*
X85820000Y-85064000D02*
X86820000Y-85064000D01*
X85820000Y-72064000D02*
X85820000Y-71064000D01*
%TO.C,SW23*%
X80780000Y-71064000D02*
X80780000Y-72064000D01*
X79780000Y-85064000D02*
X80780000Y-85064000D01*
X80780000Y-71064000D02*
X79780000Y-71064000D01*
X80780000Y-84064000D02*
X80780000Y-85064000D01*
X66780000Y-85064000D02*
X66780000Y-84064000D01*
X67780000Y-71064000D02*
X66780000Y-71064000D01*
X66780000Y-85064000D02*
X67780000Y-85064000D01*
X66780000Y-72064000D02*
X66780000Y-71064000D01*
%TO.C,SW24*%
X61740000Y-71064000D02*
X61740000Y-72064000D01*
X60740000Y-85064000D02*
X61740000Y-85064000D01*
X61740000Y-71064000D02*
X60740000Y-71064000D01*
X61740000Y-84064000D02*
X61740000Y-85064000D01*
X47740000Y-85064000D02*
X47740000Y-84064000D01*
X48740000Y-71064000D02*
X47740000Y-71064000D01*
X47740000Y-85064000D02*
X48740000Y-85064000D01*
X47740000Y-72064000D02*
X47740000Y-71064000D01*
%TO.C,SW25*%
X199780000Y-90104000D02*
X199780000Y-91104000D01*
X198780000Y-104104000D02*
X199780000Y-104104000D01*
X199780000Y-90104000D02*
X198780000Y-90104000D01*
X199780000Y-103104000D02*
X199780000Y-104104000D01*
X185780000Y-104104000D02*
X185780000Y-103104000D01*
X186780000Y-90104000D02*
X185780000Y-90104000D01*
X185780000Y-104104000D02*
X186780000Y-104104000D01*
X185780000Y-91104000D02*
X185780000Y-90104000D01*
%TO.C,SW26*%
X180740000Y-90104000D02*
X180740000Y-91104000D01*
X179740000Y-104104000D02*
X180740000Y-104104000D01*
X180740000Y-90104000D02*
X179740000Y-90104000D01*
X180740000Y-103104000D02*
X180740000Y-104104000D01*
X166740000Y-104104000D02*
X166740000Y-103104000D01*
X167740000Y-90104000D02*
X166740000Y-90104000D01*
X166740000Y-104104000D02*
X167740000Y-104104000D01*
X166740000Y-91104000D02*
X166740000Y-90104000D01*
%TO.C,SW27*%
X154560000Y-90104000D02*
X154560000Y-91104000D01*
X153560000Y-104104000D02*
X154560000Y-104104000D01*
X154560000Y-90104000D02*
X153560000Y-90104000D01*
X154560000Y-103104000D02*
X154560000Y-104104000D01*
X140560000Y-104104000D02*
X140560000Y-103104000D01*
X141560000Y-90104000D02*
X140560000Y-90104000D01*
X140560000Y-104104000D02*
X141560000Y-104104000D01*
X140560000Y-91104000D02*
X140560000Y-90104000D01*
%TO.C,SW28*%
X128380000Y-90104000D02*
X128380000Y-91104000D01*
X127380000Y-104104000D02*
X128380000Y-104104000D01*
X128380000Y-90104000D02*
X127380000Y-90104000D01*
X128380000Y-103104000D02*
X128380000Y-104104000D01*
X114380000Y-104104000D02*
X114380000Y-103104000D01*
X115380000Y-90104000D02*
X114380000Y-90104000D01*
X114380000Y-104104000D02*
X115380000Y-104104000D01*
X114380000Y-91104000D02*
X114380000Y-90104000D01*
%TO.C,SW29*%
X109340000Y-90104000D02*
X109340000Y-91104000D01*
X108340000Y-104104000D02*
X109340000Y-104104000D01*
X109340000Y-90104000D02*
X108340000Y-90104000D01*
X109340000Y-103104000D02*
X109340000Y-104104000D01*
X95340000Y-104104000D02*
X95340000Y-103104000D01*
X96340000Y-90104000D02*
X95340000Y-90104000D01*
X95340000Y-104104000D02*
X96340000Y-104104000D01*
X95340000Y-91104000D02*
X95340000Y-90104000D01*
%TO.C,SW30*%
X90300000Y-90104000D02*
X90300000Y-91104000D01*
X89300000Y-104104000D02*
X90300000Y-104104000D01*
X90300000Y-90104000D02*
X89300000Y-90104000D01*
X90300000Y-103104000D02*
X90300000Y-104104000D01*
X76300000Y-104104000D02*
X76300000Y-103104000D01*
X77300000Y-90104000D02*
X76300000Y-90104000D01*
X76300000Y-104104000D02*
X77300000Y-104104000D01*
X76300000Y-91104000D02*
X76300000Y-90104000D01*
%TO.C,SW31*%
X71260000Y-90104000D02*
X71260000Y-91104000D01*
X70260000Y-104104000D02*
X71260000Y-104104000D01*
X71260000Y-90104000D02*
X70260000Y-90104000D01*
X71260000Y-103104000D02*
X71260000Y-104104000D01*
X57260000Y-104104000D02*
X57260000Y-103104000D01*
X58260000Y-90104000D02*
X57260000Y-90104000D01*
X57260000Y-104104000D02*
X58260000Y-104104000D01*
X57260000Y-91104000D02*
X57260000Y-90104000D01*
%TO.C,SW32*%
X52220000Y-90104000D02*
X52220000Y-91104000D01*
X51220000Y-104104000D02*
X52220000Y-104104000D01*
X52220000Y-90104000D02*
X51220000Y-90104000D01*
X52220000Y-103104000D02*
X52220000Y-104104000D01*
X38220000Y-104104000D02*
X38220000Y-103104000D01*
X39220000Y-90104000D02*
X38220000Y-90104000D01*
X38220000Y-104104000D02*
X39220000Y-104104000D01*
X38220000Y-91104000D02*
X38220000Y-90104000D01*
%TO.C,SW33*%
X199780000Y-109144000D02*
X199780000Y-110144000D01*
X198780000Y-123144000D02*
X199780000Y-123144000D01*
X199780000Y-109144000D02*
X198780000Y-109144000D01*
X199780000Y-122144000D02*
X199780000Y-123144000D01*
X185780000Y-123144000D02*
X185780000Y-122144000D01*
X186780000Y-109144000D02*
X185780000Y-109144000D01*
X185780000Y-123144000D02*
X186780000Y-123144000D01*
X185780000Y-110144000D02*
X185780000Y-109144000D01*
%TO.C,SW34*%
X180740000Y-109144000D02*
X180740000Y-110144000D01*
X179740000Y-123144000D02*
X180740000Y-123144000D01*
X180740000Y-109144000D02*
X179740000Y-109144000D01*
X180740000Y-122144000D02*
X180740000Y-123144000D01*
X166740000Y-123144000D02*
X166740000Y-122144000D01*
X167740000Y-109144000D02*
X166740000Y-109144000D01*
X166740000Y-123144000D02*
X167740000Y-123144000D01*
X166740000Y-110144000D02*
X166740000Y-109144000D01*
%TO.C,SW35*%
X161700000Y-109144000D02*
X161700000Y-110144000D01*
X160700000Y-123144000D02*
X161700000Y-123144000D01*
X161700000Y-109144000D02*
X160700000Y-109144000D01*
X161700000Y-122144000D02*
X161700000Y-123144000D01*
X147700000Y-123144000D02*
X147700000Y-122144000D01*
X148700000Y-109144000D02*
X147700000Y-109144000D01*
X147700000Y-123144000D02*
X148700000Y-123144000D01*
X147700000Y-110144000D02*
X147700000Y-109144000D01*
%TO.C,SW36*%
X128380000Y-109144000D02*
X128380000Y-110144000D01*
X127380000Y-123144000D02*
X128380000Y-123144000D01*
X128380000Y-109144000D02*
X127380000Y-109144000D01*
X128380000Y-122144000D02*
X128380000Y-123144000D01*
X114380000Y-123144000D02*
X114380000Y-122144000D01*
X115380000Y-109144000D02*
X114380000Y-109144000D01*
X114380000Y-123144000D02*
X115380000Y-123144000D01*
X114380000Y-110144000D02*
X114380000Y-109144000D01*
%TO.C,SW37*%
X109340000Y-109144000D02*
X109340000Y-110144000D01*
X108340000Y-123144000D02*
X109340000Y-123144000D01*
X109340000Y-109144000D02*
X108340000Y-109144000D01*
X109340000Y-122144000D02*
X109340000Y-123144000D01*
X95340000Y-123144000D02*
X95340000Y-122144000D01*
X96340000Y-109144000D02*
X95340000Y-109144000D01*
X95340000Y-123144000D02*
X96340000Y-123144000D01*
X95340000Y-110144000D02*
X95340000Y-109144000D01*
%TO.C,SW38*%
X90300000Y-109144000D02*
X90300000Y-110144000D01*
X89300000Y-123144000D02*
X90300000Y-123144000D01*
X90300000Y-109144000D02*
X89300000Y-109144000D01*
X90300000Y-122144000D02*
X90300000Y-123144000D01*
X76300000Y-123144000D02*
X76300000Y-122144000D01*
X77300000Y-109144000D02*
X76300000Y-109144000D01*
X76300000Y-123144000D02*
X77300000Y-123144000D01*
X76300000Y-110144000D02*
X76300000Y-109144000D01*
%TO.C,SW40*%
X42700000Y-71064000D02*
X42700000Y-72064000D01*
X41700000Y-85064000D02*
X42700000Y-85064000D01*
X42700000Y-71064000D02*
X41700000Y-71064000D01*
X42700000Y-84064000D02*
X42700000Y-85064000D01*
X28700000Y-85064000D02*
X28700000Y-84064000D01*
X29700000Y-71064000D02*
X28700000Y-71064000D01*
X28700000Y-85064000D02*
X29700000Y-85064000D01*
X28700000Y-72064000D02*
X28700000Y-71064000D01*
%TO.C,SW_41*%
X230964000Y-69828000D02*
X230964000Y-75828000D01*
X234464000Y-75828000D02*
X234464000Y-69828000D01*
X230964000Y-69828000D02*
X231664000Y-69828000D01*
X234464000Y-69828000D02*
X233864000Y-69828000D01*
X234464000Y-75828000D02*
X233864000Y-75828000D01*
X230964000Y-75828000D02*
X231664000Y-75828000D01*
%TO.C,U1*%
X212377000Y-67918000D02*
X212377000Y-79418000D01*
X209964000Y-65194000D02*
X209964000Y-66464000D01*
X209456000Y-66718000D02*
X209710000Y-66718000D01*
X209456000Y-64178000D02*
X209966000Y-64178000D01*
X225966000Y-62908000D02*
X225966000Y-31694000D01*
X208186000Y-31694000D02*
X208186000Y-62908000D01*
X209456000Y-30424000D02*
X224696000Y-30424000D01*
X217806000Y-50183000D02*
G75*
G03*
X217806000Y-50183000I-750000J0D01*
G01*
X224188000Y-64178000D02*
X224696000Y-64178000D01*
X224188000Y-65194000D02*
X224188000Y-66464000D01*
X224442000Y-66718000D02*
X224696000Y-66718000D01*
X225966000Y-67988000D02*
X225966000Y-80688000D01*
X208186000Y-67988000D02*
X208186000Y-80688000D01*
X224696000Y-81958000D02*
X209456000Y-81958000D01*
X212377000Y-79418000D02*
X221756000Y-79418000D01*
X212377000Y-67918000D02*
X221756000Y-67918000D01*
X221756000Y-79418000D02*
X221756000Y-67918000D01*
X225966000Y-31694000D02*
G75*
G03*
X224696000Y-30424000I-1270000J0D01*
G01*
X209456000Y-30424000D02*
G75*
G03*
X208186000Y-31694000I0J-1270000D01*
G01*
X224188000Y-64178000D02*
G75*
G03*
X224188000Y-65194000I0J-508000D01*
G01*
X224696000Y-64178000D02*
G75*
G03*
X225966000Y-62908000I0J1270000D01*
G01*
X208186000Y-62908000D02*
G75*
G03*
X209456000Y-64178000I1270000J0D01*
G01*
X209964000Y-65194000D02*
G75*
G03*
X209964000Y-64178000I0J508000D01*
G01*
X224696000Y-81958000D02*
G75*
G03*
X225966000Y-80688000I0J1270000D01*
G01*
X208186000Y-80688000D02*
G75*
G03*
X209456000Y-81958000I1270000J0D01*
G01*
X225966000Y-67988000D02*
G75*
G03*
X224696000Y-66718000I-1270000J0D01*
G01*
X209456000Y-66718000D02*
G75*
G03*
X208186000Y-67988000I0J-1270000D01*
G01*
X224188000Y-66464000D02*
G75*
G03*
X224442000Y-66718000I254000J0D01*
G01*
X209710000Y-66718000D02*
G75*
G03*
X209964000Y-66464000I0J254000D01*
G01*
D11*
%TO.C,R3*%
X237772000Y-58604000D02*
X237772000Y-64404000D01*
X235372000Y-58604000D02*
X237772000Y-58604000D01*
X235372000Y-64404000D02*
X235372000Y-58604000D01*
X237772000Y-64429000D02*
X235372000Y-64429000D01*
%TO.C,J2*%
D10*
X215182895Y-124744933D02*
X215763466Y-124744933D01*
X215879580Y-124783638D01*
X215956990Y-124861047D01*
X215995695Y-124977161D01*
X215995695Y-125054571D01*
X215260304Y-124396590D02*
X215221600Y-124357885D01*
X215182895Y-124280476D01*
X215182895Y-124086952D01*
X215221600Y-124009542D01*
X215260304Y-123970838D01*
X215337714Y-123932133D01*
X215415123Y-123932133D01*
X215531238Y-123970838D01*
X215995695Y-124435295D01*
X215995695Y-123932133D01*
%TO.C,JP2*%
X227860723Y-54095600D02*
X227783314Y-54056895D01*
X227667200Y-54056895D01*
X227551085Y-54095600D01*
X227473676Y-54173009D01*
X227434971Y-54250419D01*
X227396266Y-54405238D01*
X227396266Y-54521352D01*
X227434971Y-54676171D01*
X227473676Y-54753580D01*
X227551085Y-54830990D01*
X227667200Y-54869695D01*
X227744609Y-54869695D01*
X227860723Y-54830990D01*
X227899428Y-54792285D01*
X227899428Y-54521352D01*
X227744609Y-54521352D01*
X228247771Y-54869695D02*
X228247771Y-54056895D01*
X228712228Y-54869695D01*
X228712228Y-54056895D01*
X229099276Y-54869695D02*
X229099276Y-54056895D01*
X229292800Y-54056895D01*
X229408914Y-54095600D01*
X229486323Y-54173009D01*
X229525028Y-54250419D01*
X229563733Y-54405238D01*
X229563733Y-54521352D01*
X229525028Y-54676171D01*
X229486323Y-54753580D01*
X229408914Y-54830990D01*
X229292800Y-54869695D01*
X229099276Y-54869695D01*
%TO.C,JP3*%
X227860723Y-51953600D02*
X227783314Y-51914895D01*
X227667200Y-51914895D01*
X227551085Y-51953600D01*
X227473676Y-52031009D01*
X227434971Y-52108419D01*
X227396266Y-52263238D01*
X227396266Y-52379352D01*
X227434971Y-52534171D01*
X227473676Y-52611580D01*
X227551085Y-52688990D01*
X227667200Y-52727695D01*
X227744609Y-52727695D01*
X227860723Y-52688990D01*
X227899428Y-52650285D01*
X227899428Y-52379352D01*
X227744609Y-52379352D01*
X228247771Y-52727695D02*
X228247771Y-51914895D01*
X228712228Y-52727695D01*
X228712228Y-51914895D01*
X229099276Y-52727695D02*
X229099276Y-51914895D01*
X229292800Y-51914895D01*
X229408914Y-51953600D01*
X229486323Y-52031009D01*
X229525028Y-52108419D01*
X229563733Y-52263238D01*
X229563733Y-52379352D01*
X229525028Y-52534171D01*
X229486323Y-52611580D01*
X229408914Y-52688990D01*
X229292800Y-52727695D01*
X229099276Y-52727695D01*
%TO.C,R1*%
X231242904Y-61537333D02*
X230861952Y-61804000D01*
X231242904Y-61994476D02*
X230442904Y-61994476D01*
X230442904Y-61689714D01*
X230481000Y-61613523D01*
X230519095Y-61575428D01*
X230595285Y-61537333D01*
X230709571Y-61537333D01*
X230785761Y-61575428D01*
X230823857Y-61613523D01*
X230861952Y-61689714D01*
X230861952Y-61994476D01*
X231242904Y-60775428D02*
X231242904Y-61232571D01*
X231242904Y-61004000D02*
X230442904Y-61004000D01*
X230557190Y-61080190D01*
X230633380Y-61156380D01*
X230671476Y-61232571D01*
%TO.C,R2*%
X235050904Y-61537333D02*
X234669952Y-61804000D01*
X235050904Y-61994476D02*
X234250904Y-61994476D01*
X234250904Y-61689714D01*
X234289000Y-61613523D01*
X234327095Y-61575428D01*
X234403285Y-61537333D01*
X234517571Y-61537333D01*
X234593761Y-61575428D01*
X234631857Y-61613523D01*
X234669952Y-61689714D01*
X234669952Y-61994476D01*
X234327095Y-61232571D02*
X234289000Y-61194476D01*
X234250904Y-61118285D01*
X234250904Y-60927809D01*
X234289000Y-60851619D01*
X234327095Y-60813523D01*
X234403285Y-60775428D01*
X234479476Y-60775428D01*
X234593761Y-60813523D01*
X235050904Y-61270666D01*
X235050904Y-60775428D01*
%TO.C,SW_41*%
X232402095Y-71666095D02*
X232783047Y-71399428D01*
X232402095Y-71208952D02*
X233202095Y-71208952D01*
X233202095Y-71513714D01*
X233164000Y-71589904D01*
X233125904Y-71628000D01*
X233049714Y-71666095D01*
X232935428Y-71666095D01*
X232859238Y-71628000D01*
X232821142Y-71589904D01*
X232783047Y-71513714D01*
X232783047Y-71208952D01*
X232821142Y-72008952D02*
X232821142Y-72275619D01*
X232402095Y-72389904D02*
X232402095Y-72008952D01*
X233202095Y-72008952D01*
X233202095Y-72389904D01*
X232440190Y-72694666D02*
X232402095Y-72808952D01*
X232402095Y-72999428D01*
X232440190Y-73075619D01*
X232478285Y-73113714D01*
X232554476Y-73151809D01*
X232630666Y-73151809D01*
X232706857Y-73113714D01*
X232744952Y-73075619D01*
X232783047Y-72999428D01*
X232821142Y-72847047D01*
X232859238Y-72770857D01*
X232897333Y-72732761D01*
X232973523Y-72694666D01*
X233049714Y-72694666D01*
X233125904Y-72732761D01*
X233164000Y-72770857D01*
X233202095Y-72847047D01*
X233202095Y-73037523D01*
X233164000Y-73151809D01*
X232821142Y-73494666D02*
X232821142Y-73761333D01*
X232402095Y-73875619D02*
X232402095Y-73494666D01*
X233202095Y-73494666D01*
X233202095Y-73875619D01*
X233202095Y-74104190D02*
X233202095Y-74561333D01*
X232402095Y-74332761D02*
X233202095Y-74332761D01*
%TO.C,U1*%
X216304095Y-53060380D02*
X216304095Y-53869904D01*
X216351714Y-53965142D01*
X216399333Y-54012761D01*
X216494571Y-54060380D01*
X216685047Y-54060380D01*
X216780285Y-54012761D01*
X216827904Y-53965142D01*
X216875523Y-53869904D01*
X216875523Y-53060380D01*
X217875523Y-54060380D02*
X217304095Y-54060380D01*
X217589809Y-54060380D02*
X217589809Y-53060380D01*
X217494571Y-53203238D01*
X217399333Y-53298476D01*
X217304095Y-53346095D01*
X213053619Y-31690380D02*
X213053619Y-32499904D01*
X213101238Y-32595142D01*
X213148857Y-32642761D01*
X213244095Y-32690380D01*
X213434571Y-32690380D01*
X213529809Y-32642761D01*
X213577428Y-32595142D01*
X213625047Y-32499904D01*
X213625047Y-31690380D01*
X214053619Y-32642761D02*
X214196476Y-32690380D01*
X214434571Y-32690380D01*
X214529809Y-32642761D01*
X214577428Y-32595142D01*
X214625047Y-32499904D01*
X214625047Y-32404666D01*
X214577428Y-32309428D01*
X214529809Y-32261809D01*
X214434571Y-32214190D01*
X214244095Y-32166571D01*
X214148857Y-32118952D01*
X214101238Y-32071333D01*
X214053619Y-31976095D01*
X214053619Y-31880857D01*
X214101238Y-31785619D01*
X214148857Y-31738000D01*
X214244095Y-31690380D01*
X214482190Y-31690380D01*
X214625047Y-31738000D01*
X215386952Y-32166571D02*
X215529809Y-32214190D01*
X215577428Y-32261809D01*
X215625047Y-32357047D01*
X215625047Y-32499904D01*
X215577428Y-32595142D01*
X215529809Y-32642761D01*
X215434571Y-32690380D01*
X215053619Y-32690380D01*
X215053619Y-31690380D01*
X215386952Y-31690380D01*
X215482190Y-31738000D01*
X215529809Y-31785619D01*
X215577428Y-31880857D01*
X215577428Y-31976095D01*
X215529809Y-32071333D01*
X215482190Y-32118952D01*
X215386952Y-32166571D01*
X215053619Y-32166571D01*
X216672666Y-32023714D02*
X217053619Y-32023714D01*
X216815523Y-32690380D02*
X216815523Y-31833238D01*
X216863142Y-31738000D01*
X216958380Y-31690380D01*
X217053619Y-31690380D01*
X217815523Y-32690380D02*
X217815523Y-32166571D01*
X217767904Y-32071333D01*
X217672666Y-32023714D01*
X217482190Y-32023714D01*
X217386952Y-32071333D01*
X217815523Y-32642761D02*
X217720285Y-32690380D01*
X217482190Y-32690380D01*
X217386952Y-32642761D01*
X217339333Y-32547523D01*
X217339333Y-32452285D01*
X217386952Y-32357047D01*
X217482190Y-32309428D01*
X217720285Y-32309428D01*
X217815523Y-32261809D01*
X218720285Y-32642761D02*
X218625047Y-32690380D01*
X218434571Y-32690380D01*
X218339333Y-32642761D01*
X218291714Y-32595142D01*
X218244095Y-32499904D01*
X218244095Y-32214190D01*
X218291714Y-32118952D01*
X218339333Y-32071333D01*
X218434571Y-32023714D01*
X218625047Y-32023714D01*
X218720285Y-32071333D01*
X219148857Y-32690380D02*
X219148857Y-32023714D01*
X219148857Y-31690380D02*
X219101238Y-31738000D01*
X219148857Y-31785619D01*
X219196476Y-31738000D01*
X219148857Y-31690380D01*
X219148857Y-31785619D01*
X219625047Y-32023714D02*
X219625047Y-32690380D01*
X219625047Y-32118952D02*
X219672666Y-32071333D01*
X219767904Y-32023714D01*
X219910761Y-32023714D01*
X220006000Y-32071333D01*
X220053619Y-32166571D01*
X220053619Y-32690380D01*
X220958380Y-32023714D02*
X220958380Y-32833238D01*
X220910761Y-32928476D01*
X220863142Y-32976095D01*
X220767904Y-33023714D01*
X220625047Y-33023714D01*
X220529809Y-32976095D01*
X220958380Y-32642761D02*
X220863142Y-32690380D01*
X220672666Y-32690380D01*
X220577428Y-32642761D01*
X220529809Y-32595142D01*
X220482190Y-32499904D01*
X220482190Y-32214190D01*
X220529809Y-32118952D01*
X220577428Y-32071333D01*
X220672666Y-32023714D01*
X220863142Y-32023714D01*
X220958380Y-32071333D01*
X214053619Y-35023714D02*
X214434571Y-35023714D01*
X214196476Y-34690380D02*
X214196476Y-35547523D01*
X214244095Y-35642761D01*
X214339333Y-35690380D01*
X214434571Y-35690380D01*
X214767904Y-35690380D02*
X214767904Y-34690380D01*
X215196476Y-35690380D02*
X215196476Y-35166571D01*
X215148857Y-35071333D01*
X215053619Y-35023714D01*
X214910761Y-35023714D01*
X214815523Y-35071333D01*
X214767904Y-35118952D01*
X216053619Y-35642761D02*
X215958380Y-35690380D01*
X215767904Y-35690380D01*
X215672666Y-35642761D01*
X215625047Y-35547523D01*
X215625047Y-35166571D01*
X215672666Y-35071333D01*
X215767904Y-35023714D01*
X215958380Y-35023714D01*
X216053619Y-35071333D01*
X216101238Y-35166571D01*
X216101238Y-35261809D01*
X215625047Y-35357047D01*
X217291714Y-35690380D02*
X217291714Y-34690380D01*
X217672666Y-34690380D01*
X217767904Y-34738000D01*
X217815523Y-34785619D01*
X217863142Y-34880857D01*
X217863142Y-35023714D01*
X217815523Y-35118952D01*
X217767904Y-35166571D01*
X217672666Y-35214190D01*
X217291714Y-35214190D01*
X218863142Y-35595142D02*
X218815523Y-35642761D01*
X218672666Y-35690380D01*
X218577428Y-35690380D01*
X218434571Y-35642761D01*
X218339333Y-35547523D01*
X218291714Y-35452285D01*
X218244095Y-35261809D01*
X218244095Y-35118952D01*
X218291714Y-34928476D01*
X218339333Y-34833238D01*
X218434571Y-34738000D01*
X218577428Y-34690380D01*
X218672666Y-34690380D01*
X218815523Y-34738000D01*
X218863142Y-34785619D01*
X219625047Y-35166571D02*
X219767904Y-35214190D01*
X219815523Y-35261809D01*
X219863142Y-35357047D01*
X219863142Y-35499904D01*
X219815523Y-35595142D01*
X219767904Y-35642761D01*
X219672666Y-35690380D01*
X219291714Y-35690380D01*
X219291714Y-34690380D01*
X219625047Y-34690380D01*
X219720285Y-34738000D01*
X219767904Y-34785619D01*
X219815523Y-34880857D01*
X219815523Y-34976095D01*
X219767904Y-35071333D01*
X219720285Y-35118952D01*
X219625047Y-35166571D01*
X219291714Y-35166571D01*
X213767904Y-34190380D02*
X213767904Y-33666571D01*
X213720285Y-33571333D01*
X213625047Y-33523714D01*
X213434571Y-33523714D01*
X213339333Y-33571333D01*
X213767904Y-34142761D02*
X213672666Y-34190380D01*
X213434571Y-34190380D01*
X213339333Y-34142761D01*
X213291714Y-34047523D01*
X213291714Y-33952285D01*
X213339333Y-33857047D01*
X213434571Y-33809428D01*
X213672666Y-33809428D01*
X213767904Y-33761809D01*
X214148857Y-33523714D02*
X214339333Y-34190380D01*
X214529809Y-33714190D01*
X214720285Y-34190380D01*
X214910761Y-33523714D01*
X215720285Y-34190380D02*
X215720285Y-33666571D01*
X215672666Y-33571333D01*
X215577428Y-33523714D01*
X215386952Y-33523714D01*
X215291714Y-33571333D01*
X215720285Y-34142761D02*
X215625047Y-34190380D01*
X215386952Y-34190380D01*
X215291714Y-34142761D01*
X215244095Y-34047523D01*
X215244095Y-33952285D01*
X215291714Y-33857047D01*
X215386952Y-33809428D01*
X215625047Y-33809428D01*
X215720285Y-33761809D01*
X216101238Y-33523714D02*
X216339333Y-34190380D01*
X216577428Y-33523714D02*
X216339333Y-34190380D01*
X216244095Y-34428476D01*
X216196476Y-34476095D01*
X216101238Y-34523714D01*
X217577428Y-33523714D02*
X217958380Y-33523714D01*
X217720285Y-34190380D02*
X217720285Y-33333238D01*
X217767904Y-33238000D01*
X217863142Y-33190380D01*
X217958380Y-33190380D01*
X218291714Y-34190380D02*
X218291714Y-33523714D01*
X218291714Y-33714190D02*
X218339333Y-33618952D01*
X218386952Y-33571333D01*
X218482190Y-33523714D01*
X218577428Y-33523714D01*
X219053619Y-34190380D02*
X218958380Y-34142761D01*
X218910761Y-34095142D01*
X218863142Y-33999904D01*
X218863142Y-33714190D01*
X218910761Y-33618952D01*
X218958380Y-33571333D01*
X219053619Y-33523714D01*
X219196476Y-33523714D01*
X219291714Y-33571333D01*
X219339333Y-33618952D01*
X219386952Y-33714190D01*
X219386952Y-33999904D01*
X219339333Y-34095142D01*
X219291714Y-34142761D01*
X219196476Y-34190380D01*
X219053619Y-34190380D01*
X219815523Y-34190380D02*
X219815523Y-33523714D01*
X219815523Y-33618952D02*
X219863142Y-33571333D01*
X219958380Y-33523714D01*
X220101238Y-33523714D01*
X220196476Y-33571333D01*
X220244095Y-33666571D01*
X220244095Y-34190380D01*
X220244095Y-33666571D02*
X220291714Y-33571333D01*
X220386952Y-33523714D01*
X220529809Y-33523714D01*
X220625047Y-33571333D01*
X220672666Y-33666571D01*
X220672666Y-34190380D01*
%TO.C,R3*%
X238858904Y-61537333D02*
X238477952Y-61804000D01*
X238858904Y-61994476D02*
X238058904Y-61994476D01*
X238058904Y-61689714D01*
X238097000Y-61613523D01*
X238135095Y-61575428D01*
X238211285Y-61537333D01*
X238325571Y-61537333D01*
X238401761Y-61575428D01*
X238439857Y-61613523D01*
X238477952Y-61689714D01*
X238477952Y-61994476D01*
X238058904Y-61270666D02*
X238058904Y-60775428D01*
X238363666Y-61042095D01*
X238363666Y-60927809D01*
X238401761Y-60851619D01*
X238439857Y-60813523D01*
X238516047Y-60775428D01*
X238706523Y-60775428D01*
X238782714Y-60813523D01*
X238820809Y-60851619D01*
X238858904Y-60927809D01*
X238858904Y-61156380D01*
X238820809Y-61232571D01*
X238782714Y-61270666D01*
%TD*%
M02*
