%TF.GenerationSoftware,KiCad,Pcbnew,(5.1.7)-1*%
%TF.CreationDate,2020-11-02T23:06:17+01:00*%
%TF.ProjectId,Split65Right,53706c69-7436-4355-9269-6768742e6b69,rev?*%
%TF.SameCoordinates,Original*%
%TF.FileFunction,Paste,Bot*%
%TF.FilePolarity,Positive*%
%FSLAX46Y46*%
G04 Gerber Fmt 4.6, Leading zero omitted, Abs format (unit mm)*
G04 Created by KiCad (PCBNEW (5.1.7)-1) date 2020-11-02 23:06:17*
%MOMM*%
%LPD*%
G01*
G04 APERTURE LIST*
%ADD10R,2.550000X2.500000*%
%ADD11R,1.200000X1.200000*%
G04 APERTURE END LIST*
D10*
%TO.C,SW39*%
X44800000Y-113604000D03*
X58650000Y-111064000D03*
%TD*%
D11*
%TO.C,D1*%
X183260000Y-45843000D03*
X183260000Y-42693000D03*
%TD*%
%TO.C,D2*%
X145180000Y-45843000D03*
X145180000Y-42693000D03*
%TD*%
%TO.C,D3*%
X126140000Y-45843000D03*
X126140000Y-42693000D03*
%TD*%
%TO.C,D4*%
X107100000Y-45843000D03*
X107100000Y-42693000D03*
%TD*%
%TO.C,D5*%
X88060000Y-45843000D03*
X88060000Y-42693000D03*
%TD*%
%TO.C,D6*%
X69020000Y-45843000D03*
X69020000Y-42693000D03*
%TD*%
%TO.C,D7*%
X49980000Y-45843000D03*
X49980000Y-42693000D03*
%TD*%
%TO.C,D8*%
X32606000Y-45843000D03*
X32606000Y-42693000D03*
%TD*%
%TO.C,D9*%
X184212000Y-64883000D03*
X184212000Y-61733000D03*
%TD*%
%TO.C,D10*%
X135660000Y-64883000D03*
X135660000Y-61733000D03*
%TD*%
%TO.C,D11*%
X116620000Y-64883000D03*
X116620000Y-61733000D03*
%TD*%
%TO.C,D12*%
X97580000Y-64883000D03*
X97580000Y-61733000D03*
%TD*%
%TO.C,D13*%
X78540000Y-64883000D03*
X78540000Y-61733000D03*
%TD*%
%TO.C,D14*%
X59500000Y-64883000D03*
X59500000Y-61733000D03*
%TD*%
%TO.C,D15*%
X40460000Y-64883000D03*
X40460000Y-61733000D03*
%TD*%
%TO.C,D16*%
X23086000Y-64883000D03*
X23086000Y-61733000D03*
%TD*%
%TO.C,D17*%
X184212000Y-83923000D03*
X184212000Y-80773000D03*
%TD*%
%TO.C,D18*%
X159460000Y-83923000D03*
X159460000Y-80773000D03*
%TD*%
%TO.C,D19*%
X140420000Y-83923000D03*
X140420000Y-80773000D03*
%TD*%
%TO.C,D20*%
X121380000Y-83923000D03*
X121380000Y-80773000D03*
%TD*%
%TO.C,D21*%
X102340000Y-83923000D03*
X102340000Y-80773000D03*
%TD*%
%TO.C,D22*%
X83300000Y-83923000D03*
X83300000Y-80773000D03*
%TD*%
%TO.C,D23*%
X64260000Y-83923000D03*
X64260000Y-80773000D03*
%TD*%
%TO.C,D24*%
X45220000Y-83923000D03*
X45220000Y-80773000D03*
%TD*%
%TO.C,D25*%
X183260000Y-102963000D03*
X183260000Y-99813000D03*
%TD*%
%TO.C,D26*%
X164220000Y-102963000D03*
X164220000Y-99813000D03*
%TD*%
%TO.C,D27*%
X130900000Y-102963000D03*
X130900000Y-99813000D03*
%TD*%
%TO.C,D28*%
X111860000Y-102963000D03*
X111860000Y-99813000D03*
%TD*%
%TO.C,D29*%
X92820000Y-102963000D03*
X92820000Y-99813000D03*
%TD*%
%TO.C,D30*%
X73780000Y-102963000D03*
X73780000Y-99813000D03*
%TD*%
%TO.C,D31*%
X54740000Y-102963000D03*
X54740000Y-99813000D03*
%TD*%
%TO.C,D32*%
X37366000Y-102963000D03*
X37366000Y-99813000D03*
%TD*%
%TO.C,D33*%
X183260000Y-122003000D03*
X183260000Y-118853000D03*
%TD*%
%TO.C,D34*%
X164220000Y-122003000D03*
X164220000Y-118853000D03*
%TD*%
%TO.C,D35*%
X145180000Y-122003000D03*
X145180000Y-118853000D03*
%TD*%
%TO.C,D36*%
X111860000Y-122003000D03*
X111860000Y-118853000D03*
%TD*%
%TO.C,D37*%
X92820000Y-122003000D03*
X92820000Y-118853000D03*
%TD*%
%TO.C,D38*%
X73780000Y-122003000D03*
X73780000Y-118853000D03*
%TD*%
%TO.C,D39*%
X34034000Y-121765000D03*
X34034000Y-118615000D03*
%TD*%
%TO.C,D40*%
X27846000Y-83923000D03*
X27846000Y-80773000D03*
%TD*%
D10*
%TO.C,SW1*%
X185220000Y-37444000D03*
X199070000Y-34904000D03*
%TD*%
%TO.C,SW2*%
X156660000Y-37444000D03*
X170510000Y-34904000D03*
%TD*%
%TO.C,SW3*%
X128100000Y-37444000D03*
X141950000Y-34904000D03*
%TD*%
%TO.C,SW4*%
X109060000Y-37444000D03*
X122910000Y-34904000D03*
%TD*%
%TO.C,SW5*%
X90020000Y-37444000D03*
X103870000Y-34904000D03*
%TD*%
%TO.C,SW6*%
X70980000Y-37444000D03*
X84830000Y-34904000D03*
%TD*%
%TO.C,SW7*%
X51940000Y-37444000D03*
X65790000Y-34904000D03*
%TD*%
%TO.C,SW8*%
X32900000Y-37444000D03*
X46750000Y-34904000D03*
%TD*%
%TO.C,SW9*%
X185220000Y-56484000D03*
X199070000Y-53944000D03*
%TD*%
%TO.C,SW10*%
X137620000Y-56484000D03*
X151470000Y-53944000D03*
%TD*%
%TO.C,SW11*%
X118580000Y-56484000D03*
X132430000Y-53944000D03*
%TD*%
%TO.C,SW12*%
X99540000Y-56484000D03*
X113390000Y-53944000D03*
%TD*%
%TO.C,SW13*%
X80500000Y-56484000D03*
X94350000Y-53944000D03*
%TD*%
%TO.C,SW14*%
X61460000Y-56484000D03*
X75310000Y-53944000D03*
%TD*%
%TO.C,SW15*%
X42420000Y-56484000D03*
X56270000Y-53944000D03*
%TD*%
%TO.C,SW16*%
X23380000Y-56484000D03*
X37230000Y-53944000D03*
%TD*%
%TO.C,SW17*%
X185220000Y-75524000D03*
X199070000Y-72984000D03*
%TD*%
%TO.C,SW18*%
X163800000Y-66004000D03*
X177650000Y-63464000D03*
%TD*%
%TO.C,SW19*%
X142380000Y-75524000D03*
X156230000Y-72984000D03*
%TD*%
%TO.C,SW20*%
X123340000Y-75524000D03*
X137190000Y-72984000D03*
%TD*%
%TO.C,SW21*%
X104300000Y-75524000D03*
X118150000Y-72984000D03*
%TD*%
%TO.C,SW22*%
X85260000Y-75524000D03*
X99110000Y-72984000D03*
%TD*%
%TO.C,SW23*%
X66220000Y-75524000D03*
X80070000Y-72984000D03*
%TD*%
%TO.C,SW24*%
X47180000Y-75524000D03*
X61030000Y-72984000D03*
%TD*%
%TO.C,SW25*%
X185220000Y-94564000D03*
X199070000Y-92024000D03*
%TD*%
%TO.C,SW26*%
X166180000Y-94564000D03*
X180030000Y-92024000D03*
%TD*%
%TO.C,SW27*%
X140000000Y-94564000D03*
X153850000Y-92024000D03*
%TD*%
%TO.C,SW28*%
X113820000Y-94564000D03*
X127670000Y-92024000D03*
%TD*%
%TO.C,SW29*%
X94780000Y-94564000D03*
X108630000Y-92024000D03*
%TD*%
%TO.C,SW30*%
X75740000Y-94564000D03*
X89590000Y-92024000D03*
%TD*%
%TO.C,SW31*%
X56700000Y-94564000D03*
X70550000Y-92024000D03*
%TD*%
%TO.C,SW32*%
X37660000Y-94564000D03*
X51510000Y-92024000D03*
%TD*%
%TO.C,SW33*%
X185220000Y-113604000D03*
X199070000Y-111064000D03*
%TD*%
%TO.C,SW34*%
X166180000Y-113604000D03*
X180030000Y-111064000D03*
%TD*%
%TO.C,SW35*%
X147140000Y-113604000D03*
X160990000Y-111064000D03*
%TD*%
%TO.C,SW36*%
X113820000Y-113604000D03*
X127670000Y-111064000D03*
%TD*%
%TO.C,SW37*%
X94780000Y-113604000D03*
X108630000Y-111064000D03*
%TD*%
%TO.C,SW38*%
X75740000Y-113604000D03*
X89590000Y-111064000D03*
%TD*%
%TO.C,SW40*%
X28140000Y-75524000D03*
X41990000Y-72984000D03*
%TD*%
M02*
