M48
; DRILL file {KiCad (5.1.7)-1} date 06/20/21 13:46:40
; FORMAT={-:-/ absolute / inch / decimal}
; #@! TF.CreationDate,2021-06-20T13:46:40+02:00
; #@! TF.GenerationSoftware,Kicad,Pcbnew,(5.1.7)-1
; #@! TF.FileFunction,Plated,1,2,PTH
FMAT,2
INCH
T1C0.0118
T2C0.0157
T3C0.0276
T4C0.0320
T5C0.0394
T6C0.0512
%
G90
G05
T2
X1.8646Y-3.9448
X1.8646Y-4.2446
X2.5112Y-2.8672
X2.9332Y-3.4673
X3.6828Y-3.4673
X4.4606Y-3.4392
X5.2102Y-3.4392
X6.1508Y-3.4535
X6.9802Y-3.4383
X7.876Y-3.4546
X7.8859Y-3.3689
X7.8896Y-2.7454
X7.9058Y-3.426
X7.9146Y-3.3404
X7.9365Y-3.3076
X7.9365Y-3.3975
X8.374Y-3.4546
X8.405Y-3.426
X8.4445Y-3.3975
X8.4799Y-3.3689
X8.508Y-3.3357
X8.5441Y-3.3062
X8.578Y-3.2795
X8.9843Y-1.9876
X9.0426Y-2.202
X9.1639Y-2.1083
T3
X2.3425Y-2.3389
X2.3425Y-2.646
X4.9661Y-1.5893
X4.9661Y-1.8964
X2.7173Y-1.5893
X2.7173Y-1.8964
X1.4711Y-3.8381
X1.4711Y-4.1452
X4.7787Y-3.0885
X4.7787Y-3.3956
X4.4039Y-4.5877
X4.4039Y-4.8948
X1.0963Y-3.0885
X1.0963Y-3.3956
X3.0921Y-2.3389
X3.0921Y-2.646
X1.2837Y-1.5893
X1.2837Y-1.8964
X5.3409Y-2.3389
X5.3409Y-2.646
X2.1551Y-3.8381
X2.1551Y-4.1452
X5.1535Y-3.8381
X5.1535Y-4.1452
X6.4654Y-4.5877
X6.4654Y-4.8948
X9.014Y-2.2639
X9.014Y-2.571
X7.2524Y-2.3389
X7.2524Y-2.646
X5.5283Y-3.0885
X5.5283Y-3.3956
X5.7157Y-1.5893
X5.7157Y-1.8964
X3.6543Y-3.8381
X3.6543Y-4.1452
X2.5299Y-3.0885
X2.5299Y-3.3956
X4.0291Y-3.0885
X4.0291Y-3.3956
X2.9047Y-4.5877
X2.9047Y-4.8948
X1.9677Y-1.5893
X1.9677Y-1.8964
X6.278Y-3.0885
X6.278Y-3.3956
X1.5929Y-2.3389
X1.5929Y-2.646
X6.4654Y-3.8381
X6.4654Y-4.1452
X1.7803Y-3.0885
X1.7803Y-3.3956
X7.215Y-1.5893
X7.215Y-1.8964
X4.2165Y-1.5893
X4.2165Y-1.8964
X7.2524Y-3.0885
X7.2524Y-3.3956
X3.2795Y-3.0885
X3.2795Y-3.3956
X5.7157Y-4.5877
X5.7157Y-4.8948
X9.1639Y-2.2639
X9.1639Y-2.571
X3.8417Y-2.3389
X3.8417Y-2.646
X0.9089Y-2.3389
X0.9089Y-2.646
X2.9047Y-3.8381
X2.9047Y-4.1452
X7.215Y-3.8381
X7.215Y-4.1452
X1.3399Y-4.5783
X1.3399Y-4.8854
X9.3139Y-2.2639
X9.3139Y-2.571
X3.4669Y-1.5893
X3.4669Y-1.8964
X4.5913Y-2.3389
X4.5913Y-2.646
X7.215Y-4.5877
X7.215Y-4.8948
X4.4039Y-3.8381
X4.4039Y-4.1452
X3.6543Y-4.5877
X3.6543Y-4.8948
T4
X8.5735Y-4.9006
X8.6735Y-4.9006
X8.7735Y-4.9006
X8.8735Y-4.9006
T5
X8.2463Y-1.3767
X8.2463Y-1.4767
X8.2463Y-1.5767
X8.2463Y-1.6767
X8.2463Y-1.7767
X8.2463Y-1.8767
X8.2463Y-1.9767
X8.2463Y-2.0767
X8.2463Y-2.1767
X8.2463Y-2.2767
X8.2463Y-2.3767
X8.2463Y-2.4767
X8.2463Y-2.6767
X8.2463Y-2.7767
X8.2463Y-2.8767
X8.2463Y-2.9767
X8.2463Y-3.0767
X8.2463Y-3.1767
X8.3463Y-1.5767
X8.4463Y-1.5767
X8.5463Y-1.5767
X8.7453Y-1.5767
X8.8453Y-1.3767
X8.8453Y-1.4767
X8.8453Y-1.5767
X8.8453Y-1.6767
X8.8453Y-1.7767
X8.8453Y-1.8767
X8.8453Y-1.9767
X8.8453Y-2.0767
X8.8453Y-2.1767
X8.8453Y-2.2767
X8.8453Y-2.3767
X8.8453Y-2.4767
X8.8453Y-2.6767
X8.8453Y-2.7767
X8.8453Y-2.8767
X8.8453Y-2.9767
X8.8453Y-3.0767
X8.8453Y-3.1767
T6
X9.1639Y-2.7393
X9.1639Y-2.9952
T1
G00X9.025Y-1.7039
M15
G01X9.025Y-1.7551
M16
G05
G00X9.1904Y-1.3693
M15
G01X9.1904Y-1.4205
M16
G05
G00X9.1904Y-1.4874
M15
G01X9.1904Y-1.5386
M16
G05
G00X9.1904Y-1.6449
M15
G01X9.1904Y-1.6961
M16
G05
T0
M30
