%TF.GenerationSoftware,KiCad,Pcbnew,(5.1.7)-1*%
%TF.CreationDate,2020-11-02T23:06:18+01:00*%
%TF.ProjectId,Split65Right,53706c69-7436-4355-9269-6768742e6b69,rev?*%
%TF.SameCoordinates,Original*%
%TF.FileFunction,Soldermask,Top*%
%TF.FilePolarity,Negative*%
%FSLAX46Y46*%
G04 Gerber Fmt 4.6, Leading zero omitted, Abs format (unit mm)*
G04 Created by KiCad (PCBNEW (5.1.7)-1) date 2020-11-02 23:06:18*
%MOMM*%
%LPD*%
G01*
G04 APERTURE LIST*
%ADD10C,1.801800*%
%ADD11C,4.087800*%
%ADD12C,3.100000*%
%ADD13C,3.148000*%
%ADD14C,1.497000*%
%ADD15C,4.800400*%
%ADD16C,2.300000*%
%ADD17C,1.300000*%
%ADD18C,1.700000*%
%ADD19C,2.100000*%
%ADD20C,1.800000*%
G04 APERTURE END LIST*
D10*
%TO.C,SW39*%
X47280000Y-116144000D03*
X57440000Y-116144000D03*
D11*
X52360000Y-116144000D03*
D12*
X48550000Y-113604000D03*
X54900000Y-111064000D03*
D11*
X64298000Y-124399000D03*
X40422000Y-124399000D03*
D13*
X64298000Y-109159000D03*
X40422000Y-109159000D03*
%TD*%
D14*
%TO.C,J2*%
X225386000Y-124474000D03*
X222846000Y-124474000D03*
X220306000Y-124474000D03*
X217766000Y-124474000D03*
%TD*%
D15*
%TO.C,HOLE_3M*%
X156128000Y-57596000D03*
%TD*%
%TO.C,HOLE_3M*%
X160412000Y-93534000D03*
%TD*%
%TO.C,HOLE_3M*%
X72590000Y-109480000D03*
%TD*%
%TO.C,HOLE_3M*%
X59500000Y-49980000D03*
%TD*%
D16*
%TO.C,HOLE_M2*%
X205394000Y-125188000D03*
%TD*%
%TO.C,HOLE_M2*%
X237524000Y-125188000D03*
%TD*%
%TO.C,HOLE_M2*%
X237524000Y-33558000D03*
%TD*%
%TO.C,HOLE_M2*%
X205394000Y-33558000D03*
%TD*%
%TO.C,J1*%
G36*
G01*
X228786000Y-44980000D02*
X228786000Y-42880000D01*
G75*
G02*
X228836000Y-42830000I50000J0D01*
G01*
X229636000Y-42830000D01*
G75*
G02*
X229686000Y-42880000I0J-50000D01*
G01*
X229686000Y-44980000D01*
G75*
G02*
X229636000Y-45030000I-50000J0D01*
G01*
X228836000Y-45030000D01*
G75*
G02*
X228786000Y-44980000I0J50000D01*
G01*
G37*
G36*
G01*
X232986000Y-43480000D02*
X232986000Y-41380000D01*
G75*
G02*
X233036000Y-41330000I50000J0D01*
G01*
X233836000Y-41330000D01*
G75*
G02*
X233886000Y-41380000I0J-50000D01*
G01*
X233886000Y-43480000D01*
G75*
G02*
X233836000Y-43530000I-50000J0D01*
G01*
X233036000Y-43530000D01*
G75*
G02*
X232986000Y-43480000I0J50000D01*
G01*
G37*
G36*
G01*
X232986000Y-39480000D02*
X232986000Y-37380000D01*
G75*
G02*
X233036000Y-37330000I50000J0D01*
G01*
X233836000Y-37330000D01*
G75*
G02*
X233886000Y-37380000I0J-50000D01*
G01*
X233886000Y-39480000D01*
G75*
G02*
X233836000Y-39530000I-50000J0D01*
G01*
X233036000Y-39530000D01*
G75*
G02*
X232986000Y-39480000I0J50000D01*
G01*
G37*
G36*
G01*
X232986000Y-36480000D02*
X232986000Y-34380000D01*
G75*
G02*
X233036000Y-34330000I50000J0D01*
G01*
X233836000Y-34330000D01*
G75*
G02*
X233886000Y-34380000I0J-50000D01*
G01*
X233886000Y-36480000D01*
G75*
G02*
X233836000Y-36530000I-50000J0D01*
G01*
X233036000Y-36530000D01*
G75*
G02*
X232986000Y-36480000I0J50000D01*
G01*
G37*
D17*
X231336000Y-40630000D03*
X231336000Y-33630000D03*
%TD*%
D18*
%TO.C,D1*%
X183260000Y-40368000D03*
G36*
G01*
X184060000Y-49018000D02*
X182460000Y-49018000D01*
G75*
G02*
X182410000Y-48968000I0J50000D01*
G01*
X182410000Y-47368000D01*
G75*
G02*
X182460000Y-47318000I50000J0D01*
G01*
X184060000Y-47318000D01*
G75*
G02*
X184110000Y-47368000I0J-50000D01*
G01*
X184110000Y-48968000D01*
G75*
G02*
X184060000Y-49018000I-50000J0D01*
G01*
G37*
%TD*%
%TO.C,D2*%
X145180000Y-40368000D03*
G36*
G01*
X145980000Y-49018000D02*
X144380000Y-49018000D01*
G75*
G02*
X144330000Y-48968000I0J50000D01*
G01*
X144330000Y-47368000D01*
G75*
G02*
X144380000Y-47318000I50000J0D01*
G01*
X145980000Y-47318000D01*
G75*
G02*
X146030000Y-47368000I0J-50000D01*
G01*
X146030000Y-48968000D01*
G75*
G02*
X145980000Y-49018000I-50000J0D01*
G01*
G37*
%TD*%
%TO.C,D3*%
X126140000Y-40368000D03*
G36*
G01*
X126940000Y-49018000D02*
X125340000Y-49018000D01*
G75*
G02*
X125290000Y-48968000I0J50000D01*
G01*
X125290000Y-47368000D01*
G75*
G02*
X125340000Y-47318000I50000J0D01*
G01*
X126940000Y-47318000D01*
G75*
G02*
X126990000Y-47368000I0J-50000D01*
G01*
X126990000Y-48968000D01*
G75*
G02*
X126940000Y-49018000I-50000J0D01*
G01*
G37*
%TD*%
%TO.C,D4*%
X107100000Y-40368000D03*
G36*
G01*
X107900000Y-49018000D02*
X106300000Y-49018000D01*
G75*
G02*
X106250000Y-48968000I0J50000D01*
G01*
X106250000Y-47368000D01*
G75*
G02*
X106300000Y-47318000I50000J0D01*
G01*
X107900000Y-47318000D01*
G75*
G02*
X107950000Y-47368000I0J-50000D01*
G01*
X107950000Y-48968000D01*
G75*
G02*
X107900000Y-49018000I-50000J0D01*
G01*
G37*
%TD*%
%TO.C,D5*%
X88060000Y-40368000D03*
G36*
G01*
X88860000Y-49018000D02*
X87260000Y-49018000D01*
G75*
G02*
X87210000Y-48968000I0J50000D01*
G01*
X87210000Y-47368000D01*
G75*
G02*
X87260000Y-47318000I50000J0D01*
G01*
X88860000Y-47318000D01*
G75*
G02*
X88910000Y-47368000I0J-50000D01*
G01*
X88910000Y-48968000D01*
G75*
G02*
X88860000Y-49018000I-50000J0D01*
G01*
G37*
%TD*%
%TO.C,D6*%
X69020000Y-40368000D03*
G36*
G01*
X69820000Y-49018000D02*
X68220000Y-49018000D01*
G75*
G02*
X68170000Y-48968000I0J50000D01*
G01*
X68170000Y-47368000D01*
G75*
G02*
X68220000Y-47318000I50000J0D01*
G01*
X69820000Y-47318000D01*
G75*
G02*
X69870000Y-47368000I0J-50000D01*
G01*
X69870000Y-48968000D01*
G75*
G02*
X69820000Y-49018000I-50000J0D01*
G01*
G37*
%TD*%
%TO.C,D7*%
X49980000Y-40368000D03*
G36*
G01*
X50780000Y-49018000D02*
X49180000Y-49018000D01*
G75*
G02*
X49130000Y-48968000I0J50000D01*
G01*
X49130000Y-47368000D01*
G75*
G02*
X49180000Y-47318000I50000J0D01*
G01*
X50780000Y-47318000D01*
G75*
G02*
X50830000Y-47368000I0J-50000D01*
G01*
X50830000Y-48968000D01*
G75*
G02*
X50780000Y-49018000I-50000J0D01*
G01*
G37*
%TD*%
%TO.C,D8*%
X32606000Y-40368000D03*
G36*
G01*
X33406000Y-49018000D02*
X31806000Y-49018000D01*
G75*
G02*
X31756000Y-48968000I0J50000D01*
G01*
X31756000Y-47368000D01*
G75*
G02*
X31806000Y-47318000I50000J0D01*
G01*
X33406000Y-47318000D01*
G75*
G02*
X33456000Y-47368000I0J-50000D01*
G01*
X33456000Y-48968000D01*
G75*
G02*
X33406000Y-49018000I-50000J0D01*
G01*
G37*
%TD*%
%TO.C,D9*%
X184212000Y-59408000D03*
G36*
G01*
X185012000Y-68058000D02*
X183412000Y-68058000D01*
G75*
G02*
X183362000Y-68008000I0J50000D01*
G01*
X183362000Y-66408000D01*
G75*
G02*
X183412000Y-66358000I50000J0D01*
G01*
X185012000Y-66358000D01*
G75*
G02*
X185062000Y-66408000I0J-50000D01*
G01*
X185062000Y-68008000D01*
G75*
G02*
X185012000Y-68058000I-50000J0D01*
G01*
G37*
%TD*%
%TO.C,D10*%
X135660000Y-59408000D03*
G36*
G01*
X136460000Y-68058000D02*
X134860000Y-68058000D01*
G75*
G02*
X134810000Y-68008000I0J50000D01*
G01*
X134810000Y-66408000D01*
G75*
G02*
X134860000Y-66358000I50000J0D01*
G01*
X136460000Y-66358000D01*
G75*
G02*
X136510000Y-66408000I0J-50000D01*
G01*
X136510000Y-68008000D01*
G75*
G02*
X136460000Y-68058000I-50000J0D01*
G01*
G37*
%TD*%
%TO.C,D11*%
X116620000Y-59408000D03*
G36*
G01*
X117420000Y-68058000D02*
X115820000Y-68058000D01*
G75*
G02*
X115770000Y-68008000I0J50000D01*
G01*
X115770000Y-66408000D01*
G75*
G02*
X115820000Y-66358000I50000J0D01*
G01*
X117420000Y-66358000D01*
G75*
G02*
X117470000Y-66408000I0J-50000D01*
G01*
X117470000Y-68008000D01*
G75*
G02*
X117420000Y-68058000I-50000J0D01*
G01*
G37*
%TD*%
%TO.C,D12*%
X97580000Y-59408000D03*
G36*
G01*
X98380000Y-68058000D02*
X96780000Y-68058000D01*
G75*
G02*
X96730000Y-68008000I0J50000D01*
G01*
X96730000Y-66408000D01*
G75*
G02*
X96780000Y-66358000I50000J0D01*
G01*
X98380000Y-66358000D01*
G75*
G02*
X98430000Y-66408000I0J-50000D01*
G01*
X98430000Y-68008000D01*
G75*
G02*
X98380000Y-68058000I-50000J0D01*
G01*
G37*
%TD*%
%TO.C,D13*%
X78540000Y-59408000D03*
G36*
G01*
X79340000Y-68058000D02*
X77740000Y-68058000D01*
G75*
G02*
X77690000Y-68008000I0J50000D01*
G01*
X77690000Y-66408000D01*
G75*
G02*
X77740000Y-66358000I50000J0D01*
G01*
X79340000Y-66358000D01*
G75*
G02*
X79390000Y-66408000I0J-50000D01*
G01*
X79390000Y-68008000D01*
G75*
G02*
X79340000Y-68058000I-50000J0D01*
G01*
G37*
%TD*%
%TO.C,D14*%
X59500000Y-59408000D03*
G36*
G01*
X60300000Y-68058000D02*
X58700000Y-68058000D01*
G75*
G02*
X58650000Y-68008000I0J50000D01*
G01*
X58650000Y-66408000D01*
G75*
G02*
X58700000Y-66358000I50000J0D01*
G01*
X60300000Y-66358000D01*
G75*
G02*
X60350000Y-66408000I0J-50000D01*
G01*
X60350000Y-68008000D01*
G75*
G02*
X60300000Y-68058000I-50000J0D01*
G01*
G37*
%TD*%
%TO.C,D15*%
X40460000Y-59408000D03*
G36*
G01*
X41260000Y-68058000D02*
X39660000Y-68058000D01*
G75*
G02*
X39610000Y-68008000I0J50000D01*
G01*
X39610000Y-66408000D01*
G75*
G02*
X39660000Y-66358000I50000J0D01*
G01*
X41260000Y-66358000D01*
G75*
G02*
X41310000Y-66408000I0J-50000D01*
G01*
X41310000Y-68008000D01*
G75*
G02*
X41260000Y-68058000I-50000J0D01*
G01*
G37*
%TD*%
%TO.C,D16*%
X23086000Y-59408000D03*
G36*
G01*
X23886000Y-68058000D02*
X22286000Y-68058000D01*
G75*
G02*
X22236000Y-68008000I0J50000D01*
G01*
X22236000Y-66408000D01*
G75*
G02*
X22286000Y-66358000I50000J0D01*
G01*
X23886000Y-66358000D01*
G75*
G02*
X23936000Y-66408000I0J-50000D01*
G01*
X23936000Y-68008000D01*
G75*
G02*
X23886000Y-68058000I-50000J0D01*
G01*
G37*
%TD*%
%TO.C,D17*%
X184212000Y-78448000D03*
G36*
G01*
X185012000Y-87098000D02*
X183412000Y-87098000D01*
G75*
G02*
X183362000Y-87048000I0J50000D01*
G01*
X183362000Y-85448000D01*
G75*
G02*
X183412000Y-85398000I50000J0D01*
G01*
X185012000Y-85398000D01*
G75*
G02*
X185062000Y-85448000I0J-50000D01*
G01*
X185062000Y-87048000D01*
G75*
G02*
X185012000Y-87098000I-50000J0D01*
G01*
G37*
%TD*%
%TO.C,D18*%
X159460000Y-78448000D03*
G36*
G01*
X160260000Y-87098000D02*
X158660000Y-87098000D01*
G75*
G02*
X158610000Y-87048000I0J50000D01*
G01*
X158610000Y-85448000D01*
G75*
G02*
X158660000Y-85398000I50000J0D01*
G01*
X160260000Y-85398000D01*
G75*
G02*
X160310000Y-85448000I0J-50000D01*
G01*
X160310000Y-87048000D01*
G75*
G02*
X160260000Y-87098000I-50000J0D01*
G01*
G37*
%TD*%
%TO.C,D19*%
X140420000Y-78448000D03*
G36*
G01*
X141220000Y-87098000D02*
X139620000Y-87098000D01*
G75*
G02*
X139570000Y-87048000I0J50000D01*
G01*
X139570000Y-85448000D01*
G75*
G02*
X139620000Y-85398000I50000J0D01*
G01*
X141220000Y-85398000D01*
G75*
G02*
X141270000Y-85448000I0J-50000D01*
G01*
X141270000Y-87048000D01*
G75*
G02*
X141220000Y-87098000I-50000J0D01*
G01*
G37*
%TD*%
%TO.C,D20*%
X121380000Y-78448000D03*
G36*
G01*
X122180000Y-87098000D02*
X120580000Y-87098000D01*
G75*
G02*
X120530000Y-87048000I0J50000D01*
G01*
X120530000Y-85448000D01*
G75*
G02*
X120580000Y-85398000I50000J0D01*
G01*
X122180000Y-85398000D01*
G75*
G02*
X122230000Y-85448000I0J-50000D01*
G01*
X122230000Y-87048000D01*
G75*
G02*
X122180000Y-87098000I-50000J0D01*
G01*
G37*
%TD*%
%TO.C,D21*%
X102340000Y-78448000D03*
G36*
G01*
X103140000Y-87098000D02*
X101540000Y-87098000D01*
G75*
G02*
X101490000Y-87048000I0J50000D01*
G01*
X101490000Y-85448000D01*
G75*
G02*
X101540000Y-85398000I50000J0D01*
G01*
X103140000Y-85398000D01*
G75*
G02*
X103190000Y-85448000I0J-50000D01*
G01*
X103190000Y-87048000D01*
G75*
G02*
X103140000Y-87098000I-50000J0D01*
G01*
G37*
%TD*%
%TO.C,D22*%
X83300000Y-78448000D03*
G36*
G01*
X84100000Y-87098000D02*
X82500000Y-87098000D01*
G75*
G02*
X82450000Y-87048000I0J50000D01*
G01*
X82450000Y-85448000D01*
G75*
G02*
X82500000Y-85398000I50000J0D01*
G01*
X84100000Y-85398000D01*
G75*
G02*
X84150000Y-85448000I0J-50000D01*
G01*
X84150000Y-87048000D01*
G75*
G02*
X84100000Y-87098000I-50000J0D01*
G01*
G37*
%TD*%
%TO.C,D23*%
X64260000Y-78448000D03*
G36*
G01*
X65060000Y-87098000D02*
X63460000Y-87098000D01*
G75*
G02*
X63410000Y-87048000I0J50000D01*
G01*
X63410000Y-85448000D01*
G75*
G02*
X63460000Y-85398000I50000J0D01*
G01*
X65060000Y-85398000D01*
G75*
G02*
X65110000Y-85448000I0J-50000D01*
G01*
X65110000Y-87048000D01*
G75*
G02*
X65060000Y-87098000I-50000J0D01*
G01*
G37*
%TD*%
%TO.C,D24*%
X45220000Y-78448000D03*
G36*
G01*
X46020000Y-87098000D02*
X44420000Y-87098000D01*
G75*
G02*
X44370000Y-87048000I0J50000D01*
G01*
X44370000Y-85448000D01*
G75*
G02*
X44420000Y-85398000I50000J0D01*
G01*
X46020000Y-85398000D01*
G75*
G02*
X46070000Y-85448000I0J-50000D01*
G01*
X46070000Y-87048000D01*
G75*
G02*
X46020000Y-87098000I-50000J0D01*
G01*
G37*
%TD*%
%TO.C,D25*%
X183260000Y-97488000D03*
G36*
G01*
X184060000Y-106138000D02*
X182460000Y-106138000D01*
G75*
G02*
X182410000Y-106088000I0J50000D01*
G01*
X182410000Y-104488000D01*
G75*
G02*
X182460000Y-104438000I50000J0D01*
G01*
X184060000Y-104438000D01*
G75*
G02*
X184110000Y-104488000I0J-50000D01*
G01*
X184110000Y-106088000D01*
G75*
G02*
X184060000Y-106138000I-50000J0D01*
G01*
G37*
%TD*%
%TO.C,D26*%
X164220000Y-97488000D03*
G36*
G01*
X165020000Y-106138000D02*
X163420000Y-106138000D01*
G75*
G02*
X163370000Y-106088000I0J50000D01*
G01*
X163370000Y-104488000D01*
G75*
G02*
X163420000Y-104438000I50000J0D01*
G01*
X165020000Y-104438000D01*
G75*
G02*
X165070000Y-104488000I0J-50000D01*
G01*
X165070000Y-106088000D01*
G75*
G02*
X165020000Y-106138000I-50000J0D01*
G01*
G37*
%TD*%
%TO.C,D27*%
X130900000Y-97488000D03*
G36*
G01*
X131700000Y-106138000D02*
X130100000Y-106138000D01*
G75*
G02*
X130050000Y-106088000I0J50000D01*
G01*
X130050000Y-104488000D01*
G75*
G02*
X130100000Y-104438000I50000J0D01*
G01*
X131700000Y-104438000D01*
G75*
G02*
X131750000Y-104488000I0J-50000D01*
G01*
X131750000Y-106088000D01*
G75*
G02*
X131700000Y-106138000I-50000J0D01*
G01*
G37*
%TD*%
%TO.C,D28*%
X111860000Y-97488000D03*
G36*
G01*
X112660000Y-106138000D02*
X111060000Y-106138000D01*
G75*
G02*
X111010000Y-106088000I0J50000D01*
G01*
X111010000Y-104488000D01*
G75*
G02*
X111060000Y-104438000I50000J0D01*
G01*
X112660000Y-104438000D01*
G75*
G02*
X112710000Y-104488000I0J-50000D01*
G01*
X112710000Y-106088000D01*
G75*
G02*
X112660000Y-106138000I-50000J0D01*
G01*
G37*
%TD*%
%TO.C,D29*%
X92820000Y-97488000D03*
G36*
G01*
X93620000Y-106138000D02*
X92020000Y-106138000D01*
G75*
G02*
X91970000Y-106088000I0J50000D01*
G01*
X91970000Y-104488000D01*
G75*
G02*
X92020000Y-104438000I50000J0D01*
G01*
X93620000Y-104438000D01*
G75*
G02*
X93670000Y-104488000I0J-50000D01*
G01*
X93670000Y-106088000D01*
G75*
G02*
X93620000Y-106138000I-50000J0D01*
G01*
G37*
%TD*%
%TO.C,D30*%
X73780000Y-97488000D03*
G36*
G01*
X74580000Y-106138000D02*
X72980000Y-106138000D01*
G75*
G02*
X72930000Y-106088000I0J50000D01*
G01*
X72930000Y-104488000D01*
G75*
G02*
X72980000Y-104438000I50000J0D01*
G01*
X74580000Y-104438000D01*
G75*
G02*
X74630000Y-104488000I0J-50000D01*
G01*
X74630000Y-106088000D01*
G75*
G02*
X74580000Y-106138000I-50000J0D01*
G01*
G37*
%TD*%
%TO.C,D31*%
X54740000Y-97488000D03*
G36*
G01*
X55540000Y-106138000D02*
X53940000Y-106138000D01*
G75*
G02*
X53890000Y-106088000I0J50000D01*
G01*
X53890000Y-104488000D01*
G75*
G02*
X53940000Y-104438000I50000J0D01*
G01*
X55540000Y-104438000D01*
G75*
G02*
X55590000Y-104488000I0J-50000D01*
G01*
X55590000Y-106088000D01*
G75*
G02*
X55540000Y-106138000I-50000J0D01*
G01*
G37*
%TD*%
%TO.C,D32*%
X37366000Y-97488000D03*
G36*
G01*
X38166000Y-106138000D02*
X36566000Y-106138000D01*
G75*
G02*
X36516000Y-106088000I0J50000D01*
G01*
X36516000Y-104488000D01*
G75*
G02*
X36566000Y-104438000I50000J0D01*
G01*
X38166000Y-104438000D01*
G75*
G02*
X38216000Y-104488000I0J-50000D01*
G01*
X38216000Y-106088000D01*
G75*
G02*
X38166000Y-106138000I-50000J0D01*
G01*
G37*
%TD*%
%TO.C,D33*%
X183260000Y-116528000D03*
G36*
G01*
X184060000Y-125178000D02*
X182460000Y-125178000D01*
G75*
G02*
X182410000Y-125128000I0J50000D01*
G01*
X182410000Y-123528000D01*
G75*
G02*
X182460000Y-123478000I50000J0D01*
G01*
X184060000Y-123478000D01*
G75*
G02*
X184110000Y-123528000I0J-50000D01*
G01*
X184110000Y-125128000D01*
G75*
G02*
X184060000Y-125178000I-50000J0D01*
G01*
G37*
%TD*%
%TO.C,D34*%
X164220000Y-116528000D03*
G36*
G01*
X165020000Y-125178000D02*
X163420000Y-125178000D01*
G75*
G02*
X163370000Y-125128000I0J50000D01*
G01*
X163370000Y-123528000D01*
G75*
G02*
X163420000Y-123478000I50000J0D01*
G01*
X165020000Y-123478000D01*
G75*
G02*
X165070000Y-123528000I0J-50000D01*
G01*
X165070000Y-125128000D01*
G75*
G02*
X165020000Y-125178000I-50000J0D01*
G01*
G37*
%TD*%
%TO.C,D35*%
X145180000Y-116528000D03*
G36*
G01*
X145980000Y-125178000D02*
X144380000Y-125178000D01*
G75*
G02*
X144330000Y-125128000I0J50000D01*
G01*
X144330000Y-123528000D01*
G75*
G02*
X144380000Y-123478000I50000J0D01*
G01*
X145980000Y-123478000D01*
G75*
G02*
X146030000Y-123528000I0J-50000D01*
G01*
X146030000Y-125128000D01*
G75*
G02*
X145980000Y-125178000I-50000J0D01*
G01*
G37*
%TD*%
%TO.C,D36*%
X111860000Y-116528000D03*
G36*
G01*
X112660000Y-125178000D02*
X111060000Y-125178000D01*
G75*
G02*
X111010000Y-125128000I0J50000D01*
G01*
X111010000Y-123528000D01*
G75*
G02*
X111060000Y-123478000I50000J0D01*
G01*
X112660000Y-123478000D01*
G75*
G02*
X112710000Y-123528000I0J-50000D01*
G01*
X112710000Y-125128000D01*
G75*
G02*
X112660000Y-125178000I-50000J0D01*
G01*
G37*
%TD*%
%TO.C,D37*%
X92820000Y-116528000D03*
G36*
G01*
X93620000Y-125178000D02*
X92020000Y-125178000D01*
G75*
G02*
X91970000Y-125128000I0J50000D01*
G01*
X91970000Y-123528000D01*
G75*
G02*
X92020000Y-123478000I50000J0D01*
G01*
X93620000Y-123478000D01*
G75*
G02*
X93670000Y-123528000I0J-50000D01*
G01*
X93670000Y-125128000D01*
G75*
G02*
X93620000Y-125178000I-50000J0D01*
G01*
G37*
%TD*%
%TO.C,D38*%
X73780000Y-116528000D03*
G36*
G01*
X74580000Y-125178000D02*
X72980000Y-125178000D01*
G75*
G02*
X72930000Y-125128000I0J50000D01*
G01*
X72930000Y-123528000D01*
G75*
G02*
X72980000Y-123478000I50000J0D01*
G01*
X74580000Y-123478000D01*
G75*
G02*
X74630000Y-123528000I0J-50000D01*
G01*
X74630000Y-125128000D01*
G75*
G02*
X74580000Y-125178000I-50000J0D01*
G01*
G37*
%TD*%
%TO.C,D39*%
X34034000Y-116290000D03*
G36*
G01*
X34834000Y-124940000D02*
X33234000Y-124940000D01*
G75*
G02*
X33184000Y-124890000I0J50000D01*
G01*
X33184000Y-123290000D01*
G75*
G02*
X33234000Y-123240000I50000J0D01*
G01*
X34834000Y-123240000D01*
G75*
G02*
X34884000Y-123290000I0J-50000D01*
G01*
X34884000Y-124890000D01*
G75*
G02*
X34834000Y-124940000I-50000J0D01*
G01*
G37*
%TD*%
%TO.C,D40*%
X27846000Y-78448000D03*
G36*
G01*
X28646000Y-87098000D02*
X27046000Y-87098000D01*
G75*
G02*
X26996000Y-87048000I0J50000D01*
G01*
X26996000Y-85448000D01*
G75*
G02*
X27046000Y-85398000I50000J0D01*
G01*
X28646000Y-85398000D01*
G75*
G02*
X28696000Y-85448000I0J-50000D01*
G01*
X28696000Y-87048000D01*
G75*
G02*
X28646000Y-87098000I-50000J0D01*
G01*
G37*
%TD*%
%TO.C,JP2*%
G36*
G01*
X230965120Y-53930500D02*
X230965120Y-55073500D01*
G75*
G02*
X230915120Y-55123500I-50000J0D01*
G01*
X230280120Y-55123500D01*
G75*
G02*
X230230120Y-55073500I0J50000D01*
G01*
X230230120Y-53930500D01*
G75*
G02*
X230280120Y-53880500I50000J0D01*
G01*
X230915120Y-53880500D01*
G75*
G02*
X230965120Y-53930500I0J-50000D01*
G01*
G37*
G36*
G01*
X231965880Y-53930500D02*
X231965880Y-55073500D01*
G75*
G02*
X231915880Y-55123500I-50000J0D01*
G01*
X231280880Y-55123500D01*
G75*
G02*
X231230880Y-55073500I0J50000D01*
G01*
X231230880Y-53930500D01*
G75*
G02*
X231280880Y-53880500I50000J0D01*
G01*
X231915880Y-53880500D01*
G75*
G02*
X231965880Y-53930500I0J-50000D01*
G01*
G37*
%TD*%
%TO.C,JP3*%
G36*
G01*
X230965120Y-51788500D02*
X230965120Y-52931500D01*
G75*
G02*
X230915120Y-52981500I-50000J0D01*
G01*
X230280120Y-52981500D01*
G75*
G02*
X230230120Y-52931500I0J50000D01*
G01*
X230230120Y-51788500D01*
G75*
G02*
X230280120Y-51738500I50000J0D01*
G01*
X230915120Y-51738500D01*
G75*
G02*
X230965120Y-51788500I0J-50000D01*
G01*
G37*
G36*
G01*
X231965880Y-51788500D02*
X231965880Y-52931500D01*
G75*
G02*
X231915880Y-52981500I-50000J0D01*
G01*
X231280880Y-52981500D01*
G75*
G02*
X231230880Y-52931500I0J50000D01*
G01*
X231230880Y-51788500D01*
G75*
G02*
X231280880Y-51738500I50000J0D01*
G01*
X231915880Y-51738500D01*
G75*
G02*
X231965880Y-51788500I0J-50000D01*
G01*
G37*
%TD*%
%TO.C,R1*%
X228956000Y-57504000D03*
G36*
G01*
X229756000Y-66154000D02*
X228156000Y-66154000D01*
G75*
G02*
X228106000Y-66104000I0J50000D01*
G01*
X228106000Y-64504000D01*
G75*
G02*
X228156000Y-64454000I50000J0D01*
G01*
X229756000Y-64454000D01*
G75*
G02*
X229806000Y-64504000I0J-50000D01*
G01*
X229806000Y-66104000D01*
G75*
G02*
X229756000Y-66154000I-50000J0D01*
G01*
G37*
G36*
G01*
X229530600Y-62892200D02*
X228330600Y-62892200D01*
G75*
G02*
X228280600Y-62842200I0J50000D01*
G01*
X228280600Y-61642200D01*
G75*
G02*
X228330600Y-61592200I50000J0D01*
G01*
X229530600Y-61592200D01*
G75*
G02*
X229580600Y-61642200I0J-50000D01*
G01*
X229580600Y-62842200D01*
G75*
G02*
X229530600Y-62892200I-50000J0D01*
G01*
G37*
G36*
G01*
X229530600Y-61215800D02*
X228330600Y-61215800D01*
G75*
G02*
X228280600Y-61165800I0J50000D01*
G01*
X228280600Y-59965800D01*
G75*
G02*
X228330600Y-59915800I50000J0D01*
G01*
X229530600Y-59915800D01*
G75*
G02*
X229580600Y-59965800I0J-50000D01*
G01*
X229580600Y-61165800D01*
G75*
G02*
X229530600Y-61215800I-50000J0D01*
G01*
G37*
%TD*%
%TO.C,R2*%
X232764000Y-57504000D03*
G36*
G01*
X233564000Y-66154000D02*
X231964000Y-66154000D01*
G75*
G02*
X231914000Y-66104000I0J50000D01*
G01*
X231914000Y-64504000D01*
G75*
G02*
X231964000Y-64454000I50000J0D01*
G01*
X233564000Y-64454000D01*
G75*
G02*
X233614000Y-64504000I0J-50000D01*
G01*
X233614000Y-66104000D01*
G75*
G02*
X233564000Y-66154000I-50000J0D01*
G01*
G37*
G36*
G01*
X233338600Y-62892200D02*
X232138600Y-62892200D01*
G75*
G02*
X232088600Y-62842200I0J50000D01*
G01*
X232088600Y-61642200D01*
G75*
G02*
X232138600Y-61592200I50000J0D01*
G01*
X233338600Y-61592200D01*
G75*
G02*
X233388600Y-61642200I0J-50000D01*
G01*
X233388600Y-62842200D01*
G75*
G02*
X233338600Y-62892200I-50000J0D01*
G01*
G37*
G36*
G01*
X233338600Y-61215800D02*
X232138600Y-61215800D01*
G75*
G02*
X232088600Y-61165800I0J50000D01*
G01*
X232088600Y-59965800D01*
G75*
G02*
X232138600Y-59915800I50000J0D01*
G01*
X233338600Y-59915800D01*
G75*
G02*
X233388600Y-59965800I0J-50000D01*
G01*
X233388600Y-61165800D01*
G75*
G02*
X233338600Y-61215800I-50000J0D01*
G01*
G37*
%TD*%
D10*
%TO.C,SW1*%
X187700000Y-39984000D03*
X197860000Y-39984000D03*
D11*
X192780000Y-39984000D03*
D12*
X188970000Y-37444000D03*
X195320000Y-34904000D03*
%TD*%
D10*
%TO.C,SW2*%
X159140000Y-39984000D03*
X169300000Y-39984000D03*
D11*
X164220000Y-39984000D03*
D12*
X160410000Y-37444000D03*
X166760000Y-34904000D03*
D11*
X176158000Y-48239000D03*
X152282000Y-48239000D03*
D13*
X176158000Y-32999000D03*
X152282000Y-32999000D03*
%TD*%
D10*
%TO.C,SW3*%
X130580000Y-39984000D03*
X140740000Y-39984000D03*
D11*
X135660000Y-39984000D03*
D12*
X131850000Y-37444000D03*
X138200000Y-34904000D03*
%TD*%
D10*
%TO.C,SW4*%
X111540000Y-39984000D03*
X121700000Y-39984000D03*
D11*
X116620000Y-39984000D03*
D12*
X112810000Y-37444000D03*
X119160000Y-34904000D03*
%TD*%
D10*
%TO.C,SW5*%
X92500000Y-39984000D03*
X102660000Y-39984000D03*
D11*
X97580000Y-39984000D03*
D12*
X93770000Y-37444000D03*
X100120000Y-34904000D03*
%TD*%
D10*
%TO.C,SW6*%
X73460000Y-39984000D03*
X83620000Y-39984000D03*
D11*
X78540000Y-39984000D03*
D12*
X74730000Y-37444000D03*
X81080000Y-34904000D03*
%TD*%
D10*
%TO.C,SW7*%
X54420000Y-39984000D03*
X64580000Y-39984000D03*
D11*
X59500000Y-39984000D03*
D12*
X55690000Y-37444000D03*
X62040000Y-34904000D03*
%TD*%
D10*
%TO.C,SW8*%
X35380000Y-39984000D03*
X45540000Y-39984000D03*
D11*
X40460000Y-39984000D03*
D12*
X36650000Y-37444000D03*
X43000000Y-34904000D03*
%TD*%
D10*
%TO.C,SW9*%
X187700000Y-59024000D03*
X197860000Y-59024000D03*
D11*
X192780000Y-59024000D03*
D12*
X188970000Y-56484000D03*
X195320000Y-53944000D03*
%TD*%
D10*
%TO.C,SW10*%
X140100000Y-59024000D03*
X150260000Y-59024000D03*
D11*
X145180000Y-59024000D03*
D12*
X141370000Y-56484000D03*
X147720000Y-53944000D03*
%TD*%
D10*
%TO.C,SW11*%
X121060000Y-59024000D03*
X131220000Y-59024000D03*
D11*
X126140000Y-59024000D03*
D12*
X122330000Y-56484000D03*
X128680000Y-53944000D03*
%TD*%
D10*
%TO.C,SW12*%
X102020000Y-59024000D03*
X112180000Y-59024000D03*
D11*
X107100000Y-59024000D03*
D12*
X103290000Y-56484000D03*
X109640000Y-53944000D03*
%TD*%
D10*
%TO.C,SW13*%
X82980000Y-59024000D03*
X93140000Y-59024000D03*
D11*
X88060000Y-59024000D03*
D12*
X84250000Y-56484000D03*
X90600000Y-53944000D03*
%TD*%
D10*
%TO.C,SW14*%
X63940000Y-59024000D03*
X74100000Y-59024000D03*
D11*
X69020000Y-59024000D03*
D12*
X65210000Y-56484000D03*
X71560000Y-53944000D03*
%TD*%
D10*
%TO.C,SW15*%
X44900000Y-59024000D03*
X55060000Y-59024000D03*
D11*
X49980000Y-59024000D03*
D12*
X46170000Y-56484000D03*
X52520000Y-53944000D03*
%TD*%
D10*
%TO.C,SW16*%
X25860000Y-59024000D03*
X36020000Y-59024000D03*
D11*
X30940000Y-59024000D03*
D12*
X27130000Y-56484000D03*
X33480000Y-53944000D03*
%TD*%
D10*
%TO.C,SW17*%
X187700000Y-78064000D03*
X197860000Y-78064000D03*
D11*
X192780000Y-78064000D03*
D12*
X188970000Y-75524000D03*
X195320000Y-72984000D03*
%TD*%
D10*
%TO.C,SW18*%
X166280000Y-68544000D03*
X176440000Y-68544000D03*
D11*
X171360000Y-68544000D03*
D12*
X167550000Y-66004000D03*
X173900000Y-63464000D03*
D11*
X179615000Y-56606000D03*
X179615000Y-80482000D03*
D13*
X164375000Y-56606000D03*
X164375000Y-80482000D03*
%TD*%
D10*
%TO.C,SW19*%
X144860000Y-78064000D03*
X155020000Y-78064000D03*
D11*
X149940000Y-78064000D03*
D12*
X146130000Y-75524000D03*
X152480000Y-72984000D03*
%TD*%
D10*
%TO.C,SW20*%
X125820000Y-78064000D03*
X135980000Y-78064000D03*
D11*
X130900000Y-78064000D03*
D12*
X127090000Y-75524000D03*
X133440000Y-72984000D03*
%TD*%
D10*
%TO.C,SW21*%
X106780000Y-78064000D03*
X116940000Y-78064000D03*
D11*
X111860000Y-78064000D03*
D12*
X108050000Y-75524000D03*
X114400000Y-72984000D03*
%TD*%
D10*
%TO.C,SW22*%
X87740000Y-78064000D03*
X97900000Y-78064000D03*
D11*
X92820000Y-78064000D03*
D12*
X89010000Y-75524000D03*
X95360000Y-72984000D03*
%TD*%
D10*
%TO.C,SW23*%
X68700000Y-78064000D03*
X78860000Y-78064000D03*
D11*
X73780000Y-78064000D03*
D12*
X69970000Y-75524000D03*
X76320000Y-72984000D03*
%TD*%
D10*
%TO.C,SW24*%
X49660000Y-78064000D03*
X59820000Y-78064000D03*
D11*
X54740000Y-78064000D03*
D12*
X50930000Y-75524000D03*
X57280000Y-72984000D03*
%TD*%
D10*
%TO.C,SW25*%
X187700000Y-97104000D03*
X197860000Y-97104000D03*
D11*
X192780000Y-97104000D03*
D12*
X188970000Y-94564000D03*
X195320000Y-92024000D03*
%TD*%
D10*
%TO.C,SW26*%
X168660000Y-97104000D03*
X178820000Y-97104000D03*
D11*
X173740000Y-97104000D03*
D12*
X169930000Y-94564000D03*
X176280000Y-92024000D03*
%TD*%
D10*
%TO.C,SW27*%
X142480000Y-97104000D03*
X152640000Y-97104000D03*
D11*
X147560000Y-97104000D03*
D12*
X143750000Y-94564000D03*
X150100000Y-92024000D03*
%TD*%
D10*
%TO.C,SW28*%
X116300000Y-97104000D03*
X126460000Y-97104000D03*
D11*
X121380000Y-97104000D03*
D12*
X117570000Y-94564000D03*
X123920000Y-92024000D03*
%TD*%
D10*
%TO.C,SW29*%
X97260000Y-97104000D03*
X107420000Y-97104000D03*
D11*
X102340000Y-97104000D03*
D12*
X98530000Y-94564000D03*
X104880000Y-92024000D03*
%TD*%
D10*
%TO.C,SW30*%
X78220000Y-97104000D03*
X88380000Y-97104000D03*
D11*
X83300000Y-97104000D03*
D12*
X79490000Y-94564000D03*
X85840000Y-92024000D03*
%TD*%
D10*
%TO.C,SW31*%
X59180000Y-97104000D03*
X69340000Y-97104000D03*
D11*
X64260000Y-97104000D03*
D12*
X60450000Y-94564000D03*
X66800000Y-92024000D03*
%TD*%
D10*
%TO.C,SW32*%
X40140000Y-97104000D03*
X50300000Y-97104000D03*
D11*
X45220000Y-97104000D03*
D12*
X41410000Y-94564000D03*
X47760000Y-92024000D03*
%TD*%
D10*
%TO.C,SW33*%
X187700000Y-116144000D03*
X197860000Y-116144000D03*
D11*
X192780000Y-116144000D03*
D12*
X188970000Y-113604000D03*
X195320000Y-111064000D03*
%TD*%
D10*
%TO.C,SW34*%
X168660000Y-116144000D03*
X178820000Y-116144000D03*
D11*
X173740000Y-116144000D03*
D12*
X169930000Y-113604000D03*
X176280000Y-111064000D03*
%TD*%
D10*
%TO.C,SW35*%
X149620000Y-116144000D03*
X159780000Y-116144000D03*
D11*
X154700000Y-116144000D03*
D12*
X150890000Y-113604000D03*
X157240000Y-111064000D03*
%TD*%
D10*
%TO.C,SW36*%
X116300000Y-116144000D03*
X126460000Y-116144000D03*
D11*
X121380000Y-116144000D03*
D12*
X117570000Y-113604000D03*
X123920000Y-111064000D03*
%TD*%
D10*
%TO.C,SW37*%
X97260000Y-116144000D03*
X107420000Y-116144000D03*
D11*
X102340000Y-116144000D03*
D12*
X98530000Y-113604000D03*
X104880000Y-111064000D03*
%TD*%
D10*
%TO.C,SW38*%
X78220000Y-116144000D03*
X88380000Y-116144000D03*
D11*
X83300000Y-116144000D03*
D12*
X79490000Y-113604000D03*
X85840000Y-111064000D03*
%TD*%
D10*
%TO.C,SW40*%
X30620000Y-78064000D03*
X40780000Y-78064000D03*
D11*
X35700000Y-78064000D03*
D12*
X31890000Y-75524000D03*
X38240000Y-72984000D03*
%TD*%
D19*
%TO.C,SW_41*%
X232764000Y-69578000D03*
X232764000Y-76078000D03*
%TD*%
D20*
%TO.C,U1*%
X224671000Y-34968000D03*
X209456000Y-37508000D03*
X209456000Y-34968000D03*
X211996000Y-40048000D03*
X209456000Y-40048000D03*
X209456000Y-42588000D03*
X209456000Y-45128000D03*
X209456000Y-47668000D03*
X214536000Y-40048000D03*
X217076000Y-40048000D03*
X209456000Y-50208000D03*
X209456000Y-52748000D03*
X209456000Y-55288000D03*
X209456000Y-57828000D03*
X209456000Y-60368000D03*
X209456000Y-62908000D03*
X209456000Y-70528000D03*
X209456000Y-75608000D03*
X209456000Y-78148000D03*
X209456000Y-73068000D03*
X209456000Y-80688000D03*
X209456000Y-67988000D03*
X224671000Y-37508000D03*
X224671000Y-40048000D03*
X224671000Y-45128000D03*
X222131000Y-40048000D03*
X224671000Y-42588000D03*
X224671000Y-47668000D03*
X224671000Y-50208000D03*
X224671000Y-52748000D03*
X224671000Y-57828000D03*
X224671000Y-60368000D03*
X224671000Y-55288000D03*
X224671000Y-62908000D03*
X224671000Y-70528000D03*
X224671000Y-67988000D03*
X224671000Y-75608000D03*
X224671000Y-73068000D03*
X224671000Y-78148000D03*
X224671000Y-80688000D03*
%TD*%
D18*
%TO.C,R3*%
X236572000Y-57504000D03*
G36*
G01*
X237372000Y-66154000D02*
X235772000Y-66154000D01*
G75*
G02*
X235722000Y-66104000I0J50000D01*
G01*
X235722000Y-64504000D01*
G75*
G02*
X235772000Y-64454000I50000J0D01*
G01*
X237372000Y-64454000D01*
G75*
G02*
X237422000Y-64504000I0J-50000D01*
G01*
X237422000Y-66104000D01*
G75*
G02*
X237372000Y-66154000I-50000J0D01*
G01*
G37*
G36*
G01*
X237146600Y-62892200D02*
X235946600Y-62892200D01*
G75*
G02*
X235896600Y-62842200I0J50000D01*
G01*
X235896600Y-61642200D01*
G75*
G02*
X235946600Y-61592200I50000J0D01*
G01*
X237146600Y-61592200D01*
G75*
G02*
X237196600Y-61642200I0J-50000D01*
G01*
X237196600Y-62842200D01*
G75*
G02*
X237146600Y-62892200I-50000J0D01*
G01*
G37*
G36*
G01*
X237146600Y-61215800D02*
X235946600Y-61215800D01*
G75*
G02*
X235896600Y-61165800I0J50000D01*
G01*
X235896600Y-59965800D01*
G75*
G02*
X235946600Y-59915800I50000J0D01*
G01*
X237146600Y-59915800D01*
G75*
G02*
X237196600Y-59965800I0J-50000D01*
G01*
X237196600Y-61165800D01*
G75*
G02*
X237146600Y-61215800I-50000J0D01*
G01*
G37*
%TD*%
M02*
