%TF.GenerationSoftware,KiCad,Pcbnew,(5.1.7)-1*%
%TF.CreationDate,2020-11-02T23:06:18+01:00*%
%TF.ProjectId,Split65Right,53706c69-7436-4355-9269-6768742e6b69,rev?*%
%TF.SameCoordinates,Original*%
%TF.FileFunction,Soldermask,Bot*%
%TF.FilePolarity,Negative*%
%FSLAX46Y46*%
G04 Gerber Fmt 4.6, Leading zero omitted, Abs format (unit mm)*
G04 Created by KiCad (PCBNEW (5.1.7)-1) date 2020-11-02 23:06:18*
%MOMM*%
%LPD*%
G01*
G04 APERTURE LIST*
%ADD10C,1.801800*%
%ADD11C,4.087800*%
%ADD12C,3.100000*%
%ADD13C,3.148000*%
%ADD14C,1.497000*%
%ADD15C,4.800400*%
%ADD16C,2.300000*%
%ADD17C,1.300000*%
%ADD18C,1.700000*%
%ADD19C,2.100000*%
%ADD20C,1.800000*%
G04 APERTURE END LIST*
%TO.C,SW39*%
G36*
G01*
X43475000Y-114854000D02*
X43475000Y-112354000D01*
G75*
G02*
X43525000Y-112304000I50000J0D01*
G01*
X46075000Y-112304000D01*
G75*
G02*
X46125000Y-112354000I0J-50000D01*
G01*
X46125000Y-114854000D01*
G75*
G02*
X46075000Y-114904000I-50000J0D01*
G01*
X43525000Y-114904000D01*
G75*
G02*
X43475000Y-114854000I0J50000D01*
G01*
G37*
D10*
X47280000Y-116144000D03*
X57440000Y-116144000D03*
D11*
X52360000Y-116144000D03*
D12*
X48550000Y-113604000D03*
X54900000Y-111064000D03*
G36*
G01*
X57325000Y-112314000D02*
X57325000Y-109814000D01*
G75*
G02*
X57375000Y-109764000I50000J0D01*
G01*
X59925000Y-109764000D01*
G75*
G02*
X59975000Y-109814000I0J-50000D01*
G01*
X59975000Y-112314000D01*
G75*
G02*
X59925000Y-112364000I-50000J0D01*
G01*
X57375000Y-112364000D01*
G75*
G02*
X57325000Y-112314000I0J50000D01*
G01*
G37*
D11*
X64298000Y-124399000D03*
X40422000Y-124399000D03*
D13*
X64298000Y-109159000D03*
X40422000Y-109159000D03*
%TD*%
D14*
%TO.C,J2*%
X225386000Y-124474000D03*
X222846000Y-124474000D03*
X220306000Y-124474000D03*
X217766000Y-124474000D03*
%TD*%
D15*
%TO.C,HOLE_3M*%
X156128000Y-57596000D03*
%TD*%
%TO.C,HOLE_3M*%
X160412000Y-93534000D03*
%TD*%
%TO.C,HOLE_3M*%
X72590000Y-109480000D03*
%TD*%
%TO.C,HOLE_3M*%
X59500000Y-49980000D03*
%TD*%
D16*
%TO.C,HOLE_M2*%
X205394000Y-125188000D03*
%TD*%
%TO.C,HOLE_M2*%
X237524000Y-125188000D03*
%TD*%
%TO.C,HOLE_M2*%
X237524000Y-33558000D03*
%TD*%
%TO.C,HOLE_M2*%
X205394000Y-33558000D03*
%TD*%
%TO.C,J1*%
G36*
G01*
X228786000Y-44980000D02*
X228786000Y-42880000D01*
G75*
G02*
X228836000Y-42830000I50000J0D01*
G01*
X229636000Y-42830000D01*
G75*
G02*
X229686000Y-42880000I0J-50000D01*
G01*
X229686000Y-44980000D01*
G75*
G02*
X229636000Y-45030000I-50000J0D01*
G01*
X228836000Y-45030000D01*
G75*
G02*
X228786000Y-44980000I0J50000D01*
G01*
G37*
G36*
G01*
X232986000Y-43480000D02*
X232986000Y-41380000D01*
G75*
G02*
X233036000Y-41330000I50000J0D01*
G01*
X233836000Y-41330000D01*
G75*
G02*
X233886000Y-41380000I0J-50000D01*
G01*
X233886000Y-43480000D01*
G75*
G02*
X233836000Y-43530000I-50000J0D01*
G01*
X233036000Y-43530000D01*
G75*
G02*
X232986000Y-43480000I0J50000D01*
G01*
G37*
G36*
G01*
X232986000Y-39480000D02*
X232986000Y-37380000D01*
G75*
G02*
X233036000Y-37330000I50000J0D01*
G01*
X233836000Y-37330000D01*
G75*
G02*
X233886000Y-37380000I0J-50000D01*
G01*
X233886000Y-39480000D01*
G75*
G02*
X233836000Y-39530000I-50000J0D01*
G01*
X233036000Y-39530000D01*
G75*
G02*
X232986000Y-39480000I0J50000D01*
G01*
G37*
G36*
G01*
X232986000Y-36480000D02*
X232986000Y-34380000D01*
G75*
G02*
X233036000Y-34330000I50000J0D01*
G01*
X233836000Y-34330000D01*
G75*
G02*
X233886000Y-34380000I0J-50000D01*
G01*
X233886000Y-36480000D01*
G75*
G02*
X233836000Y-36530000I-50000J0D01*
G01*
X233036000Y-36530000D01*
G75*
G02*
X232986000Y-36480000I0J50000D01*
G01*
G37*
D17*
X231336000Y-40630000D03*
X231336000Y-33630000D03*
%TD*%
D18*
%TO.C,D1*%
X183260000Y-40368000D03*
G36*
G01*
X184060000Y-49018000D02*
X182460000Y-49018000D01*
G75*
G02*
X182410000Y-48968000I0J50000D01*
G01*
X182410000Y-47368000D01*
G75*
G02*
X182460000Y-47318000I50000J0D01*
G01*
X184060000Y-47318000D01*
G75*
G02*
X184110000Y-47368000I0J-50000D01*
G01*
X184110000Y-48968000D01*
G75*
G02*
X184060000Y-49018000I-50000J0D01*
G01*
G37*
G36*
G01*
X183860000Y-46493000D02*
X182660000Y-46493000D01*
G75*
G02*
X182610000Y-46443000I0J50000D01*
G01*
X182610000Y-45243000D01*
G75*
G02*
X182660000Y-45193000I50000J0D01*
G01*
X183860000Y-45193000D01*
G75*
G02*
X183910000Y-45243000I0J-50000D01*
G01*
X183910000Y-46443000D01*
G75*
G02*
X183860000Y-46493000I-50000J0D01*
G01*
G37*
G36*
G01*
X183860000Y-43343000D02*
X182660000Y-43343000D01*
G75*
G02*
X182610000Y-43293000I0J50000D01*
G01*
X182610000Y-42093000D01*
G75*
G02*
X182660000Y-42043000I50000J0D01*
G01*
X183860000Y-42043000D01*
G75*
G02*
X183910000Y-42093000I0J-50000D01*
G01*
X183910000Y-43293000D01*
G75*
G02*
X183860000Y-43343000I-50000J0D01*
G01*
G37*
%TD*%
%TO.C,D2*%
X145180000Y-40368000D03*
G36*
G01*
X145980000Y-49018000D02*
X144380000Y-49018000D01*
G75*
G02*
X144330000Y-48968000I0J50000D01*
G01*
X144330000Y-47368000D01*
G75*
G02*
X144380000Y-47318000I50000J0D01*
G01*
X145980000Y-47318000D01*
G75*
G02*
X146030000Y-47368000I0J-50000D01*
G01*
X146030000Y-48968000D01*
G75*
G02*
X145980000Y-49018000I-50000J0D01*
G01*
G37*
G36*
G01*
X145780000Y-46493000D02*
X144580000Y-46493000D01*
G75*
G02*
X144530000Y-46443000I0J50000D01*
G01*
X144530000Y-45243000D01*
G75*
G02*
X144580000Y-45193000I50000J0D01*
G01*
X145780000Y-45193000D01*
G75*
G02*
X145830000Y-45243000I0J-50000D01*
G01*
X145830000Y-46443000D01*
G75*
G02*
X145780000Y-46493000I-50000J0D01*
G01*
G37*
G36*
G01*
X145780000Y-43343000D02*
X144580000Y-43343000D01*
G75*
G02*
X144530000Y-43293000I0J50000D01*
G01*
X144530000Y-42093000D01*
G75*
G02*
X144580000Y-42043000I50000J0D01*
G01*
X145780000Y-42043000D01*
G75*
G02*
X145830000Y-42093000I0J-50000D01*
G01*
X145830000Y-43293000D01*
G75*
G02*
X145780000Y-43343000I-50000J0D01*
G01*
G37*
%TD*%
%TO.C,D3*%
X126140000Y-40368000D03*
G36*
G01*
X126940000Y-49018000D02*
X125340000Y-49018000D01*
G75*
G02*
X125290000Y-48968000I0J50000D01*
G01*
X125290000Y-47368000D01*
G75*
G02*
X125340000Y-47318000I50000J0D01*
G01*
X126940000Y-47318000D01*
G75*
G02*
X126990000Y-47368000I0J-50000D01*
G01*
X126990000Y-48968000D01*
G75*
G02*
X126940000Y-49018000I-50000J0D01*
G01*
G37*
G36*
G01*
X126740000Y-46493000D02*
X125540000Y-46493000D01*
G75*
G02*
X125490000Y-46443000I0J50000D01*
G01*
X125490000Y-45243000D01*
G75*
G02*
X125540000Y-45193000I50000J0D01*
G01*
X126740000Y-45193000D01*
G75*
G02*
X126790000Y-45243000I0J-50000D01*
G01*
X126790000Y-46443000D01*
G75*
G02*
X126740000Y-46493000I-50000J0D01*
G01*
G37*
G36*
G01*
X126740000Y-43343000D02*
X125540000Y-43343000D01*
G75*
G02*
X125490000Y-43293000I0J50000D01*
G01*
X125490000Y-42093000D01*
G75*
G02*
X125540000Y-42043000I50000J0D01*
G01*
X126740000Y-42043000D01*
G75*
G02*
X126790000Y-42093000I0J-50000D01*
G01*
X126790000Y-43293000D01*
G75*
G02*
X126740000Y-43343000I-50000J0D01*
G01*
G37*
%TD*%
%TO.C,D4*%
X107100000Y-40368000D03*
G36*
G01*
X107900000Y-49018000D02*
X106300000Y-49018000D01*
G75*
G02*
X106250000Y-48968000I0J50000D01*
G01*
X106250000Y-47368000D01*
G75*
G02*
X106300000Y-47318000I50000J0D01*
G01*
X107900000Y-47318000D01*
G75*
G02*
X107950000Y-47368000I0J-50000D01*
G01*
X107950000Y-48968000D01*
G75*
G02*
X107900000Y-49018000I-50000J0D01*
G01*
G37*
G36*
G01*
X107700000Y-46493000D02*
X106500000Y-46493000D01*
G75*
G02*
X106450000Y-46443000I0J50000D01*
G01*
X106450000Y-45243000D01*
G75*
G02*
X106500000Y-45193000I50000J0D01*
G01*
X107700000Y-45193000D01*
G75*
G02*
X107750000Y-45243000I0J-50000D01*
G01*
X107750000Y-46443000D01*
G75*
G02*
X107700000Y-46493000I-50000J0D01*
G01*
G37*
G36*
G01*
X107700000Y-43343000D02*
X106500000Y-43343000D01*
G75*
G02*
X106450000Y-43293000I0J50000D01*
G01*
X106450000Y-42093000D01*
G75*
G02*
X106500000Y-42043000I50000J0D01*
G01*
X107700000Y-42043000D01*
G75*
G02*
X107750000Y-42093000I0J-50000D01*
G01*
X107750000Y-43293000D01*
G75*
G02*
X107700000Y-43343000I-50000J0D01*
G01*
G37*
%TD*%
%TO.C,D5*%
X88060000Y-40368000D03*
G36*
G01*
X88860000Y-49018000D02*
X87260000Y-49018000D01*
G75*
G02*
X87210000Y-48968000I0J50000D01*
G01*
X87210000Y-47368000D01*
G75*
G02*
X87260000Y-47318000I50000J0D01*
G01*
X88860000Y-47318000D01*
G75*
G02*
X88910000Y-47368000I0J-50000D01*
G01*
X88910000Y-48968000D01*
G75*
G02*
X88860000Y-49018000I-50000J0D01*
G01*
G37*
G36*
G01*
X88660000Y-46493000D02*
X87460000Y-46493000D01*
G75*
G02*
X87410000Y-46443000I0J50000D01*
G01*
X87410000Y-45243000D01*
G75*
G02*
X87460000Y-45193000I50000J0D01*
G01*
X88660000Y-45193000D01*
G75*
G02*
X88710000Y-45243000I0J-50000D01*
G01*
X88710000Y-46443000D01*
G75*
G02*
X88660000Y-46493000I-50000J0D01*
G01*
G37*
G36*
G01*
X88660000Y-43343000D02*
X87460000Y-43343000D01*
G75*
G02*
X87410000Y-43293000I0J50000D01*
G01*
X87410000Y-42093000D01*
G75*
G02*
X87460000Y-42043000I50000J0D01*
G01*
X88660000Y-42043000D01*
G75*
G02*
X88710000Y-42093000I0J-50000D01*
G01*
X88710000Y-43293000D01*
G75*
G02*
X88660000Y-43343000I-50000J0D01*
G01*
G37*
%TD*%
%TO.C,D6*%
X69020000Y-40368000D03*
G36*
G01*
X69820000Y-49018000D02*
X68220000Y-49018000D01*
G75*
G02*
X68170000Y-48968000I0J50000D01*
G01*
X68170000Y-47368000D01*
G75*
G02*
X68220000Y-47318000I50000J0D01*
G01*
X69820000Y-47318000D01*
G75*
G02*
X69870000Y-47368000I0J-50000D01*
G01*
X69870000Y-48968000D01*
G75*
G02*
X69820000Y-49018000I-50000J0D01*
G01*
G37*
G36*
G01*
X69620000Y-46493000D02*
X68420000Y-46493000D01*
G75*
G02*
X68370000Y-46443000I0J50000D01*
G01*
X68370000Y-45243000D01*
G75*
G02*
X68420000Y-45193000I50000J0D01*
G01*
X69620000Y-45193000D01*
G75*
G02*
X69670000Y-45243000I0J-50000D01*
G01*
X69670000Y-46443000D01*
G75*
G02*
X69620000Y-46493000I-50000J0D01*
G01*
G37*
G36*
G01*
X69620000Y-43343000D02*
X68420000Y-43343000D01*
G75*
G02*
X68370000Y-43293000I0J50000D01*
G01*
X68370000Y-42093000D01*
G75*
G02*
X68420000Y-42043000I50000J0D01*
G01*
X69620000Y-42043000D01*
G75*
G02*
X69670000Y-42093000I0J-50000D01*
G01*
X69670000Y-43293000D01*
G75*
G02*
X69620000Y-43343000I-50000J0D01*
G01*
G37*
%TD*%
%TO.C,D7*%
X49980000Y-40368000D03*
G36*
G01*
X50780000Y-49018000D02*
X49180000Y-49018000D01*
G75*
G02*
X49130000Y-48968000I0J50000D01*
G01*
X49130000Y-47368000D01*
G75*
G02*
X49180000Y-47318000I50000J0D01*
G01*
X50780000Y-47318000D01*
G75*
G02*
X50830000Y-47368000I0J-50000D01*
G01*
X50830000Y-48968000D01*
G75*
G02*
X50780000Y-49018000I-50000J0D01*
G01*
G37*
G36*
G01*
X50580000Y-46493000D02*
X49380000Y-46493000D01*
G75*
G02*
X49330000Y-46443000I0J50000D01*
G01*
X49330000Y-45243000D01*
G75*
G02*
X49380000Y-45193000I50000J0D01*
G01*
X50580000Y-45193000D01*
G75*
G02*
X50630000Y-45243000I0J-50000D01*
G01*
X50630000Y-46443000D01*
G75*
G02*
X50580000Y-46493000I-50000J0D01*
G01*
G37*
G36*
G01*
X50580000Y-43343000D02*
X49380000Y-43343000D01*
G75*
G02*
X49330000Y-43293000I0J50000D01*
G01*
X49330000Y-42093000D01*
G75*
G02*
X49380000Y-42043000I50000J0D01*
G01*
X50580000Y-42043000D01*
G75*
G02*
X50630000Y-42093000I0J-50000D01*
G01*
X50630000Y-43293000D01*
G75*
G02*
X50580000Y-43343000I-50000J0D01*
G01*
G37*
%TD*%
%TO.C,D8*%
X32606000Y-40368000D03*
G36*
G01*
X33406000Y-49018000D02*
X31806000Y-49018000D01*
G75*
G02*
X31756000Y-48968000I0J50000D01*
G01*
X31756000Y-47368000D01*
G75*
G02*
X31806000Y-47318000I50000J0D01*
G01*
X33406000Y-47318000D01*
G75*
G02*
X33456000Y-47368000I0J-50000D01*
G01*
X33456000Y-48968000D01*
G75*
G02*
X33406000Y-49018000I-50000J0D01*
G01*
G37*
G36*
G01*
X33206000Y-46493000D02*
X32006000Y-46493000D01*
G75*
G02*
X31956000Y-46443000I0J50000D01*
G01*
X31956000Y-45243000D01*
G75*
G02*
X32006000Y-45193000I50000J0D01*
G01*
X33206000Y-45193000D01*
G75*
G02*
X33256000Y-45243000I0J-50000D01*
G01*
X33256000Y-46443000D01*
G75*
G02*
X33206000Y-46493000I-50000J0D01*
G01*
G37*
G36*
G01*
X33206000Y-43343000D02*
X32006000Y-43343000D01*
G75*
G02*
X31956000Y-43293000I0J50000D01*
G01*
X31956000Y-42093000D01*
G75*
G02*
X32006000Y-42043000I50000J0D01*
G01*
X33206000Y-42043000D01*
G75*
G02*
X33256000Y-42093000I0J-50000D01*
G01*
X33256000Y-43293000D01*
G75*
G02*
X33206000Y-43343000I-50000J0D01*
G01*
G37*
%TD*%
%TO.C,D9*%
X184212000Y-59408000D03*
G36*
G01*
X185012000Y-68058000D02*
X183412000Y-68058000D01*
G75*
G02*
X183362000Y-68008000I0J50000D01*
G01*
X183362000Y-66408000D01*
G75*
G02*
X183412000Y-66358000I50000J0D01*
G01*
X185012000Y-66358000D01*
G75*
G02*
X185062000Y-66408000I0J-50000D01*
G01*
X185062000Y-68008000D01*
G75*
G02*
X185012000Y-68058000I-50000J0D01*
G01*
G37*
G36*
G01*
X184812000Y-65533000D02*
X183612000Y-65533000D01*
G75*
G02*
X183562000Y-65483000I0J50000D01*
G01*
X183562000Y-64283000D01*
G75*
G02*
X183612000Y-64233000I50000J0D01*
G01*
X184812000Y-64233000D01*
G75*
G02*
X184862000Y-64283000I0J-50000D01*
G01*
X184862000Y-65483000D01*
G75*
G02*
X184812000Y-65533000I-50000J0D01*
G01*
G37*
G36*
G01*
X184812000Y-62383000D02*
X183612000Y-62383000D01*
G75*
G02*
X183562000Y-62333000I0J50000D01*
G01*
X183562000Y-61133000D01*
G75*
G02*
X183612000Y-61083000I50000J0D01*
G01*
X184812000Y-61083000D01*
G75*
G02*
X184862000Y-61133000I0J-50000D01*
G01*
X184862000Y-62333000D01*
G75*
G02*
X184812000Y-62383000I-50000J0D01*
G01*
G37*
%TD*%
%TO.C,D10*%
X135660000Y-59408000D03*
G36*
G01*
X136460000Y-68058000D02*
X134860000Y-68058000D01*
G75*
G02*
X134810000Y-68008000I0J50000D01*
G01*
X134810000Y-66408000D01*
G75*
G02*
X134860000Y-66358000I50000J0D01*
G01*
X136460000Y-66358000D01*
G75*
G02*
X136510000Y-66408000I0J-50000D01*
G01*
X136510000Y-68008000D01*
G75*
G02*
X136460000Y-68058000I-50000J0D01*
G01*
G37*
G36*
G01*
X136260000Y-65533000D02*
X135060000Y-65533000D01*
G75*
G02*
X135010000Y-65483000I0J50000D01*
G01*
X135010000Y-64283000D01*
G75*
G02*
X135060000Y-64233000I50000J0D01*
G01*
X136260000Y-64233000D01*
G75*
G02*
X136310000Y-64283000I0J-50000D01*
G01*
X136310000Y-65483000D01*
G75*
G02*
X136260000Y-65533000I-50000J0D01*
G01*
G37*
G36*
G01*
X136260000Y-62383000D02*
X135060000Y-62383000D01*
G75*
G02*
X135010000Y-62333000I0J50000D01*
G01*
X135010000Y-61133000D01*
G75*
G02*
X135060000Y-61083000I50000J0D01*
G01*
X136260000Y-61083000D01*
G75*
G02*
X136310000Y-61133000I0J-50000D01*
G01*
X136310000Y-62333000D01*
G75*
G02*
X136260000Y-62383000I-50000J0D01*
G01*
G37*
%TD*%
%TO.C,D11*%
X116620000Y-59408000D03*
G36*
G01*
X117420000Y-68058000D02*
X115820000Y-68058000D01*
G75*
G02*
X115770000Y-68008000I0J50000D01*
G01*
X115770000Y-66408000D01*
G75*
G02*
X115820000Y-66358000I50000J0D01*
G01*
X117420000Y-66358000D01*
G75*
G02*
X117470000Y-66408000I0J-50000D01*
G01*
X117470000Y-68008000D01*
G75*
G02*
X117420000Y-68058000I-50000J0D01*
G01*
G37*
G36*
G01*
X117220000Y-65533000D02*
X116020000Y-65533000D01*
G75*
G02*
X115970000Y-65483000I0J50000D01*
G01*
X115970000Y-64283000D01*
G75*
G02*
X116020000Y-64233000I50000J0D01*
G01*
X117220000Y-64233000D01*
G75*
G02*
X117270000Y-64283000I0J-50000D01*
G01*
X117270000Y-65483000D01*
G75*
G02*
X117220000Y-65533000I-50000J0D01*
G01*
G37*
G36*
G01*
X117220000Y-62383000D02*
X116020000Y-62383000D01*
G75*
G02*
X115970000Y-62333000I0J50000D01*
G01*
X115970000Y-61133000D01*
G75*
G02*
X116020000Y-61083000I50000J0D01*
G01*
X117220000Y-61083000D01*
G75*
G02*
X117270000Y-61133000I0J-50000D01*
G01*
X117270000Y-62333000D01*
G75*
G02*
X117220000Y-62383000I-50000J0D01*
G01*
G37*
%TD*%
%TO.C,D12*%
X97580000Y-59408000D03*
G36*
G01*
X98380000Y-68058000D02*
X96780000Y-68058000D01*
G75*
G02*
X96730000Y-68008000I0J50000D01*
G01*
X96730000Y-66408000D01*
G75*
G02*
X96780000Y-66358000I50000J0D01*
G01*
X98380000Y-66358000D01*
G75*
G02*
X98430000Y-66408000I0J-50000D01*
G01*
X98430000Y-68008000D01*
G75*
G02*
X98380000Y-68058000I-50000J0D01*
G01*
G37*
G36*
G01*
X98180000Y-65533000D02*
X96980000Y-65533000D01*
G75*
G02*
X96930000Y-65483000I0J50000D01*
G01*
X96930000Y-64283000D01*
G75*
G02*
X96980000Y-64233000I50000J0D01*
G01*
X98180000Y-64233000D01*
G75*
G02*
X98230000Y-64283000I0J-50000D01*
G01*
X98230000Y-65483000D01*
G75*
G02*
X98180000Y-65533000I-50000J0D01*
G01*
G37*
G36*
G01*
X98180000Y-62383000D02*
X96980000Y-62383000D01*
G75*
G02*
X96930000Y-62333000I0J50000D01*
G01*
X96930000Y-61133000D01*
G75*
G02*
X96980000Y-61083000I50000J0D01*
G01*
X98180000Y-61083000D01*
G75*
G02*
X98230000Y-61133000I0J-50000D01*
G01*
X98230000Y-62333000D01*
G75*
G02*
X98180000Y-62383000I-50000J0D01*
G01*
G37*
%TD*%
%TO.C,D13*%
X78540000Y-59408000D03*
G36*
G01*
X79340000Y-68058000D02*
X77740000Y-68058000D01*
G75*
G02*
X77690000Y-68008000I0J50000D01*
G01*
X77690000Y-66408000D01*
G75*
G02*
X77740000Y-66358000I50000J0D01*
G01*
X79340000Y-66358000D01*
G75*
G02*
X79390000Y-66408000I0J-50000D01*
G01*
X79390000Y-68008000D01*
G75*
G02*
X79340000Y-68058000I-50000J0D01*
G01*
G37*
G36*
G01*
X79140000Y-65533000D02*
X77940000Y-65533000D01*
G75*
G02*
X77890000Y-65483000I0J50000D01*
G01*
X77890000Y-64283000D01*
G75*
G02*
X77940000Y-64233000I50000J0D01*
G01*
X79140000Y-64233000D01*
G75*
G02*
X79190000Y-64283000I0J-50000D01*
G01*
X79190000Y-65483000D01*
G75*
G02*
X79140000Y-65533000I-50000J0D01*
G01*
G37*
G36*
G01*
X79140000Y-62383000D02*
X77940000Y-62383000D01*
G75*
G02*
X77890000Y-62333000I0J50000D01*
G01*
X77890000Y-61133000D01*
G75*
G02*
X77940000Y-61083000I50000J0D01*
G01*
X79140000Y-61083000D01*
G75*
G02*
X79190000Y-61133000I0J-50000D01*
G01*
X79190000Y-62333000D01*
G75*
G02*
X79140000Y-62383000I-50000J0D01*
G01*
G37*
%TD*%
%TO.C,D14*%
X59500000Y-59408000D03*
G36*
G01*
X60300000Y-68058000D02*
X58700000Y-68058000D01*
G75*
G02*
X58650000Y-68008000I0J50000D01*
G01*
X58650000Y-66408000D01*
G75*
G02*
X58700000Y-66358000I50000J0D01*
G01*
X60300000Y-66358000D01*
G75*
G02*
X60350000Y-66408000I0J-50000D01*
G01*
X60350000Y-68008000D01*
G75*
G02*
X60300000Y-68058000I-50000J0D01*
G01*
G37*
G36*
G01*
X60100000Y-65533000D02*
X58900000Y-65533000D01*
G75*
G02*
X58850000Y-65483000I0J50000D01*
G01*
X58850000Y-64283000D01*
G75*
G02*
X58900000Y-64233000I50000J0D01*
G01*
X60100000Y-64233000D01*
G75*
G02*
X60150000Y-64283000I0J-50000D01*
G01*
X60150000Y-65483000D01*
G75*
G02*
X60100000Y-65533000I-50000J0D01*
G01*
G37*
G36*
G01*
X60100000Y-62383000D02*
X58900000Y-62383000D01*
G75*
G02*
X58850000Y-62333000I0J50000D01*
G01*
X58850000Y-61133000D01*
G75*
G02*
X58900000Y-61083000I50000J0D01*
G01*
X60100000Y-61083000D01*
G75*
G02*
X60150000Y-61133000I0J-50000D01*
G01*
X60150000Y-62333000D01*
G75*
G02*
X60100000Y-62383000I-50000J0D01*
G01*
G37*
%TD*%
%TO.C,D15*%
X40460000Y-59408000D03*
G36*
G01*
X41260000Y-68058000D02*
X39660000Y-68058000D01*
G75*
G02*
X39610000Y-68008000I0J50000D01*
G01*
X39610000Y-66408000D01*
G75*
G02*
X39660000Y-66358000I50000J0D01*
G01*
X41260000Y-66358000D01*
G75*
G02*
X41310000Y-66408000I0J-50000D01*
G01*
X41310000Y-68008000D01*
G75*
G02*
X41260000Y-68058000I-50000J0D01*
G01*
G37*
G36*
G01*
X41060000Y-65533000D02*
X39860000Y-65533000D01*
G75*
G02*
X39810000Y-65483000I0J50000D01*
G01*
X39810000Y-64283000D01*
G75*
G02*
X39860000Y-64233000I50000J0D01*
G01*
X41060000Y-64233000D01*
G75*
G02*
X41110000Y-64283000I0J-50000D01*
G01*
X41110000Y-65483000D01*
G75*
G02*
X41060000Y-65533000I-50000J0D01*
G01*
G37*
G36*
G01*
X41060000Y-62383000D02*
X39860000Y-62383000D01*
G75*
G02*
X39810000Y-62333000I0J50000D01*
G01*
X39810000Y-61133000D01*
G75*
G02*
X39860000Y-61083000I50000J0D01*
G01*
X41060000Y-61083000D01*
G75*
G02*
X41110000Y-61133000I0J-50000D01*
G01*
X41110000Y-62333000D01*
G75*
G02*
X41060000Y-62383000I-50000J0D01*
G01*
G37*
%TD*%
%TO.C,D16*%
X23086000Y-59408000D03*
G36*
G01*
X23886000Y-68058000D02*
X22286000Y-68058000D01*
G75*
G02*
X22236000Y-68008000I0J50000D01*
G01*
X22236000Y-66408000D01*
G75*
G02*
X22286000Y-66358000I50000J0D01*
G01*
X23886000Y-66358000D01*
G75*
G02*
X23936000Y-66408000I0J-50000D01*
G01*
X23936000Y-68008000D01*
G75*
G02*
X23886000Y-68058000I-50000J0D01*
G01*
G37*
G36*
G01*
X23686000Y-65533000D02*
X22486000Y-65533000D01*
G75*
G02*
X22436000Y-65483000I0J50000D01*
G01*
X22436000Y-64283000D01*
G75*
G02*
X22486000Y-64233000I50000J0D01*
G01*
X23686000Y-64233000D01*
G75*
G02*
X23736000Y-64283000I0J-50000D01*
G01*
X23736000Y-65483000D01*
G75*
G02*
X23686000Y-65533000I-50000J0D01*
G01*
G37*
G36*
G01*
X23686000Y-62383000D02*
X22486000Y-62383000D01*
G75*
G02*
X22436000Y-62333000I0J50000D01*
G01*
X22436000Y-61133000D01*
G75*
G02*
X22486000Y-61083000I50000J0D01*
G01*
X23686000Y-61083000D01*
G75*
G02*
X23736000Y-61133000I0J-50000D01*
G01*
X23736000Y-62333000D01*
G75*
G02*
X23686000Y-62383000I-50000J0D01*
G01*
G37*
%TD*%
%TO.C,D17*%
X184212000Y-78448000D03*
G36*
G01*
X185012000Y-87098000D02*
X183412000Y-87098000D01*
G75*
G02*
X183362000Y-87048000I0J50000D01*
G01*
X183362000Y-85448000D01*
G75*
G02*
X183412000Y-85398000I50000J0D01*
G01*
X185012000Y-85398000D01*
G75*
G02*
X185062000Y-85448000I0J-50000D01*
G01*
X185062000Y-87048000D01*
G75*
G02*
X185012000Y-87098000I-50000J0D01*
G01*
G37*
G36*
G01*
X184812000Y-84573000D02*
X183612000Y-84573000D01*
G75*
G02*
X183562000Y-84523000I0J50000D01*
G01*
X183562000Y-83323000D01*
G75*
G02*
X183612000Y-83273000I50000J0D01*
G01*
X184812000Y-83273000D01*
G75*
G02*
X184862000Y-83323000I0J-50000D01*
G01*
X184862000Y-84523000D01*
G75*
G02*
X184812000Y-84573000I-50000J0D01*
G01*
G37*
G36*
G01*
X184812000Y-81423000D02*
X183612000Y-81423000D01*
G75*
G02*
X183562000Y-81373000I0J50000D01*
G01*
X183562000Y-80173000D01*
G75*
G02*
X183612000Y-80123000I50000J0D01*
G01*
X184812000Y-80123000D01*
G75*
G02*
X184862000Y-80173000I0J-50000D01*
G01*
X184862000Y-81373000D01*
G75*
G02*
X184812000Y-81423000I-50000J0D01*
G01*
G37*
%TD*%
%TO.C,D18*%
X159460000Y-78448000D03*
G36*
G01*
X160260000Y-87098000D02*
X158660000Y-87098000D01*
G75*
G02*
X158610000Y-87048000I0J50000D01*
G01*
X158610000Y-85448000D01*
G75*
G02*
X158660000Y-85398000I50000J0D01*
G01*
X160260000Y-85398000D01*
G75*
G02*
X160310000Y-85448000I0J-50000D01*
G01*
X160310000Y-87048000D01*
G75*
G02*
X160260000Y-87098000I-50000J0D01*
G01*
G37*
G36*
G01*
X160060000Y-84573000D02*
X158860000Y-84573000D01*
G75*
G02*
X158810000Y-84523000I0J50000D01*
G01*
X158810000Y-83323000D01*
G75*
G02*
X158860000Y-83273000I50000J0D01*
G01*
X160060000Y-83273000D01*
G75*
G02*
X160110000Y-83323000I0J-50000D01*
G01*
X160110000Y-84523000D01*
G75*
G02*
X160060000Y-84573000I-50000J0D01*
G01*
G37*
G36*
G01*
X160060000Y-81423000D02*
X158860000Y-81423000D01*
G75*
G02*
X158810000Y-81373000I0J50000D01*
G01*
X158810000Y-80173000D01*
G75*
G02*
X158860000Y-80123000I50000J0D01*
G01*
X160060000Y-80123000D01*
G75*
G02*
X160110000Y-80173000I0J-50000D01*
G01*
X160110000Y-81373000D01*
G75*
G02*
X160060000Y-81423000I-50000J0D01*
G01*
G37*
%TD*%
%TO.C,D19*%
X140420000Y-78448000D03*
G36*
G01*
X141220000Y-87098000D02*
X139620000Y-87098000D01*
G75*
G02*
X139570000Y-87048000I0J50000D01*
G01*
X139570000Y-85448000D01*
G75*
G02*
X139620000Y-85398000I50000J0D01*
G01*
X141220000Y-85398000D01*
G75*
G02*
X141270000Y-85448000I0J-50000D01*
G01*
X141270000Y-87048000D01*
G75*
G02*
X141220000Y-87098000I-50000J0D01*
G01*
G37*
G36*
G01*
X141020000Y-84573000D02*
X139820000Y-84573000D01*
G75*
G02*
X139770000Y-84523000I0J50000D01*
G01*
X139770000Y-83323000D01*
G75*
G02*
X139820000Y-83273000I50000J0D01*
G01*
X141020000Y-83273000D01*
G75*
G02*
X141070000Y-83323000I0J-50000D01*
G01*
X141070000Y-84523000D01*
G75*
G02*
X141020000Y-84573000I-50000J0D01*
G01*
G37*
G36*
G01*
X141020000Y-81423000D02*
X139820000Y-81423000D01*
G75*
G02*
X139770000Y-81373000I0J50000D01*
G01*
X139770000Y-80173000D01*
G75*
G02*
X139820000Y-80123000I50000J0D01*
G01*
X141020000Y-80123000D01*
G75*
G02*
X141070000Y-80173000I0J-50000D01*
G01*
X141070000Y-81373000D01*
G75*
G02*
X141020000Y-81423000I-50000J0D01*
G01*
G37*
%TD*%
%TO.C,D20*%
X121380000Y-78448000D03*
G36*
G01*
X122180000Y-87098000D02*
X120580000Y-87098000D01*
G75*
G02*
X120530000Y-87048000I0J50000D01*
G01*
X120530000Y-85448000D01*
G75*
G02*
X120580000Y-85398000I50000J0D01*
G01*
X122180000Y-85398000D01*
G75*
G02*
X122230000Y-85448000I0J-50000D01*
G01*
X122230000Y-87048000D01*
G75*
G02*
X122180000Y-87098000I-50000J0D01*
G01*
G37*
G36*
G01*
X121980000Y-84573000D02*
X120780000Y-84573000D01*
G75*
G02*
X120730000Y-84523000I0J50000D01*
G01*
X120730000Y-83323000D01*
G75*
G02*
X120780000Y-83273000I50000J0D01*
G01*
X121980000Y-83273000D01*
G75*
G02*
X122030000Y-83323000I0J-50000D01*
G01*
X122030000Y-84523000D01*
G75*
G02*
X121980000Y-84573000I-50000J0D01*
G01*
G37*
G36*
G01*
X121980000Y-81423000D02*
X120780000Y-81423000D01*
G75*
G02*
X120730000Y-81373000I0J50000D01*
G01*
X120730000Y-80173000D01*
G75*
G02*
X120780000Y-80123000I50000J0D01*
G01*
X121980000Y-80123000D01*
G75*
G02*
X122030000Y-80173000I0J-50000D01*
G01*
X122030000Y-81373000D01*
G75*
G02*
X121980000Y-81423000I-50000J0D01*
G01*
G37*
%TD*%
%TO.C,D21*%
X102340000Y-78448000D03*
G36*
G01*
X103140000Y-87098000D02*
X101540000Y-87098000D01*
G75*
G02*
X101490000Y-87048000I0J50000D01*
G01*
X101490000Y-85448000D01*
G75*
G02*
X101540000Y-85398000I50000J0D01*
G01*
X103140000Y-85398000D01*
G75*
G02*
X103190000Y-85448000I0J-50000D01*
G01*
X103190000Y-87048000D01*
G75*
G02*
X103140000Y-87098000I-50000J0D01*
G01*
G37*
G36*
G01*
X102940000Y-84573000D02*
X101740000Y-84573000D01*
G75*
G02*
X101690000Y-84523000I0J50000D01*
G01*
X101690000Y-83323000D01*
G75*
G02*
X101740000Y-83273000I50000J0D01*
G01*
X102940000Y-83273000D01*
G75*
G02*
X102990000Y-83323000I0J-50000D01*
G01*
X102990000Y-84523000D01*
G75*
G02*
X102940000Y-84573000I-50000J0D01*
G01*
G37*
G36*
G01*
X102940000Y-81423000D02*
X101740000Y-81423000D01*
G75*
G02*
X101690000Y-81373000I0J50000D01*
G01*
X101690000Y-80173000D01*
G75*
G02*
X101740000Y-80123000I50000J0D01*
G01*
X102940000Y-80123000D01*
G75*
G02*
X102990000Y-80173000I0J-50000D01*
G01*
X102990000Y-81373000D01*
G75*
G02*
X102940000Y-81423000I-50000J0D01*
G01*
G37*
%TD*%
%TO.C,D22*%
X83300000Y-78448000D03*
G36*
G01*
X84100000Y-87098000D02*
X82500000Y-87098000D01*
G75*
G02*
X82450000Y-87048000I0J50000D01*
G01*
X82450000Y-85448000D01*
G75*
G02*
X82500000Y-85398000I50000J0D01*
G01*
X84100000Y-85398000D01*
G75*
G02*
X84150000Y-85448000I0J-50000D01*
G01*
X84150000Y-87048000D01*
G75*
G02*
X84100000Y-87098000I-50000J0D01*
G01*
G37*
G36*
G01*
X83900000Y-84573000D02*
X82700000Y-84573000D01*
G75*
G02*
X82650000Y-84523000I0J50000D01*
G01*
X82650000Y-83323000D01*
G75*
G02*
X82700000Y-83273000I50000J0D01*
G01*
X83900000Y-83273000D01*
G75*
G02*
X83950000Y-83323000I0J-50000D01*
G01*
X83950000Y-84523000D01*
G75*
G02*
X83900000Y-84573000I-50000J0D01*
G01*
G37*
G36*
G01*
X83900000Y-81423000D02*
X82700000Y-81423000D01*
G75*
G02*
X82650000Y-81373000I0J50000D01*
G01*
X82650000Y-80173000D01*
G75*
G02*
X82700000Y-80123000I50000J0D01*
G01*
X83900000Y-80123000D01*
G75*
G02*
X83950000Y-80173000I0J-50000D01*
G01*
X83950000Y-81373000D01*
G75*
G02*
X83900000Y-81423000I-50000J0D01*
G01*
G37*
%TD*%
%TO.C,D23*%
X64260000Y-78448000D03*
G36*
G01*
X65060000Y-87098000D02*
X63460000Y-87098000D01*
G75*
G02*
X63410000Y-87048000I0J50000D01*
G01*
X63410000Y-85448000D01*
G75*
G02*
X63460000Y-85398000I50000J0D01*
G01*
X65060000Y-85398000D01*
G75*
G02*
X65110000Y-85448000I0J-50000D01*
G01*
X65110000Y-87048000D01*
G75*
G02*
X65060000Y-87098000I-50000J0D01*
G01*
G37*
G36*
G01*
X64860000Y-84573000D02*
X63660000Y-84573000D01*
G75*
G02*
X63610000Y-84523000I0J50000D01*
G01*
X63610000Y-83323000D01*
G75*
G02*
X63660000Y-83273000I50000J0D01*
G01*
X64860000Y-83273000D01*
G75*
G02*
X64910000Y-83323000I0J-50000D01*
G01*
X64910000Y-84523000D01*
G75*
G02*
X64860000Y-84573000I-50000J0D01*
G01*
G37*
G36*
G01*
X64860000Y-81423000D02*
X63660000Y-81423000D01*
G75*
G02*
X63610000Y-81373000I0J50000D01*
G01*
X63610000Y-80173000D01*
G75*
G02*
X63660000Y-80123000I50000J0D01*
G01*
X64860000Y-80123000D01*
G75*
G02*
X64910000Y-80173000I0J-50000D01*
G01*
X64910000Y-81373000D01*
G75*
G02*
X64860000Y-81423000I-50000J0D01*
G01*
G37*
%TD*%
%TO.C,D24*%
X45220000Y-78448000D03*
G36*
G01*
X46020000Y-87098000D02*
X44420000Y-87098000D01*
G75*
G02*
X44370000Y-87048000I0J50000D01*
G01*
X44370000Y-85448000D01*
G75*
G02*
X44420000Y-85398000I50000J0D01*
G01*
X46020000Y-85398000D01*
G75*
G02*
X46070000Y-85448000I0J-50000D01*
G01*
X46070000Y-87048000D01*
G75*
G02*
X46020000Y-87098000I-50000J0D01*
G01*
G37*
G36*
G01*
X45820000Y-84573000D02*
X44620000Y-84573000D01*
G75*
G02*
X44570000Y-84523000I0J50000D01*
G01*
X44570000Y-83323000D01*
G75*
G02*
X44620000Y-83273000I50000J0D01*
G01*
X45820000Y-83273000D01*
G75*
G02*
X45870000Y-83323000I0J-50000D01*
G01*
X45870000Y-84523000D01*
G75*
G02*
X45820000Y-84573000I-50000J0D01*
G01*
G37*
G36*
G01*
X45820000Y-81423000D02*
X44620000Y-81423000D01*
G75*
G02*
X44570000Y-81373000I0J50000D01*
G01*
X44570000Y-80173000D01*
G75*
G02*
X44620000Y-80123000I50000J0D01*
G01*
X45820000Y-80123000D01*
G75*
G02*
X45870000Y-80173000I0J-50000D01*
G01*
X45870000Y-81373000D01*
G75*
G02*
X45820000Y-81423000I-50000J0D01*
G01*
G37*
%TD*%
%TO.C,D25*%
X183260000Y-97488000D03*
G36*
G01*
X184060000Y-106138000D02*
X182460000Y-106138000D01*
G75*
G02*
X182410000Y-106088000I0J50000D01*
G01*
X182410000Y-104488000D01*
G75*
G02*
X182460000Y-104438000I50000J0D01*
G01*
X184060000Y-104438000D01*
G75*
G02*
X184110000Y-104488000I0J-50000D01*
G01*
X184110000Y-106088000D01*
G75*
G02*
X184060000Y-106138000I-50000J0D01*
G01*
G37*
G36*
G01*
X183860000Y-103613000D02*
X182660000Y-103613000D01*
G75*
G02*
X182610000Y-103563000I0J50000D01*
G01*
X182610000Y-102363000D01*
G75*
G02*
X182660000Y-102313000I50000J0D01*
G01*
X183860000Y-102313000D01*
G75*
G02*
X183910000Y-102363000I0J-50000D01*
G01*
X183910000Y-103563000D01*
G75*
G02*
X183860000Y-103613000I-50000J0D01*
G01*
G37*
G36*
G01*
X183860000Y-100463000D02*
X182660000Y-100463000D01*
G75*
G02*
X182610000Y-100413000I0J50000D01*
G01*
X182610000Y-99213000D01*
G75*
G02*
X182660000Y-99163000I50000J0D01*
G01*
X183860000Y-99163000D01*
G75*
G02*
X183910000Y-99213000I0J-50000D01*
G01*
X183910000Y-100413000D01*
G75*
G02*
X183860000Y-100463000I-50000J0D01*
G01*
G37*
%TD*%
%TO.C,D26*%
X164220000Y-97488000D03*
G36*
G01*
X165020000Y-106138000D02*
X163420000Y-106138000D01*
G75*
G02*
X163370000Y-106088000I0J50000D01*
G01*
X163370000Y-104488000D01*
G75*
G02*
X163420000Y-104438000I50000J0D01*
G01*
X165020000Y-104438000D01*
G75*
G02*
X165070000Y-104488000I0J-50000D01*
G01*
X165070000Y-106088000D01*
G75*
G02*
X165020000Y-106138000I-50000J0D01*
G01*
G37*
G36*
G01*
X164820000Y-103613000D02*
X163620000Y-103613000D01*
G75*
G02*
X163570000Y-103563000I0J50000D01*
G01*
X163570000Y-102363000D01*
G75*
G02*
X163620000Y-102313000I50000J0D01*
G01*
X164820000Y-102313000D01*
G75*
G02*
X164870000Y-102363000I0J-50000D01*
G01*
X164870000Y-103563000D01*
G75*
G02*
X164820000Y-103613000I-50000J0D01*
G01*
G37*
G36*
G01*
X164820000Y-100463000D02*
X163620000Y-100463000D01*
G75*
G02*
X163570000Y-100413000I0J50000D01*
G01*
X163570000Y-99213000D01*
G75*
G02*
X163620000Y-99163000I50000J0D01*
G01*
X164820000Y-99163000D01*
G75*
G02*
X164870000Y-99213000I0J-50000D01*
G01*
X164870000Y-100413000D01*
G75*
G02*
X164820000Y-100463000I-50000J0D01*
G01*
G37*
%TD*%
%TO.C,D27*%
X130900000Y-97488000D03*
G36*
G01*
X131700000Y-106138000D02*
X130100000Y-106138000D01*
G75*
G02*
X130050000Y-106088000I0J50000D01*
G01*
X130050000Y-104488000D01*
G75*
G02*
X130100000Y-104438000I50000J0D01*
G01*
X131700000Y-104438000D01*
G75*
G02*
X131750000Y-104488000I0J-50000D01*
G01*
X131750000Y-106088000D01*
G75*
G02*
X131700000Y-106138000I-50000J0D01*
G01*
G37*
G36*
G01*
X131500000Y-103613000D02*
X130300000Y-103613000D01*
G75*
G02*
X130250000Y-103563000I0J50000D01*
G01*
X130250000Y-102363000D01*
G75*
G02*
X130300000Y-102313000I50000J0D01*
G01*
X131500000Y-102313000D01*
G75*
G02*
X131550000Y-102363000I0J-50000D01*
G01*
X131550000Y-103563000D01*
G75*
G02*
X131500000Y-103613000I-50000J0D01*
G01*
G37*
G36*
G01*
X131500000Y-100463000D02*
X130300000Y-100463000D01*
G75*
G02*
X130250000Y-100413000I0J50000D01*
G01*
X130250000Y-99213000D01*
G75*
G02*
X130300000Y-99163000I50000J0D01*
G01*
X131500000Y-99163000D01*
G75*
G02*
X131550000Y-99213000I0J-50000D01*
G01*
X131550000Y-100413000D01*
G75*
G02*
X131500000Y-100463000I-50000J0D01*
G01*
G37*
%TD*%
%TO.C,D28*%
X111860000Y-97488000D03*
G36*
G01*
X112660000Y-106138000D02*
X111060000Y-106138000D01*
G75*
G02*
X111010000Y-106088000I0J50000D01*
G01*
X111010000Y-104488000D01*
G75*
G02*
X111060000Y-104438000I50000J0D01*
G01*
X112660000Y-104438000D01*
G75*
G02*
X112710000Y-104488000I0J-50000D01*
G01*
X112710000Y-106088000D01*
G75*
G02*
X112660000Y-106138000I-50000J0D01*
G01*
G37*
G36*
G01*
X112460000Y-103613000D02*
X111260000Y-103613000D01*
G75*
G02*
X111210000Y-103563000I0J50000D01*
G01*
X111210000Y-102363000D01*
G75*
G02*
X111260000Y-102313000I50000J0D01*
G01*
X112460000Y-102313000D01*
G75*
G02*
X112510000Y-102363000I0J-50000D01*
G01*
X112510000Y-103563000D01*
G75*
G02*
X112460000Y-103613000I-50000J0D01*
G01*
G37*
G36*
G01*
X112460000Y-100463000D02*
X111260000Y-100463000D01*
G75*
G02*
X111210000Y-100413000I0J50000D01*
G01*
X111210000Y-99213000D01*
G75*
G02*
X111260000Y-99163000I50000J0D01*
G01*
X112460000Y-99163000D01*
G75*
G02*
X112510000Y-99213000I0J-50000D01*
G01*
X112510000Y-100413000D01*
G75*
G02*
X112460000Y-100463000I-50000J0D01*
G01*
G37*
%TD*%
%TO.C,D29*%
X92820000Y-97488000D03*
G36*
G01*
X93620000Y-106138000D02*
X92020000Y-106138000D01*
G75*
G02*
X91970000Y-106088000I0J50000D01*
G01*
X91970000Y-104488000D01*
G75*
G02*
X92020000Y-104438000I50000J0D01*
G01*
X93620000Y-104438000D01*
G75*
G02*
X93670000Y-104488000I0J-50000D01*
G01*
X93670000Y-106088000D01*
G75*
G02*
X93620000Y-106138000I-50000J0D01*
G01*
G37*
G36*
G01*
X93420000Y-103613000D02*
X92220000Y-103613000D01*
G75*
G02*
X92170000Y-103563000I0J50000D01*
G01*
X92170000Y-102363000D01*
G75*
G02*
X92220000Y-102313000I50000J0D01*
G01*
X93420000Y-102313000D01*
G75*
G02*
X93470000Y-102363000I0J-50000D01*
G01*
X93470000Y-103563000D01*
G75*
G02*
X93420000Y-103613000I-50000J0D01*
G01*
G37*
G36*
G01*
X93420000Y-100463000D02*
X92220000Y-100463000D01*
G75*
G02*
X92170000Y-100413000I0J50000D01*
G01*
X92170000Y-99213000D01*
G75*
G02*
X92220000Y-99163000I50000J0D01*
G01*
X93420000Y-99163000D01*
G75*
G02*
X93470000Y-99213000I0J-50000D01*
G01*
X93470000Y-100413000D01*
G75*
G02*
X93420000Y-100463000I-50000J0D01*
G01*
G37*
%TD*%
%TO.C,D30*%
X73780000Y-97488000D03*
G36*
G01*
X74580000Y-106138000D02*
X72980000Y-106138000D01*
G75*
G02*
X72930000Y-106088000I0J50000D01*
G01*
X72930000Y-104488000D01*
G75*
G02*
X72980000Y-104438000I50000J0D01*
G01*
X74580000Y-104438000D01*
G75*
G02*
X74630000Y-104488000I0J-50000D01*
G01*
X74630000Y-106088000D01*
G75*
G02*
X74580000Y-106138000I-50000J0D01*
G01*
G37*
G36*
G01*
X74380000Y-103613000D02*
X73180000Y-103613000D01*
G75*
G02*
X73130000Y-103563000I0J50000D01*
G01*
X73130000Y-102363000D01*
G75*
G02*
X73180000Y-102313000I50000J0D01*
G01*
X74380000Y-102313000D01*
G75*
G02*
X74430000Y-102363000I0J-50000D01*
G01*
X74430000Y-103563000D01*
G75*
G02*
X74380000Y-103613000I-50000J0D01*
G01*
G37*
G36*
G01*
X74380000Y-100463000D02*
X73180000Y-100463000D01*
G75*
G02*
X73130000Y-100413000I0J50000D01*
G01*
X73130000Y-99213000D01*
G75*
G02*
X73180000Y-99163000I50000J0D01*
G01*
X74380000Y-99163000D01*
G75*
G02*
X74430000Y-99213000I0J-50000D01*
G01*
X74430000Y-100413000D01*
G75*
G02*
X74380000Y-100463000I-50000J0D01*
G01*
G37*
%TD*%
%TO.C,D31*%
X54740000Y-97488000D03*
G36*
G01*
X55540000Y-106138000D02*
X53940000Y-106138000D01*
G75*
G02*
X53890000Y-106088000I0J50000D01*
G01*
X53890000Y-104488000D01*
G75*
G02*
X53940000Y-104438000I50000J0D01*
G01*
X55540000Y-104438000D01*
G75*
G02*
X55590000Y-104488000I0J-50000D01*
G01*
X55590000Y-106088000D01*
G75*
G02*
X55540000Y-106138000I-50000J0D01*
G01*
G37*
G36*
G01*
X55340000Y-103613000D02*
X54140000Y-103613000D01*
G75*
G02*
X54090000Y-103563000I0J50000D01*
G01*
X54090000Y-102363000D01*
G75*
G02*
X54140000Y-102313000I50000J0D01*
G01*
X55340000Y-102313000D01*
G75*
G02*
X55390000Y-102363000I0J-50000D01*
G01*
X55390000Y-103563000D01*
G75*
G02*
X55340000Y-103613000I-50000J0D01*
G01*
G37*
G36*
G01*
X55340000Y-100463000D02*
X54140000Y-100463000D01*
G75*
G02*
X54090000Y-100413000I0J50000D01*
G01*
X54090000Y-99213000D01*
G75*
G02*
X54140000Y-99163000I50000J0D01*
G01*
X55340000Y-99163000D01*
G75*
G02*
X55390000Y-99213000I0J-50000D01*
G01*
X55390000Y-100413000D01*
G75*
G02*
X55340000Y-100463000I-50000J0D01*
G01*
G37*
%TD*%
%TO.C,D32*%
X37366000Y-97488000D03*
G36*
G01*
X38166000Y-106138000D02*
X36566000Y-106138000D01*
G75*
G02*
X36516000Y-106088000I0J50000D01*
G01*
X36516000Y-104488000D01*
G75*
G02*
X36566000Y-104438000I50000J0D01*
G01*
X38166000Y-104438000D01*
G75*
G02*
X38216000Y-104488000I0J-50000D01*
G01*
X38216000Y-106088000D01*
G75*
G02*
X38166000Y-106138000I-50000J0D01*
G01*
G37*
G36*
G01*
X37966000Y-103613000D02*
X36766000Y-103613000D01*
G75*
G02*
X36716000Y-103563000I0J50000D01*
G01*
X36716000Y-102363000D01*
G75*
G02*
X36766000Y-102313000I50000J0D01*
G01*
X37966000Y-102313000D01*
G75*
G02*
X38016000Y-102363000I0J-50000D01*
G01*
X38016000Y-103563000D01*
G75*
G02*
X37966000Y-103613000I-50000J0D01*
G01*
G37*
G36*
G01*
X37966000Y-100463000D02*
X36766000Y-100463000D01*
G75*
G02*
X36716000Y-100413000I0J50000D01*
G01*
X36716000Y-99213000D01*
G75*
G02*
X36766000Y-99163000I50000J0D01*
G01*
X37966000Y-99163000D01*
G75*
G02*
X38016000Y-99213000I0J-50000D01*
G01*
X38016000Y-100413000D01*
G75*
G02*
X37966000Y-100463000I-50000J0D01*
G01*
G37*
%TD*%
%TO.C,D33*%
X183260000Y-116528000D03*
G36*
G01*
X184060000Y-125178000D02*
X182460000Y-125178000D01*
G75*
G02*
X182410000Y-125128000I0J50000D01*
G01*
X182410000Y-123528000D01*
G75*
G02*
X182460000Y-123478000I50000J0D01*
G01*
X184060000Y-123478000D01*
G75*
G02*
X184110000Y-123528000I0J-50000D01*
G01*
X184110000Y-125128000D01*
G75*
G02*
X184060000Y-125178000I-50000J0D01*
G01*
G37*
G36*
G01*
X183860000Y-122653000D02*
X182660000Y-122653000D01*
G75*
G02*
X182610000Y-122603000I0J50000D01*
G01*
X182610000Y-121403000D01*
G75*
G02*
X182660000Y-121353000I50000J0D01*
G01*
X183860000Y-121353000D01*
G75*
G02*
X183910000Y-121403000I0J-50000D01*
G01*
X183910000Y-122603000D01*
G75*
G02*
X183860000Y-122653000I-50000J0D01*
G01*
G37*
G36*
G01*
X183860000Y-119503000D02*
X182660000Y-119503000D01*
G75*
G02*
X182610000Y-119453000I0J50000D01*
G01*
X182610000Y-118253000D01*
G75*
G02*
X182660000Y-118203000I50000J0D01*
G01*
X183860000Y-118203000D01*
G75*
G02*
X183910000Y-118253000I0J-50000D01*
G01*
X183910000Y-119453000D01*
G75*
G02*
X183860000Y-119503000I-50000J0D01*
G01*
G37*
%TD*%
%TO.C,D34*%
X164220000Y-116528000D03*
G36*
G01*
X165020000Y-125178000D02*
X163420000Y-125178000D01*
G75*
G02*
X163370000Y-125128000I0J50000D01*
G01*
X163370000Y-123528000D01*
G75*
G02*
X163420000Y-123478000I50000J0D01*
G01*
X165020000Y-123478000D01*
G75*
G02*
X165070000Y-123528000I0J-50000D01*
G01*
X165070000Y-125128000D01*
G75*
G02*
X165020000Y-125178000I-50000J0D01*
G01*
G37*
G36*
G01*
X164820000Y-122653000D02*
X163620000Y-122653000D01*
G75*
G02*
X163570000Y-122603000I0J50000D01*
G01*
X163570000Y-121403000D01*
G75*
G02*
X163620000Y-121353000I50000J0D01*
G01*
X164820000Y-121353000D01*
G75*
G02*
X164870000Y-121403000I0J-50000D01*
G01*
X164870000Y-122603000D01*
G75*
G02*
X164820000Y-122653000I-50000J0D01*
G01*
G37*
G36*
G01*
X164820000Y-119503000D02*
X163620000Y-119503000D01*
G75*
G02*
X163570000Y-119453000I0J50000D01*
G01*
X163570000Y-118253000D01*
G75*
G02*
X163620000Y-118203000I50000J0D01*
G01*
X164820000Y-118203000D01*
G75*
G02*
X164870000Y-118253000I0J-50000D01*
G01*
X164870000Y-119453000D01*
G75*
G02*
X164820000Y-119503000I-50000J0D01*
G01*
G37*
%TD*%
%TO.C,D35*%
X145180000Y-116528000D03*
G36*
G01*
X145980000Y-125178000D02*
X144380000Y-125178000D01*
G75*
G02*
X144330000Y-125128000I0J50000D01*
G01*
X144330000Y-123528000D01*
G75*
G02*
X144380000Y-123478000I50000J0D01*
G01*
X145980000Y-123478000D01*
G75*
G02*
X146030000Y-123528000I0J-50000D01*
G01*
X146030000Y-125128000D01*
G75*
G02*
X145980000Y-125178000I-50000J0D01*
G01*
G37*
G36*
G01*
X145780000Y-122653000D02*
X144580000Y-122653000D01*
G75*
G02*
X144530000Y-122603000I0J50000D01*
G01*
X144530000Y-121403000D01*
G75*
G02*
X144580000Y-121353000I50000J0D01*
G01*
X145780000Y-121353000D01*
G75*
G02*
X145830000Y-121403000I0J-50000D01*
G01*
X145830000Y-122603000D01*
G75*
G02*
X145780000Y-122653000I-50000J0D01*
G01*
G37*
G36*
G01*
X145780000Y-119503000D02*
X144580000Y-119503000D01*
G75*
G02*
X144530000Y-119453000I0J50000D01*
G01*
X144530000Y-118253000D01*
G75*
G02*
X144580000Y-118203000I50000J0D01*
G01*
X145780000Y-118203000D01*
G75*
G02*
X145830000Y-118253000I0J-50000D01*
G01*
X145830000Y-119453000D01*
G75*
G02*
X145780000Y-119503000I-50000J0D01*
G01*
G37*
%TD*%
%TO.C,D36*%
X111860000Y-116528000D03*
G36*
G01*
X112660000Y-125178000D02*
X111060000Y-125178000D01*
G75*
G02*
X111010000Y-125128000I0J50000D01*
G01*
X111010000Y-123528000D01*
G75*
G02*
X111060000Y-123478000I50000J0D01*
G01*
X112660000Y-123478000D01*
G75*
G02*
X112710000Y-123528000I0J-50000D01*
G01*
X112710000Y-125128000D01*
G75*
G02*
X112660000Y-125178000I-50000J0D01*
G01*
G37*
G36*
G01*
X112460000Y-122653000D02*
X111260000Y-122653000D01*
G75*
G02*
X111210000Y-122603000I0J50000D01*
G01*
X111210000Y-121403000D01*
G75*
G02*
X111260000Y-121353000I50000J0D01*
G01*
X112460000Y-121353000D01*
G75*
G02*
X112510000Y-121403000I0J-50000D01*
G01*
X112510000Y-122603000D01*
G75*
G02*
X112460000Y-122653000I-50000J0D01*
G01*
G37*
G36*
G01*
X112460000Y-119503000D02*
X111260000Y-119503000D01*
G75*
G02*
X111210000Y-119453000I0J50000D01*
G01*
X111210000Y-118253000D01*
G75*
G02*
X111260000Y-118203000I50000J0D01*
G01*
X112460000Y-118203000D01*
G75*
G02*
X112510000Y-118253000I0J-50000D01*
G01*
X112510000Y-119453000D01*
G75*
G02*
X112460000Y-119503000I-50000J0D01*
G01*
G37*
%TD*%
%TO.C,D37*%
X92820000Y-116528000D03*
G36*
G01*
X93620000Y-125178000D02*
X92020000Y-125178000D01*
G75*
G02*
X91970000Y-125128000I0J50000D01*
G01*
X91970000Y-123528000D01*
G75*
G02*
X92020000Y-123478000I50000J0D01*
G01*
X93620000Y-123478000D01*
G75*
G02*
X93670000Y-123528000I0J-50000D01*
G01*
X93670000Y-125128000D01*
G75*
G02*
X93620000Y-125178000I-50000J0D01*
G01*
G37*
G36*
G01*
X93420000Y-122653000D02*
X92220000Y-122653000D01*
G75*
G02*
X92170000Y-122603000I0J50000D01*
G01*
X92170000Y-121403000D01*
G75*
G02*
X92220000Y-121353000I50000J0D01*
G01*
X93420000Y-121353000D01*
G75*
G02*
X93470000Y-121403000I0J-50000D01*
G01*
X93470000Y-122603000D01*
G75*
G02*
X93420000Y-122653000I-50000J0D01*
G01*
G37*
G36*
G01*
X93420000Y-119503000D02*
X92220000Y-119503000D01*
G75*
G02*
X92170000Y-119453000I0J50000D01*
G01*
X92170000Y-118253000D01*
G75*
G02*
X92220000Y-118203000I50000J0D01*
G01*
X93420000Y-118203000D01*
G75*
G02*
X93470000Y-118253000I0J-50000D01*
G01*
X93470000Y-119453000D01*
G75*
G02*
X93420000Y-119503000I-50000J0D01*
G01*
G37*
%TD*%
%TO.C,D38*%
X73780000Y-116528000D03*
G36*
G01*
X74580000Y-125178000D02*
X72980000Y-125178000D01*
G75*
G02*
X72930000Y-125128000I0J50000D01*
G01*
X72930000Y-123528000D01*
G75*
G02*
X72980000Y-123478000I50000J0D01*
G01*
X74580000Y-123478000D01*
G75*
G02*
X74630000Y-123528000I0J-50000D01*
G01*
X74630000Y-125128000D01*
G75*
G02*
X74580000Y-125178000I-50000J0D01*
G01*
G37*
G36*
G01*
X74380000Y-122653000D02*
X73180000Y-122653000D01*
G75*
G02*
X73130000Y-122603000I0J50000D01*
G01*
X73130000Y-121403000D01*
G75*
G02*
X73180000Y-121353000I50000J0D01*
G01*
X74380000Y-121353000D01*
G75*
G02*
X74430000Y-121403000I0J-50000D01*
G01*
X74430000Y-122603000D01*
G75*
G02*
X74380000Y-122653000I-50000J0D01*
G01*
G37*
G36*
G01*
X74380000Y-119503000D02*
X73180000Y-119503000D01*
G75*
G02*
X73130000Y-119453000I0J50000D01*
G01*
X73130000Y-118253000D01*
G75*
G02*
X73180000Y-118203000I50000J0D01*
G01*
X74380000Y-118203000D01*
G75*
G02*
X74430000Y-118253000I0J-50000D01*
G01*
X74430000Y-119453000D01*
G75*
G02*
X74380000Y-119503000I-50000J0D01*
G01*
G37*
%TD*%
%TO.C,D39*%
X34034000Y-116290000D03*
G36*
G01*
X34834000Y-124940000D02*
X33234000Y-124940000D01*
G75*
G02*
X33184000Y-124890000I0J50000D01*
G01*
X33184000Y-123290000D01*
G75*
G02*
X33234000Y-123240000I50000J0D01*
G01*
X34834000Y-123240000D01*
G75*
G02*
X34884000Y-123290000I0J-50000D01*
G01*
X34884000Y-124890000D01*
G75*
G02*
X34834000Y-124940000I-50000J0D01*
G01*
G37*
G36*
G01*
X34634000Y-122415000D02*
X33434000Y-122415000D01*
G75*
G02*
X33384000Y-122365000I0J50000D01*
G01*
X33384000Y-121165000D01*
G75*
G02*
X33434000Y-121115000I50000J0D01*
G01*
X34634000Y-121115000D01*
G75*
G02*
X34684000Y-121165000I0J-50000D01*
G01*
X34684000Y-122365000D01*
G75*
G02*
X34634000Y-122415000I-50000J0D01*
G01*
G37*
G36*
G01*
X34634000Y-119265000D02*
X33434000Y-119265000D01*
G75*
G02*
X33384000Y-119215000I0J50000D01*
G01*
X33384000Y-118015000D01*
G75*
G02*
X33434000Y-117965000I50000J0D01*
G01*
X34634000Y-117965000D01*
G75*
G02*
X34684000Y-118015000I0J-50000D01*
G01*
X34684000Y-119215000D01*
G75*
G02*
X34634000Y-119265000I-50000J0D01*
G01*
G37*
%TD*%
%TO.C,D40*%
X27846000Y-78448000D03*
G36*
G01*
X28646000Y-87098000D02*
X27046000Y-87098000D01*
G75*
G02*
X26996000Y-87048000I0J50000D01*
G01*
X26996000Y-85448000D01*
G75*
G02*
X27046000Y-85398000I50000J0D01*
G01*
X28646000Y-85398000D01*
G75*
G02*
X28696000Y-85448000I0J-50000D01*
G01*
X28696000Y-87048000D01*
G75*
G02*
X28646000Y-87098000I-50000J0D01*
G01*
G37*
G36*
G01*
X28446000Y-84573000D02*
X27246000Y-84573000D01*
G75*
G02*
X27196000Y-84523000I0J50000D01*
G01*
X27196000Y-83323000D01*
G75*
G02*
X27246000Y-83273000I50000J0D01*
G01*
X28446000Y-83273000D01*
G75*
G02*
X28496000Y-83323000I0J-50000D01*
G01*
X28496000Y-84523000D01*
G75*
G02*
X28446000Y-84573000I-50000J0D01*
G01*
G37*
G36*
G01*
X28446000Y-81423000D02*
X27246000Y-81423000D01*
G75*
G02*
X27196000Y-81373000I0J50000D01*
G01*
X27196000Y-80173000D01*
G75*
G02*
X27246000Y-80123000I50000J0D01*
G01*
X28446000Y-80123000D01*
G75*
G02*
X28496000Y-80173000I0J-50000D01*
G01*
X28496000Y-81373000D01*
G75*
G02*
X28446000Y-81423000I-50000J0D01*
G01*
G37*
%TD*%
%TO.C,R1*%
X228956000Y-57504000D03*
G36*
G01*
X229756000Y-66154000D02*
X228156000Y-66154000D01*
G75*
G02*
X228106000Y-66104000I0J50000D01*
G01*
X228106000Y-64504000D01*
G75*
G02*
X228156000Y-64454000I50000J0D01*
G01*
X229756000Y-64454000D01*
G75*
G02*
X229806000Y-64504000I0J-50000D01*
G01*
X229806000Y-66104000D01*
G75*
G02*
X229756000Y-66154000I-50000J0D01*
G01*
G37*
%TD*%
%TO.C,R2*%
X232764000Y-57504000D03*
G36*
G01*
X233564000Y-66154000D02*
X231964000Y-66154000D01*
G75*
G02*
X231914000Y-66104000I0J50000D01*
G01*
X231914000Y-64504000D01*
G75*
G02*
X231964000Y-64454000I50000J0D01*
G01*
X233564000Y-64454000D01*
G75*
G02*
X233614000Y-64504000I0J-50000D01*
G01*
X233614000Y-66104000D01*
G75*
G02*
X233564000Y-66154000I-50000J0D01*
G01*
G37*
%TD*%
%TO.C,SW1*%
G36*
G01*
X183895000Y-38694000D02*
X183895000Y-36194000D01*
G75*
G02*
X183945000Y-36144000I50000J0D01*
G01*
X186495000Y-36144000D01*
G75*
G02*
X186545000Y-36194000I0J-50000D01*
G01*
X186545000Y-38694000D01*
G75*
G02*
X186495000Y-38744000I-50000J0D01*
G01*
X183945000Y-38744000D01*
G75*
G02*
X183895000Y-38694000I0J50000D01*
G01*
G37*
D10*
X187700000Y-39984000D03*
X197860000Y-39984000D03*
D11*
X192780000Y-39984000D03*
D12*
X188970000Y-37444000D03*
X195320000Y-34904000D03*
G36*
G01*
X197745000Y-36154000D02*
X197745000Y-33654000D01*
G75*
G02*
X197795000Y-33604000I50000J0D01*
G01*
X200345000Y-33604000D01*
G75*
G02*
X200395000Y-33654000I0J-50000D01*
G01*
X200395000Y-36154000D01*
G75*
G02*
X200345000Y-36204000I-50000J0D01*
G01*
X197795000Y-36204000D01*
G75*
G02*
X197745000Y-36154000I0J50000D01*
G01*
G37*
%TD*%
%TO.C,SW2*%
G36*
G01*
X155335000Y-38694000D02*
X155335000Y-36194000D01*
G75*
G02*
X155385000Y-36144000I50000J0D01*
G01*
X157935000Y-36144000D01*
G75*
G02*
X157985000Y-36194000I0J-50000D01*
G01*
X157985000Y-38694000D01*
G75*
G02*
X157935000Y-38744000I-50000J0D01*
G01*
X155385000Y-38744000D01*
G75*
G02*
X155335000Y-38694000I0J50000D01*
G01*
G37*
D10*
X159140000Y-39984000D03*
X169300000Y-39984000D03*
D11*
X164220000Y-39984000D03*
D12*
X160410000Y-37444000D03*
X166760000Y-34904000D03*
G36*
G01*
X169185000Y-36154000D02*
X169185000Y-33654000D01*
G75*
G02*
X169235000Y-33604000I50000J0D01*
G01*
X171785000Y-33604000D01*
G75*
G02*
X171835000Y-33654000I0J-50000D01*
G01*
X171835000Y-36154000D01*
G75*
G02*
X171785000Y-36204000I-50000J0D01*
G01*
X169235000Y-36204000D01*
G75*
G02*
X169185000Y-36154000I0J50000D01*
G01*
G37*
D11*
X176158000Y-48239000D03*
X152282000Y-48239000D03*
D13*
X176158000Y-32999000D03*
X152282000Y-32999000D03*
%TD*%
%TO.C,SW3*%
G36*
G01*
X126775000Y-38694000D02*
X126775000Y-36194000D01*
G75*
G02*
X126825000Y-36144000I50000J0D01*
G01*
X129375000Y-36144000D01*
G75*
G02*
X129425000Y-36194000I0J-50000D01*
G01*
X129425000Y-38694000D01*
G75*
G02*
X129375000Y-38744000I-50000J0D01*
G01*
X126825000Y-38744000D01*
G75*
G02*
X126775000Y-38694000I0J50000D01*
G01*
G37*
D10*
X130580000Y-39984000D03*
X140740000Y-39984000D03*
D11*
X135660000Y-39984000D03*
D12*
X131850000Y-37444000D03*
X138200000Y-34904000D03*
G36*
G01*
X140625000Y-36154000D02*
X140625000Y-33654000D01*
G75*
G02*
X140675000Y-33604000I50000J0D01*
G01*
X143225000Y-33604000D01*
G75*
G02*
X143275000Y-33654000I0J-50000D01*
G01*
X143275000Y-36154000D01*
G75*
G02*
X143225000Y-36204000I-50000J0D01*
G01*
X140675000Y-36204000D01*
G75*
G02*
X140625000Y-36154000I0J50000D01*
G01*
G37*
%TD*%
%TO.C,SW4*%
G36*
G01*
X107735000Y-38694000D02*
X107735000Y-36194000D01*
G75*
G02*
X107785000Y-36144000I50000J0D01*
G01*
X110335000Y-36144000D01*
G75*
G02*
X110385000Y-36194000I0J-50000D01*
G01*
X110385000Y-38694000D01*
G75*
G02*
X110335000Y-38744000I-50000J0D01*
G01*
X107785000Y-38744000D01*
G75*
G02*
X107735000Y-38694000I0J50000D01*
G01*
G37*
D10*
X111540000Y-39984000D03*
X121700000Y-39984000D03*
D11*
X116620000Y-39984000D03*
D12*
X112810000Y-37444000D03*
X119160000Y-34904000D03*
G36*
G01*
X121585000Y-36154000D02*
X121585000Y-33654000D01*
G75*
G02*
X121635000Y-33604000I50000J0D01*
G01*
X124185000Y-33604000D01*
G75*
G02*
X124235000Y-33654000I0J-50000D01*
G01*
X124235000Y-36154000D01*
G75*
G02*
X124185000Y-36204000I-50000J0D01*
G01*
X121635000Y-36204000D01*
G75*
G02*
X121585000Y-36154000I0J50000D01*
G01*
G37*
%TD*%
%TO.C,SW5*%
G36*
G01*
X88695000Y-38694000D02*
X88695000Y-36194000D01*
G75*
G02*
X88745000Y-36144000I50000J0D01*
G01*
X91295000Y-36144000D01*
G75*
G02*
X91345000Y-36194000I0J-50000D01*
G01*
X91345000Y-38694000D01*
G75*
G02*
X91295000Y-38744000I-50000J0D01*
G01*
X88745000Y-38744000D01*
G75*
G02*
X88695000Y-38694000I0J50000D01*
G01*
G37*
D10*
X92500000Y-39984000D03*
X102660000Y-39984000D03*
D11*
X97580000Y-39984000D03*
D12*
X93770000Y-37444000D03*
X100120000Y-34904000D03*
G36*
G01*
X102545000Y-36154000D02*
X102545000Y-33654000D01*
G75*
G02*
X102595000Y-33604000I50000J0D01*
G01*
X105145000Y-33604000D01*
G75*
G02*
X105195000Y-33654000I0J-50000D01*
G01*
X105195000Y-36154000D01*
G75*
G02*
X105145000Y-36204000I-50000J0D01*
G01*
X102595000Y-36204000D01*
G75*
G02*
X102545000Y-36154000I0J50000D01*
G01*
G37*
%TD*%
%TO.C,SW6*%
G36*
G01*
X69655000Y-38694000D02*
X69655000Y-36194000D01*
G75*
G02*
X69705000Y-36144000I50000J0D01*
G01*
X72255000Y-36144000D01*
G75*
G02*
X72305000Y-36194000I0J-50000D01*
G01*
X72305000Y-38694000D01*
G75*
G02*
X72255000Y-38744000I-50000J0D01*
G01*
X69705000Y-38744000D01*
G75*
G02*
X69655000Y-38694000I0J50000D01*
G01*
G37*
D10*
X73460000Y-39984000D03*
X83620000Y-39984000D03*
D11*
X78540000Y-39984000D03*
D12*
X74730000Y-37444000D03*
X81080000Y-34904000D03*
G36*
G01*
X83505000Y-36154000D02*
X83505000Y-33654000D01*
G75*
G02*
X83555000Y-33604000I50000J0D01*
G01*
X86105000Y-33604000D01*
G75*
G02*
X86155000Y-33654000I0J-50000D01*
G01*
X86155000Y-36154000D01*
G75*
G02*
X86105000Y-36204000I-50000J0D01*
G01*
X83555000Y-36204000D01*
G75*
G02*
X83505000Y-36154000I0J50000D01*
G01*
G37*
%TD*%
%TO.C,SW7*%
G36*
G01*
X50615000Y-38694000D02*
X50615000Y-36194000D01*
G75*
G02*
X50665000Y-36144000I50000J0D01*
G01*
X53215000Y-36144000D01*
G75*
G02*
X53265000Y-36194000I0J-50000D01*
G01*
X53265000Y-38694000D01*
G75*
G02*
X53215000Y-38744000I-50000J0D01*
G01*
X50665000Y-38744000D01*
G75*
G02*
X50615000Y-38694000I0J50000D01*
G01*
G37*
D10*
X54420000Y-39984000D03*
X64580000Y-39984000D03*
D11*
X59500000Y-39984000D03*
D12*
X55690000Y-37444000D03*
X62040000Y-34904000D03*
G36*
G01*
X64465000Y-36154000D02*
X64465000Y-33654000D01*
G75*
G02*
X64515000Y-33604000I50000J0D01*
G01*
X67065000Y-33604000D01*
G75*
G02*
X67115000Y-33654000I0J-50000D01*
G01*
X67115000Y-36154000D01*
G75*
G02*
X67065000Y-36204000I-50000J0D01*
G01*
X64515000Y-36204000D01*
G75*
G02*
X64465000Y-36154000I0J50000D01*
G01*
G37*
%TD*%
%TO.C,SW8*%
G36*
G01*
X31575000Y-38694000D02*
X31575000Y-36194000D01*
G75*
G02*
X31625000Y-36144000I50000J0D01*
G01*
X34175000Y-36144000D01*
G75*
G02*
X34225000Y-36194000I0J-50000D01*
G01*
X34225000Y-38694000D01*
G75*
G02*
X34175000Y-38744000I-50000J0D01*
G01*
X31625000Y-38744000D01*
G75*
G02*
X31575000Y-38694000I0J50000D01*
G01*
G37*
D10*
X35380000Y-39984000D03*
X45540000Y-39984000D03*
D11*
X40460000Y-39984000D03*
D12*
X36650000Y-37444000D03*
X43000000Y-34904000D03*
G36*
G01*
X45425000Y-36154000D02*
X45425000Y-33654000D01*
G75*
G02*
X45475000Y-33604000I50000J0D01*
G01*
X48025000Y-33604000D01*
G75*
G02*
X48075000Y-33654000I0J-50000D01*
G01*
X48075000Y-36154000D01*
G75*
G02*
X48025000Y-36204000I-50000J0D01*
G01*
X45475000Y-36204000D01*
G75*
G02*
X45425000Y-36154000I0J50000D01*
G01*
G37*
%TD*%
%TO.C,SW9*%
G36*
G01*
X183895000Y-57734000D02*
X183895000Y-55234000D01*
G75*
G02*
X183945000Y-55184000I50000J0D01*
G01*
X186495000Y-55184000D01*
G75*
G02*
X186545000Y-55234000I0J-50000D01*
G01*
X186545000Y-57734000D01*
G75*
G02*
X186495000Y-57784000I-50000J0D01*
G01*
X183945000Y-57784000D01*
G75*
G02*
X183895000Y-57734000I0J50000D01*
G01*
G37*
D10*
X187700000Y-59024000D03*
X197860000Y-59024000D03*
D11*
X192780000Y-59024000D03*
D12*
X188970000Y-56484000D03*
X195320000Y-53944000D03*
G36*
G01*
X197745000Y-55194000D02*
X197745000Y-52694000D01*
G75*
G02*
X197795000Y-52644000I50000J0D01*
G01*
X200345000Y-52644000D01*
G75*
G02*
X200395000Y-52694000I0J-50000D01*
G01*
X200395000Y-55194000D01*
G75*
G02*
X200345000Y-55244000I-50000J0D01*
G01*
X197795000Y-55244000D01*
G75*
G02*
X197745000Y-55194000I0J50000D01*
G01*
G37*
%TD*%
%TO.C,SW10*%
G36*
G01*
X136295000Y-57734000D02*
X136295000Y-55234000D01*
G75*
G02*
X136345000Y-55184000I50000J0D01*
G01*
X138895000Y-55184000D01*
G75*
G02*
X138945000Y-55234000I0J-50000D01*
G01*
X138945000Y-57734000D01*
G75*
G02*
X138895000Y-57784000I-50000J0D01*
G01*
X136345000Y-57784000D01*
G75*
G02*
X136295000Y-57734000I0J50000D01*
G01*
G37*
D10*
X140100000Y-59024000D03*
X150260000Y-59024000D03*
D11*
X145180000Y-59024000D03*
D12*
X141370000Y-56484000D03*
X147720000Y-53944000D03*
G36*
G01*
X150145000Y-55194000D02*
X150145000Y-52694000D01*
G75*
G02*
X150195000Y-52644000I50000J0D01*
G01*
X152745000Y-52644000D01*
G75*
G02*
X152795000Y-52694000I0J-50000D01*
G01*
X152795000Y-55194000D01*
G75*
G02*
X152745000Y-55244000I-50000J0D01*
G01*
X150195000Y-55244000D01*
G75*
G02*
X150145000Y-55194000I0J50000D01*
G01*
G37*
%TD*%
%TO.C,SW11*%
G36*
G01*
X117255000Y-57734000D02*
X117255000Y-55234000D01*
G75*
G02*
X117305000Y-55184000I50000J0D01*
G01*
X119855000Y-55184000D01*
G75*
G02*
X119905000Y-55234000I0J-50000D01*
G01*
X119905000Y-57734000D01*
G75*
G02*
X119855000Y-57784000I-50000J0D01*
G01*
X117305000Y-57784000D01*
G75*
G02*
X117255000Y-57734000I0J50000D01*
G01*
G37*
D10*
X121060000Y-59024000D03*
X131220000Y-59024000D03*
D11*
X126140000Y-59024000D03*
D12*
X122330000Y-56484000D03*
X128680000Y-53944000D03*
G36*
G01*
X131105000Y-55194000D02*
X131105000Y-52694000D01*
G75*
G02*
X131155000Y-52644000I50000J0D01*
G01*
X133705000Y-52644000D01*
G75*
G02*
X133755000Y-52694000I0J-50000D01*
G01*
X133755000Y-55194000D01*
G75*
G02*
X133705000Y-55244000I-50000J0D01*
G01*
X131155000Y-55244000D01*
G75*
G02*
X131105000Y-55194000I0J50000D01*
G01*
G37*
%TD*%
%TO.C,SW12*%
G36*
G01*
X98215000Y-57734000D02*
X98215000Y-55234000D01*
G75*
G02*
X98265000Y-55184000I50000J0D01*
G01*
X100815000Y-55184000D01*
G75*
G02*
X100865000Y-55234000I0J-50000D01*
G01*
X100865000Y-57734000D01*
G75*
G02*
X100815000Y-57784000I-50000J0D01*
G01*
X98265000Y-57784000D01*
G75*
G02*
X98215000Y-57734000I0J50000D01*
G01*
G37*
D10*
X102020000Y-59024000D03*
X112180000Y-59024000D03*
D11*
X107100000Y-59024000D03*
D12*
X103290000Y-56484000D03*
X109640000Y-53944000D03*
G36*
G01*
X112065000Y-55194000D02*
X112065000Y-52694000D01*
G75*
G02*
X112115000Y-52644000I50000J0D01*
G01*
X114665000Y-52644000D01*
G75*
G02*
X114715000Y-52694000I0J-50000D01*
G01*
X114715000Y-55194000D01*
G75*
G02*
X114665000Y-55244000I-50000J0D01*
G01*
X112115000Y-55244000D01*
G75*
G02*
X112065000Y-55194000I0J50000D01*
G01*
G37*
%TD*%
%TO.C,SW13*%
G36*
G01*
X79175000Y-57734000D02*
X79175000Y-55234000D01*
G75*
G02*
X79225000Y-55184000I50000J0D01*
G01*
X81775000Y-55184000D01*
G75*
G02*
X81825000Y-55234000I0J-50000D01*
G01*
X81825000Y-57734000D01*
G75*
G02*
X81775000Y-57784000I-50000J0D01*
G01*
X79225000Y-57784000D01*
G75*
G02*
X79175000Y-57734000I0J50000D01*
G01*
G37*
D10*
X82980000Y-59024000D03*
X93140000Y-59024000D03*
D11*
X88060000Y-59024000D03*
D12*
X84250000Y-56484000D03*
X90600000Y-53944000D03*
G36*
G01*
X93025000Y-55194000D02*
X93025000Y-52694000D01*
G75*
G02*
X93075000Y-52644000I50000J0D01*
G01*
X95625000Y-52644000D01*
G75*
G02*
X95675000Y-52694000I0J-50000D01*
G01*
X95675000Y-55194000D01*
G75*
G02*
X95625000Y-55244000I-50000J0D01*
G01*
X93075000Y-55244000D01*
G75*
G02*
X93025000Y-55194000I0J50000D01*
G01*
G37*
%TD*%
%TO.C,SW14*%
G36*
G01*
X60135000Y-57734000D02*
X60135000Y-55234000D01*
G75*
G02*
X60185000Y-55184000I50000J0D01*
G01*
X62735000Y-55184000D01*
G75*
G02*
X62785000Y-55234000I0J-50000D01*
G01*
X62785000Y-57734000D01*
G75*
G02*
X62735000Y-57784000I-50000J0D01*
G01*
X60185000Y-57784000D01*
G75*
G02*
X60135000Y-57734000I0J50000D01*
G01*
G37*
D10*
X63940000Y-59024000D03*
X74100000Y-59024000D03*
D11*
X69020000Y-59024000D03*
D12*
X65210000Y-56484000D03*
X71560000Y-53944000D03*
G36*
G01*
X73985000Y-55194000D02*
X73985000Y-52694000D01*
G75*
G02*
X74035000Y-52644000I50000J0D01*
G01*
X76585000Y-52644000D01*
G75*
G02*
X76635000Y-52694000I0J-50000D01*
G01*
X76635000Y-55194000D01*
G75*
G02*
X76585000Y-55244000I-50000J0D01*
G01*
X74035000Y-55244000D01*
G75*
G02*
X73985000Y-55194000I0J50000D01*
G01*
G37*
%TD*%
%TO.C,SW15*%
G36*
G01*
X41095000Y-57734000D02*
X41095000Y-55234000D01*
G75*
G02*
X41145000Y-55184000I50000J0D01*
G01*
X43695000Y-55184000D01*
G75*
G02*
X43745000Y-55234000I0J-50000D01*
G01*
X43745000Y-57734000D01*
G75*
G02*
X43695000Y-57784000I-50000J0D01*
G01*
X41145000Y-57784000D01*
G75*
G02*
X41095000Y-57734000I0J50000D01*
G01*
G37*
D10*
X44900000Y-59024000D03*
X55060000Y-59024000D03*
D11*
X49980000Y-59024000D03*
D12*
X46170000Y-56484000D03*
X52520000Y-53944000D03*
G36*
G01*
X54945000Y-55194000D02*
X54945000Y-52694000D01*
G75*
G02*
X54995000Y-52644000I50000J0D01*
G01*
X57545000Y-52644000D01*
G75*
G02*
X57595000Y-52694000I0J-50000D01*
G01*
X57595000Y-55194000D01*
G75*
G02*
X57545000Y-55244000I-50000J0D01*
G01*
X54995000Y-55244000D01*
G75*
G02*
X54945000Y-55194000I0J50000D01*
G01*
G37*
%TD*%
%TO.C,SW16*%
G36*
G01*
X22055000Y-57734000D02*
X22055000Y-55234000D01*
G75*
G02*
X22105000Y-55184000I50000J0D01*
G01*
X24655000Y-55184000D01*
G75*
G02*
X24705000Y-55234000I0J-50000D01*
G01*
X24705000Y-57734000D01*
G75*
G02*
X24655000Y-57784000I-50000J0D01*
G01*
X22105000Y-57784000D01*
G75*
G02*
X22055000Y-57734000I0J50000D01*
G01*
G37*
D10*
X25860000Y-59024000D03*
X36020000Y-59024000D03*
D11*
X30940000Y-59024000D03*
D12*
X27130000Y-56484000D03*
X33480000Y-53944000D03*
G36*
G01*
X35905000Y-55194000D02*
X35905000Y-52694000D01*
G75*
G02*
X35955000Y-52644000I50000J0D01*
G01*
X38505000Y-52644000D01*
G75*
G02*
X38555000Y-52694000I0J-50000D01*
G01*
X38555000Y-55194000D01*
G75*
G02*
X38505000Y-55244000I-50000J0D01*
G01*
X35955000Y-55244000D01*
G75*
G02*
X35905000Y-55194000I0J50000D01*
G01*
G37*
%TD*%
%TO.C,SW17*%
G36*
G01*
X183895000Y-76774000D02*
X183895000Y-74274000D01*
G75*
G02*
X183945000Y-74224000I50000J0D01*
G01*
X186495000Y-74224000D01*
G75*
G02*
X186545000Y-74274000I0J-50000D01*
G01*
X186545000Y-76774000D01*
G75*
G02*
X186495000Y-76824000I-50000J0D01*
G01*
X183945000Y-76824000D01*
G75*
G02*
X183895000Y-76774000I0J50000D01*
G01*
G37*
D10*
X187700000Y-78064000D03*
X197860000Y-78064000D03*
D11*
X192780000Y-78064000D03*
D12*
X188970000Y-75524000D03*
X195320000Y-72984000D03*
G36*
G01*
X197745000Y-74234000D02*
X197745000Y-71734000D01*
G75*
G02*
X197795000Y-71684000I50000J0D01*
G01*
X200345000Y-71684000D01*
G75*
G02*
X200395000Y-71734000I0J-50000D01*
G01*
X200395000Y-74234000D01*
G75*
G02*
X200345000Y-74284000I-50000J0D01*
G01*
X197795000Y-74284000D01*
G75*
G02*
X197745000Y-74234000I0J50000D01*
G01*
G37*
%TD*%
%TO.C,SW18*%
G36*
G01*
X162475000Y-67254000D02*
X162475000Y-64754000D01*
G75*
G02*
X162525000Y-64704000I50000J0D01*
G01*
X165075000Y-64704000D01*
G75*
G02*
X165125000Y-64754000I0J-50000D01*
G01*
X165125000Y-67254000D01*
G75*
G02*
X165075000Y-67304000I-50000J0D01*
G01*
X162525000Y-67304000D01*
G75*
G02*
X162475000Y-67254000I0J50000D01*
G01*
G37*
D10*
X166280000Y-68544000D03*
X176440000Y-68544000D03*
D11*
X171360000Y-68544000D03*
D12*
X167550000Y-66004000D03*
X173900000Y-63464000D03*
G36*
G01*
X176325000Y-64714000D02*
X176325000Y-62214000D01*
G75*
G02*
X176375000Y-62164000I50000J0D01*
G01*
X178925000Y-62164000D01*
G75*
G02*
X178975000Y-62214000I0J-50000D01*
G01*
X178975000Y-64714000D01*
G75*
G02*
X178925000Y-64764000I-50000J0D01*
G01*
X176375000Y-64764000D01*
G75*
G02*
X176325000Y-64714000I0J50000D01*
G01*
G37*
D11*
X179615000Y-56606000D03*
X179615000Y-80482000D03*
D13*
X164375000Y-56606000D03*
X164375000Y-80482000D03*
%TD*%
%TO.C,SW19*%
G36*
G01*
X141055000Y-76774000D02*
X141055000Y-74274000D01*
G75*
G02*
X141105000Y-74224000I50000J0D01*
G01*
X143655000Y-74224000D01*
G75*
G02*
X143705000Y-74274000I0J-50000D01*
G01*
X143705000Y-76774000D01*
G75*
G02*
X143655000Y-76824000I-50000J0D01*
G01*
X141105000Y-76824000D01*
G75*
G02*
X141055000Y-76774000I0J50000D01*
G01*
G37*
D10*
X144860000Y-78064000D03*
X155020000Y-78064000D03*
D11*
X149940000Y-78064000D03*
D12*
X146130000Y-75524000D03*
X152480000Y-72984000D03*
G36*
G01*
X154905000Y-74234000D02*
X154905000Y-71734000D01*
G75*
G02*
X154955000Y-71684000I50000J0D01*
G01*
X157505000Y-71684000D01*
G75*
G02*
X157555000Y-71734000I0J-50000D01*
G01*
X157555000Y-74234000D01*
G75*
G02*
X157505000Y-74284000I-50000J0D01*
G01*
X154955000Y-74284000D01*
G75*
G02*
X154905000Y-74234000I0J50000D01*
G01*
G37*
%TD*%
%TO.C,SW20*%
G36*
G01*
X122015000Y-76774000D02*
X122015000Y-74274000D01*
G75*
G02*
X122065000Y-74224000I50000J0D01*
G01*
X124615000Y-74224000D01*
G75*
G02*
X124665000Y-74274000I0J-50000D01*
G01*
X124665000Y-76774000D01*
G75*
G02*
X124615000Y-76824000I-50000J0D01*
G01*
X122065000Y-76824000D01*
G75*
G02*
X122015000Y-76774000I0J50000D01*
G01*
G37*
D10*
X125820000Y-78064000D03*
X135980000Y-78064000D03*
D11*
X130900000Y-78064000D03*
D12*
X127090000Y-75524000D03*
X133440000Y-72984000D03*
G36*
G01*
X135865000Y-74234000D02*
X135865000Y-71734000D01*
G75*
G02*
X135915000Y-71684000I50000J0D01*
G01*
X138465000Y-71684000D01*
G75*
G02*
X138515000Y-71734000I0J-50000D01*
G01*
X138515000Y-74234000D01*
G75*
G02*
X138465000Y-74284000I-50000J0D01*
G01*
X135915000Y-74284000D01*
G75*
G02*
X135865000Y-74234000I0J50000D01*
G01*
G37*
%TD*%
%TO.C,SW21*%
G36*
G01*
X102975000Y-76774000D02*
X102975000Y-74274000D01*
G75*
G02*
X103025000Y-74224000I50000J0D01*
G01*
X105575000Y-74224000D01*
G75*
G02*
X105625000Y-74274000I0J-50000D01*
G01*
X105625000Y-76774000D01*
G75*
G02*
X105575000Y-76824000I-50000J0D01*
G01*
X103025000Y-76824000D01*
G75*
G02*
X102975000Y-76774000I0J50000D01*
G01*
G37*
D10*
X106780000Y-78064000D03*
X116940000Y-78064000D03*
D11*
X111860000Y-78064000D03*
D12*
X108050000Y-75524000D03*
X114400000Y-72984000D03*
G36*
G01*
X116825000Y-74234000D02*
X116825000Y-71734000D01*
G75*
G02*
X116875000Y-71684000I50000J0D01*
G01*
X119425000Y-71684000D01*
G75*
G02*
X119475000Y-71734000I0J-50000D01*
G01*
X119475000Y-74234000D01*
G75*
G02*
X119425000Y-74284000I-50000J0D01*
G01*
X116875000Y-74284000D01*
G75*
G02*
X116825000Y-74234000I0J50000D01*
G01*
G37*
%TD*%
%TO.C,SW22*%
G36*
G01*
X83935000Y-76774000D02*
X83935000Y-74274000D01*
G75*
G02*
X83985000Y-74224000I50000J0D01*
G01*
X86535000Y-74224000D01*
G75*
G02*
X86585000Y-74274000I0J-50000D01*
G01*
X86585000Y-76774000D01*
G75*
G02*
X86535000Y-76824000I-50000J0D01*
G01*
X83985000Y-76824000D01*
G75*
G02*
X83935000Y-76774000I0J50000D01*
G01*
G37*
D10*
X87740000Y-78064000D03*
X97900000Y-78064000D03*
D11*
X92820000Y-78064000D03*
D12*
X89010000Y-75524000D03*
X95360000Y-72984000D03*
G36*
G01*
X97785000Y-74234000D02*
X97785000Y-71734000D01*
G75*
G02*
X97835000Y-71684000I50000J0D01*
G01*
X100385000Y-71684000D01*
G75*
G02*
X100435000Y-71734000I0J-50000D01*
G01*
X100435000Y-74234000D01*
G75*
G02*
X100385000Y-74284000I-50000J0D01*
G01*
X97835000Y-74284000D01*
G75*
G02*
X97785000Y-74234000I0J50000D01*
G01*
G37*
%TD*%
%TO.C,SW23*%
G36*
G01*
X64895000Y-76774000D02*
X64895000Y-74274000D01*
G75*
G02*
X64945000Y-74224000I50000J0D01*
G01*
X67495000Y-74224000D01*
G75*
G02*
X67545000Y-74274000I0J-50000D01*
G01*
X67545000Y-76774000D01*
G75*
G02*
X67495000Y-76824000I-50000J0D01*
G01*
X64945000Y-76824000D01*
G75*
G02*
X64895000Y-76774000I0J50000D01*
G01*
G37*
D10*
X68700000Y-78064000D03*
X78860000Y-78064000D03*
D11*
X73780000Y-78064000D03*
D12*
X69970000Y-75524000D03*
X76320000Y-72984000D03*
G36*
G01*
X78745000Y-74234000D02*
X78745000Y-71734000D01*
G75*
G02*
X78795000Y-71684000I50000J0D01*
G01*
X81345000Y-71684000D01*
G75*
G02*
X81395000Y-71734000I0J-50000D01*
G01*
X81395000Y-74234000D01*
G75*
G02*
X81345000Y-74284000I-50000J0D01*
G01*
X78795000Y-74284000D01*
G75*
G02*
X78745000Y-74234000I0J50000D01*
G01*
G37*
%TD*%
%TO.C,SW24*%
G36*
G01*
X45855000Y-76774000D02*
X45855000Y-74274000D01*
G75*
G02*
X45905000Y-74224000I50000J0D01*
G01*
X48455000Y-74224000D01*
G75*
G02*
X48505000Y-74274000I0J-50000D01*
G01*
X48505000Y-76774000D01*
G75*
G02*
X48455000Y-76824000I-50000J0D01*
G01*
X45905000Y-76824000D01*
G75*
G02*
X45855000Y-76774000I0J50000D01*
G01*
G37*
D10*
X49660000Y-78064000D03*
X59820000Y-78064000D03*
D11*
X54740000Y-78064000D03*
D12*
X50930000Y-75524000D03*
X57280000Y-72984000D03*
G36*
G01*
X59705000Y-74234000D02*
X59705000Y-71734000D01*
G75*
G02*
X59755000Y-71684000I50000J0D01*
G01*
X62305000Y-71684000D01*
G75*
G02*
X62355000Y-71734000I0J-50000D01*
G01*
X62355000Y-74234000D01*
G75*
G02*
X62305000Y-74284000I-50000J0D01*
G01*
X59755000Y-74284000D01*
G75*
G02*
X59705000Y-74234000I0J50000D01*
G01*
G37*
%TD*%
%TO.C,SW25*%
G36*
G01*
X183895000Y-95814000D02*
X183895000Y-93314000D01*
G75*
G02*
X183945000Y-93264000I50000J0D01*
G01*
X186495000Y-93264000D01*
G75*
G02*
X186545000Y-93314000I0J-50000D01*
G01*
X186545000Y-95814000D01*
G75*
G02*
X186495000Y-95864000I-50000J0D01*
G01*
X183945000Y-95864000D01*
G75*
G02*
X183895000Y-95814000I0J50000D01*
G01*
G37*
D10*
X187700000Y-97104000D03*
X197860000Y-97104000D03*
D11*
X192780000Y-97104000D03*
D12*
X188970000Y-94564000D03*
X195320000Y-92024000D03*
G36*
G01*
X197745000Y-93274000D02*
X197745000Y-90774000D01*
G75*
G02*
X197795000Y-90724000I50000J0D01*
G01*
X200345000Y-90724000D01*
G75*
G02*
X200395000Y-90774000I0J-50000D01*
G01*
X200395000Y-93274000D01*
G75*
G02*
X200345000Y-93324000I-50000J0D01*
G01*
X197795000Y-93324000D01*
G75*
G02*
X197745000Y-93274000I0J50000D01*
G01*
G37*
%TD*%
%TO.C,SW26*%
G36*
G01*
X164855000Y-95814000D02*
X164855000Y-93314000D01*
G75*
G02*
X164905000Y-93264000I50000J0D01*
G01*
X167455000Y-93264000D01*
G75*
G02*
X167505000Y-93314000I0J-50000D01*
G01*
X167505000Y-95814000D01*
G75*
G02*
X167455000Y-95864000I-50000J0D01*
G01*
X164905000Y-95864000D01*
G75*
G02*
X164855000Y-95814000I0J50000D01*
G01*
G37*
D10*
X168660000Y-97104000D03*
X178820000Y-97104000D03*
D11*
X173740000Y-97104000D03*
D12*
X169930000Y-94564000D03*
X176280000Y-92024000D03*
G36*
G01*
X178705000Y-93274000D02*
X178705000Y-90774000D01*
G75*
G02*
X178755000Y-90724000I50000J0D01*
G01*
X181305000Y-90724000D01*
G75*
G02*
X181355000Y-90774000I0J-50000D01*
G01*
X181355000Y-93274000D01*
G75*
G02*
X181305000Y-93324000I-50000J0D01*
G01*
X178755000Y-93324000D01*
G75*
G02*
X178705000Y-93274000I0J50000D01*
G01*
G37*
%TD*%
%TO.C,SW27*%
G36*
G01*
X138675000Y-95814000D02*
X138675000Y-93314000D01*
G75*
G02*
X138725000Y-93264000I50000J0D01*
G01*
X141275000Y-93264000D01*
G75*
G02*
X141325000Y-93314000I0J-50000D01*
G01*
X141325000Y-95814000D01*
G75*
G02*
X141275000Y-95864000I-50000J0D01*
G01*
X138725000Y-95864000D01*
G75*
G02*
X138675000Y-95814000I0J50000D01*
G01*
G37*
D10*
X142480000Y-97104000D03*
X152640000Y-97104000D03*
D11*
X147560000Y-97104000D03*
D12*
X143750000Y-94564000D03*
X150100000Y-92024000D03*
G36*
G01*
X152525000Y-93274000D02*
X152525000Y-90774000D01*
G75*
G02*
X152575000Y-90724000I50000J0D01*
G01*
X155125000Y-90724000D01*
G75*
G02*
X155175000Y-90774000I0J-50000D01*
G01*
X155175000Y-93274000D01*
G75*
G02*
X155125000Y-93324000I-50000J0D01*
G01*
X152575000Y-93324000D01*
G75*
G02*
X152525000Y-93274000I0J50000D01*
G01*
G37*
%TD*%
%TO.C,SW28*%
G36*
G01*
X112495000Y-95814000D02*
X112495000Y-93314000D01*
G75*
G02*
X112545000Y-93264000I50000J0D01*
G01*
X115095000Y-93264000D01*
G75*
G02*
X115145000Y-93314000I0J-50000D01*
G01*
X115145000Y-95814000D01*
G75*
G02*
X115095000Y-95864000I-50000J0D01*
G01*
X112545000Y-95864000D01*
G75*
G02*
X112495000Y-95814000I0J50000D01*
G01*
G37*
D10*
X116300000Y-97104000D03*
X126460000Y-97104000D03*
D11*
X121380000Y-97104000D03*
D12*
X117570000Y-94564000D03*
X123920000Y-92024000D03*
G36*
G01*
X126345000Y-93274000D02*
X126345000Y-90774000D01*
G75*
G02*
X126395000Y-90724000I50000J0D01*
G01*
X128945000Y-90724000D01*
G75*
G02*
X128995000Y-90774000I0J-50000D01*
G01*
X128995000Y-93274000D01*
G75*
G02*
X128945000Y-93324000I-50000J0D01*
G01*
X126395000Y-93324000D01*
G75*
G02*
X126345000Y-93274000I0J50000D01*
G01*
G37*
%TD*%
%TO.C,SW29*%
G36*
G01*
X93455000Y-95814000D02*
X93455000Y-93314000D01*
G75*
G02*
X93505000Y-93264000I50000J0D01*
G01*
X96055000Y-93264000D01*
G75*
G02*
X96105000Y-93314000I0J-50000D01*
G01*
X96105000Y-95814000D01*
G75*
G02*
X96055000Y-95864000I-50000J0D01*
G01*
X93505000Y-95864000D01*
G75*
G02*
X93455000Y-95814000I0J50000D01*
G01*
G37*
D10*
X97260000Y-97104000D03*
X107420000Y-97104000D03*
D11*
X102340000Y-97104000D03*
D12*
X98530000Y-94564000D03*
X104880000Y-92024000D03*
G36*
G01*
X107305000Y-93274000D02*
X107305000Y-90774000D01*
G75*
G02*
X107355000Y-90724000I50000J0D01*
G01*
X109905000Y-90724000D01*
G75*
G02*
X109955000Y-90774000I0J-50000D01*
G01*
X109955000Y-93274000D01*
G75*
G02*
X109905000Y-93324000I-50000J0D01*
G01*
X107355000Y-93324000D01*
G75*
G02*
X107305000Y-93274000I0J50000D01*
G01*
G37*
%TD*%
%TO.C,SW30*%
G36*
G01*
X74415000Y-95814000D02*
X74415000Y-93314000D01*
G75*
G02*
X74465000Y-93264000I50000J0D01*
G01*
X77015000Y-93264000D01*
G75*
G02*
X77065000Y-93314000I0J-50000D01*
G01*
X77065000Y-95814000D01*
G75*
G02*
X77015000Y-95864000I-50000J0D01*
G01*
X74465000Y-95864000D01*
G75*
G02*
X74415000Y-95814000I0J50000D01*
G01*
G37*
D10*
X78220000Y-97104000D03*
X88380000Y-97104000D03*
D11*
X83300000Y-97104000D03*
D12*
X79490000Y-94564000D03*
X85840000Y-92024000D03*
G36*
G01*
X88265000Y-93274000D02*
X88265000Y-90774000D01*
G75*
G02*
X88315000Y-90724000I50000J0D01*
G01*
X90865000Y-90724000D01*
G75*
G02*
X90915000Y-90774000I0J-50000D01*
G01*
X90915000Y-93274000D01*
G75*
G02*
X90865000Y-93324000I-50000J0D01*
G01*
X88315000Y-93324000D01*
G75*
G02*
X88265000Y-93274000I0J50000D01*
G01*
G37*
%TD*%
%TO.C,SW31*%
G36*
G01*
X55375000Y-95814000D02*
X55375000Y-93314000D01*
G75*
G02*
X55425000Y-93264000I50000J0D01*
G01*
X57975000Y-93264000D01*
G75*
G02*
X58025000Y-93314000I0J-50000D01*
G01*
X58025000Y-95814000D01*
G75*
G02*
X57975000Y-95864000I-50000J0D01*
G01*
X55425000Y-95864000D01*
G75*
G02*
X55375000Y-95814000I0J50000D01*
G01*
G37*
D10*
X59180000Y-97104000D03*
X69340000Y-97104000D03*
D11*
X64260000Y-97104000D03*
D12*
X60450000Y-94564000D03*
X66800000Y-92024000D03*
G36*
G01*
X69225000Y-93274000D02*
X69225000Y-90774000D01*
G75*
G02*
X69275000Y-90724000I50000J0D01*
G01*
X71825000Y-90724000D01*
G75*
G02*
X71875000Y-90774000I0J-50000D01*
G01*
X71875000Y-93274000D01*
G75*
G02*
X71825000Y-93324000I-50000J0D01*
G01*
X69275000Y-93324000D01*
G75*
G02*
X69225000Y-93274000I0J50000D01*
G01*
G37*
%TD*%
%TO.C,SW32*%
G36*
G01*
X36335000Y-95814000D02*
X36335000Y-93314000D01*
G75*
G02*
X36385000Y-93264000I50000J0D01*
G01*
X38935000Y-93264000D01*
G75*
G02*
X38985000Y-93314000I0J-50000D01*
G01*
X38985000Y-95814000D01*
G75*
G02*
X38935000Y-95864000I-50000J0D01*
G01*
X36385000Y-95864000D01*
G75*
G02*
X36335000Y-95814000I0J50000D01*
G01*
G37*
D10*
X40140000Y-97104000D03*
X50300000Y-97104000D03*
D11*
X45220000Y-97104000D03*
D12*
X41410000Y-94564000D03*
X47760000Y-92024000D03*
G36*
G01*
X50185000Y-93274000D02*
X50185000Y-90774000D01*
G75*
G02*
X50235000Y-90724000I50000J0D01*
G01*
X52785000Y-90724000D01*
G75*
G02*
X52835000Y-90774000I0J-50000D01*
G01*
X52835000Y-93274000D01*
G75*
G02*
X52785000Y-93324000I-50000J0D01*
G01*
X50235000Y-93324000D01*
G75*
G02*
X50185000Y-93274000I0J50000D01*
G01*
G37*
%TD*%
%TO.C,SW33*%
G36*
G01*
X183895000Y-114854000D02*
X183895000Y-112354000D01*
G75*
G02*
X183945000Y-112304000I50000J0D01*
G01*
X186495000Y-112304000D01*
G75*
G02*
X186545000Y-112354000I0J-50000D01*
G01*
X186545000Y-114854000D01*
G75*
G02*
X186495000Y-114904000I-50000J0D01*
G01*
X183945000Y-114904000D01*
G75*
G02*
X183895000Y-114854000I0J50000D01*
G01*
G37*
D10*
X187700000Y-116144000D03*
X197860000Y-116144000D03*
D11*
X192780000Y-116144000D03*
D12*
X188970000Y-113604000D03*
X195320000Y-111064000D03*
G36*
G01*
X197745000Y-112314000D02*
X197745000Y-109814000D01*
G75*
G02*
X197795000Y-109764000I50000J0D01*
G01*
X200345000Y-109764000D01*
G75*
G02*
X200395000Y-109814000I0J-50000D01*
G01*
X200395000Y-112314000D01*
G75*
G02*
X200345000Y-112364000I-50000J0D01*
G01*
X197795000Y-112364000D01*
G75*
G02*
X197745000Y-112314000I0J50000D01*
G01*
G37*
%TD*%
%TO.C,SW34*%
G36*
G01*
X164855000Y-114854000D02*
X164855000Y-112354000D01*
G75*
G02*
X164905000Y-112304000I50000J0D01*
G01*
X167455000Y-112304000D01*
G75*
G02*
X167505000Y-112354000I0J-50000D01*
G01*
X167505000Y-114854000D01*
G75*
G02*
X167455000Y-114904000I-50000J0D01*
G01*
X164905000Y-114904000D01*
G75*
G02*
X164855000Y-114854000I0J50000D01*
G01*
G37*
D10*
X168660000Y-116144000D03*
X178820000Y-116144000D03*
D11*
X173740000Y-116144000D03*
D12*
X169930000Y-113604000D03*
X176280000Y-111064000D03*
G36*
G01*
X178705000Y-112314000D02*
X178705000Y-109814000D01*
G75*
G02*
X178755000Y-109764000I50000J0D01*
G01*
X181305000Y-109764000D01*
G75*
G02*
X181355000Y-109814000I0J-50000D01*
G01*
X181355000Y-112314000D01*
G75*
G02*
X181305000Y-112364000I-50000J0D01*
G01*
X178755000Y-112364000D01*
G75*
G02*
X178705000Y-112314000I0J50000D01*
G01*
G37*
%TD*%
%TO.C,SW35*%
G36*
G01*
X145815000Y-114854000D02*
X145815000Y-112354000D01*
G75*
G02*
X145865000Y-112304000I50000J0D01*
G01*
X148415000Y-112304000D01*
G75*
G02*
X148465000Y-112354000I0J-50000D01*
G01*
X148465000Y-114854000D01*
G75*
G02*
X148415000Y-114904000I-50000J0D01*
G01*
X145865000Y-114904000D01*
G75*
G02*
X145815000Y-114854000I0J50000D01*
G01*
G37*
D10*
X149620000Y-116144000D03*
X159780000Y-116144000D03*
D11*
X154700000Y-116144000D03*
D12*
X150890000Y-113604000D03*
X157240000Y-111064000D03*
G36*
G01*
X159665000Y-112314000D02*
X159665000Y-109814000D01*
G75*
G02*
X159715000Y-109764000I50000J0D01*
G01*
X162265000Y-109764000D01*
G75*
G02*
X162315000Y-109814000I0J-50000D01*
G01*
X162315000Y-112314000D01*
G75*
G02*
X162265000Y-112364000I-50000J0D01*
G01*
X159715000Y-112364000D01*
G75*
G02*
X159665000Y-112314000I0J50000D01*
G01*
G37*
%TD*%
%TO.C,SW36*%
G36*
G01*
X112495000Y-114854000D02*
X112495000Y-112354000D01*
G75*
G02*
X112545000Y-112304000I50000J0D01*
G01*
X115095000Y-112304000D01*
G75*
G02*
X115145000Y-112354000I0J-50000D01*
G01*
X115145000Y-114854000D01*
G75*
G02*
X115095000Y-114904000I-50000J0D01*
G01*
X112545000Y-114904000D01*
G75*
G02*
X112495000Y-114854000I0J50000D01*
G01*
G37*
D10*
X116300000Y-116144000D03*
X126460000Y-116144000D03*
D11*
X121380000Y-116144000D03*
D12*
X117570000Y-113604000D03*
X123920000Y-111064000D03*
G36*
G01*
X126345000Y-112314000D02*
X126345000Y-109814000D01*
G75*
G02*
X126395000Y-109764000I50000J0D01*
G01*
X128945000Y-109764000D01*
G75*
G02*
X128995000Y-109814000I0J-50000D01*
G01*
X128995000Y-112314000D01*
G75*
G02*
X128945000Y-112364000I-50000J0D01*
G01*
X126395000Y-112364000D01*
G75*
G02*
X126345000Y-112314000I0J50000D01*
G01*
G37*
%TD*%
%TO.C,SW37*%
G36*
G01*
X93455000Y-114854000D02*
X93455000Y-112354000D01*
G75*
G02*
X93505000Y-112304000I50000J0D01*
G01*
X96055000Y-112304000D01*
G75*
G02*
X96105000Y-112354000I0J-50000D01*
G01*
X96105000Y-114854000D01*
G75*
G02*
X96055000Y-114904000I-50000J0D01*
G01*
X93505000Y-114904000D01*
G75*
G02*
X93455000Y-114854000I0J50000D01*
G01*
G37*
D10*
X97260000Y-116144000D03*
X107420000Y-116144000D03*
D11*
X102340000Y-116144000D03*
D12*
X98530000Y-113604000D03*
X104880000Y-111064000D03*
G36*
G01*
X107305000Y-112314000D02*
X107305000Y-109814000D01*
G75*
G02*
X107355000Y-109764000I50000J0D01*
G01*
X109905000Y-109764000D01*
G75*
G02*
X109955000Y-109814000I0J-50000D01*
G01*
X109955000Y-112314000D01*
G75*
G02*
X109905000Y-112364000I-50000J0D01*
G01*
X107355000Y-112364000D01*
G75*
G02*
X107305000Y-112314000I0J50000D01*
G01*
G37*
%TD*%
%TO.C,SW38*%
G36*
G01*
X74415000Y-114854000D02*
X74415000Y-112354000D01*
G75*
G02*
X74465000Y-112304000I50000J0D01*
G01*
X77015000Y-112304000D01*
G75*
G02*
X77065000Y-112354000I0J-50000D01*
G01*
X77065000Y-114854000D01*
G75*
G02*
X77015000Y-114904000I-50000J0D01*
G01*
X74465000Y-114904000D01*
G75*
G02*
X74415000Y-114854000I0J50000D01*
G01*
G37*
D10*
X78220000Y-116144000D03*
X88380000Y-116144000D03*
D11*
X83300000Y-116144000D03*
D12*
X79490000Y-113604000D03*
X85840000Y-111064000D03*
G36*
G01*
X88265000Y-112314000D02*
X88265000Y-109814000D01*
G75*
G02*
X88315000Y-109764000I50000J0D01*
G01*
X90865000Y-109764000D01*
G75*
G02*
X90915000Y-109814000I0J-50000D01*
G01*
X90915000Y-112314000D01*
G75*
G02*
X90865000Y-112364000I-50000J0D01*
G01*
X88315000Y-112364000D01*
G75*
G02*
X88265000Y-112314000I0J50000D01*
G01*
G37*
%TD*%
%TO.C,SW40*%
G36*
G01*
X26815000Y-76774000D02*
X26815000Y-74274000D01*
G75*
G02*
X26865000Y-74224000I50000J0D01*
G01*
X29415000Y-74224000D01*
G75*
G02*
X29465000Y-74274000I0J-50000D01*
G01*
X29465000Y-76774000D01*
G75*
G02*
X29415000Y-76824000I-50000J0D01*
G01*
X26865000Y-76824000D01*
G75*
G02*
X26815000Y-76774000I0J50000D01*
G01*
G37*
D10*
X30620000Y-78064000D03*
X40780000Y-78064000D03*
D11*
X35700000Y-78064000D03*
D12*
X31890000Y-75524000D03*
X38240000Y-72984000D03*
G36*
G01*
X40665000Y-74234000D02*
X40665000Y-71734000D01*
G75*
G02*
X40715000Y-71684000I50000J0D01*
G01*
X43265000Y-71684000D01*
G75*
G02*
X43315000Y-71734000I0J-50000D01*
G01*
X43315000Y-74234000D01*
G75*
G02*
X43265000Y-74284000I-50000J0D01*
G01*
X40715000Y-74284000D01*
G75*
G02*
X40665000Y-74234000I0J50000D01*
G01*
G37*
%TD*%
D19*
%TO.C,SW_41*%
X232764000Y-69578000D03*
X232764000Y-76078000D03*
%TD*%
D20*
%TO.C,U1*%
X224671000Y-34968000D03*
X209456000Y-37508000D03*
X209456000Y-34968000D03*
X211996000Y-40048000D03*
X209456000Y-40048000D03*
X209456000Y-42588000D03*
X209456000Y-45128000D03*
X209456000Y-47668000D03*
X214536000Y-40048000D03*
X217076000Y-40048000D03*
X209456000Y-50208000D03*
X209456000Y-52748000D03*
X209456000Y-55288000D03*
X209456000Y-57828000D03*
X209456000Y-60368000D03*
X209456000Y-62908000D03*
X209456000Y-70528000D03*
X209456000Y-75608000D03*
X209456000Y-78148000D03*
X209456000Y-73068000D03*
X209456000Y-80688000D03*
X209456000Y-67988000D03*
X224671000Y-37508000D03*
X224671000Y-40048000D03*
X224671000Y-45128000D03*
X222131000Y-40048000D03*
X224671000Y-42588000D03*
X224671000Y-47668000D03*
X224671000Y-50208000D03*
X224671000Y-52748000D03*
X224671000Y-57828000D03*
X224671000Y-60368000D03*
X224671000Y-55288000D03*
X224671000Y-62908000D03*
X224671000Y-70528000D03*
X224671000Y-67988000D03*
X224671000Y-75608000D03*
X224671000Y-73068000D03*
X224671000Y-78148000D03*
X224671000Y-80688000D03*
%TD*%
D18*
%TO.C,R3*%
X236572000Y-57504000D03*
G36*
G01*
X237372000Y-66154000D02*
X235772000Y-66154000D01*
G75*
G02*
X235722000Y-66104000I0J50000D01*
G01*
X235722000Y-64504000D01*
G75*
G02*
X235772000Y-64454000I50000J0D01*
G01*
X237372000Y-64454000D01*
G75*
G02*
X237422000Y-64504000I0J-50000D01*
G01*
X237422000Y-66104000D01*
G75*
G02*
X237372000Y-66154000I-50000J0D01*
G01*
G37*
%TD*%
M02*
