M48
; DRILL file {KiCad (5.1.7)-1} date 11/02/20 23:06:23
; FORMAT={-:-/ absolute / inch / decimal}
; #@! TF.CreationDate,2020-11-02T23:06:23+01:00
; #@! TF.GenerationSoftware,Kicad,Pcbnew,(5.1.7)-1
; #@! TF.FileFunction,NonPlated,1,2,NPTH
FMAT,2
INCH
T1C0.0472
T2C0.0670
T3C0.0866
T4C0.1181
T5C0.1200
T6C0.1570
T7C0.1851
%
G90
G05
T1
X9.1077Y-1.324
X9.1077Y-1.5996
T2
X4.3913Y-1.5742
X4.7913Y-1.5742
X1.9551Y-3.0734
X2.3551Y-3.0734
X3.0795Y-3.823
X3.4795Y-3.823
X1.8614Y-4.5726
X2.2614Y-4.5726
X5.6094Y-3.823
X6.0094Y-3.823
X4.0165Y-2.3238
X4.4165Y-2.3238
X3.2669Y-2.3238
X3.6669Y-2.3238
X1.7677Y-2.3238
X2.1677Y-2.3238
X6.2654Y-1.5742
X6.6654Y-1.5742
X7.3898Y-3.823
X7.7898Y-3.823
X4.9535Y-3.0734
X5.3535Y-3.0734
X3.6417Y-1.5742
X4.0417Y-1.5742
X1.0181Y-2.3238
X1.4181Y-2.3238
X2.8921Y-1.5742
X3.2921Y-1.5742
X1.2055Y-3.0734
X1.6055Y-3.0734
X4.5787Y-3.823
X4.9787Y-3.823
X4.2039Y-3.0734
X4.6039Y-3.0734
X2.1425Y-1.5742
X2.5425Y-1.5742
X1.3929Y-1.5742
X1.7929Y-1.5742
X3.8291Y-4.5726
X4.2291Y-4.5726
X3.8291Y-3.823
X4.2291Y-3.823
X5.8906Y-4.5726
X6.2906Y-4.5726
X7.3898Y-1.5742
X7.7898Y-1.5742
X6.5465Y-2.6986
X6.9465Y-2.6986
X3.0795Y-4.5726
X3.4795Y-4.5726
X2.7047Y-3.0734
X3.1047Y-3.0734
X7.3898Y-4.5726
X7.7898Y-4.5726
X4.5787Y-4.5726
X4.9787Y-4.5726
X7.3898Y-2.3238
X7.7898Y-2.3238
X6.6402Y-3.823
X7.0402Y-3.823
X1.5803Y-3.823
X1.9803Y-3.823
X3.4543Y-3.0734
X3.8543Y-3.0734
X4.7661Y-2.3238
X5.1661Y-2.3238
X7.3898Y-3.0734
X7.7898Y-3.0734
X5.5157Y-2.3238
X5.9157Y-2.3238
X6.6402Y-4.5726
X7.0402Y-4.5726
X5.7031Y-3.0734
X6.1031Y-3.0734
X2.3299Y-3.823
X2.7299Y-3.823
X5.1409Y-1.5742
X5.5409Y-1.5742
X2.5173Y-2.3238
X2.9173Y-2.3238
T3
X8.0864Y-1.3212
X9.3513Y-4.9287
X8.0864Y-4.9287
X9.3513Y-1.3212
T4
X4.8161Y-2.2238
X5.0661Y-2.1238
X7.4398Y-2.9734
X7.6898Y-2.8734
X5.5657Y-2.2238
X5.8157Y-2.1238
X6.6902Y-4.4726
X6.9402Y-4.3726
X5.7531Y-2.9734
X6.0031Y-2.8734
X2.3799Y-3.723
X2.6299Y-3.623
X5.1909Y-1.4742
X5.4409Y-1.3742
X2.5673Y-2.2238
X2.8173Y-2.1238
X4.4413Y-1.4742
X4.6913Y-1.3742
X2.0051Y-2.9734
X2.2551Y-2.8734
X3.1295Y-3.723
X3.3795Y-3.623
X1.9114Y-4.4726
X2.1614Y-4.3726
X5.6594Y-3.723
X5.9094Y-3.623
X4.0665Y-2.2238
X4.3165Y-2.1238
X3.3169Y-2.2238
X3.5669Y-2.1238
X1.8177Y-2.2238
X2.0677Y-2.1238
X6.3154Y-1.4742
X6.5654Y-1.3742
X7.4398Y-3.723
X7.6898Y-3.623
X5.0035Y-2.9734
X5.2535Y-2.8734
X3.6917Y-1.4742
X3.9417Y-1.3742
X1.0681Y-2.2238
X1.3181Y-2.1238
X2.9421Y-1.4742
X3.1921Y-1.3742
X1.2555Y-2.9734
X1.5055Y-2.8734
X4.6287Y-3.723
X4.8787Y-3.623
X4.2539Y-2.9734
X4.5039Y-2.8734
X2.1925Y-1.4742
X2.4425Y-1.3742
X1.4429Y-1.4742
X1.6929Y-1.3742
X3.8791Y-4.4726
X4.1291Y-4.3726
X3.8791Y-3.723
X4.1291Y-3.623
X5.9406Y-4.4726
X6.1906Y-4.3726
X7.4398Y-1.4742
X7.6898Y-1.3742
X6.5965Y-2.5986
X6.8465Y-2.4986
X3.1295Y-4.4726
X3.3795Y-4.3726
X2.7547Y-2.9734
X3.0047Y-2.8734
X7.4398Y-4.4726
X7.6898Y-4.3726
X4.6287Y-4.4726
X4.8787Y-4.3726
X7.4398Y-2.2238
X7.6898Y-2.1238
X6.6902Y-3.723
X6.9402Y-3.623
X1.6303Y-3.723
X1.8803Y-3.623
X3.5043Y-2.9734
X3.7543Y-2.8734
T5
X1.5914Y-4.2976
X5.9954Y-1.2992
X6.4715Y-2.2286
X6.4715Y-3.1686
X2.5314Y-4.2976
X6.9354Y-1.2992
T6
X1.9677Y-2.3238
X5.9954Y-1.8992
X6.4654Y-1.5742
X6.9354Y-1.8992
X7.5898Y-3.823
X5.1535Y-3.0734
X3.8417Y-1.5742
X1.2181Y-2.3238
X3.0921Y-1.5742
X1.4055Y-3.0734
X4.7787Y-3.823
X4.4039Y-3.0734
X2.3425Y-1.5742
X1.5929Y-1.5742
X4.0291Y-4.5726
X4.0291Y-3.823
X6.0906Y-4.5726
X7.5898Y-1.5742
X6.7465Y-2.6986
X7.0715Y-2.2286
X7.0715Y-3.1686
X3.2795Y-4.5726
X2.9047Y-3.0734
X7.5898Y-4.5726
X4.7787Y-4.5726
X7.5898Y-2.3238
X6.8402Y-3.823
X1.7803Y-3.823
X3.6543Y-3.0734
X4.9661Y-2.3238
X7.5898Y-3.0734
X5.7157Y-2.3238
X6.8402Y-4.5726
X5.9031Y-3.0734
X2.5299Y-3.823
X5.3409Y-1.5742
X2.7173Y-2.3238
X4.5913Y-1.5742
X2.1551Y-3.0734
X3.2795Y-3.823
X1.5914Y-4.8976
X2.0614Y-4.5726
X2.5314Y-4.8976
X5.8094Y-3.823
X4.2165Y-2.3238
X3.4669Y-2.3238
T7
X6.1468Y-2.2676
X6.3154Y-3.6824
X2.8579Y-4.3102
X2.3425Y-1.9677
T0
M30
