%TF.GenerationSoftware,KiCad,Pcbnew,(5.1.7)-1*%
%TF.CreationDate,2021-06-20T13:46:17+02:00*%
%TF.ProjectId,Split65Left,53706c69-7436-4354-9c65-66742e6b6963,rev?*%
%TF.SameCoordinates,Original*%
%TF.FileFunction,Profile,NP*%
%FSLAX46Y46*%
G04 Gerber Fmt 4.6, Leading zero omitted, Abs format (unit mm)*
G04 Created by KiCad (PCBNEW (5.1.7)-1) date 2021-06-20 13:46:17*
%MOMM*%
%LPD*%
G01*
G04 APERTURE LIST*
%TA.AperFunction,Profile*%
%ADD10C,0.050000*%
%TD*%
G04 APERTURE END LIST*
D10*
X195932000Y-61330000D02*
G75*
G02*
X195218000Y-62044000I-714000J0D01*
G01*
X190458000Y-81084000D02*
G75*
G02*
X191172000Y-81798000I0J-714000D01*
G01*
X199978000Y-100124000D02*
G75*
G02*
X200692000Y-100838000I0J-714000D01*
G01*
X200692000Y-118450000D02*
G75*
G02*
X199978000Y-119164000I-714000J0D01*
G01*
X191172000Y-140108000D02*
G75*
G02*
X190458000Y-140822000I-714000J0D01*
G01*
X24810000Y-140822000D02*
G75*
G02*
X24096000Y-140108000I0J714000D01*
G01*
X24096000Y-43718000D02*
G75*
G02*
X24810000Y-43004000I714000J0D01*
G01*
X195218000Y-43004000D02*
G75*
G02*
X195932000Y-43718000I0J-714000D01*
G01*
X24810000Y-140822000D02*
X190458000Y-140822000D01*
X24096000Y-43718000D02*
X24096000Y-140108000D01*
X191172000Y-138204000D02*
X191172000Y-140108000D01*
X191172000Y-137490000D02*
X191172000Y-138204000D01*
X191172000Y-119164000D02*
X191172000Y-137490000D01*
X199978000Y-119164000D02*
X191172000Y-119164000D01*
X200692000Y-100838000D02*
X200692000Y-118450000D01*
X191172000Y-100124000D02*
X199978000Y-100124000D01*
X191172000Y-81798000D02*
X191172000Y-100124000D01*
X186412000Y-81084000D02*
X190458000Y-81084000D01*
X186412000Y-62044000D02*
X186412000Y-81084000D01*
X195218000Y-62044000D02*
X186412000Y-62044000D01*
X195932000Y-43718000D02*
X195932000Y-61330000D01*
X195218000Y-43004000D02*
X24810000Y-43004000D01*
M02*
