%TF.GenerationSoftware,KiCad,Pcbnew,(5.1.7)-1*%
%TF.CreationDate,2020-11-02T22:52:20+01:00*%
%TF.ProjectId,Split65Left,53706c69-7436-4354-9c65-66742e6b6963,rev?*%
%TF.SameCoordinates,Original*%
%TF.FileFunction,Legend,Top*%
%TF.FilePolarity,Positive*%
%FSLAX46Y46*%
G04 Gerber Fmt 4.6, Leading zero omitted, Abs format (unit mm)*
G04 Created by KiCad (PCBNEW (5.1.7)-1) date 2020-11-02 22:52:20*
%MOMM*%
%LPD*%
G01*
G04 APERTURE LIST*
%ADD10C,0.150000*%
%ADD11C,0.200000*%
G04 APERTURE END LIST*
D10*
%TO.C,SW30*%
X157986000Y-122680000D02*
X157986000Y-121680000D01*
X157986000Y-135680000D02*
X158986000Y-135680000D01*
X158986000Y-121680000D02*
X157986000Y-121680000D01*
X157986000Y-135680000D02*
X157986000Y-134680000D01*
X171986000Y-134680000D02*
X171986000Y-135680000D01*
X171986000Y-121680000D02*
X170986000Y-121680000D01*
X170986000Y-135680000D02*
X171986000Y-135680000D01*
X171986000Y-121680000D02*
X171986000Y-122680000D01*
%TO.C,SW29*%
X119906000Y-122684000D02*
X119906000Y-121684000D01*
X119906000Y-135684000D02*
X120906000Y-135684000D01*
X120906000Y-121684000D02*
X119906000Y-121684000D01*
X119906000Y-135684000D02*
X119906000Y-134684000D01*
X133906000Y-134684000D02*
X133906000Y-135684000D01*
X133906000Y-121684000D02*
X132906000Y-121684000D01*
X132906000Y-135684000D02*
X133906000Y-135684000D01*
X133906000Y-121684000D02*
X133906000Y-122684000D01*
%TO.C,SW28*%
X96112000Y-122684000D02*
X96112000Y-121684000D01*
X96112000Y-135684000D02*
X97112000Y-135684000D01*
X97112000Y-121684000D02*
X96112000Y-121684000D01*
X96112000Y-135684000D02*
X96112000Y-134684000D01*
X110112000Y-134684000D02*
X110112000Y-135684000D01*
X110112000Y-121684000D02*
X109112000Y-121684000D01*
X109112000Y-135684000D02*
X110112000Y-135684000D01*
X110112000Y-121684000D02*
X110112000Y-122684000D01*
%TO.C,SW27*%
X72312000Y-122684000D02*
X72312000Y-121684000D01*
X72312000Y-135684000D02*
X73312000Y-135684000D01*
X73312000Y-121684000D02*
X72312000Y-121684000D01*
X72312000Y-135684000D02*
X72312000Y-134684000D01*
X86312000Y-134684000D02*
X86312000Y-135684000D01*
X86312000Y-121684000D02*
X85312000Y-121684000D01*
X85312000Y-135684000D02*
X86312000Y-135684000D01*
X86312000Y-121684000D02*
X86312000Y-122684000D01*
%TO.C,SW26*%
X198172000Y-102644000D02*
X198172000Y-103644000D01*
X197172000Y-116644000D02*
X198172000Y-116644000D01*
X198172000Y-102644000D02*
X197172000Y-102644000D01*
X198172000Y-115644000D02*
X198172000Y-116644000D01*
X184172000Y-116644000D02*
X184172000Y-115644000D01*
X185172000Y-102644000D02*
X184172000Y-102644000D01*
X184172000Y-116644000D02*
X185172000Y-116644000D01*
X184172000Y-103644000D02*
X184172000Y-102644000D01*
%TO.C,SW25*%
X179132000Y-102644000D02*
X179132000Y-103644000D01*
X178132000Y-116644000D02*
X179132000Y-116644000D01*
X179132000Y-102644000D02*
X178132000Y-102644000D01*
X179132000Y-115644000D02*
X179132000Y-116644000D01*
X165132000Y-116644000D02*
X165132000Y-115644000D01*
X166132000Y-102644000D02*
X165132000Y-102644000D01*
X165132000Y-116644000D02*
X166132000Y-116644000D01*
X165132000Y-103644000D02*
X165132000Y-102644000D01*
%TO.C,SW24*%
X160092000Y-102644000D02*
X160092000Y-103644000D01*
X159092000Y-116644000D02*
X160092000Y-116644000D01*
X160092000Y-102644000D02*
X159092000Y-102644000D01*
X160092000Y-115644000D02*
X160092000Y-116644000D01*
X146092000Y-116644000D02*
X146092000Y-115644000D01*
X147092000Y-102644000D02*
X146092000Y-102644000D01*
X146092000Y-116644000D02*
X147092000Y-116644000D01*
X146092000Y-103644000D02*
X146092000Y-102644000D01*
%TO.C,SW23*%
X141052000Y-102644000D02*
X141052000Y-103644000D01*
X140052000Y-116644000D02*
X141052000Y-116644000D01*
X141052000Y-102644000D02*
X140052000Y-102644000D01*
X141052000Y-115644000D02*
X141052000Y-116644000D01*
X127052000Y-116644000D02*
X127052000Y-115644000D01*
X128052000Y-102644000D02*
X127052000Y-102644000D01*
X127052000Y-116644000D02*
X128052000Y-116644000D01*
X127052000Y-103644000D02*
X127052000Y-102644000D01*
%TO.C,SW22*%
X122012000Y-102644000D02*
X122012000Y-103644000D01*
X121012000Y-116644000D02*
X122012000Y-116644000D01*
X122012000Y-102644000D02*
X121012000Y-102644000D01*
X122012000Y-115644000D02*
X122012000Y-116644000D01*
X108012000Y-116644000D02*
X108012000Y-115644000D01*
X109012000Y-102644000D02*
X108012000Y-102644000D01*
X108012000Y-116644000D02*
X109012000Y-116644000D01*
X108012000Y-103644000D02*
X108012000Y-102644000D01*
%TO.C,SW21*%
X102972000Y-102644000D02*
X102972000Y-103644000D01*
X101972000Y-116644000D02*
X102972000Y-116644000D01*
X102972000Y-102644000D02*
X101972000Y-102644000D01*
X102972000Y-115644000D02*
X102972000Y-116644000D01*
X88972000Y-116644000D02*
X88972000Y-115644000D01*
X89972000Y-102644000D02*
X88972000Y-102644000D01*
X88972000Y-116644000D02*
X89972000Y-116644000D01*
X88972000Y-103644000D02*
X88972000Y-102644000D01*
%TO.C,SW20*%
X67552000Y-103644000D02*
X67552000Y-102644000D01*
X67552000Y-116644000D02*
X68552000Y-116644000D01*
X68552000Y-102644000D02*
X67552000Y-102644000D01*
X67552000Y-116644000D02*
X67552000Y-115644000D01*
X81552000Y-115644000D02*
X81552000Y-116644000D01*
X81552000Y-102644000D02*
X80552000Y-102644000D01*
X80552000Y-116644000D02*
X81552000Y-116644000D01*
X81552000Y-102644000D02*
X81552000Y-103644000D01*
%TO.C,SW19*%
X188652000Y-83604000D02*
X188652000Y-84604000D01*
X187652000Y-97604000D02*
X188652000Y-97604000D01*
X188652000Y-83604000D02*
X187652000Y-83604000D01*
X188652000Y-96604000D02*
X188652000Y-97604000D01*
X174652000Y-97604000D02*
X174652000Y-96604000D01*
X175652000Y-83604000D02*
X174652000Y-83604000D01*
X174652000Y-97604000D02*
X175652000Y-97604000D01*
X174652000Y-84604000D02*
X174652000Y-83604000D01*
%TO.C,SW18*%
X169612000Y-83604000D02*
X169612000Y-84604000D01*
X168612000Y-97604000D02*
X169612000Y-97604000D01*
X169612000Y-83604000D02*
X168612000Y-83604000D01*
X169612000Y-96604000D02*
X169612000Y-97604000D01*
X155612000Y-97604000D02*
X155612000Y-96604000D01*
X156612000Y-83604000D02*
X155612000Y-83604000D01*
X155612000Y-97604000D02*
X156612000Y-97604000D01*
X155612000Y-84604000D02*
X155612000Y-83604000D01*
%TO.C,SW17*%
X150572000Y-83604000D02*
X150572000Y-84604000D01*
X149572000Y-97604000D02*
X150572000Y-97604000D01*
X150572000Y-83604000D02*
X149572000Y-83604000D01*
X150572000Y-96604000D02*
X150572000Y-97604000D01*
X136572000Y-97604000D02*
X136572000Y-96604000D01*
X137572000Y-83604000D02*
X136572000Y-83604000D01*
X136572000Y-97604000D02*
X137572000Y-97604000D01*
X136572000Y-84604000D02*
X136572000Y-83604000D01*
%TO.C,SW14*%
X86312000Y-83604000D02*
X86312000Y-84604000D01*
X85312000Y-97604000D02*
X86312000Y-97604000D01*
X86312000Y-83604000D02*
X85312000Y-83604000D01*
X86312000Y-96604000D02*
X86312000Y-97604000D01*
X72312000Y-97604000D02*
X72312000Y-96604000D01*
X73312000Y-83604000D02*
X72312000Y-83604000D01*
X72312000Y-97604000D02*
X73312000Y-97604000D01*
X72312000Y-84604000D02*
X72312000Y-83604000D01*
%TO.C,SW13*%
X183892000Y-64564000D02*
X183892000Y-65564000D01*
X182892000Y-78564000D02*
X183892000Y-78564000D01*
X183892000Y-64564000D02*
X182892000Y-64564000D01*
X183892000Y-77564000D02*
X183892000Y-78564000D01*
X169892000Y-78564000D02*
X169892000Y-77564000D01*
X170892000Y-64564000D02*
X169892000Y-64564000D01*
X169892000Y-78564000D02*
X170892000Y-78564000D01*
X169892000Y-65564000D02*
X169892000Y-64564000D01*
%TO.C,SW12*%
X164852000Y-64564000D02*
X164852000Y-65564000D01*
X163852000Y-78564000D02*
X164852000Y-78564000D01*
X164852000Y-64564000D02*
X163852000Y-64564000D01*
X164852000Y-77564000D02*
X164852000Y-78564000D01*
X150852000Y-78564000D02*
X150852000Y-77564000D01*
X151852000Y-64564000D02*
X150852000Y-64564000D01*
X150852000Y-78564000D02*
X151852000Y-78564000D01*
X150852000Y-65564000D02*
X150852000Y-64564000D01*
%TO.C,SW7*%
X193412000Y-45524000D02*
X193412000Y-46524000D01*
X192412000Y-59524000D02*
X193412000Y-59524000D01*
X193412000Y-45524000D02*
X192412000Y-45524000D01*
X193412000Y-58524000D02*
X193412000Y-59524000D01*
X179412000Y-59524000D02*
X179412000Y-58524000D01*
X180412000Y-45524000D02*
X179412000Y-45524000D01*
X179412000Y-59524000D02*
X180412000Y-59524000D01*
X179412000Y-46524000D02*
X179412000Y-45524000D01*
%TO.C,SW11*%
X145812000Y-64564000D02*
X145812000Y-65564000D01*
X144812000Y-78564000D02*
X145812000Y-78564000D01*
X145812000Y-64564000D02*
X144812000Y-64564000D01*
X145812000Y-77564000D02*
X145812000Y-78564000D01*
X131812000Y-78564000D02*
X131812000Y-77564000D01*
X132812000Y-64564000D02*
X131812000Y-64564000D01*
X131812000Y-78564000D02*
X132812000Y-78564000D01*
X131812000Y-65564000D02*
X131812000Y-64564000D01*
%TO.C,SW10*%
X126772000Y-64564000D02*
X126772000Y-65564000D01*
X125772000Y-78564000D02*
X126772000Y-78564000D01*
X126772000Y-64564000D02*
X125772000Y-64564000D01*
X126772000Y-77564000D02*
X126772000Y-78564000D01*
X112772000Y-78564000D02*
X112772000Y-77564000D01*
X113772000Y-64564000D02*
X112772000Y-64564000D01*
X112772000Y-78564000D02*
X113772000Y-78564000D01*
X112772000Y-65564000D02*
X112772000Y-64564000D01*
%TO.C,SW9*%
X107732000Y-64564000D02*
X107732000Y-65564000D01*
X106732000Y-78564000D02*
X107732000Y-78564000D01*
X107732000Y-64564000D02*
X106732000Y-64564000D01*
X107732000Y-77564000D02*
X107732000Y-78564000D01*
X93732000Y-78564000D02*
X93732000Y-77564000D01*
X94732000Y-64564000D02*
X93732000Y-64564000D01*
X93732000Y-78564000D02*
X94732000Y-78564000D01*
X93732000Y-65564000D02*
X93732000Y-64564000D01*
%TO.C,SW16*%
X131532000Y-83604000D02*
X131532000Y-84604000D01*
X130532000Y-97604000D02*
X131532000Y-97604000D01*
X131532000Y-83604000D02*
X130532000Y-83604000D01*
X131532000Y-96604000D02*
X131532000Y-97604000D01*
X117532000Y-97604000D02*
X117532000Y-96604000D01*
X118532000Y-83604000D02*
X117532000Y-83604000D01*
X117532000Y-97604000D02*
X118532000Y-97604000D01*
X117532000Y-84604000D02*
X117532000Y-83604000D01*
%TO.C,SW15*%
X112492000Y-83604000D02*
X112492000Y-84604000D01*
X111492000Y-97604000D02*
X112492000Y-97604000D01*
X112492000Y-83604000D02*
X111492000Y-83604000D01*
X112492000Y-96604000D02*
X112492000Y-97604000D01*
X98492000Y-97604000D02*
X98492000Y-96604000D01*
X99492000Y-83604000D02*
X98492000Y-83604000D01*
X98492000Y-97604000D02*
X99492000Y-97604000D01*
X98492000Y-84604000D02*
X98492000Y-83604000D01*
%TO.C,SW8*%
X69932000Y-65564000D02*
X69932000Y-64564000D01*
X69932000Y-78564000D02*
X70932000Y-78564000D01*
X70932000Y-64564000D02*
X69932000Y-64564000D01*
X69932000Y-78564000D02*
X69932000Y-77564000D01*
X83932000Y-77564000D02*
X83932000Y-78564000D01*
X83932000Y-64564000D02*
X82932000Y-64564000D01*
X82932000Y-78564000D02*
X83932000Y-78564000D01*
X83932000Y-64564000D02*
X83932000Y-65564000D01*
%TO.C,SW6*%
X174372000Y-45524000D02*
X174372000Y-46524000D01*
X173372000Y-59524000D02*
X174372000Y-59524000D01*
X174372000Y-45524000D02*
X173372000Y-45524000D01*
X174372000Y-58524000D02*
X174372000Y-59524000D01*
X160372000Y-59524000D02*
X160372000Y-58524000D01*
X161372000Y-45524000D02*
X160372000Y-45524000D01*
X160372000Y-59524000D02*
X161372000Y-59524000D01*
X160372000Y-46524000D02*
X160372000Y-45524000D01*
%TO.C,SW5*%
X155332000Y-45524000D02*
X155332000Y-46524000D01*
X154332000Y-59524000D02*
X155332000Y-59524000D01*
X155332000Y-45524000D02*
X154332000Y-45524000D01*
X155332000Y-58524000D02*
X155332000Y-59524000D01*
X141332000Y-59524000D02*
X141332000Y-58524000D01*
X142332000Y-45524000D02*
X141332000Y-45524000D01*
X141332000Y-59524000D02*
X142332000Y-59524000D01*
X141332000Y-46524000D02*
X141332000Y-45524000D01*
%TO.C,SW4*%
X136292000Y-45524000D02*
X136292000Y-46524000D01*
X135292000Y-59524000D02*
X136292000Y-59524000D01*
X136292000Y-45524000D02*
X135292000Y-45524000D01*
X136292000Y-58524000D02*
X136292000Y-59524000D01*
X122292000Y-59524000D02*
X122292000Y-58524000D01*
X123292000Y-45524000D02*
X122292000Y-45524000D01*
X122292000Y-59524000D02*
X123292000Y-59524000D01*
X122292000Y-46524000D02*
X122292000Y-45524000D01*
%TO.C,SW3*%
X117252000Y-45524000D02*
X117252000Y-46524000D01*
X116252000Y-59524000D02*
X117252000Y-59524000D01*
X117252000Y-45524000D02*
X116252000Y-45524000D01*
X117252000Y-58524000D02*
X117252000Y-59524000D01*
X103252000Y-59524000D02*
X103252000Y-58524000D01*
X104252000Y-45524000D02*
X103252000Y-45524000D01*
X103252000Y-59524000D02*
X104252000Y-59524000D01*
X103252000Y-46524000D02*
X103252000Y-45524000D01*
%TO.C,SW2*%
X98212000Y-45524000D02*
X98212000Y-46524000D01*
X97212000Y-59524000D02*
X98212000Y-59524000D01*
X98212000Y-45524000D02*
X97212000Y-45524000D01*
X98212000Y-58524000D02*
X98212000Y-59524000D01*
X84212000Y-59524000D02*
X84212000Y-58524000D01*
X85212000Y-45524000D02*
X84212000Y-45524000D01*
X84212000Y-59524000D02*
X85212000Y-59524000D01*
X84212000Y-46524000D02*
X84212000Y-45524000D01*
%TO.C,SW1*%
X79172000Y-45524000D02*
X79172000Y-46524000D01*
X78172000Y-59524000D02*
X79172000Y-59524000D01*
X79172000Y-45524000D02*
X78172000Y-45524000D01*
X79172000Y-58524000D02*
X79172000Y-59524000D01*
X65172000Y-59524000D02*
X65172000Y-58524000D01*
X66172000Y-45524000D02*
X65172000Y-45524000D01*
X65172000Y-59524000D02*
X66172000Y-59524000D01*
X65172000Y-46524000D02*
X65172000Y-45524000D01*
%TO.C,U1*%
X42979000Y-80458000D02*
X42979000Y-91958000D01*
X40566000Y-77734000D02*
X40566000Y-79004000D01*
X40058000Y-79258000D02*
X40312000Y-79258000D01*
X40058000Y-76718000D02*
X40568000Y-76718000D01*
X56568000Y-75448000D02*
X56568000Y-44234000D01*
X38788000Y-44234000D02*
X38788000Y-75448000D01*
X40058000Y-42964000D02*
X55298000Y-42964000D01*
X48408000Y-62723000D02*
G75*
G03*
X48408000Y-62723000I-750000J0D01*
G01*
X54790000Y-76718000D02*
X55298000Y-76718000D01*
X54790000Y-77734000D02*
X54790000Y-79004000D01*
X55044000Y-79258000D02*
X55298000Y-79258000D01*
X56568000Y-80528000D02*
X56568000Y-93228000D01*
X38788000Y-80528000D02*
X38788000Y-93228000D01*
X55298000Y-94498000D02*
X40058000Y-94498000D01*
X42979000Y-91958000D02*
X52358000Y-91958000D01*
X42979000Y-80458000D02*
X52358000Y-80458000D01*
X52358000Y-91958000D02*
X52358000Y-80458000D01*
X56568000Y-44234000D02*
G75*
G03*
X55298000Y-42964000I-1270000J0D01*
G01*
X40058000Y-42964000D02*
G75*
G03*
X38788000Y-44234000I0J-1270000D01*
G01*
X54790000Y-76718000D02*
G75*
G03*
X54790000Y-77734000I0J-508000D01*
G01*
X55298000Y-76718000D02*
G75*
G03*
X56568000Y-75448000I0J1270000D01*
G01*
X38788000Y-75448000D02*
G75*
G03*
X40058000Y-76718000I1270000J0D01*
G01*
X40566000Y-77734000D02*
G75*
G03*
X40566000Y-76718000I0J508000D01*
G01*
X55298000Y-94498000D02*
G75*
G03*
X56568000Y-93228000I0J1270000D01*
G01*
X38788000Y-93228000D02*
G75*
G03*
X40058000Y-94498000I1270000J0D01*
G01*
X56568000Y-80528000D02*
G75*
G03*
X55298000Y-79258000I-1270000J0D01*
G01*
X40058000Y-79258000D02*
G75*
G03*
X38788000Y-80528000I0J-1270000D01*
G01*
X54790000Y-79004000D02*
G75*
G03*
X55044000Y-79258000I254000J0D01*
G01*
X40312000Y-79258000D02*
G75*
G03*
X40566000Y-79004000I0J254000D01*
G01*
%TO.C,J1*%
X30378000Y-56670000D02*
X30378000Y-44670000D01*
X36378000Y-56670000D02*
X30378000Y-56670000D01*
X36378000Y-44670000D02*
X36378000Y-56670000D01*
X30378000Y-44670000D02*
X30878000Y-44670000D01*
X35878000Y-44670000D02*
X35878000Y-42770000D01*
X30878000Y-44670000D02*
X30878000Y-42770000D01*
X36378000Y-44670000D02*
X35878000Y-44670000D01*
X30878000Y-42770000D02*
X35878000Y-42770000D01*
%TO.C,J2*%
X38296000Y-138046000D02*
X48456000Y-138046000D01*
X38296000Y-135506000D02*
X48456000Y-135506000D01*
X48456000Y-135506000D02*
X48456000Y-138046000D01*
X38296000Y-138046000D02*
X38296000Y-135506000D01*
%TO.C,JP2*%
X31997000Y-66153000D02*
X34283000Y-66153000D01*
X34283000Y-66153000D02*
X34283000Y-67931000D01*
X34283000Y-67931000D02*
X31997000Y-67931000D01*
X31997000Y-67931000D02*
X31997000Y-66153000D01*
%TO.C,JP3*%
X31997000Y-64011000D02*
X34283000Y-64011000D01*
X34283000Y-64011000D02*
X34283000Y-65789000D01*
X34283000Y-65789000D02*
X31997000Y-65789000D01*
X31997000Y-65789000D02*
X31997000Y-64011000D01*
D11*
%TO.C,R1*%
X37196000Y-71144000D02*
X37196000Y-76944000D01*
X34796000Y-71144000D02*
X37196000Y-71144000D01*
X34796000Y-76944000D02*
X34796000Y-71144000D01*
X37196000Y-76969000D02*
X34796000Y-76969000D01*
%TO.C,R2*%
X33388000Y-71144000D02*
X33388000Y-76944000D01*
X30988000Y-71144000D02*
X33388000Y-71144000D01*
X30988000Y-76944000D02*
X30988000Y-71144000D01*
X33388000Y-76969000D02*
X30988000Y-76969000D01*
D10*
%TO.C,SW31*%
X30388000Y-82368000D02*
X30388000Y-88368000D01*
X33888000Y-88368000D02*
X33888000Y-82368000D01*
X30388000Y-82368000D02*
X31088000Y-82368000D01*
X33888000Y-82368000D02*
X33288000Y-82368000D01*
X33888000Y-88368000D02*
X33288000Y-88368000D01*
X30388000Y-88368000D02*
X31088000Y-88368000D01*
D11*
%TO.C,R3*%
X29342000Y-71144000D02*
X29342000Y-76944000D01*
X26942000Y-71144000D02*
X29342000Y-71144000D01*
X26942000Y-76944000D02*
X26942000Y-71144000D01*
X29342000Y-76969000D02*
X26942000Y-76969000D01*
%TO.C,U1*%
D10*
X46906095Y-65600380D02*
X46906095Y-66409904D01*
X46953714Y-66505142D01*
X47001333Y-66552761D01*
X47096571Y-66600380D01*
X47287047Y-66600380D01*
X47382285Y-66552761D01*
X47429904Y-66505142D01*
X47477523Y-66409904D01*
X47477523Y-65600380D01*
X48477523Y-66600380D02*
X47906095Y-66600380D01*
X48191809Y-66600380D02*
X48191809Y-65600380D01*
X48096571Y-65743238D01*
X48001333Y-65838476D01*
X47906095Y-65886095D01*
X43655619Y-44230380D02*
X43655619Y-45039904D01*
X43703238Y-45135142D01*
X43750857Y-45182761D01*
X43846095Y-45230380D01*
X44036571Y-45230380D01*
X44131809Y-45182761D01*
X44179428Y-45135142D01*
X44227047Y-45039904D01*
X44227047Y-44230380D01*
X44655619Y-45182761D02*
X44798476Y-45230380D01*
X45036571Y-45230380D01*
X45131809Y-45182761D01*
X45179428Y-45135142D01*
X45227047Y-45039904D01*
X45227047Y-44944666D01*
X45179428Y-44849428D01*
X45131809Y-44801809D01*
X45036571Y-44754190D01*
X44846095Y-44706571D01*
X44750857Y-44658952D01*
X44703238Y-44611333D01*
X44655619Y-44516095D01*
X44655619Y-44420857D01*
X44703238Y-44325619D01*
X44750857Y-44278000D01*
X44846095Y-44230380D01*
X45084190Y-44230380D01*
X45227047Y-44278000D01*
X45988952Y-44706571D02*
X46131809Y-44754190D01*
X46179428Y-44801809D01*
X46227047Y-44897047D01*
X46227047Y-45039904D01*
X46179428Y-45135142D01*
X46131809Y-45182761D01*
X46036571Y-45230380D01*
X45655619Y-45230380D01*
X45655619Y-44230380D01*
X45988952Y-44230380D01*
X46084190Y-44278000D01*
X46131809Y-44325619D01*
X46179428Y-44420857D01*
X46179428Y-44516095D01*
X46131809Y-44611333D01*
X46084190Y-44658952D01*
X45988952Y-44706571D01*
X45655619Y-44706571D01*
X47274666Y-44563714D02*
X47655619Y-44563714D01*
X47417523Y-45230380D02*
X47417523Y-44373238D01*
X47465142Y-44278000D01*
X47560380Y-44230380D01*
X47655619Y-44230380D01*
X48417523Y-45230380D02*
X48417523Y-44706571D01*
X48369904Y-44611333D01*
X48274666Y-44563714D01*
X48084190Y-44563714D01*
X47988952Y-44611333D01*
X48417523Y-45182761D02*
X48322285Y-45230380D01*
X48084190Y-45230380D01*
X47988952Y-45182761D01*
X47941333Y-45087523D01*
X47941333Y-44992285D01*
X47988952Y-44897047D01*
X48084190Y-44849428D01*
X48322285Y-44849428D01*
X48417523Y-44801809D01*
X49322285Y-45182761D02*
X49227047Y-45230380D01*
X49036571Y-45230380D01*
X48941333Y-45182761D01*
X48893714Y-45135142D01*
X48846095Y-45039904D01*
X48846095Y-44754190D01*
X48893714Y-44658952D01*
X48941333Y-44611333D01*
X49036571Y-44563714D01*
X49227047Y-44563714D01*
X49322285Y-44611333D01*
X49750857Y-45230380D02*
X49750857Y-44563714D01*
X49750857Y-44230380D02*
X49703238Y-44278000D01*
X49750857Y-44325619D01*
X49798476Y-44278000D01*
X49750857Y-44230380D01*
X49750857Y-44325619D01*
X50227047Y-44563714D02*
X50227047Y-45230380D01*
X50227047Y-44658952D02*
X50274666Y-44611333D01*
X50369904Y-44563714D01*
X50512761Y-44563714D01*
X50607999Y-44611333D01*
X50655619Y-44706571D01*
X50655619Y-45230380D01*
X51560380Y-44563714D02*
X51560380Y-45373238D01*
X51512761Y-45468476D01*
X51465142Y-45516095D01*
X51369904Y-45563714D01*
X51227047Y-45563714D01*
X51131809Y-45516095D01*
X51560380Y-45182761D02*
X51465142Y-45230380D01*
X51274666Y-45230380D01*
X51179428Y-45182761D01*
X51131809Y-45135142D01*
X51084190Y-45039904D01*
X51084190Y-44754190D01*
X51131809Y-44658952D01*
X51179428Y-44611333D01*
X51274666Y-44563714D01*
X51465142Y-44563714D01*
X51560380Y-44611333D01*
X44655619Y-47563714D02*
X45036571Y-47563714D01*
X44798476Y-47230380D02*
X44798476Y-48087523D01*
X44846095Y-48182761D01*
X44941333Y-48230380D01*
X45036571Y-48230380D01*
X45369904Y-48230380D02*
X45369904Y-47230380D01*
X45798476Y-48230380D02*
X45798476Y-47706571D01*
X45750857Y-47611333D01*
X45655619Y-47563714D01*
X45512761Y-47563714D01*
X45417523Y-47611333D01*
X45369904Y-47658952D01*
X46655619Y-48182761D02*
X46560380Y-48230380D01*
X46369904Y-48230380D01*
X46274666Y-48182761D01*
X46227047Y-48087523D01*
X46227047Y-47706571D01*
X46274666Y-47611333D01*
X46369904Y-47563714D01*
X46560380Y-47563714D01*
X46655619Y-47611333D01*
X46703238Y-47706571D01*
X46703238Y-47801809D01*
X46227047Y-47897047D01*
X47893714Y-48230380D02*
X47893714Y-47230380D01*
X48274666Y-47230380D01*
X48369904Y-47278000D01*
X48417523Y-47325619D01*
X48465142Y-47420857D01*
X48465142Y-47563714D01*
X48417523Y-47658952D01*
X48369904Y-47706571D01*
X48274666Y-47754190D01*
X47893714Y-47754190D01*
X49465142Y-48135142D02*
X49417523Y-48182761D01*
X49274666Y-48230380D01*
X49179428Y-48230380D01*
X49036571Y-48182761D01*
X48941333Y-48087523D01*
X48893714Y-47992285D01*
X48846095Y-47801809D01*
X48846095Y-47658952D01*
X48893714Y-47468476D01*
X48941333Y-47373238D01*
X49036571Y-47278000D01*
X49179428Y-47230380D01*
X49274666Y-47230380D01*
X49417523Y-47278000D01*
X49465142Y-47325619D01*
X50227047Y-47706571D02*
X50369904Y-47754190D01*
X50417523Y-47801809D01*
X50465142Y-47897047D01*
X50465142Y-48039904D01*
X50417523Y-48135142D01*
X50369904Y-48182761D01*
X50274666Y-48230380D01*
X49893714Y-48230380D01*
X49893714Y-47230380D01*
X50227047Y-47230380D01*
X50322285Y-47278000D01*
X50369904Y-47325619D01*
X50417523Y-47420857D01*
X50417523Y-47516095D01*
X50369904Y-47611333D01*
X50322285Y-47658952D01*
X50227047Y-47706571D01*
X49893714Y-47706571D01*
X44369904Y-46730380D02*
X44369904Y-46206571D01*
X44322285Y-46111333D01*
X44227047Y-46063714D01*
X44036571Y-46063714D01*
X43941333Y-46111333D01*
X44369904Y-46682761D02*
X44274666Y-46730380D01*
X44036571Y-46730380D01*
X43941333Y-46682761D01*
X43893714Y-46587523D01*
X43893714Y-46492285D01*
X43941333Y-46397047D01*
X44036571Y-46349428D01*
X44274666Y-46349428D01*
X44369904Y-46301809D01*
X44750857Y-46063714D02*
X44941333Y-46730380D01*
X45131809Y-46254190D01*
X45322285Y-46730380D01*
X45512761Y-46063714D01*
X46322285Y-46730380D02*
X46322285Y-46206571D01*
X46274666Y-46111333D01*
X46179428Y-46063714D01*
X45988952Y-46063714D01*
X45893714Y-46111333D01*
X46322285Y-46682761D02*
X46227047Y-46730380D01*
X45988952Y-46730380D01*
X45893714Y-46682761D01*
X45846095Y-46587523D01*
X45846095Y-46492285D01*
X45893714Y-46397047D01*
X45988952Y-46349428D01*
X46227047Y-46349428D01*
X46322285Y-46301809D01*
X46703238Y-46063714D02*
X46941333Y-46730380D01*
X47179428Y-46063714D02*
X46941333Y-46730380D01*
X46846095Y-46968476D01*
X46798476Y-47016095D01*
X46703238Y-47063714D01*
X48179428Y-46063714D02*
X48560380Y-46063714D01*
X48322285Y-46730380D02*
X48322285Y-45873238D01*
X48369904Y-45778000D01*
X48465142Y-45730380D01*
X48560380Y-45730380D01*
X48893714Y-46730380D02*
X48893714Y-46063714D01*
X48893714Y-46254190D02*
X48941333Y-46158952D01*
X48988952Y-46111333D01*
X49084190Y-46063714D01*
X49179428Y-46063714D01*
X49655619Y-46730380D02*
X49560380Y-46682761D01*
X49512761Y-46635142D01*
X49465142Y-46539904D01*
X49465142Y-46254190D01*
X49512761Y-46158952D01*
X49560380Y-46111333D01*
X49655619Y-46063714D01*
X49798476Y-46063714D01*
X49893714Y-46111333D01*
X49941333Y-46158952D01*
X49988952Y-46254190D01*
X49988952Y-46539904D01*
X49941333Y-46635142D01*
X49893714Y-46682761D01*
X49798476Y-46730380D01*
X49655619Y-46730380D01*
X50417523Y-46730380D02*
X50417523Y-46063714D01*
X50417523Y-46158952D02*
X50465142Y-46111333D01*
X50560380Y-46063714D01*
X50703238Y-46063714D01*
X50798476Y-46111333D01*
X50846095Y-46206571D01*
X50846095Y-46730380D01*
X50846095Y-46206571D02*
X50893714Y-46111333D01*
X50988952Y-46063714D01*
X51131809Y-46063714D01*
X51227047Y-46111333D01*
X51274666Y-46206571D01*
X51274666Y-46730380D01*
%TO.C,J2*%
X37205895Y-138976933D02*
X37786466Y-138976933D01*
X37902580Y-139015638D01*
X37979990Y-139093047D01*
X38018695Y-139209161D01*
X38018695Y-139286571D01*
X37283304Y-138628590D02*
X37244600Y-138589885D01*
X37205895Y-138512476D01*
X37205895Y-138318952D01*
X37244600Y-138241542D01*
X37283304Y-138202838D01*
X37360714Y-138164133D01*
X37438123Y-138164133D01*
X37554238Y-138202838D01*
X38018695Y-138667295D01*
X38018695Y-138164133D01*
%TO.C,JP2*%
X28623933Y-66596895D02*
X28623933Y-67177466D01*
X28585228Y-67293580D01*
X28507819Y-67370990D01*
X28391704Y-67409695D01*
X28314295Y-67409695D01*
X29359323Y-66867828D02*
X29359323Y-67409695D01*
X29010980Y-66867828D02*
X29010980Y-67293580D01*
X29049685Y-67370990D01*
X29127095Y-67409695D01*
X29243209Y-67409695D01*
X29320619Y-67370990D01*
X29359323Y-67332285D01*
X29746371Y-67409695D02*
X29746371Y-66867828D01*
X29746371Y-66945238D02*
X29785076Y-66906533D01*
X29862485Y-66867828D01*
X29978600Y-66867828D01*
X30056009Y-66906533D01*
X30094714Y-66983942D01*
X30094714Y-67409695D01*
X30094714Y-66983942D02*
X30133419Y-66906533D01*
X30210828Y-66867828D01*
X30326942Y-66867828D01*
X30404352Y-66906533D01*
X30443057Y-66983942D01*
X30443057Y-67409695D01*
X30830104Y-66867828D02*
X30830104Y-67680628D01*
X30830104Y-66906533D02*
X30907514Y-66867828D01*
X31062333Y-66867828D01*
X31139742Y-66906533D01*
X31178447Y-66945238D01*
X31217152Y-67022647D01*
X31217152Y-67254876D01*
X31178447Y-67332285D01*
X31139742Y-67370990D01*
X31062333Y-67409695D01*
X30907514Y-67409695D01*
X30830104Y-67370990D01*
X31875133Y-67370990D02*
X31797723Y-67409695D01*
X31642904Y-67409695D01*
X31565495Y-67370990D01*
X31526790Y-67293580D01*
X31526790Y-66983942D01*
X31565495Y-66906533D01*
X31642904Y-66867828D01*
X31797723Y-66867828D01*
X31875133Y-66906533D01*
X31913838Y-66983942D01*
X31913838Y-67061352D01*
X31526790Y-67138761D01*
X32262180Y-67409695D02*
X32262180Y-66867828D01*
X32262180Y-67022647D02*
X32300885Y-66945238D01*
X32339590Y-66906533D01*
X32417000Y-66867828D01*
X32494409Y-66867828D01*
%TO.C,JP3*%
X28623933Y-64454895D02*
X28623933Y-65035466D01*
X28585228Y-65151580D01*
X28507819Y-65228990D01*
X28391704Y-65267695D01*
X28314295Y-65267695D01*
X29359323Y-64725828D02*
X29359323Y-65267695D01*
X29010980Y-64725828D02*
X29010980Y-65151580D01*
X29049685Y-65228990D01*
X29127095Y-65267695D01*
X29243209Y-65267695D01*
X29320619Y-65228990D01*
X29359323Y-65190285D01*
X29746371Y-65267695D02*
X29746371Y-64725828D01*
X29746371Y-64803238D02*
X29785076Y-64764533D01*
X29862485Y-64725828D01*
X29978600Y-64725828D01*
X30056009Y-64764533D01*
X30094714Y-64841942D01*
X30094714Y-65267695D01*
X30094714Y-64841942D02*
X30133419Y-64764533D01*
X30210828Y-64725828D01*
X30326942Y-64725828D01*
X30404352Y-64764533D01*
X30443057Y-64841942D01*
X30443057Y-65267695D01*
X30830104Y-64725828D02*
X30830104Y-65538628D01*
X30830104Y-64764533D02*
X30907514Y-64725828D01*
X31062333Y-64725828D01*
X31139742Y-64764533D01*
X31178447Y-64803238D01*
X31217152Y-64880647D01*
X31217152Y-65112876D01*
X31178447Y-65190285D01*
X31139742Y-65228990D01*
X31062333Y-65267695D01*
X30907514Y-65267695D01*
X30830104Y-65228990D01*
X31875133Y-65228990D02*
X31797723Y-65267695D01*
X31642904Y-65267695D01*
X31565495Y-65228990D01*
X31526790Y-65151580D01*
X31526790Y-64841942D01*
X31565495Y-64764533D01*
X31642904Y-64725828D01*
X31797723Y-64725828D01*
X31875133Y-64764533D01*
X31913838Y-64841942D01*
X31913838Y-64919352D01*
X31526790Y-64996761D01*
X32262180Y-65267695D02*
X32262180Y-64725828D01*
X32262180Y-64880647D02*
X32300885Y-64803238D01*
X32339590Y-64764533D01*
X32417000Y-64725828D01*
X32494409Y-64725828D01*
%TO.C,R1*%
X38282904Y-74077333D02*
X37901952Y-74344000D01*
X38282904Y-74534476D02*
X37482904Y-74534476D01*
X37482904Y-74229714D01*
X37521000Y-74153523D01*
X37559095Y-74115428D01*
X37635285Y-74077333D01*
X37749571Y-74077333D01*
X37825761Y-74115428D01*
X37863857Y-74153523D01*
X37901952Y-74229714D01*
X37901952Y-74534476D01*
X38282904Y-73315428D02*
X38282904Y-73772571D01*
X38282904Y-73544000D02*
X37482904Y-73544000D01*
X37597190Y-73620190D01*
X37673380Y-73696380D01*
X37711476Y-73772571D01*
%TO.C,R2*%
X34474904Y-74077333D02*
X34093952Y-74344000D01*
X34474904Y-74534476D02*
X33674904Y-74534476D01*
X33674904Y-74229714D01*
X33713000Y-74153523D01*
X33751095Y-74115428D01*
X33827285Y-74077333D01*
X33941571Y-74077333D01*
X34017761Y-74115428D01*
X34055857Y-74153523D01*
X34093952Y-74229714D01*
X34093952Y-74534476D01*
X33751095Y-73772571D02*
X33713000Y-73734476D01*
X33674904Y-73658285D01*
X33674904Y-73467809D01*
X33713000Y-73391619D01*
X33751095Y-73353523D01*
X33827285Y-73315428D01*
X33903476Y-73315428D01*
X34017761Y-73353523D01*
X34474904Y-73810666D01*
X34474904Y-73315428D01*
%TO.C,SW31*%
X31826095Y-84206095D02*
X32207047Y-83939428D01*
X31826095Y-83748952D02*
X32626095Y-83748952D01*
X32626095Y-84053714D01*
X32588000Y-84129904D01*
X32549904Y-84168000D01*
X32473714Y-84206095D01*
X32359428Y-84206095D01*
X32283238Y-84168000D01*
X32245142Y-84129904D01*
X32207047Y-84053714D01*
X32207047Y-83748952D01*
X32245142Y-84548952D02*
X32245142Y-84815619D01*
X31826095Y-84929904D02*
X31826095Y-84548952D01*
X32626095Y-84548952D01*
X32626095Y-84929904D01*
X31864190Y-85234666D02*
X31826095Y-85348952D01*
X31826095Y-85539428D01*
X31864190Y-85615619D01*
X31902285Y-85653714D01*
X31978476Y-85691809D01*
X32054666Y-85691809D01*
X32130857Y-85653714D01*
X32168952Y-85615619D01*
X32207047Y-85539428D01*
X32245142Y-85387047D01*
X32283238Y-85310857D01*
X32321333Y-85272761D01*
X32397523Y-85234666D01*
X32473714Y-85234666D01*
X32549904Y-85272761D01*
X32588000Y-85310857D01*
X32626095Y-85387047D01*
X32626095Y-85577523D01*
X32588000Y-85691809D01*
X32245142Y-86034666D02*
X32245142Y-86301333D01*
X31826095Y-86415619D02*
X31826095Y-86034666D01*
X32626095Y-86034666D01*
X32626095Y-86415619D01*
X32626095Y-86644190D02*
X32626095Y-87101333D01*
X31826095Y-86872761D02*
X32626095Y-86872761D01*
%TO.C,R3*%
X30428904Y-74077333D02*
X30047952Y-74344000D01*
X30428904Y-74534476D02*
X29628904Y-74534476D01*
X29628904Y-74229714D01*
X29667000Y-74153523D01*
X29705095Y-74115428D01*
X29781285Y-74077333D01*
X29895571Y-74077333D01*
X29971761Y-74115428D01*
X30009857Y-74153523D01*
X30047952Y-74229714D01*
X30047952Y-74534476D01*
X29628904Y-73810666D02*
X29628904Y-73315428D01*
X29933666Y-73582095D01*
X29933666Y-73467809D01*
X29971761Y-73391619D01*
X30009857Y-73353523D01*
X30086047Y-73315428D01*
X30276523Y-73315428D01*
X30352714Y-73353523D01*
X30390809Y-73391619D01*
X30428904Y-73467809D01*
X30428904Y-73696380D01*
X30390809Y-73772571D01*
X30352714Y-73810666D01*
%TD*%
M02*
