M48
; DRILL file {KiCad (5.1.7)-1} date 06/20/21 13:46:23
; FORMAT={-:-/ absolute / inch / decimal}
; #@! TF.CreationDate,2021-06-20T13:46:23+02:00
; #@! TF.GenerationSoftware,Kicad,Pcbnew,(5.1.7)-1
; #@! TF.FileFunction,NonPlated,1,2,NPTH
FMAT,2
INCH
T1C0.0472
T2C0.0670
T3C0.0866
T4C0.1181
T5C0.1200
T6C0.1570
T7C0.1851
%
G90
G05
T1
X1.3141Y-1.8177
X1.3141Y-2.0933
T2
X6.9517Y-3.5671
X7.3517Y-3.5671
X2.9225Y-5.0663
X3.3225Y-5.0663
X2.9225Y-3.5671
X3.3225Y-3.5671
X3.391Y-2.0679
X3.791Y-2.0679
X4.328Y-4.3167
X4.728Y-4.3167
X5.8272Y-4.3167
X6.2272Y-4.3167
X5.265Y-2.8175
X5.665Y-2.8175
X6.202Y-3.5671
X6.602Y-3.5671
X5.0776Y-4.3167
X5.4776Y-4.3167
X6.7643Y-2.8175
X7.1643Y-2.8175
X3.9532Y-3.5671
X4.3532Y-3.5671
X4.7028Y-3.5671
X5.1028Y-3.5671
X2.7351Y-4.3167
X3.1351Y-4.3167
X6.2955Y-5.0661
X6.6955Y-5.0661
X6.0146Y-2.8175
X6.4146Y-2.8175
X3.7658Y-2.8175
X4.1658Y-2.8175
X4.1406Y-2.0679
X4.5406Y-2.0679
X3.5784Y-4.3167
X3.9784Y-4.3167
X6.5769Y-4.3167
X6.9769Y-4.3167
X4.7963Y-5.0663
X5.1963Y-5.0663
X6.3894Y-2.0679
X6.7894Y-2.0679
X4.8902Y-2.0679
X5.2902Y-2.0679
X7.3265Y-4.3167
X7.7265Y-4.3167
X7.1391Y-2.0679
X7.5391Y-2.0679
X4.5154Y-2.8175
X4.9154Y-2.8175
X5.6398Y-2.0679
X6.0398Y-2.0679
X5.4524Y-3.5671
X5.8524Y-3.5671
X3.8595Y-5.0663
X4.2595Y-5.0663
X2.8288Y-2.8175
X3.2288Y-2.8175
X2.6414Y-2.0679
X3.0414Y-2.0679
T3
X2.3448Y-1.8149
X1.0705Y-5.4224
X2.3448Y-5.4224
X1.0705Y-1.8149
T4
X7.0017Y-3.4671
X7.2517Y-3.3671
X2.9725Y-4.9663
X3.2225Y-4.8663
X2.9725Y-3.4671
X3.2225Y-3.3671
X3.441Y-1.9679
X3.691Y-1.8679
X4.378Y-4.2167
X4.628Y-4.1167
X5.8772Y-4.2167
X6.1272Y-4.1167
X5.315Y-2.7175
X5.565Y-2.6175
X6.252Y-3.4671
X6.502Y-3.3671
X5.1276Y-4.2167
X5.3776Y-4.1167
X6.8143Y-2.7175
X7.0643Y-2.6175
X4.0032Y-3.4671
X4.2532Y-3.3671
X4.7528Y-3.4671
X5.0028Y-3.3671
X2.7851Y-4.2167
X3.0351Y-4.1167
X6.3455Y-4.9661
X6.5955Y-4.8661
X6.0646Y-2.7175
X6.3146Y-2.6175
X3.8158Y-2.7175
X4.0658Y-2.6175
X4.1906Y-1.9679
X4.4406Y-1.8679
X3.6284Y-4.2167
X3.8784Y-4.1167
X6.6269Y-4.2167
X6.8769Y-4.1167
X4.8463Y-4.9663
X5.0963Y-4.8663
X6.4394Y-1.9679
X6.6894Y-1.8679
X4.9402Y-1.9679
X5.1902Y-1.8679
X7.3765Y-4.2167
X7.6265Y-4.1167
X7.1891Y-1.9679
X7.4391Y-1.8679
X4.5654Y-2.7175
X4.8154Y-2.6175
X5.6898Y-1.9679
X5.9398Y-1.8679
X5.5024Y-3.4671
X5.7524Y-3.3671
X3.9095Y-4.9663
X4.1595Y-4.8663
X2.8788Y-2.7175
X3.1288Y-2.6175
X2.6914Y-1.9679
X2.9414Y-1.8679
T5
X6.0255Y-4.7911
X6.9655Y-4.7911
T6
X7.1517Y-3.5671
X3.1225Y-5.0663
X3.1225Y-3.5671
X3.591Y-2.0679
X4.528Y-4.3167
X6.0272Y-4.3167
X5.465Y-2.8175
X6.402Y-3.5671
X5.2776Y-4.3167
X6.9643Y-2.8175
X4.1532Y-3.5671
X4.9028Y-3.5671
X2.9351Y-4.3167
X6.0255Y-5.3911
X6.4955Y-5.0661
X6.9655Y-5.3911
X6.2146Y-2.8175
X3.9658Y-2.8175
X4.3406Y-2.0679
X3.7784Y-4.3167
X6.7769Y-4.3167
X4.9963Y-5.0663
X6.5894Y-2.0679
X5.0902Y-2.0679
X7.5265Y-4.3167
X7.3391Y-2.0679
X4.7154Y-2.8175
X5.8398Y-2.0679
X5.6524Y-3.5671
X4.0595Y-5.0663
X3.0288Y-2.8175
X2.8414Y-2.0679
T7
X6.5894Y-2.4614
X7.1517Y-3.97
X3.5723Y-4.8602
X3.4786Y-2.6582
T0
M30
