M48
; DRILL file {KiCad (5.1.7)-1} date 06/20/21 13:46:23
; FORMAT={-:-/ absolute / inch / decimal}
; #@! TF.CreationDate,2021-06-20T13:46:23+02:00
; #@! TF.GenerationSoftware,Kicad,Pcbnew,(5.1.7)-1
; #@! TF.FileFunction,Plated,1,2,PTH
FMAT,2
INCH
T1C0.0118
T2C0.0157
T3C0.0276
T4C0.0320
T5C0.0394
T6C0.0512
%
G90
G05
T2
X1.2485Y-2.5083
X1.4078Y-2.4802
X1.6514Y-5.1413
X1.7264Y-4.5509
X1.7732Y-3.792
X1.7737Y-3.7521
X1.7738Y-3.7119
X2.0262Y-2.1241
X3.089Y-2.42
X3.8065Y-2.452
X4.5468Y-2.4708
X5.2683Y-2.4891
X6.0179Y-2.4989
X6.7206Y-2.5364
X7.2692Y-3.1966
T3
X3.9658Y-2.083
X3.9658Y-2.3901
X3.4036Y-4.3318
X3.4036Y-4.6389
X2.7477Y-3.5822
X2.7477Y-3.8893
X1.4172Y-2.7576
X1.4172Y-3.0647
X4.4343Y-5.0814
X4.4343Y-5.3885
X2.654Y-2.8326
X2.654Y-3.1397
X3.4973Y-5.0814
X3.4973Y-5.3885
X4.3406Y-2.8326
X4.3406Y-3.1397
X4.528Y-3.5822
X4.528Y-3.8893
X5.2776Y-3.5822
X5.2776Y-3.8893
X6.9643Y-2.083
X6.9643Y-2.3901
X2.5603Y-5.0814
X2.5603Y-5.3885
X3.591Y-2.8326
X3.591Y-3.1397
X4.9028Y-4.3318
X4.9028Y-4.6389
X5.0902Y-2.8326
X5.0902Y-3.1397
X5.7928Y-5.0813
X5.7928Y-5.3883
X4.7154Y-2.083
X4.7154Y-2.3901
X2.5228Y-2.083
X2.5228Y-2.3901
X7.1517Y-4.3318
X7.1517Y-4.6389
X4.1532Y-4.3318
X4.1532Y-4.6389
X3.7784Y-3.5822
X3.7784Y-3.8893
X3.2162Y-2.083
X3.2162Y-2.3901
X6.7769Y-3.5822
X6.7769Y-3.8893
X6.5894Y-2.8326
X6.5894Y-3.1397
X6.402Y-4.3318
X6.402Y-4.6389
X6.2146Y-2.083
X6.2146Y-2.3901
X5.8398Y-2.8326
X5.8398Y-3.1397
X2.5603Y-4.3318
X2.5603Y-4.6389
X1.108Y-2.7576
X1.108Y-3.0647
X5.465Y-2.083
X5.465Y-2.3901
X5.6524Y-4.3318
X5.6524Y-4.6389
X6.0272Y-3.5822
X6.0272Y-3.8893
X1.2672Y-2.7576
X1.2672Y-3.0647
T4
X1.5577Y-5.3849
X1.6577Y-5.3849
X1.7577Y-5.3849
X1.8577Y-5.3849
T5
X1.5771Y-1.8704
X1.5771Y-1.9704
X1.5771Y-2.0704
X1.5771Y-2.1704
X1.5771Y-2.2704
X1.5771Y-2.3704
X1.5771Y-2.4704
X1.5771Y-2.5704
X1.5771Y-2.6704
X1.5771Y-2.7704
X1.5771Y-2.8704
X1.5771Y-2.9704
X1.5771Y-3.1704
X1.5771Y-3.2704
X1.5771Y-3.3704
X1.5771Y-3.4704
X1.5771Y-3.5704
X1.5771Y-3.6704
X1.6771Y-2.0704
X1.7771Y-2.0704
X1.8771Y-2.0704
X2.0761Y-2.0704
X2.1761Y-1.8704
X2.1761Y-1.9704
X2.1761Y-2.0704
X2.1761Y-2.1704
X2.1761Y-2.2704
X2.1761Y-2.3704
X2.1761Y-2.4704
X2.1761Y-2.5704
X2.1761Y-2.6704
X2.1761Y-2.7704
X2.1761Y-2.8704
X2.1761Y-2.9704
X2.1761Y-3.1704
X2.1761Y-3.2704
X2.1761Y-3.3704
X2.1761Y-3.4704
X2.1761Y-3.5704
X2.1761Y-3.6704
T6
X1.2672Y-3.233
X1.2672Y-3.4889
T1
G00X1.2314Y-2.1976
M15
G01X1.2314Y-2.2488
M16
G05
G00X1.3968Y-1.863
M15
G01X1.3968Y-1.9142
M16
G05
G00X1.3968Y-1.9811
M15
G01X1.3968Y-2.0323
M16
G05
G00X1.3968Y-2.1386
M15
G01X1.3968Y-2.1898
M16
G05
T0
M30
