%TF.GenerationSoftware,KiCad,Pcbnew,(5.1.7)-1*%
%TF.CreationDate,2020-11-02T22:52:20+01:00*%
%TF.ProjectId,Split65Left,53706c69-7436-4354-9c65-66742e6b6963,rev?*%
%TF.SameCoordinates,Original*%
%TF.FileFunction,Soldermask,Bot*%
%TF.FilePolarity,Negative*%
%FSLAX46Y46*%
G04 Gerber Fmt 4.6, Leading zero omitted, Abs format (unit mm)*
G04 Created by KiCad (PCBNEW (5.1.7)-1) date 2020-11-02 22:52:20*
%MOMM*%
%LPD*%
G01*
G04 APERTURE LIST*
%ADD10C,1.801800*%
%ADD11C,4.087800*%
%ADD12C,3.100000*%
%ADD13C,3.148000*%
%ADD14C,4.800400*%
%ADD15C,2.300000*%
%ADD16C,1.800000*%
%ADD17C,1.300000*%
%ADD18C,1.700000*%
%ADD19C,1.497000*%
%ADD20C,2.100000*%
G04 APERTURE END LIST*
%TO.C,SW30*%
G36*
G01*
X156101000Y-127390000D02*
X156101000Y-124890000D01*
G75*
G02*
X156151000Y-124840000I50000J0D01*
G01*
X158701000Y-124840000D01*
G75*
G02*
X158751000Y-124890000I0J-50000D01*
G01*
X158751000Y-127390000D01*
G75*
G02*
X158701000Y-127440000I-50000J0D01*
G01*
X156151000Y-127440000D01*
G75*
G02*
X156101000Y-127390000I0J50000D01*
G01*
G37*
D10*
X159906000Y-128680000D03*
X170066000Y-128680000D03*
D11*
X164986000Y-128680000D03*
D12*
X161176000Y-126140000D03*
X167526000Y-123600000D03*
G36*
G01*
X169951000Y-124850000D02*
X169951000Y-122350000D01*
G75*
G02*
X170001000Y-122300000I50000J0D01*
G01*
X172551000Y-122300000D01*
G75*
G02*
X172601000Y-122350000I0J-50000D01*
G01*
X172601000Y-124850000D01*
G75*
G02*
X172551000Y-124900000I-50000J0D01*
G01*
X170001000Y-124900000D01*
G75*
G02*
X169951000Y-124850000I0J50000D01*
G01*
G37*
D11*
X176924000Y-136935000D03*
X153048000Y-136935000D03*
D13*
X176924000Y-121695000D03*
X153048000Y-121695000D03*
%TD*%
%TO.C,SW29*%
G36*
G01*
X118021000Y-127394000D02*
X118021000Y-124894000D01*
G75*
G02*
X118071000Y-124844000I50000J0D01*
G01*
X120621000Y-124844000D01*
G75*
G02*
X120671000Y-124894000I0J-50000D01*
G01*
X120671000Y-127394000D01*
G75*
G02*
X120621000Y-127444000I-50000J0D01*
G01*
X118071000Y-127444000D01*
G75*
G02*
X118021000Y-127394000I0J50000D01*
G01*
G37*
D10*
X121826000Y-128684000D03*
X131986000Y-128684000D03*
D11*
X126906000Y-128684000D03*
D12*
X123096000Y-126144000D03*
X129446000Y-123604000D03*
G36*
G01*
X131871000Y-124854000D02*
X131871000Y-122354000D01*
G75*
G02*
X131921000Y-122304000I50000J0D01*
G01*
X134471000Y-122304000D01*
G75*
G02*
X134521000Y-122354000I0J-50000D01*
G01*
X134521000Y-124854000D01*
G75*
G02*
X134471000Y-124904000I-50000J0D01*
G01*
X131921000Y-124904000D01*
G75*
G02*
X131871000Y-124854000I0J50000D01*
G01*
G37*
%TD*%
%TO.C,SW28*%
G36*
G01*
X94227000Y-127394000D02*
X94227000Y-124894000D01*
G75*
G02*
X94277000Y-124844000I50000J0D01*
G01*
X96827000Y-124844000D01*
G75*
G02*
X96877000Y-124894000I0J-50000D01*
G01*
X96877000Y-127394000D01*
G75*
G02*
X96827000Y-127444000I-50000J0D01*
G01*
X94277000Y-127444000D01*
G75*
G02*
X94227000Y-127394000I0J50000D01*
G01*
G37*
D10*
X98032000Y-128684000D03*
X108192000Y-128684000D03*
D11*
X103112000Y-128684000D03*
D12*
X99302000Y-126144000D03*
X105652000Y-123604000D03*
G36*
G01*
X108077000Y-124854000D02*
X108077000Y-122354000D01*
G75*
G02*
X108127000Y-122304000I50000J0D01*
G01*
X110677000Y-122304000D01*
G75*
G02*
X110727000Y-122354000I0J-50000D01*
G01*
X110727000Y-124854000D01*
G75*
G02*
X110677000Y-124904000I-50000J0D01*
G01*
X108127000Y-124904000D01*
G75*
G02*
X108077000Y-124854000I0J50000D01*
G01*
G37*
%TD*%
%TO.C,SW27*%
G36*
G01*
X70427000Y-127394000D02*
X70427000Y-124894000D01*
G75*
G02*
X70477000Y-124844000I50000J0D01*
G01*
X73027000Y-124844000D01*
G75*
G02*
X73077000Y-124894000I0J-50000D01*
G01*
X73077000Y-127394000D01*
G75*
G02*
X73027000Y-127444000I-50000J0D01*
G01*
X70477000Y-127444000D01*
G75*
G02*
X70427000Y-127394000I0J50000D01*
G01*
G37*
D10*
X74232000Y-128684000D03*
X84392000Y-128684000D03*
D11*
X79312000Y-128684000D03*
D12*
X75502000Y-126144000D03*
X81852000Y-123604000D03*
G36*
G01*
X84277000Y-124854000D02*
X84277000Y-122354000D01*
G75*
G02*
X84327000Y-122304000I50000J0D01*
G01*
X86877000Y-122304000D01*
G75*
G02*
X86927000Y-122354000I0J-50000D01*
G01*
X86927000Y-124854000D01*
G75*
G02*
X86877000Y-124904000I-50000J0D01*
G01*
X84327000Y-124904000D01*
G75*
G02*
X84277000Y-124854000I0J50000D01*
G01*
G37*
%TD*%
%TO.C,SW26*%
G36*
G01*
X182287000Y-108354000D02*
X182287000Y-105854000D01*
G75*
G02*
X182337000Y-105804000I50000J0D01*
G01*
X184887000Y-105804000D01*
G75*
G02*
X184937000Y-105854000I0J-50000D01*
G01*
X184937000Y-108354000D01*
G75*
G02*
X184887000Y-108404000I-50000J0D01*
G01*
X182337000Y-108404000D01*
G75*
G02*
X182287000Y-108354000I0J50000D01*
G01*
G37*
D10*
X186092000Y-109644000D03*
X196252000Y-109644000D03*
D11*
X191172000Y-109644000D03*
D12*
X187362000Y-107104000D03*
X193712000Y-104564000D03*
G36*
G01*
X196137000Y-105814000D02*
X196137000Y-103314000D01*
G75*
G02*
X196187000Y-103264000I50000J0D01*
G01*
X198737000Y-103264000D01*
G75*
G02*
X198787000Y-103314000I0J-50000D01*
G01*
X198787000Y-105814000D01*
G75*
G02*
X198737000Y-105864000I-50000J0D01*
G01*
X196187000Y-105864000D01*
G75*
G02*
X196137000Y-105814000I0J50000D01*
G01*
G37*
%TD*%
%TO.C,SW25*%
G36*
G01*
X163247000Y-108354000D02*
X163247000Y-105854000D01*
G75*
G02*
X163297000Y-105804000I50000J0D01*
G01*
X165847000Y-105804000D01*
G75*
G02*
X165897000Y-105854000I0J-50000D01*
G01*
X165897000Y-108354000D01*
G75*
G02*
X165847000Y-108404000I-50000J0D01*
G01*
X163297000Y-108404000D01*
G75*
G02*
X163247000Y-108354000I0J50000D01*
G01*
G37*
D10*
X167052000Y-109644000D03*
X177212000Y-109644000D03*
D11*
X172132000Y-109644000D03*
D12*
X168322000Y-107104000D03*
X174672000Y-104564000D03*
G36*
G01*
X177097000Y-105814000D02*
X177097000Y-103314000D01*
G75*
G02*
X177147000Y-103264000I50000J0D01*
G01*
X179697000Y-103264000D01*
G75*
G02*
X179747000Y-103314000I0J-50000D01*
G01*
X179747000Y-105814000D01*
G75*
G02*
X179697000Y-105864000I-50000J0D01*
G01*
X177147000Y-105864000D01*
G75*
G02*
X177097000Y-105814000I0J50000D01*
G01*
G37*
%TD*%
%TO.C,SW24*%
G36*
G01*
X144207000Y-108354000D02*
X144207000Y-105854000D01*
G75*
G02*
X144257000Y-105804000I50000J0D01*
G01*
X146807000Y-105804000D01*
G75*
G02*
X146857000Y-105854000I0J-50000D01*
G01*
X146857000Y-108354000D01*
G75*
G02*
X146807000Y-108404000I-50000J0D01*
G01*
X144257000Y-108404000D01*
G75*
G02*
X144207000Y-108354000I0J50000D01*
G01*
G37*
D10*
X148012000Y-109644000D03*
X158172000Y-109644000D03*
D11*
X153092000Y-109644000D03*
D12*
X149282000Y-107104000D03*
X155632000Y-104564000D03*
G36*
G01*
X158057000Y-105814000D02*
X158057000Y-103314000D01*
G75*
G02*
X158107000Y-103264000I50000J0D01*
G01*
X160657000Y-103264000D01*
G75*
G02*
X160707000Y-103314000I0J-50000D01*
G01*
X160707000Y-105814000D01*
G75*
G02*
X160657000Y-105864000I-50000J0D01*
G01*
X158107000Y-105864000D01*
G75*
G02*
X158057000Y-105814000I0J50000D01*
G01*
G37*
%TD*%
%TO.C,SW23*%
G36*
G01*
X125167000Y-108354000D02*
X125167000Y-105854000D01*
G75*
G02*
X125217000Y-105804000I50000J0D01*
G01*
X127767000Y-105804000D01*
G75*
G02*
X127817000Y-105854000I0J-50000D01*
G01*
X127817000Y-108354000D01*
G75*
G02*
X127767000Y-108404000I-50000J0D01*
G01*
X125217000Y-108404000D01*
G75*
G02*
X125167000Y-108354000I0J50000D01*
G01*
G37*
D10*
X128972000Y-109644000D03*
X139132000Y-109644000D03*
D11*
X134052000Y-109644000D03*
D12*
X130242000Y-107104000D03*
X136592000Y-104564000D03*
G36*
G01*
X139017000Y-105814000D02*
X139017000Y-103314000D01*
G75*
G02*
X139067000Y-103264000I50000J0D01*
G01*
X141617000Y-103264000D01*
G75*
G02*
X141667000Y-103314000I0J-50000D01*
G01*
X141667000Y-105814000D01*
G75*
G02*
X141617000Y-105864000I-50000J0D01*
G01*
X139067000Y-105864000D01*
G75*
G02*
X139017000Y-105814000I0J50000D01*
G01*
G37*
%TD*%
%TO.C,SW22*%
G36*
G01*
X106127000Y-108354000D02*
X106127000Y-105854000D01*
G75*
G02*
X106177000Y-105804000I50000J0D01*
G01*
X108727000Y-105804000D01*
G75*
G02*
X108777000Y-105854000I0J-50000D01*
G01*
X108777000Y-108354000D01*
G75*
G02*
X108727000Y-108404000I-50000J0D01*
G01*
X106177000Y-108404000D01*
G75*
G02*
X106127000Y-108354000I0J50000D01*
G01*
G37*
D10*
X109932000Y-109644000D03*
X120092000Y-109644000D03*
D11*
X115012000Y-109644000D03*
D12*
X111202000Y-107104000D03*
X117552000Y-104564000D03*
G36*
G01*
X119977000Y-105814000D02*
X119977000Y-103314000D01*
G75*
G02*
X120027000Y-103264000I50000J0D01*
G01*
X122577000Y-103264000D01*
G75*
G02*
X122627000Y-103314000I0J-50000D01*
G01*
X122627000Y-105814000D01*
G75*
G02*
X122577000Y-105864000I-50000J0D01*
G01*
X120027000Y-105864000D01*
G75*
G02*
X119977000Y-105814000I0J50000D01*
G01*
G37*
%TD*%
%TO.C,SW21*%
G36*
G01*
X87087000Y-108354000D02*
X87087000Y-105854000D01*
G75*
G02*
X87137000Y-105804000I50000J0D01*
G01*
X89687000Y-105804000D01*
G75*
G02*
X89737000Y-105854000I0J-50000D01*
G01*
X89737000Y-108354000D01*
G75*
G02*
X89687000Y-108404000I-50000J0D01*
G01*
X87137000Y-108404000D01*
G75*
G02*
X87087000Y-108354000I0J50000D01*
G01*
G37*
D10*
X90892000Y-109644000D03*
X101052000Y-109644000D03*
D11*
X95972000Y-109644000D03*
D12*
X92162000Y-107104000D03*
X98512000Y-104564000D03*
G36*
G01*
X100937000Y-105814000D02*
X100937000Y-103314000D01*
G75*
G02*
X100987000Y-103264000I50000J0D01*
G01*
X103537000Y-103264000D01*
G75*
G02*
X103587000Y-103314000I0J-50000D01*
G01*
X103587000Y-105814000D01*
G75*
G02*
X103537000Y-105864000I-50000J0D01*
G01*
X100987000Y-105864000D01*
G75*
G02*
X100937000Y-105814000I0J50000D01*
G01*
G37*
%TD*%
%TO.C,SW20*%
G36*
G01*
X65667000Y-108354000D02*
X65667000Y-105854000D01*
G75*
G02*
X65717000Y-105804000I50000J0D01*
G01*
X68267000Y-105804000D01*
G75*
G02*
X68317000Y-105854000I0J-50000D01*
G01*
X68317000Y-108354000D01*
G75*
G02*
X68267000Y-108404000I-50000J0D01*
G01*
X65717000Y-108404000D01*
G75*
G02*
X65667000Y-108354000I0J50000D01*
G01*
G37*
D10*
X69472000Y-109644000D03*
X79632000Y-109644000D03*
D11*
X74552000Y-109644000D03*
D12*
X70742000Y-107104000D03*
X77092000Y-104564000D03*
G36*
G01*
X79517000Y-105814000D02*
X79517000Y-103314000D01*
G75*
G02*
X79567000Y-103264000I50000J0D01*
G01*
X82117000Y-103264000D01*
G75*
G02*
X82167000Y-103314000I0J-50000D01*
G01*
X82167000Y-105814000D01*
G75*
G02*
X82117000Y-105864000I-50000J0D01*
G01*
X79567000Y-105864000D01*
G75*
G02*
X79517000Y-105814000I0J50000D01*
G01*
G37*
%TD*%
%TO.C,SW19*%
G36*
G01*
X172767000Y-89314000D02*
X172767000Y-86814000D01*
G75*
G02*
X172817000Y-86764000I50000J0D01*
G01*
X175367000Y-86764000D01*
G75*
G02*
X175417000Y-86814000I0J-50000D01*
G01*
X175417000Y-89314000D01*
G75*
G02*
X175367000Y-89364000I-50000J0D01*
G01*
X172817000Y-89364000D01*
G75*
G02*
X172767000Y-89314000I0J50000D01*
G01*
G37*
D10*
X176572000Y-90604000D03*
X186732000Y-90604000D03*
D11*
X181652000Y-90604000D03*
D12*
X177842000Y-88064000D03*
X184192000Y-85524000D03*
G36*
G01*
X186617000Y-86774000D02*
X186617000Y-84274000D01*
G75*
G02*
X186667000Y-84224000I50000J0D01*
G01*
X189217000Y-84224000D01*
G75*
G02*
X189267000Y-84274000I0J-50000D01*
G01*
X189267000Y-86774000D01*
G75*
G02*
X189217000Y-86824000I-50000J0D01*
G01*
X186667000Y-86824000D01*
G75*
G02*
X186617000Y-86774000I0J50000D01*
G01*
G37*
%TD*%
%TO.C,SW18*%
G36*
G01*
X153727000Y-89314000D02*
X153727000Y-86814000D01*
G75*
G02*
X153777000Y-86764000I50000J0D01*
G01*
X156327000Y-86764000D01*
G75*
G02*
X156377000Y-86814000I0J-50000D01*
G01*
X156377000Y-89314000D01*
G75*
G02*
X156327000Y-89364000I-50000J0D01*
G01*
X153777000Y-89364000D01*
G75*
G02*
X153727000Y-89314000I0J50000D01*
G01*
G37*
D10*
X157532000Y-90604000D03*
X167692000Y-90604000D03*
D11*
X162612000Y-90604000D03*
D12*
X158802000Y-88064000D03*
X165152000Y-85524000D03*
G36*
G01*
X167577000Y-86774000D02*
X167577000Y-84274000D01*
G75*
G02*
X167627000Y-84224000I50000J0D01*
G01*
X170177000Y-84224000D01*
G75*
G02*
X170227000Y-84274000I0J-50000D01*
G01*
X170227000Y-86774000D01*
G75*
G02*
X170177000Y-86824000I-50000J0D01*
G01*
X167627000Y-86824000D01*
G75*
G02*
X167577000Y-86774000I0J50000D01*
G01*
G37*
%TD*%
%TO.C,SW17*%
G36*
G01*
X134687000Y-89314000D02*
X134687000Y-86814000D01*
G75*
G02*
X134737000Y-86764000I50000J0D01*
G01*
X137287000Y-86764000D01*
G75*
G02*
X137337000Y-86814000I0J-50000D01*
G01*
X137337000Y-89314000D01*
G75*
G02*
X137287000Y-89364000I-50000J0D01*
G01*
X134737000Y-89364000D01*
G75*
G02*
X134687000Y-89314000I0J50000D01*
G01*
G37*
D10*
X138492000Y-90604000D03*
X148652000Y-90604000D03*
D11*
X143572000Y-90604000D03*
D12*
X139762000Y-88064000D03*
X146112000Y-85524000D03*
G36*
G01*
X148537000Y-86774000D02*
X148537000Y-84274000D01*
G75*
G02*
X148587000Y-84224000I50000J0D01*
G01*
X151137000Y-84224000D01*
G75*
G02*
X151187000Y-84274000I0J-50000D01*
G01*
X151187000Y-86774000D01*
G75*
G02*
X151137000Y-86824000I-50000J0D01*
G01*
X148587000Y-86824000D01*
G75*
G02*
X148537000Y-86774000I0J50000D01*
G01*
G37*
%TD*%
%TO.C,SW14*%
G36*
G01*
X70427000Y-89314000D02*
X70427000Y-86814000D01*
G75*
G02*
X70477000Y-86764000I50000J0D01*
G01*
X73027000Y-86764000D01*
G75*
G02*
X73077000Y-86814000I0J-50000D01*
G01*
X73077000Y-89314000D01*
G75*
G02*
X73027000Y-89364000I-50000J0D01*
G01*
X70477000Y-89364000D01*
G75*
G02*
X70427000Y-89314000I0J50000D01*
G01*
G37*
D10*
X74232000Y-90604000D03*
X84392000Y-90604000D03*
D11*
X79312000Y-90604000D03*
D12*
X75502000Y-88064000D03*
X81852000Y-85524000D03*
G36*
G01*
X84277000Y-86774000D02*
X84277000Y-84274000D01*
G75*
G02*
X84327000Y-84224000I50000J0D01*
G01*
X86877000Y-84224000D01*
G75*
G02*
X86927000Y-84274000I0J-50000D01*
G01*
X86927000Y-86774000D01*
G75*
G02*
X86877000Y-86824000I-50000J0D01*
G01*
X84327000Y-86824000D01*
G75*
G02*
X84277000Y-86774000I0J50000D01*
G01*
G37*
%TD*%
%TO.C,SW13*%
G36*
G01*
X168007000Y-70274000D02*
X168007000Y-67774000D01*
G75*
G02*
X168057000Y-67724000I50000J0D01*
G01*
X170607000Y-67724000D01*
G75*
G02*
X170657000Y-67774000I0J-50000D01*
G01*
X170657000Y-70274000D01*
G75*
G02*
X170607000Y-70324000I-50000J0D01*
G01*
X168057000Y-70324000D01*
G75*
G02*
X168007000Y-70274000I0J50000D01*
G01*
G37*
D10*
X171812000Y-71564000D03*
X181972000Y-71564000D03*
D11*
X176892000Y-71564000D03*
D12*
X173082000Y-69024000D03*
X179432000Y-66484000D03*
G36*
G01*
X181857000Y-67734000D02*
X181857000Y-65234000D01*
G75*
G02*
X181907000Y-65184000I50000J0D01*
G01*
X184457000Y-65184000D01*
G75*
G02*
X184507000Y-65234000I0J-50000D01*
G01*
X184507000Y-67734000D01*
G75*
G02*
X184457000Y-67784000I-50000J0D01*
G01*
X181907000Y-67784000D01*
G75*
G02*
X181857000Y-67734000I0J50000D01*
G01*
G37*
%TD*%
%TO.C,SW12*%
G36*
G01*
X148967000Y-70274000D02*
X148967000Y-67774000D01*
G75*
G02*
X149017000Y-67724000I50000J0D01*
G01*
X151567000Y-67724000D01*
G75*
G02*
X151617000Y-67774000I0J-50000D01*
G01*
X151617000Y-70274000D01*
G75*
G02*
X151567000Y-70324000I-50000J0D01*
G01*
X149017000Y-70324000D01*
G75*
G02*
X148967000Y-70274000I0J50000D01*
G01*
G37*
D10*
X152772000Y-71564000D03*
X162932000Y-71564000D03*
D11*
X157852000Y-71564000D03*
D12*
X154042000Y-69024000D03*
X160392000Y-66484000D03*
G36*
G01*
X162817000Y-67734000D02*
X162817000Y-65234000D01*
G75*
G02*
X162867000Y-65184000I50000J0D01*
G01*
X165417000Y-65184000D01*
G75*
G02*
X165467000Y-65234000I0J-50000D01*
G01*
X165467000Y-67734000D01*
G75*
G02*
X165417000Y-67784000I-50000J0D01*
G01*
X162867000Y-67784000D01*
G75*
G02*
X162817000Y-67734000I0J50000D01*
G01*
G37*
%TD*%
%TO.C,SW7*%
G36*
G01*
X177527000Y-51234000D02*
X177527000Y-48734000D01*
G75*
G02*
X177577000Y-48684000I50000J0D01*
G01*
X180127000Y-48684000D01*
G75*
G02*
X180177000Y-48734000I0J-50000D01*
G01*
X180177000Y-51234000D01*
G75*
G02*
X180127000Y-51284000I-50000J0D01*
G01*
X177577000Y-51284000D01*
G75*
G02*
X177527000Y-51234000I0J50000D01*
G01*
G37*
D10*
X181332000Y-52524000D03*
X191492000Y-52524000D03*
D11*
X186412000Y-52524000D03*
D12*
X182602000Y-49984000D03*
X188952000Y-47444000D03*
G36*
G01*
X191377000Y-48694000D02*
X191377000Y-46194000D01*
G75*
G02*
X191427000Y-46144000I50000J0D01*
G01*
X193977000Y-46144000D01*
G75*
G02*
X194027000Y-46194000I0J-50000D01*
G01*
X194027000Y-48694000D01*
G75*
G02*
X193977000Y-48744000I-50000J0D01*
G01*
X191427000Y-48744000D01*
G75*
G02*
X191377000Y-48694000I0J50000D01*
G01*
G37*
%TD*%
%TO.C,SW11*%
G36*
G01*
X129927000Y-70274000D02*
X129927000Y-67774000D01*
G75*
G02*
X129977000Y-67724000I50000J0D01*
G01*
X132527000Y-67724000D01*
G75*
G02*
X132577000Y-67774000I0J-50000D01*
G01*
X132577000Y-70274000D01*
G75*
G02*
X132527000Y-70324000I-50000J0D01*
G01*
X129977000Y-70324000D01*
G75*
G02*
X129927000Y-70274000I0J50000D01*
G01*
G37*
D10*
X133732000Y-71564000D03*
X143892000Y-71564000D03*
D11*
X138812000Y-71564000D03*
D12*
X135002000Y-69024000D03*
X141352000Y-66484000D03*
G36*
G01*
X143777000Y-67734000D02*
X143777000Y-65234000D01*
G75*
G02*
X143827000Y-65184000I50000J0D01*
G01*
X146377000Y-65184000D01*
G75*
G02*
X146427000Y-65234000I0J-50000D01*
G01*
X146427000Y-67734000D01*
G75*
G02*
X146377000Y-67784000I-50000J0D01*
G01*
X143827000Y-67784000D01*
G75*
G02*
X143777000Y-67734000I0J50000D01*
G01*
G37*
%TD*%
%TO.C,SW10*%
G36*
G01*
X110887000Y-70274000D02*
X110887000Y-67774000D01*
G75*
G02*
X110937000Y-67724000I50000J0D01*
G01*
X113487000Y-67724000D01*
G75*
G02*
X113537000Y-67774000I0J-50000D01*
G01*
X113537000Y-70274000D01*
G75*
G02*
X113487000Y-70324000I-50000J0D01*
G01*
X110937000Y-70324000D01*
G75*
G02*
X110887000Y-70274000I0J50000D01*
G01*
G37*
D10*
X114692000Y-71564000D03*
X124852000Y-71564000D03*
D11*
X119772000Y-71564000D03*
D12*
X115962000Y-69024000D03*
X122312000Y-66484000D03*
G36*
G01*
X124737000Y-67734000D02*
X124737000Y-65234000D01*
G75*
G02*
X124787000Y-65184000I50000J0D01*
G01*
X127337000Y-65184000D01*
G75*
G02*
X127387000Y-65234000I0J-50000D01*
G01*
X127387000Y-67734000D01*
G75*
G02*
X127337000Y-67784000I-50000J0D01*
G01*
X124787000Y-67784000D01*
G75*
G02*
X124737000Y-67734000I0J50000D01*
G01*
G37*
%TD*%
%TO.C,SW9*%
G36*
G01*
X91847000Y-70274000D02*
X91847000Y-67774000D01*
G75*
G02*
X91897000Y-67724000I50000J0D01*
G01*
X94447000Y-67724000D01*
G75*
G02*
X94497000Y-67774000I0J-50000D01*
G01*
X94497000Y-70274000D01*
G75*
G02*
X94447000Y-70324000I-50000J0D01*
G01*
X91897000Y-70324000D01*
G75*
G02*
X91847000Y-70274000I0J50000D01*
G01*
G37*
D10*
X95652000Y-71564000D03*
X105812000Y-71564000D03*
D11*
X100732000Y-71564000D03*
D12*
X96922000Y-69024000D03*
X103272000Y-66484000D03*
G36*
G01*
X105697000Y-67734000D02*
X105697000Y-65234000D01*
G75*
G02*
X105747000Y-65184000I50000J0D01*
G01*
X108297000Y-65184000D01*
G75*
G02*
X108347000Y-65234000I0J-50000D01*
G01*
X108347000Y-67734000D01*
G75*
G02*
X108297000Y-67784000I-50000J0D01*
G01*
X105747000Y-67784000D01*
G75*
G02*
X105697000Y-67734000I0J50000D01*
G01*
G37*
%TD*%
%TO.C,SW16*%
G36*
G01*
X115647000Y-89314000D02*
X115647000Y-86814000D01*
G75*
G02*
X115697000Y-86764000I50000J0D01*
G01*
X118247000Y-86764000D01*
G75*
G02*
X118297000Y-86814000I0J-50000D01*
G01*
X118297000Y-89314000D01*
G75*
G02*
X118247000Y-89364000I-50000J0D01*
G01*
X115697000Y-89364000D01*
G75*
G02*
X115647000Y-89314000I0J50000D01*
G01*
G37*
D10*
X119452000Y-90604000D03*
X129612000Y-90604000D03*
D11*
X124532000Y-90604000D03*
D12*
X120722000Y-88064000D03*
X127072000Y-85524000D03*
G36*
G01*
X129497000Y-86774000D02*
X129497000Y-84274000D01*
G75*
G02*
X129547000Y-84224000I50000J0D01*
G01*
X132097000Y-84224000D01*
G75*
G02*
X132147000Y-84274000I0J-50000D01*
G01*
X132147000Y-86774000D01*
G75*
G02*
X132097000Y-86824000I-50000J0D01*
G01*
X129547000Y-86824000D01*
G75*
G02*
X129497000Y-86774000I0J50000D01*
G01*
G37*
%TD*%
%TO.C,SW15*%
G36*
G01*
X96607000Y-89314000D02*
X96607000Y-86814000D01*
G75*
G02*
X96657000Y-86764000I50000J0D01*
G01*
X99207000Y-86764000D01*
G75*
G02*
X99257000Y-86814000I0J-50000D01*
G01*
X99257000Y-89314000D01*
G75*
G02*
X99207000Y-89364000I-50000J0D01*
G01*
X96657000Y-89364000D01*
G75*
G02*
X96607000Y-89314000I0J50000D01*
G01*
G37*
D10*
X100412000Y-90604000D03*
X110572000Y-90604000D03*
D11*
X105492000Y-90604000D03*
D12*
X101682000Y-88064000D03*
X108032000Y-85524000D03*
G36*
G01*
X110457000Y-86774000D02*
X110457000Y-84274000D01*
G75*
G02*
X110507000Y-84224000I50000J0D01*
G01*
X113057000Y-84224000D01*
G75*
G02*
X113107000Y-84274000I0J-50000D01*
G01*
X113107000Y-86774000D01*
G75*
G02*
X113057000Y-86824000I-50000J0D01*
G01*
X110507000Y-86824000D01*
G75*
G02*
X110457000Y-86774000I0J50000D01*
G01*
G37*
%TD*%
%TO.C,SW8*%
G36*
G01*
X68047000Y-70274000D02*
X68047000Y-67774000D01*
G75*
G02*
X68097000Y-67724000I50000J0D01*
G01*
X70647000Y-67724000D01*
G75*
G02*
X70697000Y-67774000I0J-50000D01*
G01*
X70697000Y-70274000D01*
G75*
G02*
X70647000Y-70324000I-50000J0D01*
G01*
X68097000Y-70324000D01*
G75*
G02*
X68047000Y-70274000I0J50000D01*
G01*
G37*
D10*
X71852000Y-71564000D03*
X82012000Y-71564000D03*
D11*
X76932000Y-71564000D03*
D12*
X73122000Y-69024000D03*
X79472000Y-66484000D03*
G36*
G01*
X81897000Y-67734000D02*
X81897000Y-65234000D01*
G75*
G02*
X81947000Y-65184000I50000J0D01*
G01*
X84497000Y-65184000D01*
G75*
G02*
X84547000Y-65234000I0J-50000D01*
G01*
X84547000Y-67734000D01*
G75*
G02*
X84497000Y-67784000I-50000J0D01*
G01*
X81947000Y-67784000D01*
G75*
G02*
X81897000Y-67734000I0J50000D01*
G01*
G37*
%TD*%
%TO.C,SW6*%
G36*
G01*
X158487000Y-51234000D02*
X158487000Y-48734000D01*
G75*
G02*
X158537000Y-48684000I50000J0D01*
G01*
X161087000Y-48684000D01*
G75*
G02*
X161137000Y-48734000I0J-50000D01*
G01*
X161137000Y-51234000D01*
G75*
G02*
X161087000Y-51284000I-50000J0D01*
G01*
X158537000Y-51284000D01*
G75*
G02*
X158487000Y-51234000I0J50000D01*
G01*
G37*
D10*
X162292000Y-52524000D03*
X172452000Y-52524000D03*
D11*
X167372000Y-52524000D03*
D12*
X163562000Y-49984000D03*
X169912000Y-47444000D03*
G36*
G01*
X172337000Y-48694000D02*
X172337000Y-46194000D01*
G75*
G02*
X172387000Y-46144000I50000J0D01*
G01*
X174937000Y-46144000D01*
G75*
G02*
X174987000Y-46194000I0J-50000D01*
G01*
X174987000Y-48694000D01*
G75*
G02*
X174937000Y-48744000I-50000J0D01*
G01*
X172387000Y-48744000D01*
G75*
G02*
X172337000Y-48694000I0J50000D01*
G01*
G37*
%TD*%
%TO.C,SW5*%
G36*
G01*
X139447000Y-51234000D02*
X139447000Y-48734000D01*
G75*
G02*
X139497000Y-48684000I50000J0D01*
G01*
X142047000Y-48684000D01*
G75*
G02*
X142097000Y-48734000I0J-50000D01*
G01*
X142097000Y-51234000D01*
G75*
G02*
X142047000Y-51284000I-50000J0D01*
G01*
X139497000Y-51284000D01*
G75*
G02*
X139447000Y-51234000I0J50000D01*
G01*
G37*
D10*
X143252000Y-52524000D03*
X153412000Y-52524000D03*
D11*
X148332000Y-52524000D03*
D12*
X144522000Y-49984000D03*
X150872000Y-47444000D03*
G36*
G01*
X153297000Y-48694000D02*
X153297000Y-46194000D01*
G75*
G02*
X153347000Y-46144000I50000J0D01*
G01*
X155897000Y-46144000D01*
G75*
G02*
X155947000Y-46194000I0J-50000D01*
G01*
X155947000Y-48694000D01*
G75*
G02*
X155897000Y-48744000I-50000J0D01*
G01*
X153347000Y-48744000D01*
G75*
G02*
X153297000Y-48694000I0J50000D01*
G01*
G37*
%TD*%
%TO.C,SW4*%
G36*
G01*
X120407000Y-51234000D02*
X120407000Y-48734000D01*
G75*
G02*
X120457000Y-48684000I50000J0D01*
G01*
X123007000Y-48684000D01*
G75*
G02*
X123057000Y-48734000I0J-50000D01*
G01*
X123057000Y-51234000D01*
G75*
G02*
X123007000Y-51284000I-50000J0D01*
G01*
X120457000Y-51284000D01*
G75*
G02*
X120407000Y-51234000I0J50000D01*
G01*
G37*
D10*
X124212000Y-52524000D03*
X134372000Y-52524000D03*
D11*
X129292000Y-52524000D03*
D12*
X125482000Y-49984000D03*
X131832000Y-47444000D03*
G36*
G01*
X134257000Y-48694000D02*
X134257000Y-46194000D01*
G75*
G02*
X134307000Y-46144000I50000J0D01*
G01*
X136857000Y-46144000D01*
G75*
G02*
X136907000Y-46194000I0J-50000D01*
G01*
X136907000Y-48694000D01*
G75*
G02*
X136857000Y-48744000I-50000J0D01*
G01*
X134307000Y-48744000D01*
G75*
G02*
X134257000Y-48694000I0J50000D01*
G01*
G37*
%TD*%
%TO.C,SW3*%
G36*
G01*
X101367000Y-51234000D02*
X101367000Y-48734000D01*
G75*
G02*
X101417000Y-48684000I50000J0D01*
G01*
X103967000Y-48684000D01*
G75*
G02*
X104017000Y-48734000I0J-50000D01*
G01*
X104017000Y-51234000D01*
G75*
G02*
X103967000Y-51284000I-50000J0D01*
G01*
X101417000Y-51284000D01*
G75*
G02*
X101367000Y-51234000I0J50000D01*
G01*
G37*
D10*
X105172000Y-52524000D03*
X115332000Y-52524000D03*
D11*
X110252000Y-52524000D03*
D12*
X106442000Y-49984000D03*
X112792000Y-47444000D03*
G36*
G01*
X115217000Y-48694000D02*
X115217000Y-46194000D01*
G75*
G02*
X115267000Y-46144000I50000J0D01*
G01*
X117817000Y-46144000D01*
G75*
G02*
X117867000Y-46194000I0J-50000D01*
G01*
X117867000Y-48694000D01*
G75*
G02*
X117817000Y-48744000I-50000J0D01*
G01*
X115267000Y-48744000D01*
G75*
G02*
X115217000Y-48694000I0J50000D01*
G01*
G37*
%TD*%
%TO.C,SW2*%
G36*
G01*
X82327000Y-51234000D02*
X82327000Y-48734000D01*
G75*
G02*
X82377000Y-48684000I50000J0D01*
G01*
X84927000Y-48684000D01*
G75*
G02*
X84977000Y-48734000I0J-50000D01*
G01*
X84977000Y-51234000D01*
G75*
G02*
X84927000Y-51284000I-50000J0D01*
G01*
X82377000Y-51284000D01*
G75*
G02*
X82327000Y-51234000I0J50000D01*
G01*
G37*
D10*
X86132000Y-52524000D03*
X96292000Y-52524000D03*
D11*
X91212000Y-52524000D03*
D12*
X87402000Y-49984000D03*
X93752000Y-47444000D03*
G36*
G01*
X96177000Y-48694000D02*
X96177000Y-46194000D01*
G75*
G02*
X96227000Y-46144000I50000J0D01*
G01*
X98777000Y-46144000D01*
G75*
G02*
X98827000Y-46194000I0J-50000D01*
G01*
X98827000Y-48694000D01*
G75*
G02*
X98777000Y-48744000I-50000J0D01*
G01*
X96227000Y-48744000D01*
G75*
G02*
X96177000Y-48694000I0J50000D01*
G01*
G37*
%TD*%
%TO.C,SW1*%
G36*
G01*
X63287000Y-51234000D02*
X63287000Y-48734000D01*
G75*
G02*
X63337000Y-48684000I50000J0D01*
G01*
X65887000Y-48684000D01*
G75*
G02*
X65937000Y-48734000I0J-50000D01*
G01*
X65937000Y-51234000D01*
G75*
G02*
X65887000Y-51284000I-50000J0D01*
G01*
X63337000Y-51284000D01*
G75*
G02*
X63287000Y-51234000I0J50000D01*
G01*
G37*
D10*
X67092000Y-52524000D03*
X77252000Y-52524000D03*
D11*
X72172000Y-52524000D03*
D12*
X68362000Y-49984000D03*
X74712000Y-47444000D03*
G36*
G01*
X77137000Y-48694000D02*
X77137000Y-46194000D01*
G75*
G02*
X77187000Y-46144000I50000J0D01*
G01*
X79737000Y-46144000D01*
G75*
G02*
X79787000Y-46194000I0J-50000D01*
G01*
X79787000Y-48694000D01*
G75*
G02*
X79737000Y-48744000I-50000J0D01*
G01*
X77187000Y-48744000D01*
G75*
G02*
X77137000Y-48694000I0J50000D01*
G01*
G37*
%TD*%
D14*
%TO.C,HOLE_3M*%
X181652000Y-100838000D03*
%TD*%
%TO.C,HOLE_3M*%
X167372000Y-62520000D03*
%TD*%
%TO.C,HOLE_3M*%
X90736000Y-123448000D03*
%TD*%
%TO.C,HOLE_3M*%
X88356000Y-67518000D03*
%TD*%
D15*
%TO.C,HOLE_M2*%
X59558000Y-137728000D03*
%TD*%
%TO.C,HOLE_M2*%
X59558000Y-46098000D03*
%TD*%
%TO.C,HOLE_M2*%
X27190000Y-46098000D03*
%TD*%
%TO.C,HOLE_M2*%
X27190000Y-137728000D03*
%TD*%
D16*
%TO.C,U1*%
X55273000Y-47508000D03*
X40058000Y-50048000D03*
X40058000Y-47508000D03*
X42598000Y-52588000D03*
X40058000Y-52588000D03*
X40058000Y-55128000D03*
X40058000Y-57668000D03*
X40058000Y-60208000D03*
X45138000Y-52588000D03*
X47678000Y-52588000D03*
X40058000Y-62748000D03*
X40058000Y-65288000D03*
X40058000Y-67828000D03*
X40058000Y-70368000D03*
X40058000Y-72908000D03*
X40058000Y-75448000D03*
X40058000Y-83068000D03*
X40058000Y-88148000D03*
X40058000Y-90688000D03*
X40058000Y-85608000D03*
X40058000Y-93228000D03*
X40058000Y-80528000D03*
X55273000Y-50048000D03*
X55273000Y-52588000D03*
X55273000Y-57668000D03*
X52733000Y-52588000D03*
X55273000Y-55128000D03*
X55273000Y-60208000D03*
X55273000Y-62748000D03*
X55273000Y-65288000D03*
X55273000Y-70368000D03*
X55273000Y-72908000D03*
X55273000Y-67828000D03*
X55273000Y-75448000D03*
X55273000Y-83068000D03*
X55273000Y-80528000D03*
X55273000Y-88148000D03*
X55273000Y-85608000D03*
X55273000Y-90688000D03*
X55273000Y-93228000D03*
%TD*%
%TO.C,J1*%
G36*
G01*
X30828000Y-57520000D02*
X30828000Y-55420000D01*
G75*
G02*
X30878000Y-55370000I50000J0D01*
G01*
X31678000Y-55370000D01*
G75*
G02*
X31728000Y-55420000I0J-50000D01*
G01*
X31728000Y-57520000D01*
G75*
G02*
X31678000Y-57570000I-50000J0D01*
G01*
X30878000Y-57570000D01*
G75*
G02*
X30828000Y-57520000I0J50000D01*
G01*
G37*
G36*
G01*
X35028000Y-56020000D02*
X35028000Y-53920000D01*
G75*
G02*
X35078000Y-53870000I50000J0D01*
G01*
X35878000Y-53870000D01*
G75*
G02*
X35928000Y-53920000I0J-50000D01*
G01*
X35928000Y-56020000D01*
G75*
G02*
X35878000Y-56070000I-50000J0D01*
G01*
X35078000Y-56070000D01*
G75*
G02*
X35028000Y-56020000I0J50000D01*
G01*
G37*
G36*
G01*
X35028000Y-52020000D02*
X35028000Y-49920000D01*
G75*
G02*
X35078000Y-49870000I50000J0D01*
G01*
X35878000Y-49870000D01*
G75*
G02*
X35928000Y-49920000I0J-50000D01*
G01*
X35928000Y-52020000D01*
G75*
G02*
X35878000Y-52070000I-50000J0D01*
G01*
X35078000Y-52070000D01*
G75*
G02*
X35028000Y-52020000I0J50000D01*
G01*
G37*
G36*
G01*
X35028000Y-49020000D02*
X35028000Y-46920000D01*
G75*
G02*
X35078000Y-46870000I50000J0D01*
G01*
X35878000Y-46870000D01*
G75*
G02*
X35928000Y-46920000I0J-50000D01*
G01*
X35928000Y-49020000D01*
G75*
G02*
X35878000Y-49070000I-50000J0D01*
G01*
X35078000Y-49070000D01*
G75*
G02*
X35028000Y-49020000I0J50000D01*
G01*
G37*
D17*
X33378000Y-53170000D03*
X33378000Y-46170000D03*
%TD*%
D18*
%TO.C,D1*%
X64080000Y-52908000D03*
G36*
G01*
X64880000Y-61558000D02*
X63280000Y-61558000D01*
G75*
G02*
X63230000Y-61508000I0J50000D01*
G01*
X63230000Y-59908000D01*
G75*
G02*
X63280000Y-59858000I50000J0D01*
G01*
X64880000Y-59858000D01*
G75*
G02*
X64930000Y-59908000I0J-50000D01*
G01*
X64930000Y-61508000D01*
G75*
G02*
X64880000Y-61558000I-50000J0D01*
G01*
G37*
G36*
G01*
X64680000Y-59033000D02*
X63480000Y-59033000D01*
G75*
G02*
X63430000Y-58983000I0J50000D01*
G01*
X63430000Y-57783000D01*
G75*
G02*
X63480000Y-57733000I50000J0D01*
G01*
X64680000Y-57733000D01*
G75*
G02*
X64730000Y-57783000I0J-50000D01*
G01*
X64730000Y-58983000D01*
G75*
G02*
X64680000Y-59033000I-50000J0D01*
G01*
G37*
G36*
G01*
X64680000Y-55883000D02*
X63480000Y-55883000D01*
G75*
G02*
X63430000Y-55833000I0J50000D01*
G01*
X63430000Y-54633000D01*
G75*
G02*
X63480000Y-54583000I50000J0D01*
G01*
X64680000Y-54583000D01*
G75*
G02*
X64730000Y-54633000I0J-50000D01*
G01*
X64730000Y-55833000D01*
G75*
G02*
X64680000Y-55883000I-50000J0D01*
G01*
G37*
%TD*%
%TO.C,D2*%
X81692000Y-52908000D03*
G36*
G01*
X82492000Y-61558000D02*
X80892000Y-61558000D01*
G75*
G02*
X80842000Y-61508000I0J50000D01*
G01*
X80842000Y-59908000D01*
G75*
G02*
X80892000Y-59858000I50000J0D01*
G01*
X82492000Y-59858000D01*
G75*
G02*
X82542000Y-59908000I0J-50000D01*
G01*
X82542000Y-61508000D01*
G75*
G02*
X82492000Y-61558000I-50000J0D01*
G01*
G37*
G36*
G01*
X82292000Y-59033000D02*
X81092000Y-59033000D01*
G75*
G02*
X81042000Y-58983000I0J50000D01*
G01*
X81042000Y-57783000D01*
G75*
G02*
X81092000Y-57733000I50000J0D01*
G01*
X82292000Y-57733000D01*
G75*
G02*
X82342000Y-57783000I0J-50000D01*
G01*
X82342000Y-58983000D01*
G75*
G02*
X82292000Y-59033000I-50000J0D01*
G01*
G37*
G36*
G01*
X82292000Y-55883000D02*
X81092000Y-55883000D01*
G75*
G02*
X81042000Y-55833000I0J50000D01*
G01*
X81042000Y-54633000D01*
G75*
G02*
X81092000Y-54583000I50000J0D01*
G01*
X82292000Y-54583000D01*
G75*
G02*
X82342000Y-54633000I0J-50000D01*
G01*
X82342000Y-55833000D01*
G75*
G02*
X82292000Y-55883000I-50000J0D01*
G01*
G37*
%TD*%
%TO.C,D3*%
X100732000Y-52908000D03*
G36*
G01*
X101532000Y-61558000D02*
X99932000Y-61558000D01*
G75*
G02*
X99882000Y-61508000I0J50000D01*
G01*
X99882000Y-59908000D01*
G75*
G02*
X99932000Y-59858000I50000J0D01*
G01*
X101532000Y-59858000D01*
G75*
G02*
X101582000Y-59908000I0J-50000D01*
G01*
X101582000Y-61508000D01*
G75*
G02*
X101532000Y-61558000I-50000J0D01*
G01*
G37*
G36*
G01*
X101332000Y-59033000D02*
X100132000Y-59033000D01*
G75*
G02*
X100082000Y-58983000I0J50000D01*
G01*
X100082000Y-57783000D01*
G75*
G02*
X100132000Y-57733000I50000J0D01*
G01*
X101332000Y-57733000D01*
G75*
G02*
X101382000Y-57783000I0J-50000D01*
G01*
X101382000Y-58983000D01*
G75*
G02*
X101332000Y-59033000I-50000J0D01*
G01*
G37*
G36*
G01*
X101332000Y-55883000D02*
X100132000Y-55883000D01*
G75*
G02*
X100082000Y-55833000I0J50000D01*
G01*
X100082000Y-54633000D01*
G75*
G02*
X100132000Y-54583000I50000J0D01*
G01*
X101332000Y-54583000D01*
G75*
G02*
X101382000Y-54633000I0J-50000D01*
G01*
X101382000Y-55833000D01*
G75*
G02*
X101332000Y-55883000I-50000J0D01*
G01*
G37*
%TD*%
%TO.C,D4*%
X119772000Y-52908000D03*
G36*
G01*
X120572000Y-61558000D02*
X118972000Y-61558000D01*
G75*
G02*
X118922000Y-61508000I0J50000D01*
G01*
X118922000Y-59908000D01*
G75*
G02*
X118972000Y-59858000I50000J0D01*
G01*
X120572000Y-59858000D01*
G75*
G02*
X120622000Y-59908000I0J-50000D01*
G01*
X120622000Y-61508000D01*
G75*
G02*
X120572000Y-61558000I-50000J0D01*
G01*
G37*
G36*
G01*
X120372000Y-59033000D02*
X119172000Y-59033000D01*
G75*
G02*
X119122000Y-58983000I0J50000D01*
G01*
X119122000Y-57783000D01*
G75*
G02*
X119172000Y-57733000I50000J0D01*
G01*
X120372000Y-57733000D01*
G75*
G02*
X120422000Y-57783000I0J-50000D01*
G01*
X120422000Y-58983000D01*
G75*
G02*
X120372000Y-59033000I-50000J0D01*
G01*
G37*
G36*
G01*
X120372000Y-55883000D02*
X119172000Y-55883000D01*
G75*
G02*
X119122000Y-55833000I0J50000D01*
G01*
X119122000Y-54633000D01*
G75*
G02*
X119172000Y-54583000I50000J0D01*
G01*
X120372000Y-54583000D01*
G75*
G02*
X120422000Y-54633000I0J-50000D01*
G01*
X120422000Y-55833000D01*
G75*
G02*
X120372000Y-55883000I-50000J0D01*
G01*
G37*
%TD*%
%TO.C,D5*%
X138812000Y-52908000D03*
G36*
G01*
X139612000Y-61558000D02*
X138012000Y-61558000D01*
G75*
G02*
X137962000Y-61508000I0J50000D01*
G01*
X137962000Y-59908000D01*
G75*
G02*
X138012000Y-59858000I50000J0D01*
G01*
X139612000Y-59858000D01*
G75*
G02*
X139662000Y-59908000I0J-50000D01*
G01*
X139662000Y-61508000D01*
G75*
G02*
X139612000Y-61558000I-50000J0D01*
G01*
G37*
G36*
G01*
X139412000Y-59033000D02*
X138212000Y-59033000D01*
G75*
G02*
X138162000Y-58983000I0J50000D01*
G01*
X138162000Y-57783000D01*
G75*
G02*
X138212000Y-57733000I50000J0D01*
G01*
X139412000Y-57733000D01*
G75*
G02*
X139462000Y-57783000I0J-50000D01*
G01*
X139462000Y-58983000D01*
G75*
G02*
X139412000Y-59033000I-50000J0D01*
G01*
G37*
G36*
G01*
X139412000Y-55883000D02*
X138212000Y-55883000D01*
G75*
G02*
X138162000Y-55833000I0J50000D01*
G01*
X138162000Y-54633000D01*
G75*
G02*
X138212000Y-54583000I50000J0D01*
G01*
X139412000Y-54583000D01*
G75*
G02*
X139462000Y-54633000I0J-50000D01*
G01*
X139462000Y-55833000D01*
G75*
G02*
X139412000Y-55883000I-50000J0D01*
G01*
G37*
%TD*%
%TO.C,D6*%
X157852000Y-52908000D03*
G36*
G01*
X158652000Y-61558000D02*
X157052000Y-61558000D01*
G75*
G02*
X157002000Y-61508000I0J50000D01*
G01*
X157002000Y-59908000D01*
G75*
G02*
X157052000Y-59858000I50000J0D01*
G01*
X158652000Y-59858000D01*
G75*
G02*
X158702000Y-59908000I0J-50000D01*
G01*
X158702000Y-61508000D01*
G75*
G02*
X158652000Y-61558000I-50000J0D01*
G01*
G37*
G36*
G01*
X158452000Y-59033000D02*
X157252000Y-59033000D01*
G75*
G02*
X157202000Y-58983000I0J50000D01*
G01*
X157202000Y-57783000D01*
G75*
G02*
X157252000Y-57733000I50000J0D01*
G01*
X158452000Y-57733000D01*
G75*
G02*
X158502000Y-57783000I0J-50000D01*
G01*
X158502000Y-58983000D01*
G75*
G02*
X158452000Y-59033000I-50000J0D01*
G01*
G37*
G36*
G01*
X158452000Y-55883000D02*
X157252000Y-55883000D01*
G75*
G02*
X157202000Y-55833000I0J50000D01*
G01*
X157202000Y-54633000D01*
G75*
G02*
X157252000Y-54583000I50000J0D01*
G01*
X158452000Y-54583000D01*
G75*
G02*
X158502000Y-54633000I0J-50000D01*
G01*
X158502000Y-55833000D01*
G75*
G02*
X158452000Y-55883000I-50000J0D01*
G01*
G37*
%TD*%
%TO.C,D7*%
X176892000Y-52908000D03*
G36*
G01*
X177692000Y-61558000D02*
X176092000Y-61558000D01*
G75*
G02*
X176042000Y-61508000I0J50000D01*
G01*
X176042000Y-59908000D01*
G75*
G02*
X176092000Y-59858000I50000J0D01*
G01*
X177692000Y-59858000D01*
G75*
G02*
X177742000Y-59908000I0J-50000D01*
G01*
X177742000Y-61508000D01*
G75*
G02*
X177692000Y-61558000I-50000J0D01*
G01*
G37*
G36*
G01*
X177492000Y-59033000D02*
X176292000Y-59033000D01*
G75*
G02*
X176242000Y-58983000I0J50000D01*
G01*
X176242000Y-57783000D01*
G75*
G02*
X176292000Y-57733000I50000J0D01*
G01*
X177492000Y-57733000D01*
G75*
G02*
X177542000Y-57783000I0J-50000D01*
G01*
X177542000Y-58983000D01*
G75*
G02*
X177492000Y-59033000I-50000J0D01*
G01*
G37*
G36*
G01*
X177492000Y-55883000D02*
X176292000Y-55883000D01*
G75*
G02*
X176242000Y-55833000I0J50000D01*
G01*
X176242000Y-54633000D01*
G75*
G02*
X176292000Y-54583000I50000J0D01*
G01*
X177492000Y-54583000D01*
G75*
G02*
X177542000Y-54633000I0J-50000D01*
G01*
X177542000Y-55833000D01*
G75*
G02*
X177492000Y-55883000I-50000J0D01*
G01*
G37*
%TD*%
%TO.C,D8*%
X67412000Y-71948000D03*
G36*
G01*
X68212000Y-80598000D02*
X66612000Y-80598000D01*
G75*
G02*
X66562000Y-80548000I0J50000D01*
G01*
X66562000Y-78948000D01*
G75*
G02*
X66612000Y-78898000I50000J0D01*
G01*
X68212000Y-78898000D01*
G75*
G02*
X68262000Y-78948000I0J-50000D01*
G01*
X68262000Y-80548000D01*
G75*
G02*
X68212000Y-80598000I-50000J0D01*
G01*
G37*
G36*
G01*
X68012000Y-78073000D02*
X66812000Y-78073000D01*
G75*
G02*
X66762000Y-78023000I0J50000D01*
G01*
X66762000Y-76823000D01*
G75*
G02*
X66812000Y-76773000I50000J0D01*
G01*
X68012000Y-76773000D01*
G75*
G02*
X68062000Y-76823000I0J-50000D01*
G01*
X68062000Y-78023000D01*
G75*
G02*
X68012000Y-78073000I-50000J0D01*
G01*
G37*
G36*
G01*
X68012000Y-74923000D02*
X66812000Y-74923000D01*
G75*
G02*
X66762000Y-74873000I0J50000D01*
G01*
X66762000Y-73673000D01*
G75*
G02*
X66812000Y-73623000I50000J0D01*
G01*
X68012000Y-73623000D01*
G75*
G02*
X68062000Y-73673000I0J-50000D01*
G01*
X68062000Y-74873000D01*
G75*
G02*
X68012000Y-74923000I-50000J0D01*
G01*
G37*
%TD*%
%TO.C,D9*%
X91212000Y-71948000D03*
G36*
G01*
X92012000Y-80598000D02*
X90412000Y-80598000D01*
G75*
G02*
X90362000Y-80548000I0J50000D01*
G01*
X90362000Y-78948000D01*
G75*
G02*
X90412000Y-78898000I50000J0D01*
G01*
X92012000Y-78898000D01*
G75*
G02*
X92062000Y-78948000I0J-50000D01*
G01*
X92062000Y-80548000D01*
G75*
G02*
X92012000Y-80598000I-50000J0D01*
G01*
G37*
G36*
G01*
X91812000Y-78073000D02*
X90612000Y-78073000D01*
G75*
G02*
X90562000Y-78023000I0J50000D01*
G01*
X90562000Y-76823000D01*
G75*
G02*
X90612000Y-76773000I50000J0D01*
G01*
X91812000Y-76773000D01*
G75*
G02*
X91862000Y-76823000I0J-50000D01*
G01*
X91862000Y-78023000D01*
G75*
G02*
X91812000Y-78073000I-50000J0D01*
G01*
G37*
G36*
G01*
X91812000Y-74923000D02*
X90612000Y-74923000D01*
G75*
G02*
X90562000Y-74873000I0J50000D01*
G01*
X90562000Y-73673000D01*
G75*
G02*
X90612000Y-73623000I50000J0D01*
G01*
X91812000Y-73623000D01*
G75*
G02*
X91862000Y-73673000I0J-50000D01*
G01*
X91862000Y-74873000D01*
G75*
G02*
X91812000Y-74923000I-50000J0D01*
G01*
G37*
%TD*%
%TO.C,D10*%
X110252000Y-71948000D03*
G36*
G01*
X111052000Y-80598000D02*
X109452000Y-80598000D01*
G75*
G02*
X109402000Y-80548000I0J50000D01*
G01*
X109402000Y-78948000D01*
G75*
G02*
X109452000Y-78898000I50000J0D01*
G01*
X111052000Y-78898000D01*
G75*
G02*
X111102000Y-78948000I0J-50000D01*
G01*
X111102000Y-80548000D01*
G75*
G02*
X111052000Y-80598000I-50000J0D01*
G01*
G37*
G36*
G01*
X110852000Y-78073000D02*
X109652000Y-78073000D01*
G75*
G02*
X109602000Y-78023000I0J50000D01*
G01*
X109602000Y-76823000D01*
G75*
G02*
X109652000Y-76773000I50000J0D01*
G01*
X110852000Y-76773000D01*
G75*
G02*
X110902000Y-76823000I0J-50000D01*
G01*
X110902000Y-78023000D01*
G75*
G02*
X110852000Y-78073000I-50000J0D01*
G01*
G37*
G36*
G01*
X110852000Y-74923000D02*
X109652000Y-74923000D01*
G75*
G02*
X109602000Y-74873000I0J50000D01*
G01*
X109602000Y-73673000D01*
G75*
G02*
X109652000Y-73623000I50000J0D01*
G01*
X110852000Y-73623000D01*
G75*
G02*
X110902000Y-73673000I0J-50000D01*
G01*
X110902000Y-74873000D01*
G75*
G02*
X110852000Y-74923000I-50000J0D01*
G01*
G37*
%TD*%
%TO.C,D11*%
X129292000Y-71948000D03*
G36*
G01*
X130092000Y-80598000D02*
X128492000Y-80598000D01*
G75*
G02*
X128442000Y-80548000I0J50000D01*
G01*
X128442000Y-78948000D01*
G75*
G02*
X128492000Y-78898000I50000J0D01*
G01*
X130092000Y-78898000D01*
G75*
G02*
X130142000Y-78948000I0J-50000D01*
G01*
X130142000Y-80548000D01*
G75*
G02*
X130092000Y-80598000I-50000J0D01*
G01*
G37*
G36*
G01*
X129892000Y-78073000D02*
X128692000Y-78073000D01*
G75*
G02*
X128642000Y-78023000I0J50000D01*
G01*
X128642000Y-76823000D01*
G75*
G02*
X128692000Y-76773000I50000J0D01*
G01*
X129892000Y-76773000D01*
G75*
G02*
X129942000Y-76823000I0J-50000D01*
G01*
X129942000Y-78023000D01*
G75*
G02*
X129892000Y-78073000I-50000J0D01*
G01*
G37*
G36*
G01*
X129892000Y-74923000D02*
X128692000Y-74923000D01*
G75*
G02*
X128642000Y-74873000I0J50000D01*
G01*
X128642000Y-73673000D01*
G75*
G02*
X128692000Y-73623000I50000J0D01*
G01*
X129892000Y-73623000D01*
G75*
G02*
X129942000Y-73673000I0J-50000D01*
G01*
X129942000Y-74873000D01*
G75*
G02*
X129892000Y-74923000I-50000J0D01*
G01*
G37*
%TD*%
%TO.C,D12*%
X148332000Y-71948000D03*
G36*
G01*
X149132000Y-80598000D02*
X147532000Y-80598000D01*
G75*
G02*
X147482000Y-80548000I0J50000D01*
G01*
X147482000Y-78948000D01*
G75*
G02*
X147532000Y-78898000I50000J0D01*
G01*
X149132000Y-78898000D01*
G75*
G02*
X149182000Y-78948000I0J-50000D01*
G01*
X149182000Y-80548000D01*
G75*
G02*
X149132000Y-80598000I-50000J0D01*
G01*
G37*
G36*
G01*
X148932000Y-78073000D02*
X147732000Y-78073000D01*
G75*
G02*
X147682000Y-78023000I0J50000D01*
G01*
X147682000Y-76823000D01*
G75*
G02*
X147732000Y-76773000I50000J0D01*
G01*
X148932000Y-76773000D01*
G75*
G02*
X148982000Y-76823000I0J-50000D01*
G01*
X148982000Y-78023000D01*
G75*
G02*
X148932000Y-78073000I-50000J0D01*
G01*
G37*
G36*
G01*
X148932000Y-74923000D02*
X147732000Y-74923000D01*
G75*
G02*
X147682000Y-74873000I0J50000D01*
G01*
X147682000Y-73673000D01*
G75*
G02*
X147732000Y-73623000I50000J0D01*
G01*
X148932000Y-73623000D01*
G75*
G02*
X148982000Y-73673000I0J-50000D01*
G01*
X148982000Y-74873000D01*
G75*
G02*
X148932000Y-74923000I-50000J0D01*
G01*
G37*
%TD*%
%TO.C,D13*%
X167372000Y-71948000D03*
G36*
G01*
X168172000Y-80598000D02*
X166572000Y-80598000D01*
G75*
G02*
X166522000Y-80548000I0J50000D01*
G01*
X166522000Y-78948000D01*
G75*
G02*
X166572000Y-78898000I50000J0D01*
G01*
X168172000Y-78898000D01*
G75*
G02*
X168222000Y-78948000I0J-50000D01*
G01*
X168222000Y-80548000D01*
G75*
G02*
X168172000Y-80598000I-50000J0D01*
G01*
G37*
G36*
G01*
X167972000Y-78073000D02*
X166772000Y-78073000D01*
G75*
G02*
X166722000Y-78023000I0J50000D01*
G01*
X166722000Y-76823000D01*
G75*
G02*
X166772000Y-76773000I50000J0D01*
G01*
X167972000Y-76773000D01*
G75*
G02*
X168022000Y-76823000I0J-50000D01*
G01*
X168022000Y-78023000D01*
G75*
G02*
X167972000Y-78073000I-50000J0D01*
G01*
G37*
G36*
G01*
X167972000Y-74923000D02*
X166772000Y-74923000D01*
G75*
G02*
X166722000Y-74873000I0J50000D01*
G01*
X166722000Y-73673000D01*
G75*
G02*
X166772000Y-73623000I50000J0D01*
G01*
X167972000Y-73623000D01*
G75*
G02*
X168022000Y-73673000I0J-50000D01*
G01*
X168022000Y-74873000D01*
G75*
G02*
X167972000Y-74923000I-50000J0D01*
G01*
G37*
%TD*%
%TO.C,D14*%
X69792000Y-90988000D03*
G36*
G01*
X70592000Y-99638000D02*
X68992000Y-99638000D01*
G75*
G02*
X68942000Y-99588000I0J50000D01*
G01*
X68942000Y-97988000D01*
G75*
G02*
X68992000Y-97938000I50000J0D01*
G01*
X70592000Y-97938000D01*
G75*
G02*
X70642000Y-97988000I0J-50000D01*
G01*
X70642000Y-99588000D01*
G75*
G02*
X70592000Y-99638000I-50000J0D01*
G01*
G37*
G36*
G01*
X70392000Y-97113000D02*
X69192000Y-97113000D01*
G75*
G02*
X69142000Y-97063000I0J50000D01*
G01*
X69142000Y-95863000D01*
G75*
G02*
X69192000Y-95813000I50000J0D01*
G01*
X70392000Y-95813000D01*
G75*
G02*
X70442000Y-95863000I0J-50000D01*
G01*
X70442000Y-97063000D01*
G75*
G02*
X70392000Y-97113000I-50000J0D01*
G01*
G37*
G36*
G01*
X70392000Y-93963000D02*
X69192000Y-93963000D01*
G75*
G02*
X69142000Y-93913000I0J50000D01*
G01*
X69142000Y-92713000D01*
G75*
G02*
X69192000Y-92663000I50000J0D01*
G01*
X70392000Y-92663000D01*
G75*
G02*
X70442000Y-92713000I0J-50000D01*
G01*
X70442000Y-93913000D01*
G75*
G02*
X70392000Y-93963000I-50000J0D01*
G01*
G37*
%TD*%
%TO.C,D15*%
X95972000Y-90988000D03*
G36*
G01*
X96772000Y-99638000D02*
X95172000Y-99638000D01*
G75*
G02*
X95122000Y-99588000I0J50000D01*
G01*
X95122000Y-97988000D01*
G75*
G02*
X95172000Y-97938000I50000J0D01*
G01*
X96772000Y-97938000D01*
G75*
G02*
X96822000Y-97988000I0J-50000D01*
G01*
X96822000Y-99588000D01*
G75*
G02*
X96772000Y-99638000I-50000J0D01*
G01*
G37*
G36*
G01*
X96572000Y-97113000D02*
X95372000Y-97113000D01*
G75*
G02*
X95322000Y-97063000I0J50000D01*
G01*
X95322000Y-95863000D01*
G75*
G02*
X95372000Y-95813000I50000J0D01*
G01*
X96572000Y-95813000D01*
G75*
G02*
X96622000Y-95863000I0J-50000D01*
G01*
X96622000Y-97063000D01*
G75*
G02*
X96572000Y-97113000I-50000J0D01*
G01*
G37*
G36*
G01*
X96572000Y-93963000D02*
X95372000Y-93963000D01*
G75*
G02*
X95322000Y-93913000I0J50000D01*
G01*
X95322000Y-92713000D01*
G75*
G02*
X95372000Y-92663000I50000J0D01*
G01*
X96572000Y-92663000D01*
G75*
G02*
X96622000Y-92713000I0J-50000D01*
G01*
X96622000Y-93913000D01*
G75*
G02*
X96572000Y-93963000I-50000J0D01*
G01*
G37*
%TD*%
%TO.C,D16*%
X115012000Y-90988000D03*
G36*
G01*
X115812000Y-99638000D02*
X114212000Y-99638000D01*
G75*
G02*
X114162000Y-99588000I0J50000D01*
G01*
X114162000Y-97988000D01*
G75*
G02*
X114212000Y-97938000I50000J0D01*
G01*
X115812000Y-97938000D01*
G75*
G02*
X115862000Y-97988000I0J-50000D01*
G01*
X115862000Y-99588000D01*
G75*
G02*
X115812000Y-99638000I-50000J0D01*
G01*
G37*
G36*
G01*
X115612000Y-97113000D02*
X114412000Y-97113000D01*
G75*
G02*
X114362000Y-97063000I0J50000D01*
G01*
X114362000Y-95863000D01*
G75*
G02*
X114412000Y-95813000I50000J0D01*
G01*
X115612000Y-95813000D01*
G75*
G02*
X115662000Y-95863000I0J-50000D01*
G01*
X115662000Y-97063000D01*
G75*
G02*
X115612000Y-97113000I-50000J0D01*
G01*
G37*
G36*
G01*
X115612000Y-93963000D02*
X114412000Y-93963000D01*
G75*
G02*
X114362000Y-93913000I0J50000D01*
G01*
X114362000Y-92713000D01*
G75*
G02*
X114412000Y-92663000I50000J0D01*
G01*
X115612000Y-92663000D01*
G75*
G02*
X115662000Y-92713000I0J-50000D01*
G01*
X115662000Y-93913000D01*
G75*
G02*
X115612000Y-93963000I-50000J0D01*
G01*
G37*
%TD*%
%TO.C,D17*%
X134052000Y-90988000D03*
G36*
G01*
X134852000Y-99638000D02*
X133252000Y-99638000D01*
G75*
G02*
X133202000Y-99588000I0J50000D01*
G01*
X133202000Y-97988000D01*
G75*
G02*
X133252000Y-97938000I50000J0D01*
G01*
X134852000Y-97938000D01*
G75*
G02*
X134902000Y-97988000I0J-50000D01*
G01*
X134902000Y-99588000D01*
G75*
G02*
X134852000Y-99638000I-50000J0D01*
G01*
G37*
G36*
G01*
X134652000Y-97113000D02*
X133452000Y-97113000D01*
G75*
G02*
X133402000Y-97063000I0J50000D01*
G01*
X133402000Y-95863000D01*
G75*
G02*
X133452000Y-95813000I50000J0D01*
G01*
X134652000Y-95813000D01*
G75*
G02*
X134702000Y-95863000I0J-50000D01*
G01*
X134702000Y-97063000D01*
G75*
G02*
X134652000Y-97113000I-50000J0D01*
G01*
G37*
G36*
G01*
X134652000Y-93963000D02*
X133452000Y-93963000D01*
G75*
G02*
X133402000Y-93913000I0J50000D01*
G01*
X133402000Y-92713000D01*
G75*
G02*
X133452000Y-92663000I50000J0D01*
G01*
X134652000Y-92663000D01*
G75*
G02*
X134702000Y-92713000I0J-50000D01*
G01*
X134702000Y-93913000D01*
G75*
G02*
X134652000Y-93963000I-50000J0D01*
G01*
G37*
%TD*%
%TO.C,D18*%
X153092000Y-90988000D03*
G36*
G01*
X153892000Y-99638000D02*
X152292000Y-99638000D01*
G75*
G02*
X152242000Y-99588000I0J50000D01*
G01*
X152242000Y-97988000D01*
G75*
G02*
X152292000Y-97938000I50000J0D01*
G01*
X153892000Y-97938000D01*
G75*
G02*
X153942000Y-97988000I0J-50000D01*
G01*
X153942000Y-99588000D01*
G75*
G02*
X153892000Y-99638000I-50000J0D01*
G01*
G37*
G36*
G01*
X153692000Y-97113000D02*
X152492000Y-97113000D01*
G75*
G02*
X152442000Y-97063000I0J50000D01*
G01*
X152442000Y-95863000D01*
G75*
G02*
X152492000Y-95813000I50000J0D01*
G01*
X153692000Y-95813000D01*
G75*
G02*
X153742000Y-95863000I0J-50000D01*
G01*
X153742000Y-97063000D01*
G75*
G02*
X153692000Y-97113000I-50000J0D01*
G01*
G37*
G36*
G01*
X153692000Y-93963000D02*
X152492000Y-93963000D01*
G75*
G02*
X152442000Y-93913000I0J50000D01*
G01*
X152442000Y-92713000D01*
G75*
G02*
X152492000Y-92663000I50000J0D01*
G01*
X153692000Y-92663000D01*
G75*
G02*
X153742000Y-92713000I0J-50000D01*
G01*
X153742000Y-93913000D01*
G75*
G02*
X153692000Y-93963000I-50000J0D01*
G01*
G37*
%TD*%
%TO.C,D19*%
X172132000Y-90988000D03*
G36*
G01*
X172932000Y-99638000D02*
X171332000Y-99638000D01*
G75*
G02*
X171282000Y-99588000I0J50000D01*
G01*
X171282000Y-97988000D01*
G75*
G02*
X171332000Y-97938000I50000J0D01*
G01*
X172932000Y-97938000D01*
G75*
G02*
X172982000Y-97988000I0J-50000D01*
G01*
X172982000Y-99588000D01*
G75*
G02*
X172932000Y-99638000I-50000J0D01*
G01*
G37*
G36*
G01*
X172732000Y-97113000D02*
X171532000Y-97113000D01*
G75*
G02*
X171482000Y-97063000I0J50000D01*
G01*
X171482000Y-95863000D01*
G75*
G02*
X171532000Y-95813000I50000J0D01*
G01*
X172732000Y-95813000D01*
G75*
G02*
X172782000Y-95863000I0J-50000D01*
G01*
X172782000Y-97063000D01*
G75*
G02*
X172732000Y-97113000I-50000J0D01*
G01*
G37*
G36*
G01*
X172732000Y-93963000D02*
X171532000Y-93963000D01*
G75*
G02*
X171482000Y-93913000I0J50000D01*
G01*
X171482000Y-92713000D01*
G75*
G02*
X171532000Y-92663000I50000J0D01*
G01*
X172732000Y-92663000D01*
G75*
G02*
X172782000Y-92713000I0J-50000D01*
G01*
X172782000Y-93913000D01*
G75*
G02*
X172732000Y-93963000I-50000J0D01*
G01*
G37*
%TD*%
%TO.C,D20*%
X65032000Y-110028000D03*
G36*
G01*
X65832000Y-118678000D02*
X64232000Y-118678000D01*
G75*
G02*
X64182000Y-118628000I0J50000D01*
G01*
X64182000Y-117028000D01*
G75*
G02*
X64232000Y-116978000I50000J0D01*
G01*
X65832000Y-116978000D01*
G75*
G02*
X65882000Y-117028000I0J-50000D01*
G01*
X65882000Y-118628000D01*
G75*
G02*
X65832000Y-118678000I-50000J0D01*
G01*
G37*
G36*
G01*
X65632000Y-116153000D02*
X64432000Y-116153000D01*
G75*
G02*
X64382000Y-116103000I0J50000D01*
G01*
X64382000Y-114903000D01*
G75*
G02*
X64432000Y-114853000I50000J0D01*
G01*
X65632000Y-114853000D01*
G75*
G02*
X65682000Y-114903000I0J-50000D01*
G01*
X65682000Y-116103000D01*
G75*
G02*
X65632000Y-116153000I-50000J0D01*
G01*
G37*
G36*
G01*
X65632000Y-113003000D02*
X64432000Y-113003000D01*
G75*
G02*
X64382000Y-112953000I0J50000D01*
G01*
X64382000Y-111753000D01*
G75*
G02*
X64432000Y-111703000I50000J0D01*
G01*
X65632000Y-111703000D01*
G75*
G02*
X65682000Y-111753000I0J-50000D01*
G01*
X65682000Y-112953000D01*
G75*
G02*
X65632000Y-113003000I-50000J0D01*
G01*
G37*
%TD*%
%TO.C,D21*%
X86452000Y-110028000D03*
G36*
G01*
X87252000Y-118678000D02*
X85652000Y-118678000D01*
G75*
G02*
X85602000Y-118628000I0J50000D01*
G01*
X85602000Y-117028000D01*
G75*
G02*
X85652000Y-116978000I50000J0D01*
G01*
X87252000Y-116978000D01*
G75*
G02*
X87302000Y-117028000I0J-50000D01*
G01*
X87302000Y-118628000D01*
G75*
G02*
X87252000Y-118678000I-50000J0D01*
G01*
G37*
G36*
G01*
X87052000Y-116153000D02*
X85852000Y-116153000D01*
G75*
G02*
X85802000Y-116103000I0J50000D01*
G01*
X85802000Y-114903000D01*
G75*
G02*
X85852000Y-114853000I50000J0D01*
G01*
X87052000Y-114853000D01*
G75*
G02*
X87102000Y-114903000I0J-50000D01*
G01*
X87102000Y-116103000D01*
G75*
G02*
X87052000Y-116153000I-50000J0D01*
G01*
G37*
G36*
G01*
X87052000Y-113003000D02*
X85852000Y-113003000D01*
G75*
G02*
X85802000Y-112953000I0J50000D01*
G01*
X85802000Y-111753000D01*
G75*
G02*
X85852000Y-111703000I50000J0D01*
G01*
X87052000Y-111703000D01*
G75*
G02*
X87102000Y-111753000I0J-50000D01*
G01*
X87102000Y-112953000D01*
G75*
G02*
X87052000Y-113003000I-50000J0D01*
G01*
G37*
%TD*%
%TO.C,D22*%
X105492000Y-110028000D03*
G36*
G01*
X106292000Y-118678000D02*
X104692000Y-118678000D01*
G75*
G02*
X104642000Y-118628000I0J50000D01*
G01*
X104642000Y-117028000D01*
G75*
G02*
X104692000Y-116978000I50000J0D01*
G01*
X106292000Y-116978000D01*
G75*
G02*
X106342000Y-117028000I0J-50000D01*
G01*
X106342000Y-118628000D01*
G75*
G02*
X106292000Y-118678000I-50000J0D01*
G01*
G37*
G36*
G01*
X106092000Y-116153000D02*
X104892000Y-116153000D01*
G75*
G02*
X104842000Y-116103000I0J50000D01*
G01*
X104842000Y-114903000D01*
G75*
G02*
X104892000Y-114853000I50000J0D01*
G01*
X106092000Y-114853000D01*
G75*
G02*
X106142000Y-114903000I0J-50000D01*
G01*
X106142000Y-116103000D01*
G75*
G02*
X106092000Y-116153000I-50000J0D01*
G01*
G37*
G36*
G01*
X106092000Y-113003000D02*
X104892000Y-113003000D01*
G75*
G02*
X104842000Y-112953000I0J50000D01*
G01*
X104842000Y-111753000D01*
G75*
G02*
X104892000Y-111703000I50000J0D01*
G01*
X106092000Y-111703000D01*
G75*
G02*
X106142000Y-111753000I0J-50000D01*
G01*
X106142000Y-112953000D01*
G75*
G02*
X106092000Y-113003000I-50000J0D01*
G01*
G37*
%TD*%
%TO.C,D23*%
X124532000Y-110028000D03*
G36*
G01*
X125332000Y-118678000D02*
X123732000Y-118678000D01*
G75*
G02*
X123682000Y-118628000I0J50000D01*
G01*
X123682000Y-117028000D01*
G75*
G02*
X123732000Y-116978000I50000J0D01*
G01*
X125332000Y-116978000D01*
G75*
G02*
X125382000Y-117028000I0J-50000D01*
G01*
X125382000Y-118628000D01*
G75*
G02*
X125332000Y-118678000I-50000J0D01*
G01*
G37*
G36*
G01*
X125132000Y-116153000D02*
X123932000Y-116153000D01*
G75*
G02*
X123882000Y-116103000I0J50000D01*
G01*
X123882000Y-114903000D01*
G75*
G02*
X123932000Y-114853000I50000J0D01*
G01*
X125132000Y-114853000D01*
G75*
G02*
X125182000Y-114903000I0J-50000D01*
G01*
X125182000Y-116103000D01*
G75*
G02*
X125132000Y-116153000I-50000J0D01*
G01*
G37*
G36*
G01*
X125132000Y-113003000D02*
X123932000Y-113003000D01*
G75*
G02*
X123882000Y-112953000I0J50000D01*
G01*
X123882000Y-111753000D01*
G75*
G02*
X123932000Y-111703000I50000J0D01*
G01*
X125132000Y-111703000D01*
G75*
G02*
X125182000Y-111753000I0J-50000D01*
G01*
X125182000Y-112953000D01*
G75*
G02*
X125132000Y-113003000I-50000J0D01*
G01*
G37*
%TD*%
%TO.C,D24*%
X143572000Y-110028000D03*
G36*
G01*
X144372000Y-118678000D02*
X142772000Y-118678000D01*
G75*
G02*
X142722000Y-118628000I0J50000D01*
G01*
X142722000Y-117028000D01*
G75*
G02*
X142772000Y-116978000I50000J0D01*
G01*
X144372000Y-116978000D01*
G75*
G02*
X144422000Y-117028000I0J-50000D01*
G01*
X144422000Y-118628000D01*
G75*
G02*
X144372000Y-118678000I-50000J0D01*
G01*
G37*
G36*
G01*
X144172000Y-116153000D02*
X142972000Y-116153000D01*
G75*
G02*
X142922000Y-116103000I0J50000D01*
G01*
X142922000Y-114903000D01*
G75*
G02*
X142972000Y-114853000I50000J0D01*
G01*
X144172000Y-114853000D01*
G75*
G02*
X144222000Y-114903000I0J-50000D01*
G01*
X144222000Y-116103000D01*
G75*
G02*
X144172000Y-116153000I-50000J0D01*
G01*
G37*
G36*
G01*
X144172000Y-113003000D02*
X142972000Y-113003000D01*
G75*
G02*
X142922000Y-112953000I0J50000D01*
G01*
X142922000Y-111753000D01*
G75*
G02*
X142972000Y-111703000I50000J0D01*
G01*
X144172000Y-111703000D01*
G75*
G02*
X144222000Y-111753000I0J-50000D01*
G01*
X144222000Y-112953000D01*
G75*
G02*
X144172000Y-113003000I-50000J0D01*
G01*
G37*
%TD*%
%TO.C,D25*%
X162612000Y-110028000D03*
G36*
G01*
X163412000Y-118678000D02*
X161812000Y-118678000D01*
G75*
G02*
X161762000Y-118628000I0J50000D01*
G01*
X161762000Y-117028000D01*
G75*
G02*
X161812000Y-116978000I50000J0D01*
G01*
X163412000Y-116978000D01*
G75*
G02*
X163462000Y-117028000I0J-50000D01*
G01*
X163462000Y-118628000D01*
G75*
G02*
X163412000Y-118678000I-50000J0D01*
G01*
G37*
G36*
G01*
X163212000Y-116153000D02*
X162012000Y-116153000D01*
G75*
G02*
X161962000Y-116103000I0J50000D01*
G01*
X161962000Y-114903000D01*
G75*
G02*
X162012000Y-114853000I50000J0D01*
G01*
X163212000Y-114853000D01*
G75*
G02*
X163262000Y-114903000I0J-50000D01*
G01*
X163262000Y-116103000D01*
G75*
G02*
X163212000Y-116153000I-50000J0D01*
G01*
G37*
G36*
G01*
X163212000Y-113003000D02*
X162012000Y-113003000D01*
G75*
G02*
X161962000Y-112953000I0J50000D01*
G01*
X161962000Y-111753000D01*
G75*
G02*
X162012000Y-111703000I50000J0D01*
G01*
X163212000Y-111703000D01*
G75*
G02*
X163262000Y-111753000I0J-50000D01*
G01*
X163262000Y-112953000D01*
G75*
G02*
X163212000Y-113003000I-50000J0D01*
G01*
G37*
%TD*%
%TO.C,D26*%
X181652000Y-110028000D03*
G36*
G01*
X182452000Y-118678000D02*
X180852000Y-118678000D01*
G75*
G02*
X180802000Y-118628000I0J50000D01*
G01*
X180802000Y-117028000D01*
G75*
G02*
X180852000Y-116978000I50000J0D01*
G01*
X182452000Y-116978000D01*
G75*
G02*
X182502000Y-117028000I0J-50000D01*
G01*
X182502000Y-118628000D01*
G75*
G02*
X182452000Y-118678000I-50000J0D01*
G01*
G37*
G36*
G01*
X182252000Y-116153000D02*
X181052000Y-116153000D01*
G75*
G02*
X181002000Y-116103000I0J50000D01*
G01*
X181002000Y-114903000D01*
G75*
G02*
X181052000Y-114853000I50000J0D01*
G01*
X182252000Y-114853000D01*
G75*
G02*
X182302000Y-114903000I0J-50000D01*
G01*
X182302000Y-116103000D01*
G75*
G02*
X182252000Y-116153000I-50000J0D01*
G01*
G37*
G36*
G01*
X182252000Y-113003000D02*
X181052000Y-113003000D01*
G75*
G02*
X181002000Y-112953000I0J50000D01*
G01*
X181002000Y-111753000D01*
G75*
G02*
X181052000Y-111703000I50000J0D01*
G01*
X182252000Y-111703000D01*
G75*
G02*
X182302000Y-111753000I0J-50000D01*
G01*
X182302000Y-112953000D01*
G75*
G02*
X182252000Y-113003000I-50000J0D01*
G01*
G37*
%TD*%
%TO.C,D27*%
X65032000Y-129068000D03*
G36*
G01*
X65832000Y-137718000D02*
X64232000Y-137718000D01*
G75*
G02*
X64182000Y-137668000I0J50000D01*
G01*
X64182000Y-136068000D01*
G75*
G02*
X64232000Y-136018000I50000J0D01*
G01*
X65832000Y-136018000D01*
G75*
G02*
X65882000Y-136068000I0J-50000D01*
G01*
X65882000Y-137668000D01*
G75*
G02*
X65832000Y-137718000I-50000J0D01*
G01*
G37*
G36*
G01*
X65632000Y-135193000D02*
X64432000Y-135193000D01*
G75*
G02*
X64382000Y-135143000I0J50000D01*
G01*
X64382000Y-133943000D01*
G75*
G02*
X64432000Y-133893000I50000J0D01*
G01*
X65632000Y-133893000D01*
G75*
G02*
X65682000Y-133943000I0J-50000D01*
G01*
X65682000Y-135143000D01*
G75*
G02*
X65632000Y-135193000I-50000J0D01*
G01*
G37*
G36*
G01*
X65632000Y-132043000D02*
X64432000Y-132043000D01*
G75*
G02*
X64382000Y-131993000I0J50000D01*
G01*
X64382000Y-130793000D01*
G75*
G02*
X64432000Y-130743000I50000J0D01*
G01*
X65632000Y-130743000D01*
G75*
G02*
X65682000Y-130793000I0J-50000D01*
G01*
X65682000Y-131993000D01*
G75*
G02*
X65632000Y-132043000I-50000J0D01*
G01*
G37*
%TD*%
%TO.C,D28*%
X88832000Y-129068000D03*
G36*
G01*
X89632000Y-137718000D02*
X88032000Y-137718000D01*
G75*
G02*
X87982000Y-137668000I0J50000D01*
G01*
X87982000Y-136068000D01*
G75*
G02*
X88032000Y-136018000I50000J0D01*
G01*
X89632000Y-136018000D01*
G75*
G02*
X89682000Y-136068000I0J-50000D01*
G01*
X89682000Y-137668000D01*
G75*
G02*
X89632000Y-137718000I-50000J0D01*
G01*
G37*
G36*
G01*
X89432000Y-135193000D02*
X88232000Y-135193000D01*
G75*
G02*
X88182000Y-135143000I0J50000D01*
G01*
X88182000Y-133943000D01*
G75*
G02*
X88232000Y-133893000I50000J0D01*
G01*
X89432000Y-133893000D01*
G75*
G02*
X89482000Y-133943000I0J-50000D01*
G01*
X89482000Y-135143000D01*
G75*
G02*
X89432000Y-135193000I-50000J0D01*
G01*
G37*
G36*
G01*
X89432000Y-132043000D02*
X88232000Y-132043000D01*
G75*
G02*
X88182000Y-131993000I0J50000D01*
G01*
X88182000Y-130793000D01*
G75*
G02*
X88232000Y-130743000I50000J0D01*
G01*
X89432000Y-130743000D01*
G75*
G02*
X89482000Y-130793000I0J-50000D01*
G01*
X89482000Y-131993000D01*
G75*
G02*
X89432000Y-132043000I-50000J0D01*
G01*
G37*
%TD*%
%TO.C,D29*%
X112632000Y-129068000D03*
G36*
G01*
X113432000Y-137718000D02*
X111832000Y-137718000D01*
G75*
G02*
X111782000Y-137668000I0J50000D01*
G01*
X111782000Y-136068000D01*
G75*
G02*
X111832000Y-136018000I50000J0D01*
G01*
X113432000Y-136018000D01*
G75*
G02*
X113482000Y-136068000I0J-50000D01*
G01*
X113482000Y-137668000D01*
G75*
G02*
X113432000Y-137718000I-50000J0D01*
G01*
G37*
G36*
G01*
X113232000Y-135193000D02*
X112032000Y-135193000D01*
G75*
G02*
X111982000Y-135143000I0J50000D01*
G01*
X111982000Y-133943000D01*
G75*
G02*
X112032000Y-133893000I50000J0D01*
G01*
X113232000Y-133893000D01*
G75*
G02*
X113282000Y-133943000I0J-50000D01*
G01*
X113282000Y-135143000D01*
G75*
G02*
X113232000Y-135193000I-50000J0D01*
G01*
G37*
G36*
G01*
X113232000Y-132043000D02*
X112032000Y-132043000D01*
G75*
G02*
X111982000Y-131993000I0J50000D01*
G01*
X111982000Y-130793000D01*
G75*
G02*
X112032000Y-130743000I50000J0D01*
G01*
X113232000Y-130743000D01*
G75*
G02*
X113282000Y-130793000I0J-50000D01*
G01*
X113282000Y-131993000D01*
G75*
G02*
X113232000Y-132043000I-50000J0D01*
G01*
G37*
%TD*%
%TO.C,D30*%
X147136000Y-129064000D03*
G36*
G01*
X147936000Y-137714000D02*
X146336000Y-137714000D01*
G75*
G02*
X146286000Y-137664000I0J50000D01*
G01*
X146286000Y-136064000D01*
G75*
G02*
X146336000Y-136014000I50000J0D01*
G01*
X147936000Y-136014000D01*
G75*
G02*
X147986000Y-136064000I0J-50000D01*
G01*
X147986000Y-137664000D01*
G75*
G02*
X147936000Y-137714000I-50000J0D01*
G01*
G37*
G36*
G01*
X147736000Y-135189000D02*
X146536000Y-135189000D01*
G75*
G02*
X146486000Y-135139000I0J50000D01*
G01*
X146486000Y-133939000D01*
G75*
G02*
X146536000Y-133889000I50000J0D01*
G01*
X147736000Y-133889000D01*
G75*
G02*
X147786000Y-133939000I0J-50000D01*
G01*
X147786000Y-135139000D01*
G75*
G02*
X147736000Y-135189000I-50000J0D01*
G01*
G37*
G36*
G01*
X147736000Y-132039000D02*
X146536000Y-132039000D01*
G75*
G02*
X146486000Y-131989000I0J50000D01*
G01*
X146486000Y-130789000D01*
G75*
G02*
X146536000Y-130739000I50000J0D01*
G01*
X147736000Y-130739000D01*
G75*
G02*
X147786000Y-130789000I0J-50000D01*
G01*
X147786000Y-131989000D01*
G75*
G02*
X147736000Y-132039000I-50000J0D01*
G01*
G37*
%TD*%
D19*
%TO.C,J2*%
X47186000Y-136776000D03*
X44646000Y-136776000D03*
X42106000Y-136776000D03*
X39566000Y-136776000D03*
%TD*%
D18*
%TO.C,R1*%
X35996000Y-70044000D03*
G36*
G01*
X36796000Y-78694000D02*
X35196000Y-78694000D01*
G75*
G02*
X35146000Y-78644000I0J50000D01*
G01*
X35146000Y-77044000D01*
G75*
G02*
X35196000Y-76994000I50000J0D01*
G01*
X36796000Y-76994000D01*
G75*
G02*
X36846000Y-77044000I0J-50000D01*
G01*
X36846000Y-78644000D01*
G75*
G02*
X36796000Y-78694000I-50000J0D01*
G01*
G37*
%TD*%
%TO.C,R2*%
X32188000Y-70044000D03*
G36*
G01*
X32988000Y-78694000D02*
X31388000Y-78694000D01*
G75*
G02*
X31338000Y-78644000I0J50000D01*
G01*
X31338000Y-77044000D01*
G75*
G02*
X31388000Y-76994000I50000J0D01*
G01*
X32988000Y-76994000D01*
G75*
G02*
X33038000Y-77044000I0J-50000D01*
G01*
X33038000Y-78644000D01*
G75*
G02*
X32988000Y-78694000I-50000J0D01*
G01*
G37*
%TD*%
D20*
%TO.C,SW31*%
X32188000Y-82118000D03*
X32188000Y-88618000D03*
%TD*%
D18*
%TO.C,R3*%
X28142000Y-70044000D03*
G36*
G01*
X28942000Y-78694000D02*
X27342000Y-78694000D01*
G75*
G02*
X27292000Y-78644000I0J50000D01*
G01*
X27292000Y-77044000D01*
G75*
G02*
X27342000Y-76994000I50000J0D01*
G01*
X28942000Y-76994000D01*
G75*
G02*
X28992000Y-77044000I0J-50000D01*
G01*
X28992000Y-78644000D01*
G75*
G02*
X28942000Y-78694000I-50000J0D01*
G01*
G37*
%TD*%
M02*
