%TF.GenerationSoftware,KiCad,Pcbnew,(5.1.7)-1*%
%TF.CreationDate,2021-06-20T13:46:17+02:00*%
%TF.ProjectId,Split65Left,53706c69-7436-4354-9c65-66742e6b6963,rev?*%
%TF.SameCoordinates,Original*%
%TF.FileFunction,Paste,Bot*%
%TF.FilePolarity,Positive*%
%FSLAX46Y46*%
G04 Gerber Fmt 4.6, Leading zero omitted, Abs format (unit mm)*
G04 Created by KiCad (PCBNEW (5.1.7)-1) date 2021-06-20 13:46:17*
%MOMM*%
%LPD*%
G01*
G04 APERTURE LIST*
%ADD10R,2.550000X2.500000*%
%ADD11R,1.200000X1.200000*%
G04 APERTURE END LIST*
D10*
%TO.C,SW30*%
X157426000Y-126140000D03*
X171276000Y-123600000D03*
%TD*%
%TO.C,SW29*%
X119346000Y-126144000D03*
X133196000Y-123604000D03*
%TD*%
%TO.C,SW28*%
X95552000Y-126144000D03*
X109402000Y-123604000D03*
%TD*%
%TO.C,SW27*%
X71752000Y-126144000D03*
X85602000Y-123604000D03*
%TD*%
%TO.C,SW26*%
X183612000Y-107104000D03*
X197462000Y-104564000D03*
%TD*%
%TO.C,SW25*%
X164572000Y-107104000D03*
X178422000Y-104564000D03*
%TD*%
%TO.C,SW24*%
X145532000Y-107104000D03*
X159382000Y-104564000D03*
%TD*%
%TO.C,SW23*%
X126492000Y-107104000D03*
X140342000Y-104564000D03*
%TD*%
%TO.C,SW22*%
X107452000Y-107104000D03*
X121302000Y-104564000D03*
%TD*%
%TO.C,SW21*%
X88412000Y-107104000D03*
X102262000Y-104564000D03*
%TD*%
%TO.C,SW20*%
X66992000Y-107104000D03*
X80842000Y-104564000D03*
%TD*%
%TO.C,SW19*%
X174092000Y-88064000D03*
X187942000Y-85524000D03*
%TD*%
%TO.C,SW18*%
X155052000Y-88064000D03*
X168902000Y-85524000D03*
%TD*%
%TO.C,SW17*%
X136012000Y-88064000D03*
X149862000Y-85524000D03*
%TD*%
%TO.C,SW14*%
X71752000Y-88064000D03*
X85602000Y-85524000D03*
%TD*%
%TO.C,SW13*%
X169332000Y-69024000D03*
X183182000Y-66484000D03*
%TD*%
%TO.C,SW12*%
X150292000Y-69024000D03*
X164142000Y-66484000D03*
%TD*%
%TO.C,SW7*%
X178852000Y-49984000D03*
X192702000Y-47444000D03*
%TD*%
%TO.C,SW11*%
X131252000Y-69024000D03*
X145102000Y-66484000D03*
%TD*%
%TO.C,SW10*%
X112212000Y-69024000D03*
X126062000Y-66484000D03*
%TD*%
%TO.C,SW9*%
X93172000Y-69024000D03*
X107022000Y-66484000D03*
%TD*%
%TO.C,SW16*%
X116972000Y-88064000D03*
X130822000Y-85524000D03*
%TD*%
%TO.C,SW15*%
X97932000Y-88064000D03*
X111782000Y-85524000D03*
%TD*%
%TO.C,SW8*%
X69372000Y-69024000D03*
X83222000Y-66484000D03*
%TD*%
%TO.C,SW6*%
X159812000Y-49984000D03*
X173662000Y-47444000D03*
%TD*%
%TO.C,SW5*%
X140772000Y-49984000D03*
X154622000Y-47444000D03*
%TD*%
%TO.C,SW4*%
X121732000Y-49984000D03*
X135582000Y-47444000D03*
%TD*%
%TO.C,SW3*%
X102692000Y-49984000D03*
X116542000Y-47444000D03*
%TD*%
%TO.C,SW2*%
X83652000Y-49984000D03*
X97502000Y-47444000D03*
%TD*%
%TO.C,SW1*%
X64612000Y-49984000D03*
X78462000Y-47444000D03*
%TD*%
D11*
%TO.C,D1*%
X64080000Y-58383000D03*
X64080000Y-55233000D03*
%TD*%
%TO.C,D2*%
X81692000Y-58383000D03*
X81692000Y-55233000D03*
%TD*%
%TO.C,D3*%
X100732000Y-58383000D03*
X100732000Y-55233000D03*
%TD*%
%TO.C,D4*%
X119772000Y-58383000D03*
X119772000Y-55233000D03*
%TD*%
%TO.C,D5*%
X138812000Y-58383000D03*
X138812000Y-55233000D03*
%TD*%
%TO.C,D6*%
X157852000Y-58383000D03*
X157852000Y-55233000D03*
%TD*%
%TO.C,D7*%
X176892000Y-58383000D03*
X176892000Y-55233000D03*
%TD*%
%TO.C,D8*%
X67412000Y-77423000D03*
X67412000Y-74273000D03*
%TD*%
%TO.C,D9*%
X91212000Y-77423000D03*
X91212000Y-74273000D03*
%TD*%
%TO.C,D10*%
X110252000Y-77423000D03*
X110252000Y-74273000D03*
%TD*%
%TO.C,D11*%
X129292000Y-77423000D03*
X129292000Y-74273000D03*
%TD*%
%TO.C,D12*%
X148332000Y-77423000D03*
X148332000Y-74273000D03*
%TD*%
%TO.C,D13*%
X167372000Y-77423000D03*
X167372000Y-74273000D03*
%TD*%
%TO.C,D14*%
X69792000Y-96463000D03*
X69792000Y-93313000D03*
%TD*%
%TO.C,D15*%
X95972000Y-96463000D03*
X95972000Y-93313000D03*
%TD*%
%TO.C,D16*%
X115012000Y-96463000D03*
X115012000Y-93313000D03*
%TD*%
%TO.C,D17*%
X134052000Y-96463000D03*
X134052000Y-93313000D03*
%TD*%
%TO.C,D18*%
X153092000Y-96463000D03*
X153092000Y-93313000D03*
%TD*%
%TO.C,D19*%
X172132000Y-96463000D03*
X172132000Y-93313000D03*
%TD*%
%TO.C,D20*%
X65032000Y-115503000D03*
X65032000Y-112353000D03*
%TD*%
%TO.C,D21*%
X86452000Y-115503000D03*
X86452000Y-112353000D03*
%TD*%
%TO.C,D22*%
X105492000Y-115503000D03*
X105492000Y-112353000D03*
%TD*%
%TO.C,D23*%
X124532000Y-115503000D03*
X124532000Y-112353000D03*
%TD*%
%TO.C,D24*%
X143572000Y-115503000D03*
X143572000Y-112353000D03*
%TD*%
%TO.C,D25*%
X162612000Y-115503000D03*
X162612000Y-112353000D03*
%TD*%
%TO.C,D26*%
X181652000Y-115503000D03*
X181652000Y-112353000D03*
%TD*%
%TO.C,D27*%
X65032000Y-134543000D03*
X65032000Y-131393000D03*
%TD*%
%TO.C,D28*%
X88832000Y-134543000D03*
X88832000Y-131393000D03*
%TD*%
%TO.C,D29*%
X112632000Y-134543000D03*
X112632000Y-131393000D03*
%TD*%
%TO.C,D30*%
X147136000Y-134539000D03*
X147136000Y-131389000D03*
%TD*%
M02*
