<?xml version="1.0" standalone="no"?>
 <!DOCTYPE svg PUBLIC "-//W3C//DTD SVG 1.1//EN" 
 "http://www.w3.org/Graphics/SVG/1.1/DTD/svg11.dtd"> 
<svg
  xmlns:svg="http://www.w3.org/2000/svg"
  xmlns="http://www.w3.org/2000/svg"
  xmlns:xlink="http://www.w3.org/1999/xlink"
  version="1.1"
  width="17.673320cm" height="9.890760cm" viewBox="0 0 69580 38940">
<title>SVG Picture created as Split65Left-Eco2_User.svg date 2020/10/10 21:03:23 </title>
  <desc>Picture generated by PCBNEW </desc>
<g style="fill:#000000; fill-opacity:1;stroke:#000000; stroke-opacity:1;
stroke-linecap:round; stroke-linejoin:round;"
 transform="translate(0 0) scale(1 1)">
</g>
<g style="fill:#000000; fill-opacity:0.0; 
stroke:#000000; stroke-width:-0.000393701; stroke-opacity:1; 
stroke-linecap:round; stroke-linejoin:round;">
</g>
<g style="fill:#000000; fill-opacity:0.0; 
stroke:#000000; stroke-width:59.0551; stroke-opacity:1; 
stroke-linecap:round; stroke-linejoin:round;">
<circle cx="62059.4" cy="23173.6" r="468.504" /> 
<circle cx="24391.7" cy="32075.2" r="468.504" /> 
<circle cx="56437.4" cy="8087.8" r="468.504" /> 
<circle cx="25328.7" cy="10055.5" r="468.504" /> 
<path d="M67681.5 685.433 A281.102 281.102 0.0 0 0 67400.4 404.331" />
<path d="M67400.4 7900.39 A281.102 281.102 0.0 0 0 67681.5 7619.29" />
<path d="M65807.5 15677.6 A281.102 281.102 0.0 0 0 65526.4 15396.5" />
<path d="M69555.5 23173.6 A281.102 281.102 0.0 0 0 69274.4 22892.5" />
<path d="M69274.4 30388.6 A281.102 281.102 0.0 0 0 69555.5 30107.5" />
<path d="M65526.4 38915.4 A281.102 281.102 0.0 0 0 65807.5 38634.3" />
<path d="M29.528 38634.3 A281.102 281.102 0.0 0 0 310.63 38915.4" />
<path d="M310.63 404.331 A281.102 281.102 0.0 0 0 29.528 685.433" />
<path d="M29 38634
L29 685
" />
<path d="M65526 38915
L310 38915
" />
<path d="M65807 30388
L65807 38634
" />
<path d="M69274 30388
L65807 30388
" />
<path d="M69555 23173
L69555 30107
" />
<path d="M65807 22892
L69274 22892
" />
<path d="M65807 15677
L65807 22892
" />
<path d="M63933 15396
L65526 15396
" />
<path d="M63933 7900
L63933 15396
" />
<path d="M67400 7900
L63933 7900
" />
<path d="M67681 685
L67681 7619
" />
<path d="M310 404
L67400 404
" />
<g >
</g>
<g >
</g>
<g >
</g>
<g >
</g>
<g >
</g>
<g >
</g>
<g >
</g>
<g >
</g>
<g >
</g>
<g >
</g>
<g >
</g>
<g >
</g>
<g >
</g>
<g >
</g>
<g >
</g>
<g >
</g>
<g >
</g>
<g >
</g>
<g >
</g>
<g >
</g>
<g >
</g>
<g >
</g>
<g >
</g>
<g >
</g>
<g >
</g>
<g >
</g>
<g >
</g>
<g >
</g>
<g >
</g>
<g >
</g>
<g >
</g>
<g >
</g>
<g >
</g>
<g >
</g>
<g >
</g>
<g >
</g>
<g >
</g>
<g >
</g>
<g >
</g>
<g >
</g>
<g >
</g>
<g >
</g>
<g >
</g>
<g >
</g>
<g >
</g>
<g >
</g>
<g >
</g>
<g >
</g>
<g >
</g>
<g >
</g>
<g >
</g>
<g >
</g>
<g >
</g>
<g >
</g>
<g >
</g>
<g >
</g>
<g >
</g>
<g >
</g>
<g >
</g>
<g >
</g>
<g >
</g>
<g >
</g>
<g >
</g>
<g >
</g>
<g >
</g>
<g >
</g>
<g >
</g>
<g >
</g>
<g >
</g>
<g >
</g>
<g >
</g>
<g >
</g>
<g >
</g>
<g >
</g>
<g >
</g>
<g >
</g>
<g >
</g>
<g >
</g>
</g> 
</svg>
