<?xml version="1.0" standalone="no"?>
 <!DOCTYPE svg PUBLIC "-//W3C//DTD SVG 1.1//EN" 
 "http://www.w3.org/Graphics/SVG/1.1/DTD/svg11.dtd"> 
<svg
  xmlns:svg="http://www.w3.org/2000/svg"
  xmlns="http://www.w3.org/2000/svg"
  xmlns:xlink="http://www.w3.org/1999/xlink"
  version="1.1"
  width="22.014180cm" height="9.890760cm" viewBox="0 0 86670 38940">
<title>SVG Picture created as Split65Right-Eco2_User.svg date 2020/11/02 23:03:50 </title>
  <desc>Picture generated by PCBNEW </desc>
<g style="fill:#000000; fill-opacity:1;stroke:#000000; stroke-opacity:1;
stroke-linecap:round; stroke-linejoin:round;"
 transform="translate(0 0) scale(1 1)">
</g>
<g style="fill:#000000; fill-opacity:0.0; 
stroke:#000000; stroke-width:-0.000393701; stroke-opacity:1; 
stroke-linecap:round; stroke-linejoin:round;">
</g>
<g style="fill:#000000; fill-opacity:0.0; 
stroke:#000000; stroke-width:59.0551; stroke-opacity:1; 
stroke-linecap:round; stroke-linejoin:round;">
<circle cx="53378.1" cy="11087.8" r="468.504" /> 
<circle cx="15335.6" cy="8089.37" r="468.504" /> 
<circle cx="20489.2" cy="31514.6" r="468.504" /> 
<circle cx="55064.8" cy="25236.6" r="468.504" /> 
<path d="M86641.9 687.008 A281.102 281.102 0.0 0 0 86360.8 405.906" />
<path d="M86360.8 38916.9 A281.102 281.102 0.0 0 0 86641.9 38635.8" />
<path d="M4091.54 38635.8 A281.102 281.102 0.0 0 0 4372.64 38916.9" />
<path d="M4372.64 30390.2 A281.102 281.102 0.0 0 0 4091.54 30671.3" />
<path d="M2217.52 22613 A281.102 281.102 0.0 0 0 2498.62 22894.1" />
<path d="M343.504 15116.9 A281.102 281.102 0.0 0 0 624.606 15398" />
<path d="M624.606 7901.97 A281.102 281.102 0.0 0 0 343.504 8183.07" />
<path d="M4372.64 405.906 A281.102 281.102 0.0 0 0 4091.54 687.008" />
<path d="M4091 7901
L4091 687
" />
<path d="M624 7901
L4091 7901
" />
<path d="M343 15116
L343 8183
" />
<path d="M2217 15398
L624 15398
" />
<path d="M2217 22612
L2217 15398
" />
<path d="M5965 22894
L2498 22894
" />
<path d="M5965 30390
L5965 22894
" />
<path d="M4372 30390
L5965 30390
" />
<path d="M4091 38635
L4091 30671
" />
<path d="M86360 38916
L4372 38916
" />
<path d="M86641 687
L86641 38635
" />
<path d="M4372 405
L86360 405
" />
<g >
</g>
<g >
</g>
<g >
</g>
<g >
</g>
<g >
</g>
<g >
</g>
<g >
</g>
<g >
</g>
<g >
</g>
<g >
</g>
<g >
</g>
<g >
</g>
<g >
</g>
<g >
</g>
<g >
</g>
<g >
</g>
<g >
</g>
<g >
</g>
<g >
</g>
<g >
</g>
<g >
</g>
<g >
</g>
<g >
</g>
<g >
</g>
<g >
</g>
<g >
</g>
<g >
</g>
<g >
</g>
<g >
</g>
<g >
</g>
<g >
</g>
<g >
</g>
<g >
</g>
<g >
</g>
<g >
</g>
<g >
</g>
<g >
</g>
<g >
</g>
<g >
</g>
<g >
</g>
<g >
</g>
<g >
</g>
<g >
</g>
<g >
</g>
<g >
</g>
<g >
</g>
<g >
</g>
<g >
</g>
<g >
</g>
<g >
</g>
<g >
</g>
<g >
</g>
<g >
</g>
<g >
</g>
<g >
</g>
<g >
</g>
<g >
</g>
<g >
</g>
<g >
</g>
<g >
</g>
<g >
</g>
<g >
</g>
<g >
</g>
<g >
</g>
<g >
</g>
<g >
</g>
<g >
</g>
<g >
</g>
<g >
</g>
<g >
</g>
<g >
</g>
<g >
</g>
<g >
</g>
<g >
</g>
<g >
</g>
<g >
</g>
<g >
</g>
<g >
</g>
<g >
</g>
<g >
</g>
<g >
</g>
<g >
</g>
<g >
</g>
<g >
</g>
<g >
</g>
<g >
</g>
<g >
</g>
<g >
</g>
<g >
</g>
<g >
</g>
<g >
</g>
<g >
</g>
<g >
</g>
<g >
</g>
<g >
</g>
<g >
</g>
<g >
</g>
<g >
</g>
</g> 
</svg>
