<?xml version="1.0" standalone="no"?>
 <!DOCTYPE svg PUBLIC "-//W3C//DTD SVG 1.1//EN" 
 "http://www.w3.org/Graphics/SVG/1.1/DTD/svg11.dtd"> 
<svg
  xmlns:svg="http://www.w3.org/2000/svg"
  xmlns="http://www.w3.org/2000/svg"
  xmlns:xlink="http://www.w3.org/1999/xlink"
  version="1.1"
  width="17.673320cm" height="9.890760cm" viewBox="0 0 69580 38940">
<title>SVG Picture created as Split65Left-Eco1_User.svg date 2020/11/02 22:49:04 </title>
  <desc>Picture generated by PCBNEW </desc>
<g style="fill:#000000; fill-opacity:1;stroke:#000000; stroke-opacity:1;
stroke-linecap:round; stroke-linejoin:round;"
 transform="translate(0 0) scale(1 1)">
</g>
<g style="fill:#000000; fill-opacity:0.0; 
stroke:#000000; stroke-width:-0.000393701; stroke-opacity:1; 
stroke-linecap:round; stroke-linejoin:round;">
</g>
<g style="fill:#000000; fill-opacity:0.0; 
stroke:#000000; stroke-width:59.0551; stroke-opacity:1; 
stroke-linecap:round; stroke-linejoin:round;">
<circle cx="56439.8" cy="8089.37" r="468.504" /> 
<circle cx="62061.8" cy="23175.2" r="468.504" /> 
<circle cx="26265.7" cy="32076.8" r="468.504" /> 
<circle cx="25331.1" cy="10057.1" r="468.504" /> 
<path d="M67683.9 687.008 A281.102 281.102 0.0 0 0 67402.8 405.906" />
<path d="M67402.8 7901.97 A281.102 281.102 0.0 0 0 67683.9 7620.87" />
<path d="M65809.8 15679.1 A281.102 281.102 0.0 0 0 65528.7 15398" />
<path d="M69557.9 23175.2 A281.102 281.102 0.0 0 0 69276.8 22894.1" />
<path d="M69276.8 30390.2 A281.102 281.102 0.0 0 0 69557.9 30109.1" />
<path d="M65528.7 38916.9 A281.102 281.102 0.0 0 0 65809.8 38635.8" />
<path d="M15211.4 38635.8 A281.102 281.102 0.0 0 0 15492.5 38916.9" />
<path d="M15492.5 405.906 A281.102 281.102 0.0 0 0 15211.4 687.008" />
<path d="M67402 405
L15492 405
" />
<path d="M67683 7620
L67683 687
" />
<path d="M63935 7901
L67402 7901
" />
<path d="M63935 15398
L63935 7901
" />
<path d="M65528 15398
L63935 15398
" />
<path d="M65809 22894
L65809 15679
" />
<path d="M69276 22894
L65809 22894
" />
<path d="M69557 30109
L69557 23175
" />
<path d="M65809 30390
L69276 30390
" />
<path d="M65809 38635
L65809 30390
" />
<path d="M15492 38916
L65528 38916
" />
<path d="M15211 687
L15211 38635
" />
</g>
<g style="fill:#000000; fill-opacity:0.0; 
stroke:#000000; stroke-width:47.2441; stroke-opacity:1; 
stroke-linecap:round; stroke-linejoin:round;">
<path d="M59537 36801
L59537 37274
" />
<path d="M58258 35042
L58858 35042
" />
<path d="M52746 36892
L58258 36892
" />
<path d="M52145 31959
L49488 31959
" />
<path d="M49163 33231
L49163 34333
" />
<path d="M52145 36801
L52145 35042
" />
<path d="M58858 36801
L59537 36801
" />
<path d="M58258 33231
L58258 31380
" />
<path d="M61516 36801
L61516 34333
" />
<path d="M58258 31380
L52746 31380
" />
<path d="M58858 31959
L58858 33231
" />
<path d="M52145 35042
L52746 35042
" />
<path d="M51466 36801
L52145 36801
" />
<path d="M50167 36801
L50167 37274
" />
<path d="M52746 35042
L52746 36892
" />
<path d="M51466 37274
L51466 36801
" />
<path d="M60836 37274
L60836 36801
" />
<path d="M59537 37274
L60836 37274
" />
<path d="M49488 34333
L49488 36801
" />
<path d="M49163 34333
L49488 34333
" />
<path d="M49488 31959
L49488 33231
" />
<path d="M61516 33231
L61516 31959
" />
<path d="M61841 34333
L61841 33231
" />
<path d="M61516 34333
L61841 34333
" />
<path d="M58858 35042
L58858 36801
" />
<path d="M49488 33231
L49163 33231
" />
<path d="M52746 33231
L52145 33231
" />
<path d="M58258 36892
L58258 35042
" />
<path d="M60836 36801
L61516 36801
" />
<path d="M52746 31380
L52746 33231
" />
<path d="M61841 33231
L61516 33231
" />
<path d="M58858 33231
L58258 33231
" />
<path d="M61516 31959
L58858 31959
" />
<path d="M50167 37274
L51466 37274
" />
<path d="M52145 33231
L52145 31959
" />
<path d="M49488 36801
L50167 36801
" />
<path d="M37752 31382
L43264 31382
" />
<path d="M43264 31382
L43264 36894
" />
<path d="M43264 36894
L37752 36894
" />
<path d="M37752 36894
L37752 31382
" />
<path d="M28384 31382
L33896 31382
" />
<path d="M33896 31382
L33896 36894
" />
<path d="M33896 36894
L28384 36894
" />
<path d="M28384 36894
L28384 31382
" />
<path d="M19014 31382
L24526 31382
" />
<path d="M24526 31382
L24526 36894
" />
<path d="M24526 36894
L19014 36894
" />
<path d="M19014 36894
L19014 31382
" />
<path d="M63053 23886
L68565 23886
" />
<path d="M68565 23886
L68565 29398
" />
<path d="M68565 29398
L63053 29398
" />
<path d="M63053 29398
L63053 23886
" />
<path d="M55557 23886
L61069 23886
" />
<path d="M61069 23886
L61069 29398
" />
<path d="M61069 29398
L55557 29398
" />
<path d="M55557 29398
L55557 23886
" />
<path d="M48061 23886
L53573 23886
" />
<path d="M53573 23886
L53573 29398
" />
<path d="M53573 29398
L48061 29398
" />
<path d="M48061 29398
L48061 23886
" />
<path d="M40565 23886
L46077 23886
" />
<path d="M46077 23886
L46077 29398
" />
<path d="M46077 29398
L40565 29398
" />
<path d="M40565 29398
L40565 23886
" />
<path d="M33069 23886
L38581 23886
" />
<path d="M38581 23886
L38581 29398
" />
<path d="M38581 29398
L33069 29398
" />
<path d="M33069 29398
L33069 23886
" />
<path d="M25573 23886
L31085 23886
" />
<path d="M31085 23886
L31085 29398
" />
<path d="M31085 29398
L25573 29398
" />
<path d="M25573 29398
L25573 23886
" />
<path d="M17140 23886
L22652 23886
" />
<path d="M22652 23886
L22652 29398
" />
<path d="M22652 29398
L17140 29398
" />
<path d="M17140 29398
L17140 23886
" />
<path d="M59305 16390
L64817 16390
" />
<path d="M64817 16390
L64817 21901
" />
<path d="M64817 21901
L59305 21901
" />
<path d="M59305 21901
L59305 16390
" />
<path d="M51809 16390
L57321 16390
" />
<path d="M57321 16390
L57321 21901
" />
<path d="M57321 21901
L51809 21901
" />
<path d="M51809 21901
L51809 16390
" />
<path d="M44313 16390
L49825 16390
" />
<path d="M49825 16390
L49825 21901
" />
<path d="M49825 21901
L44313 21901
" />
<path d="M44313 21901
L44313 16390
" />
<path d="M19014 16390
L24526 16390
" />
<path d="M24526 16390
L24526 21901
" />
<path d="M24526 21901
L19014 21901
" />
<path d="M19014 21901
L19014 16390
" />
<path d="M57431 8894
L62943 8894
" />
<path d="M62943 8894
L62943 14405
" />
<path d="M62943 14405
L57431 14405
" />
<path d="M57431 14405
L57431 8894
" />
<path d="M49935 8894
L55447 8894
" />
<path d="M55447 8894
L55447 14405
" />
<path d="M55447 14405
L49935 14405
" />
<path d="M49935 14405
L49935 8894
" />
<path d="M61179 1398
L66691 1398
" />
<path d="M66691 1398
L66691 6909
" />
<path d="M66691 6909
L61179 6909
" />
<path d="M61179 6909
L61179 1398
" />
<path d="M42439 8894
L47951 8894
" />
<path d="M47951 8894
L47951 14405
" />
<path d="M47951 14405
L42439 14405
" />
<path d="M42439 14405
L42439 8894
" />
<path d="M34943 8894
L40455 8894
" />
<path d="M40455 8894
L40455 14405
" />
<path d="M40455 14405
L34943 14405
" />
<path d="M34943 14405
L34943 8894
" />
<path d="M27447 8894
L32959 8894
" />
<path d="M32959 8894
L32959 14405
" />
<path d="M32959 14405
L27447 14405
" />
<path d="M27447 14405
L27447 8894
" />
<path d="M36817 16390
L42329 16390
" />
<path d="M42329 16390
L42329 21901
" />
<path d="M42329 21901
L36817 21901
" />
<path d="M36817 21901
L36817 16390
" />
<path d="M29321 16390
L34833 16390
" />
<path d="M34833 16390
L34833 21901
" />
<path d="M34833 21901
L29321 21901
" />
<path d="M29321 21901
L29321 16390
" />
<path d="M18077 8894
L23589 8894
" />
<path d="M23589 8894
L23589 14405
" />
<path d="M23589 14405
L18077 14405
" />
<path d="M18077 14405
L18077 8894
" />
<path d="M53683 1398
L59195 1398
" />
<path d="M59195 1398
L59195 6909
" />
<path d="M59195 6909
L53683 6909
" />
<path d="M53683 6909
L53683 1398
" />
<path d="M46187 1398
L51699 1398
" />
<path d="M51699 1398
L51699 6909
" />
<path d="M51699 6909
L46187 6909
" />
<path d="M46187 6909
L46187 1398
" />
<path d="M38691 1398
L44203 1398
" />
<path d="M44203 1398
L44203 6909
" />
<path d="M44203 6909
L38691 6909
" />
<path d="M38691 6909
L38691 1398
" />
<path d="M31195 1398
L36707 1398
" />
<path d="M36707 1398
L36707 6909
" />
<path d="M36707 6909
L31195 6909
" />
<path d="M31195 6909
L31195 1398
" />
<path d="M23699 1398
L29211 1398
" />
<path d="M29211 1398
L29211 6909
" />
<path d="M29211 6909
L23699 6909
" />
<path d="M23699 6909
L23699 1398
" />
<path d="M16203 1398
L21715 1398
" />
<path d="M21715 1398
L21715 6909
" />
<path d="M21715 6909
L16203 6909
" />
<path d="M16203 6909
L16203 1398
" />
<g >
</g>
<g >
</g>
<g >
</g>
<g >
</g>
<g >
</g>
<g >
</g>
<g >
</g>
<g >
</g>
<g >
</g>
<g >
</g>
<g >
</g>
<g >
</g>
<g >
</g>
<g >
</g>
<g >
</g>
<g >
</g>
<g >
</g>
<g >
</g>
<g >
</g>
<g >
</g>
<g >
</g>
<g >
</g>
<g >
</g>
<g >
</g>
<g >
</g>
<g >
</g>
<g >
</g>
<g >
</g>
<g >
</g>
<g >
</g>
<g >
</g>
<g >
</g>
<g >
</g>
<g >
</g>
<g >
</g>
<g >
</g>
<g >
</g>
<g >
</g>
<g >
</g>
<g >
</g>
<g >
</g>
<g >
</g>
<g >
</g>
<g >
</g>
<g >
</g>
<g >
</g>
<g >
</g>
<g >
</g>
<g >
</g>
<g >
</g>
<g >
</g>
<g >
</g>
<g >
</g>
<g >
</g>
<g >
</g>
<g >
</g>
<g >
</g>
<g >
</g>
<g >
</g>
<g >
</g>
<g >
</g>
<g >
</g>
<g >
</g>
<g >
</g>
<g >
</g>
<g >
</g>
<g >
</g>
<g >
</g>
<g >
</g>
<g >
</g>
<g >
</g>
<g >
</g>
<g >
</g>
<g >
</g>
<g >
</g>
<g >
</g>
<g >
</g>
<g >
</g>
</g> 
</svg>
