<?xml version="1.0" standalone="no"?>
 <!DOCTYPE svg PUBLIC "-//W3C//DTD SVG 1.1//EN" 
 "http://www.w3.org/Graphics/SVG/1.1/DTD/svg11.dtd"> 
<svg
  xmlns:svg="http://www.w3.org/2000/svg"
  xmlns="http://www.w3.org/2000/svg"
  xmlns:xlink="http://www.w3.org/1999/xlink"
  version="1.1"
  width="22.014180cm" height="9.890760cm" viewBox="0 0 86670 38940">
<title>SVG Picture created as Split65Right-Eco1_User.svg date 2020/11/02 23:03:50 </title>
  <desc>Picture generated by PCBNEW </desc>
<g style="fill:#000000; fill-opacity:1;stroke:#000000; stroke-opacity:1;
stroke-linecap:round; stroke-linejoin:round;"
 transform="translate(0 0) scale(1 1)">
</g>
<g style="fill:#000000; fill-opacity:0.0; 
stroke:#000000; stroke-width:-0.000393701; stroke-opacity:1; 
stroke-linecap:round; stroke-linejoin:round;">
</g>
<g style="fill:#000000; fill-opacity:0.0; 
stroke:#000000; stroke-width:59.0551; stroke-opacity:1; 
stroke-linecap:round; stroke-linejoin:round;">
<circle cx="53378.1" cy="11087.8" r="468.504" /> 
<circle cx="15335.6" cy="8089.37" r="468.504" /> 
<circle cx="20489.2" cy="31514.6" r="468.504" /> 
<circle cx="55064.8" cy="25236.6" r="468.504" /> 
<path d="M71275 38916.9 A281.102 281.102 0.0 0 0 71556.1 38635.8" />
<path d="M4091.54 38635.8 A281.102 281.102 0.0 0 0 4372.64 38916.9" />
<path d="M4372.64 30390.2 A281.102 281.102 0.0 0 0 4091.54 30671.3" />
<path d="M2217.52 22613 A281.102 281.102 0.0 0 0 2498.62 22894.1" />
<path d="M343.504 15116.9 A281.102 281.102 0.0 0 0 624.606 15398" />
<path d="M624.606 7901.97 A281.102 281.102 0.0 0 0 343.504 8183.07" />
<path d="M4372.64 405.906 A281.102 281.102 0.0 0 0 4091.54 687.008" />
<path d="M71556.1 687.008 A281.102 281.102 0.0 0 0 71275 405.906" />
<path d="M4091 7901
L4091 687
" />
<path d="M624 7901
L4091 7901
" />
<path d="M343 15116
L343 8183
" />
<path d="M2217 15398
L624 15398
" />
<path d="M2217 22612
L2217 15398
" />
<path d="M5965 22894
L2498 22894
" />
<path d="M5965 30390
L5965 22894
" />
<path d="M4372 30390
L5965 30390
" />
<path d="M4091 38635
L4091 30671
" />
<path d="M71275 38916
L4372 38916
" />
<path d="M71556 687
L71556 38635
" />
<path d="M4372 405
L71275 405
" />
</g>
<g style="fill:#000000; fill-opacity:0.0; 
stroke:#000000; stroke-width:47.2441; stroke-opacity:1; 
stroke-linecap:round; stroke-linejoin:round;">
<path d="M6512 36803
L7192 36803
" />
<path d="M9170 33233
L9170 31961
" />
<path d="M7192 37276
L8490 37276
" />
<path d="M18540 31961
L15882 31961
" />
<path d="M15882 33233
L15282 33233
" />
<path d="M18865 33233
L18540 33233
" />
<path d="M9770 31382
L9770 33233
" />
<path d="M17861 36803
L18540 36803
" />
<path d="M15282 36894
L15282 35044
" />
<path d="M9770 33233
L9170 33233
" />
<path d="M6512 33233
L6187 33233
" />
<path d="M15882 35044
L15882 36803
" />
<path d="M18540 34335
L18865 34335
" />
<path d="M18865 34335
L18865 33233
" />
<path d="M18540 33233
L18540 31961
" />
<path d="M6512 31961
L6512 33233
" />
<path d="M6187 34335
L6512 34335
" />
<path d="M6512 34335
L6512 36803
" />
<path d="M16562 37276
L17861 37276
" />
<path d="M17861 37276
L17861 36803
" />
<path d="M8490 37276
L8490 36803
" />
<path d="M9770 35044
L9770 36894
" />
<path d="M7192 36803
L7192 37276
" />
<path d="M8490 36803
L9170 36803
" />
<path d="M9170 35044
L9770 35044
" />
<path d="M15882 31961
L15882 33233
" />
<path d="M15282 31382
L9770 31382
" />
<path d="M18540 36803
L18540 34335
" />
<path d="M15282 33233
L15282 31382
" />
<path d="M15882 36803
L16562 36803
" />
<path d="M9170 36803
L9170 35044
" />
<path d="M6187 33233
L6187 34335
" />
<path d="M9170 31961
L6512 31961
" />
<path d="M9770 36894
L15282 36894
" />
<path d="M15282 35044
L15882 35044
" />
<path d="M16562 36803
L16562 37276
" />
<path d="M65052 1398
L70563 1398
" />
<path d="M70563 1398
L70563 6909
" />
<path d="M70563 6909
L65052 6909
" />
<path d="M65052 6909
L65052 1398
" />
<path d="M50552 6819
L51231 6819
" />
<path d="M53209 3248
L53209 1977
" />
<path d="M51231 7291
L52530 7291
" />
<path d="M62579 1977
L59922 1977
" />
<path d="M59922 3248
L59321 3248
" />
<path d="M62904 3248
L62579 3248
" />
<path d="M53810 1398
L53810 3248
" />
<path d="M61900 6819
L62579 6819
" />
<path d="M59321 6909
L59321 5059
" />
<path d="M53810 3248
L53209 3248
" />
<path d="M50552 3248
L50227 3248
" />
<path d="M59922 5059
L59922 6819
" />
<path d="M62579 4350
L62904 4350
" />
<path d="M62904 4350
L62904 3248
" />
<path d="M62579 3248
L62579 1977
" />
<path d="M50552 1977
L50552 3248
" />
<path d="M50227 4350
L50552 4350
" />
<path d="M50552 4350
L50552 6819
" />
<path d="M60601 7291
L61900 7291
" />
<path d="M61900 7291
L61900 6819
" />
<path d="M52530 7291
L52530 6819
" />
<path d="M53810 5059
L53810 6909
" />
<path d="M51231 6819
L51231 7291
" />
<path d="M52530 6819
L53209 6819
" />
<path d="M53209 5059
L53810 5059
" />
<path d="M59922 1977
L59922 3248
" />
<path d="M59321 1398
L53810 1398
" />
<path d="M62579 6819
L62579 4350
" />
<path d="M59321 3248
L59321 1398
" />
<path d="M59922 6819
L60601 6819
" />
<path d="M53209 6819
L53209 5059
" />
<path d="M50227 3248
L50227 4350
" />
<path d="M53209 1977
L50552 1977
" />
<path d="M53810 6909
L59321 6909
" />
<path d="M59321 5059
L59922 5059
" />
<path d="M60601 6819
L60601 7291
" />
<path d="M42563 1398
L48075 1398
" />
<path d="M48075 1398
L48075 6909
" />
<path d="M48075 6909
L42563 6909
" />
<path d="M42563 6909
L42563 1398
" />
<path d="M35067 1398
L40579 1398
" />
<path d="M40579 1398
L40579 6909
" />
<path d="M40579 6909
L35067 6909
" />
<path d="M35067 6909
L35067 1398
" />
<path d="M27571 1398
L33083 1398
" />
<path d="M33083 1398
L33083 6909
" />
<path d="M33083 6909
L27571 6909
" />
<path d="M27571 6909
L27571 1398
" />
<path d="M20075 1398
L25587 1398
" />
<path d="M25587 1398
L25587 6909
" />
<path d="M25587 6909
L20075 6909
" />
<path d="M20075 6909
L20075 1398
" />
<path d="M12579 1398
L18091 1398
" />
<path d="M18091 1398
L18091 6909
" />
<path d="M18091 6909
L12579 6909
" />
<path d="M12579 6909
L12579 1398
" />
<path d="M5083 1398
L10595 1398
" />
<path d="M10595 1398
L10595 6909
" />
<path d="M10595 6909
L5083 6909
" />
<path d="M5083 6909
L5083 1398
" />
<path d="M65052 8894
L70563 8894
" />
<path d="M70563 8894
L70563 14405
" />
<path d="M70563 14405
L65052 14405
" />
<path d="M65052 14405
L65052 8894
" />
<path d="M46312 8894
L51823 8894
" />
<path d="M51823 8894
L51823 14405
" />
<path d="M51823 14405
L46312 14405
" />
<path d="M46312 14405
L46312 8894
" />
<path d="M38815 8894
L44327 8894
" />
<path d="M44327 8894
L44327 14405
" />
<path d="M44327 14405
L38815 14405
" />
<path d="M38815 14405
L38815 8894
" />
<path d="M31319 8894
L36831 8894
" />
<path d="M36831 8894
L36831 14405
" />
<path d="M36831 14405
L31319 14405
" />
<path d="M31319 14405
L31319 8894
" />
<path d="M23823 8894
L29335 8894
" />
<path d="M29335 8894
L29335 14405
" />
<path d="M29335 14405
L23823 14405
" />
<path d="M23823 14405
L23823 8894
" />
<path d="M16327 8894
L21839 8894
" />
<path d="M21839 8894
L21839 14405
" />
<path d="M21839 14405
L16327 14405
" />
<path d="M16327 14405
L16327 8894
" />
<path d="M8831 8894
L14343 8894
" />
<path d="M14343 8894
L14343 14405
" />
<path d="M14343 14405
L8831 14405
" />
<path d="M8831 14405
L8831 8894
" />
<path d="M1335 8894
L6847 8894
" />
<path d="M6847 8894
L6847 14405
" />
<path d="M6847 14405
L1335 14405
" />
<path d="M1335 14405
L1335 8894
" />
<path d="M65052 16390
L70563 16390
" />
<path d="M70563 16390
L70563 21901
" />
<path d="M70563 21901
L65052 21901
" />
<path d="M65052 21901
L65052 16390
" />
<path d="M56709 12039
L58469 12039
" />
<path d="M58469 12039
L58469 12640
" />
<path d="M56619 12640
L56619 18151
" />
<path d="M61552 18752
L60280 18752
" />
<path d="M56709 9382
L56709 10061
" />
<path d="M56709 20730
L56709 21409
" />
<path d="M62131 12640
L60280 12640
" />
<path d="M60280 9382
L60280 9057
" />
<path d="M60280 9057
L59178 9057
" />
<path d="M56709 21409
L59178 21409
" />
<path d="M56709 10061
L56237 10061
" />
<path d="M56709 11360
L56709 12039
" />
<path d="M56709 19431
L56237 19431
" />
<path d="M59178 21409
L59178 21734
" />
<path d="M60280 12039
L61552 12039
" />
<path d="M61552 12039
L61552 9382
" />
<path d="M59178 21734
L60280 21734
" />
<path d="M59178 9057
L59178 9382
" />
<path d="M60280 21409
L61552 21409
" />
<path d="M58469 12640
L56619 12640
" />
<path d="M60280 18151
L62131 18151
" />
<path d="M56619 18151
L58469 18151
" />
<path d="M56709 18752
L56709 19431
" />
<path d="M61552 9382
L60280 9382
" />
<path d="M60280 18752
L60280 18151
" />
<path d="M60280 12640
L60280 12039
" />
<path d="M58469 18151
L58469 18752
" />
<path d="M56237 20730
L56709 20730
" />
<path d="M60280 21734
L60280 21409
" />
<path d="M62131 18151
L62131 12640
" />
<path d="M56237 10061
L56237 11360
" />
<path d="M59178 9382
L56709 9382
" />
<path d="M56237 11360
L56709 11360
" />
<path d="M61552 21409
L61552 18752
" />
<path d="M56237 19431
L56237 20730
" />
<path d="M58469 18752
L56709 18752
" />
<path d="M48186 16390
L53697 16390
" />
<path d="M53697 16390
L53697 21901
" />
<path d="M53697 21901
L48186 21901
" />
<path d="M48186 21901
L48186 16390
" />
<path d="M40689 16390
L46201 16390
" />
<path d="M46201 16390
L46201 21901
" />
<path d="M46201 21901
L40689 21901
" />
<path d="M40689 21901
L40689 16390
" />
<path d="M33193 16390
L38705 16390
" />
<path d="M38705 16390
L38705 21901
" />
<path d="M38705 21901
L33193 21901
" />
<path d="M33193 21901
L33193 16390
" />
<path d="M25697 16390
L31209 16390
" />
<path d="M31209 16390
L31209 21901
" />
<path d="M31209 21901
L25697 21901
" />
<path d="M25697 21901
L25697 16390
" />
<path d="M18201 16390
L23713 16390
" />
<path d="M23713 16390
L23713 21901
" />
<path d="M23713 21901
L18201 21901
" />
<path d="M18201 21901
L18201 16390
" />
<path d="M10705 16390
L16217 16390
" />
<path d="M16217 16390
L16217 21901
" />
<path d="M16217 21901
L10705 21901
" />
<path d="M10705 21901
L10705 16390
" />
<path d="M65052 23886
L70563 23886
" />
<path d="M70563 23886
L70563 29398
" />
<path d="M70563 29398
L65052 29398
" />
<path d="M65052 29398
L65052 23886
" />
<path d="M57556 23886
L63067 23886
" />
<path d="M63067 23886
L63067 29398
" />
<path d="M63067 29398
L57556 29398
" />
<path d="M57556 29398
L57556 23886
" />
<path d="M47249 23886
L52760 23886
" />
<path d="M52760 23886
L52760 29398
" />
<path d="M52760 29398
L47249 29398
" />
<path d="M47249 29398
L47249 23886
" />
<path d="M36941 23886
L42453 23886
" />
<path d="M42453 23886
L42453 29398
" />
<path d="M42453 29398
L36941 29398
" />
<path d="M36941 29398
L36941 23886
" />
<path d="M29445 23886
L34957 23886
" />
<path d="M34957 23886
L34957 29398
" />
<path d="M34957 29398
L29445 29398
" />
<path d="M29445 29398
L29445 23886
" />
<path d="M21949 23886
L27461 23886
" />
<path d="M27461 23886
L27461 29398
" />
<path d="M27461 29398
L21949 29398
" />
<path d="M21949 29398
L21949 23886
" />
<path d="M14453 23886
L19965 23886
" />
<path d="M19965 23886
L19965 29398
" />
<path d="M19965 29398
L14453 29398
" />
<path d="M14453 29398
L14453 23886
" />
<path d="M6957 23886
L12469 23886
" />
<path d="M12469 23886
L12469 29398
" />
<path d="M12469 29398
L6957 29398
" />
<path d="M6957 29398
L6957 23886
" />
<path d="M65052 31382
L70563 31382
" />
<path d="M70563 31382
L70563 36894
" />
<path d="M70563 36894
L65052 36894
" />
<path d="M65052 36894
L65052 31382
" />
<path d="M57556 31382
L63067 31382
" />
<path d="M63067 31382
L63067 36894
" />
<path d="M63067 36894
L57556 36894
" />
<path d="M57556 36894
L57556 31382
" />
<path d="M50060 31382
L55571 31382
" />
<path d="M55571 31382
L55571 36894
" />
<path d="M55571 36894
L50060 36894
" />
<path d="M50060 36894
L50060 31382
" />
<path d="M36941 31382
L42453 31382
" />
<path d="M42453 31382
L42453 36894
" />
<path d="M42453 36894
L36941 36894
" />
<path d="M36941 36894
L36941 31382
" />
<path d="M29445 31382
L34957 31382
" />
<path d="M34957 31382
L34957 36894
" />
<path d="M34957 36894
L29445 36894
" />
<path d="M29445 36894
L29445 31382
" />
<path d="M21949 31382
L27461 31382
" />
<path d="M27461 31382
L27461 36894
" />
<path d="M27461 36894
L21949 36894
" />
<path d="M21949 36894
L21949 31382
" />
<path d="M3209 16390
L8721 16390
" />
<path d="M8721 16390
L8721 21901
" />
<path d="M8721 21901
L3209 21901
" />
<path d="M3209 21901
L3209 16390
" />
<g >
</g>
<g >
</g>
<g >
</g>
<g >
</g>
<g >
</g>
<g >
</g>
<g >
</g>
<g >
</g>
<g >
</g>
<g >
</g>
<g >
</g>
<g >
</g>
<g >
</g>
<g >
</g>
<g >
</g>
<g >
</g>
<g >
</g>
<g >
</g>
<g >
</g>
<g >
</g>
<g >
</g>
<g >
</g>
<g >
</g>
<g >
</g>
<g >
</g>
<g >
</g>
<g >
</g>
<g >
</g>
<g >
</g>
<g >
</g>
<g >
</g>
<g >
</g>
<g >
</g>
<g >
</g>
<g >
</g>
<g >
</g>
<g >
</g>
<g >
</g>
<g >
</g>
<g >
</g>
<g >
</g>
<g >
</g>
<g >
</g>
<g >
</g>
<g >
</g>
<g >
</g>
<g >
</g>
<g >
</g>
<g >
</g>
<g >
</g>
<g >
</g>
<g >
</g>
<g >
</g>
<g >
</g>
<g >
</g>
<g >
</g>
<g >
</g>
<g >
</g>
<g >
</g>
<g >
</g>
<g >
</g>
<g >
</g>
<g >
</g>
<g >
</g>
<g >
</g>
<g >
</g>
<g >
</g>
<g >
</g>
<g >
</g>
<g >
</g>
<g >
</g>
<g >
</g>
<g >
</g>
<g >
</g>
<g >
</g>
<g >
</g>
<g >
</g>
<g >
</g>
<g >
</g>
<g >
</g>
<g >
</g>
<g >
</g>
<g >
</g>
<g >
</g>
<g >
</g>
<g >
</g>
<g >
</g>
<g >
</g>
<g >
</g>
<g >
</g>
<g >
</g>
<g >
</g>
<g >
</g>
<g >
</g>
<g >
</g>
<g >
</g>
<g >
</g>
<g >
</g>
</g> 
</svg>
