<?xml version="1.0" standalone="no"?>
 <!DOCTYPE svg PUBLIC "-//W3C//DTD SVG 1.1//EN" 
 "http://www.w3.org/Graphics/SVG/1.1/DTD/svg11.dtd"> 
<svg
  xmlns:svg="http://www.w3.org/2000/svg"
  xmlns="http://www.w3.org/2000/svg"
  xmlns:xlink="http://www.w3.org/1999/xlink"
  version="1.1"
  width="17.668240cm" height="9.890760cm" viewBox="0 0 69560 38940">
<title>SVG Picture created as Split65Left-Eco1_User.svg date 2020/10/08 13:05:58 </title>
  <desc>Picture generated by PCBNEW </desc>
<g style="fill:#000000; fill-opacity:1;stroke:#000000; stroke-opacity:1;
stroke-linecap:round; stroke-linejoin:round;"
 transform="translate(0 0) scale(1 1)">
</g>
<g style="fill:#000000; fill-opacity:0.0; 
stroke:#000000; stroke-width:-0.000393701; stroke-opacity:1; 
stroke-linecap:round; stroke-linejoin:round;">
</g>
<g style="fill:#000000; fill-opacity:0.0; 
stroke:#000000; stroke-width:59.0551; stroke-opacity:1; 
stroke-linecap:round; stroke-linejoin:round;">
<circle cx="56417.7" cy="8089.37" r="468.504" /> 
<circle cx="62039.8" cy="23175.2" r="468.504" /> 
<circle cx="24372" cy="32076.8" r="468.504" /> 
<circle cx="25309.1" cy="10057.1" r="468.504" /> 
<path d="M67661.8 687.008 A281.102 281.102 0.0 0 0 67380.7 405.906" />
<path d="M67380.7 7901.97 A281.102 281.102 0.0 0 0 67661.8 7620.87" />
<path d="M65787.8 15679.1 A281.102 281.102 0.0 0 0 65506.7 15398" />
<path d="M69535.8 23175.2 A281.102 281.102 0.0 0 0 69254.7 22894.1" />
<path d="M69254.7 30390.2 A281.102 281.102 0.0 0 0 69535.8 30109.1" />
<path d="M65506.7 38916.9 A281.102 281.102 0.0 0 0 65787.8 38635.8" />
<path d="M15189.4 38635.8 A281.102 281.102 0.0 0 0 15470.5 38916.9" />
<path d="M15470.5 405.906 A281.102 281.102 0.0 0 0 15189.4 687.008" />
<path d="M67380 405
L15470 405
" />
<path d="M67661 7620
L67661 687
" />
<path d="M63913 7901
L67380 7901
" />
<path d="M63913 15398
L63913 7901
" />
<path d="M65506 15398
L63913 15398
" />
<path d="M65787 22894
L65787 15679
" />
<path d="M69254 22894
L65787 22894
" />
<path d="M69535 30109
L69535 23175
" />
<path d="M65787 30390
L69254 30390
" />
<path d="M65787 38635
L65787 30390
" />
<path d="M15470 38916
L65506 38916
" />
<path d="M15189 687
L15189 38635
" />
</g>
<g style="fill:#000000; fill-opacity:0.0; 
stroke:#000000; stroke-width:47.2441; stroke-opacity:1; 
stroke-linecap:round; stroke-linejoin:round;">
<path d="M63370 36803
L63370 34335
" />
<path d="M48370 36803
L48370 35044
" />
<path d="M57297 36894
L57297 35044
" />
<path d="M51785 31382
L51785 33233
" />
<path d="M63694 34335
L63694 33233
" />
<path d="M47691 36803
L48370 36803
" />
<path d="M63370 31961
L60712 31961
" />
<path d="M45712 33233
L45388 33233
" />
<path d="M45388 33233
L45388 34335
" />
<path d="M51785 33233
L48370 33233
" />
<path d="M63370 34335
L63694 34335
" />
<path d="M60712 31961
L60712 33233
" />
<path d="M60712 35044
L60712 36803
" />
<path d="M45712 34335
L45712 36803
" />
<path d="M61391 36803
L61391 37276
" />
<path d="M45712 31961
L45712 33233
" />
<path d="M61391 37276
L62691 37276
" />
<path d="M48370 31961
L45712 31961
" />
<path d="M60712 33233
L57297 33233
" />
<path d="M57297 33233
L57297 31382
" />
<path d="M57297 31382
L51785 31382
" />
<path d="M48370 33233
L48370 31961
" />
<path d="M62691 37276
L62691 36803
" />
<path d="M51785 35044
L51785 36894
" />
<path d="M57297 35044
L60712 35044
" />
<path d="M45388 34335
L45712 34335
" />
<path d="M45712 36803
L46391 36803
" />
<path d="M47691 37276
L47691 36803
" />
<path d="M46391 37276
L47691 37276
" />
<path d="M60712 36803
L61391 36803
" />
<path d="M62691 36803
L63370 36803
" />
<path d="M46391 36803
L46391 37276
" />
<path d="M63370 33233
L63370 31961
" />
<path d="M63694 33233
L63370 33233
" />
<path d="M51785 36894
L57297 36894
" />
<path d="M48370 35044
L51785 35044
" />
<path d="M35858 31382
L41370 31382
" />
<path d="M41370 31382
L41370 36894
" />
<path d="M41370 36894
L35858 36894
" />
<path d="M35858 36894
L35858 31382
" />
<path d="M26488 31382
L32000 31382
" />
<path d="M32000 31382
L32000 36894
" />
<path d="M32000 36894
L26488 36894
" />
<path d="M26488 36894
L26488 31382
" />
<path d="M17118 31382
L22630 31382
" />
<path d="M22630 31382
L22630 36894
" />
<path d="M22630 36894
L17118 36894
" />
<path d="M17118 36894
L17118 31382
" />
<path d="M63031 23886
L68543 23886
" />
<path d="M68543 23886
L68543 29398
" />
<path d="M68543 29398
L63031 29398
" />
<path d="M63031 29398
L63031 23886
" />
<path d="M55535 23886
L61047 23886
" />
<path d="M61047 23886
L61047 29398
" />
<path d="M61047 29398
L55535 29398
" />
<path d="M55535 29398
L55535 23886
" />
<path d="M48039 23886
L53551 23886
" />
<path d="M53551 23886
L53551 29398
" />
<path d="M53551 29398
L48039 29398
" />
<path d="M48039 29398
L48039 23886
" />
<path d="M40543 23886
L46055 23886
" />
<path d="M46055 23886
L46055 29398
" />
<path d="M46055 29398
L40543 29398
" />
<path d="M40543 29398
L40543 23886
" />
<path d="M33047 23886
L38559 23886
" />
<path d="M38559 23886
L38559 29398
" />
<path d="M38559 29398
L33047 29398
" />
<path d="M33047 29398
L33047 23886
" />
<path d="M25551 23886
L31063 23886
" />
<path d="M31063 23886
L31063 29398
" />
<path d="M31063 29398
L25551 29398
" />
<path d="M25551 29398
L25551 23886
" />
<path d="M17118 23886
L22630 23886
" />
<path d="M22630 23886
L22630 29398
" />
<path d="M22630 29398
L17118 29398
" />
<path d="M17118 29398
L17118 23886
" />
<path d="M59283 16390
L64795 16390
" />
<path d="M64795 16390
L64795 21901
" />
<path d="M64795 21901
L59283 21901
" />
<path d="M59283 21901
L59283 16390
" />
<path d="M51787 16390
L57299 16390
" />
<path d="M57299 16390
L57299 21901
" />
<path d="M57299 21901
L51787 21901
" />
<path d="M51787 21901
L51787 16390
" />
<path d="M44291 16390
L49803 16390
" />
<path d="M49803 16390
L49803 21901
" />
<path d="M49803 21901
L44291 21901
" />
<path d="M44291 21901
L44291 16390
" />
<path d="M18992 16390
L24504 16390
" />
<path d="M24504 16390
L24504 21901
" />
<path d="M24504 21901
L18992 21901
" />
<path d="M18992 21901
L18992 16390
" />
<path d="M57409 8894
L62921 8894
" />
<path d="M62921 8894
L62921 14405
" />
<path d="M62921 14405
L57409 14405
" />
<path d="M57409 14405
L57409 8894
" />
<path d="M49913 8894
L55425 8894
" />
<path d="M55425 8894
L55425 14405
" />
<path d="M55425 14405
L49913 14405
" />
<path d="M49913 14405
L49913 8894
" />
<path d="M61157 1398
L66669 1398
" />
<path d="M66669 1398
L66669 6909
" />
<path d="M66669 6909
L61157 6909
" />
<path d="M61157 6909
L61157 1398
" />
<path d="M42417 8894
L47929 8894
" />
<path d="M47929 8894
L47929 14405
" />
<path d="M47929 14405
L42417 14405
" />
<path d="M42417 14405
L42417 8894
" />
<path d="M34921 8894
L40433 8894
" />
<path d="M40433 8894
L40433 14405
" />
<path d="M40433 14405
L34921 14405
" />
<path d="M34921 14405
L34921 8894
" />
<path d="M27425 8894
L32937 8894
" />
<path d="M32937 8894
L32937 14405
" />
<path d="M32937 14405
L27425 14405
" />
<path d="M27425 14405
L27425 8894
" />
<path d="M36795 16390
L42307 16390
" />
<path d="M42307 16390
L42307 21901
" />
<path d="M42307 21901
L36795 21901
" />
<path d="M36795 21901
L36795 16390
" />
<path d="M29299 16390
L34811 16390
" />
<path d="M34811 16390
L34811 21901
" />
<path d="M34811 21901
L29299 21901
" />
<path d="M29299 21901
L29299 16390
" />
<path d="M18055 8894
L23567 8894
" />
<path d="M23567 8894
L23567 14405
" />
<path d="M23567 14405
L18055 14405
" />
<path d="M18055 14405
L18055 8894
" />
<path d="M53661 1398
L59173 1398
" />
<path d="M59173 1398
L59173 6909
" />
<path d="M59173 6909
L53661 6909
" />
<path d="M53661 6909
L53661 1398
" />
<path d="M46165 1398
L51677 1398
" />
<path d="M51677 1398
L51677 6909
" />
<path d="M51677 6909
L46165 6909
" />
<path d="M46165 6909
L46165 1398
" />
<path d="M38669 1398
L44181 1398
" />
<path d="M44181 1398
L44181 6909
" />
<path d="M44181 6909
L38669 6909
" />
<path d="M38669 6909
L38669 1398
" />
<path d="M31173 1398
L36685 1398
" />
<path d="M36685 1398
L36685 6909
" />
<path d="M36685 6909
L31173 6909
" />
<path d="M31173 6909
L31173 1398
" />
<path d="M23677 1398
L29189 1398
" />
<path d="M29189 1398
L29189 6909
" />
<path d="M29189 6909
L23677 6909
" />
<path d="M23677 6909
L23677 1398
" />
<path d="M16181 1398
L21693 1398
" />
<path d="M21693 1398
L21693 6909
" />
<path d="M21693 6909
L16181 6909
" />
<path d="M16181 6909
L16181 1398
" />
<g >
</g>
<g >
</g>
<g >
</g>
<g >
</g>
<g >
</g>
<g >
</g>
<g >
</g>
<g >
</g>
<g >
</g>
<g >
</g>
<g >
</g>
<g >
</g>
<g >
</g>
<g >
</g>
<g >
</g>
<g >
</g>
<g >
</g>
<g >
</g>
<g >
</g>
<g >
</g>
<g >
</g>
<g >
</g>
<g >
</g>
<g >
</g>
<g >
</g>
<g >
</g>
<g >
</g>
<g >
</g>
<g >
</g>
<g >
</g>
<g >
</g>
<g >
</g>
<g >
</g>
<g >
</g>
<g >
</g>
<g >
</g>
<g >
</g>
<g >
</g>
<g >
</g>
<g >
</g>
<g >
</g>
<g >
</g>
<g >
</g>
<g >
</g>
<g >
</g>
<g >
</g>
<g >
</g>
<g >
</g>
<g >
</g>
<g >
</g>
<g >
</g>
<g >
</g>
<g >
</g>
<g >
</g>
<g >
</g>
<g >
</g>
<g >
</g>
<g >
</g>
<g >
</g>
<g >
</g>
<g >
</g>
<g >
</g>
<g >
</g>
<g >
</g>
<g >
</g>
<g >
</g>
<g >
</g>
<g >
</g>
<g >
</g>
<g >
</g>
<g >
</g>
<g >
</g>
<g >
</g>
<g >
</g>
<g >
</g>
<g >
</g>
<g >
</g>
<g >
</g>
</g> 
</svg>
